<svg width="116" height="51" viewBox="0 0 116 51" fill="none" xmlns="http://www.w3.org/2000/svg">
<path d="M35.2654 12V1.15H38.8536C39.6028 1.15 40.3055 1.29208 40.9616 1.57625C41.6178 1.85525 42.1939 2.24533 42.6899 2.7465C43.1859 3.2425 43.5734 3.81858 43.8524 4.47475C44.1366 5.12575 44.2786 5.82583 44.2786 6.575C44.2786 7.32417 44.1366 8.02683 43.8524 8.683C43.5734 9.334 43.1859 9.91008 42.6899 10.4112C42.1939 10.9072 41.6178 11.2973 40.9616 11.5815C40.3055 11.8605 39.6028 12 38.8536 12H35.2654ZM36.8774 10.388H38.8536C39.3806 10.388 39.8715 10.2898 40.3261 10.0935C40.786 9.89717 41.1916 9.62333 41.5429 9.272C41.8994 8.92067 42.1758 8.51508 42.3721 8.05525C42.5685 7.59542 42.6666 7.102 42.6666 6.575C42.6666 6.048 42.5685 5.55458 42.3721 5.09475C42.1758 4.63492 41.8994 4.22933 41.5429 3.878C41.1916 3.52667 40.786 3.25283 40.3261 3.0565C39.8715 2.86017 39.3806 2.762 38.8536 2.762H36.8774V10.388ZM46.0385 4.25H47.6505V12H46.0385V4.25ZM46.86 3.12625C46.612 3.12625 46.4053 3.04617 46.24 2.886C46.0747 2.72583 45.992 2.52433 45.992 2.2815C45.992 2.04383 46.0747 1.84492 46.24 1.68475C46.4053 1.51942 46.6094 1.43675 46.8522 1.43675C47.0899 1.43675 47.2914 1.51942 47.4567 1.68475C47.6221 1.84492 47.7047 2.04383 47.7047 2.2815C47.7047 2.52433 47.6221 2.72583 47.4567 2.886C47.2966 3.04617 47.0977 3.12625 46.86 3.12625ZM55.7313 4.25H57.3433V12.2015C57.3433 12.7337 57.2297 13.2245 57.0023 13.674C56.7802 14.1235 56.4779 14.511 56.0956 14.8365C55.7132 15.1672 55.2741 15.4229 54.7781 15.6038C54.2872 15.7846 53.7732 15.875 53.2358 15.875C52.6933 15.875 52.1715 15.7588 51.6703 15.5263C51.1692 15.2989 50.7274 14.9889 50.3451 14.5963C49.9679 14.2036 49.6863 13.7593 49.5003 13.2633L50.9806 12.5968C51.0839 12.9171 51.2492 13.2013 51.4766 13.4493C51.7091 13.6973 51.9777 13.8936 52.2826 14.0383C52.5926 14.1829 52.9103 14.2553 53.2358 14.2553C53.5562 14.2553 53.8636 14.2036 54.1581 14.1003C54.4577 14.0021 54.7238 13.8626 54.9563 13.6818C55.194 13.5009 55.3826 13.2839 55.5221 13.0308C55.6616 12.7776 55.7313 12.5012 55.7313 12.2015V10.8917C55.4782 11.2844 55.1527 11.6022 54.7548 11.845C54.357 12.0827 53.8946 12.2015 53.3676 12.2015C52.8199 12.2015 52.3032 12.0956 51.8176 11.8837C51.3319 11.6719 50.9057 11.38 50.5388 11.008C50.172 10.6308 49.8852 10.1968 49.6786 9.706C49.4719 9.21517 49.3686 8.68817 49.3686 8.125C49.3686 7.56183 49.4719 7.03483 49.6786 6.544C49.8852 6.048 50.172 5.614 50.5388 5.242C50.9057 4.86483 51.3319 4.57033 51.8176 4.3585C52.3032 4.14667 52.8199 4.04075 53.3676 4.04075C53.8946 4.04075 54.357 4.16217 54.7548 4.405C55.1527 4.64267 55.4782 4.96042 55.7313 5.35825V4.25ZM53.3831 10.6437C53.8326 10.6437 54.2252 10.5301 54.5611 10.3027C54.8969 10.0702 55.1578 9.76283 55.3438 9.3805C55.5298 8.99817 55.6228 8.57967 55.6228 8.125C55.6228 7.66 55.5272 7.23892 55.3361 6.86175C55.1501 6.47942 54.8892 6.17458 54.5533 5.94725C54.2175 5.71475 53.8274 5.5985 53.3831 5.5985C52.9491 5.5985 52.5512 5.71217 52.1896 5.9395C51.8331 6.16683 51.5489 6.47167 51.3371 6.854C51.1252 7.23633 51.0193 7.66 51.0193 8.125C51.0193 8.59 51.1252 9.01367 51.3371 9.396C51.5541 9.77833 51.8408 10.0832 52.1973 10.3105C52.559 10.5327 52.9542 10.6437 53.3831 10.6437ZM59.532 4.25H61.144V12H59.532V4.25ZM60.3535 3.12625C60.1055 3.12625 59.8988 3.04617 59.7335 2.886C59.5681 2.72583 59.4855 2.52433 59.4855 2.2815C59.4855 2.04383 59.5681 1.84492 59.7335 1.68475C59.8988 1.51942 60.1029 1.43675 60.3457 1.43675C60.5834 1.43675 60.7849 1.51942 60.9502 1.68475C61.1156 1.84492 61.1982 2.04383 61.1982 2.2815C61.1982 2.52433 61.1156 2.72583 60.9502 2.886C60.7901 3.04617 60.5911 3.12625 60.3535 3.12625ZM67.5553 5.862H65.9278L65.92 12H64.308L64.3158 5.862H63.0835V4.25H64.3158L64.308 1.8165H65.92L65.9278 4.25H67.5553V5.862ZM75.2556 4.25H76.8676V12H75.2479L75.1859 10.8762C74.9585 11.2741 74.6511 11.5944 74.2636 11.8372C73.8761 12.0801 73.4189 12.2015 72.8919 12.2015C72.3235 12.2015 71.7888 12.0956 71.2876 11.8837C70.7865 11.6667 70.3447 11.3671 69.9624 10.9847C69.5852 10.6024 69.2907 10.1632 69.0789 9.66725C68.867 9.16608 68.7611 8.62875 68.7611 8.05525C68.7611 7.50242 68.8645 6.98317 69.0711 6.4975C69.2778 6.00667 69.5645 5.57783 69.9314 5.211C70.2982 4.84417 70.7219 4.55742 71.2024 4.35075C71.688 4.13892 72.2073 4.033 72.7601 4.033C73.3233 4.033 73.8193 4.16217 74.2481 4.4205C74.6821 4.67367 75.0412 4.99917 75.3254 5.397L75.2556 4.25ZM72.8531 10.6437C73.3078 10.6437 73.7056 10.5327 74.0466 10.3105C74.3876 10.0832 74.6511 9.77833 74.8371 9.396C75.0283 9.01367 75.1239 8.59 75.1239 8.125C75.1239 7.65483 75.0283 7.22858 74.8371 6.84625C74.646 6.46392 74.3799 6.16167 74.0389 5.9395C73.703 5.71217 73.3078 5.5985 72.8531 5.5985C72.4036 5.5985 71.9929 5.71217 71.6209 5.9395C71.2489 6.16683 70.9544 6.47167 70.7374 6.854C70.5204 7.23633 70.4119 7.66 70.4119 8.125C70.4119 8.59517 70.523 9.02142 70.7451 9.40375C70.9725 9.78092 71.2695 10.0832 71.6364 10.3105C72.0084 10.5327 72.414 10.6437 72.8531 10.6437ZM78.9397 12V0.374999H80.5517V12H78.9397ZM4.86159 20.15H6.74484L10.6896 31H8.98459L8.23284 28.9385H3.37359L2.62959 31H0.916845L4.86159 20.15ZM3.97034 27.3265H7.63609L5.79934 22.289L3.97034 27.3265ZM13.8995 34.875H12.2875V23.25H13.8995V24.3892C14.1579 23.9914 14.4885 23.6685 14.8915 23.4205C15.2945 23.1725 15.7699 23.0485 16.3175 23.0485C16.8807 23.0485 17.4077 23.1544 17.8985 23.3662C18.3945 23.5781 18.8285 23.8726 19.2005 24.2497C19.5725 24.6217 19.8645 25.0532 20.0763 25.544C20.2881 26.0348 20.394 26.5618 20.394 27.125C20.394 27.6882 20.2881 28.2177 20.0763 28.7137C19.8645 29.2097 19.5725 29.6463 19.2005 30.0235C18.8285 30.3955 18.3945 30.6874 17.8985 30.8992C17.4077 31.1111 16.8807 31.217 16.3175 31.217C15.7699 31.217 15.2945 31.093 14.8915 30.845C14.4885 30.5918 14.1579 30.2689 13.8995 29.8762V34.875ZM16.302 24.6062C15.8525 24.6062 15.4573 24.7199 15.1163 24.9472C14.7753 25.1746 14.5092 25.4794 14.318 25.8617C14.1269 26.2389 14.0313 26.66 14.0313 27.125C14.0313 27.59 14.1269 28.0137 14.318 28.396C14.5092 28.7783 14.7753 29.0832 15.1163 29.3105C15.4573 29.5378 15.8525 29.6515 16.302 29.6515C16.7464 29.6515 17.1545 29.5404 17.5265 29.3182C17.8985 29.0909 18.1956 28.7861 18.4178 28.4037C18.64 28.0214 18.751 27.5952 18.751 27.125C18.751 26.6652 18.64 26.2441 18.4178 25.8617C18.2008 25.4794 17.9063 25.1746 17.5343 24.9472C17.1623 24.7199 16.7515 24.6062 16.302 24.6062ZM23.7342 34.875H22.1222V23.25H23.7342V24.3892C23.9925 23.9914 24.3232 23.6685 24.7262 23.4205C25.1292 23.1725 25.6045 23.0485 26.1522 23.0485C26.7153 23.0485 27.2423 23.1544 27.7332 23.3662C28.2292 23.5781 28.6632 23.8726 29.0352 24.2497C29.4072 24.6217 29.6991 25.0532 29.9109 25.544C30.1228 26.0348 30.2287 26.5618 30.2287 27.125C30.2287 27.6882 30.1228 28.2177 29.9109 28.7137C29.6991 29.2097 29.4072 29.6463 29.0352 30.0235C28.6632 30.3955 28.2292 30.6874 27.7332 30.8992C27.2423 31.1111 26.7153 31.217 26.1522 31.217C25.6045 31.217 25.1292 31.093 24.7262 30.845C24.3232 30.5918 23.9925 30.2689 23.7342 29.8762V34.875ZM26.1367 24.6062C25.6872 24.6062 25.2919 24.7199 24.9509 24.9472C24.6099 25.1746 24.3438 25.4794 24.1527 25.8617C23.9615 26.2389 23.8659 26.66 23.8659 27.125C23.8659 27.59 23.9615 28.0137 24.1527 28.396C24.3438 28.7783 24.6099 29.0832 24.9509 29.3105C25.2919 29.5378 25.6872 29.6515 26.1367 29.6515C26.581 29.6515 26.9892 29.5404 27.3612 29.3182C27.7332 29.0909 28.0303 28.7861 28.2524 28.4037C28.4746 28.0214 28.5857 27.5952 28.5857 27.125C28.5857 26.6652 28.4746 26.2441 28.2524 25.8617C28.0354 25.4794 27.7409 25.1746 27.3689 24.9472C26.9969 24.7199 26.5862 24.6062 26.1367 24.6062ZM31.8508 31V19.375H33.4628V31H31.8508ZM35.7822 23.25H37.3942V31H35.7822V23.25ZM36.6037 22.1262C36.3557 22.1262 36.149 22.0462 35.9837 21.886C35.8183 21.7258 35.7357 21.5243 35.7357 21.2815C35.7357 21.0438 35.8183 20.8449 35.9837 20.6847C36.149 20.5194 36.3531 20.4367 36.5959 20.4367C36.8336 20.4367 37.0351 20.5194 37.2004 20.6847C37.3657 20.8449 37.4484 21.0438 37.4484 21.2815C37.4484 21.5243 37.3657 21.7258 37.2004 21.886C37.0402 22.0462 36.8413 22.1262 36.6037 22.1262ZM44.638 28.799L46.0795 29.5817C45.7282 30.0726 45.2812 30.4652 44.7387 30.7597C44.2014 31.0542 43.6176 31.2015 42.9872 31.2015C42.2742 31.2015 41.6232 31.0181 41.0342 30.6512C40.4504 30.2844 39.9828 29.7936 39.6315 29.1787C39.2853 28.5587 39.1122 27.8742 39.1122 27.125C39.1122 26.5567 39.213 26.0271 39.4145 25.5362C39.616 25.0402 39.8924 24.6062 40.2437 24.2342C40.6002 23.8571 41.0136 23.5626 41.4837 23.3507C41.9539 23.1389 42.4551 23.033 42.9872 23.033C43.6176 23.033 44.2014 23.1802 44.7387 23.4747C45.2812 23.7692 45.7282 24.1645 46.0795 24.6605L44.638 25.4432C44.421 25.1849 44.1678 24.9886 43.8785 24.8542C43.5892 24.7147 43.2921 24.645 42.9872 24.645C42.5636 24.645 42.1787 24.7612 41.8325 24.9937C41.4915 25.2211 41.2202 25.5233 41.0187 25.9005C40.8224 26.2725 40.7242 26.6807 40.7242 27.125C40.7242 27.5642 40.825 27.9723 41.0265 28.3495C41.228 28.7215 41.4992 29.0212 41.8402 29.2485C42.1864 29.4758 42.5687 29.5895 42.9872 29.5895C43.3076 29.5895 43.6124 29.5172 43.9017 29.3725C44.1911 29.2278 44.4365 29.0367 44.638 28.799ZM53.7763 23.25H55.3883V31H53.7686L53.7066 29.8762C53.4792 30.2741 53.1718 30.5944 52.7843 30.8372C52.3968 31.0801 51.9396 31.2015 51.4126 31.2015C50.8442 31.2015 50.3095 31.0956 49.8083 30.8837C49.3072 30.6667 48.8654 30.3671 48.4831 29.9847C48.1059 29.6024 47.8114 29.1632 47.5996 28.6672C47.3877 28.1661 47.2818 27.6287 47.2818 27.0552C47.2818 26.5024 47.3852 25.9832 47.5918 25.4975C47.7985 25.0067 48.0852 24.5778 48.4521 24.211C48.8189 23.8442 49.2426 23.5574 49.7231 23.3507C50.2087 23.1389 50.728 23.033 51.2808 23.033C51.844 23.033 52.34 23.1622 52.7688 23.4205C53.2028 23.6737 53.5619 23.9992 53.8461 24.397L53.7763 23.25ZM51.3738 29.6437C51.8285 29.6437 52.2263 29.5327 52.5673 29.3105C52.9083 29.0832 53.1718 28.7783 53.3578 28.396C53.549 28.0137 53.6446 27.59 53.6446 27.125C53.6446 26.6548 53.549 26.2286 53.3578 25.8462C53.1667 25.4639 52.9006 25.1617 52.5596 24.9395C52.2237 24.7122 51.8285 24.5985 51.3738 24.5985C50.9243 24.5985 50.5136 24.7122 50.1416 24.9395C49.7696 25.1668 49.4751 25.4717 49.2581 25.854C49.0411 26.2363 48.9326 26.66 48.9326 27.125C48.9326 27.5952 49.0437 28.0214 49.2658 28.4037C49.4932 28.7809 49.7902 29.0832 50.1571 29.3105C50.5291 29.5327 50.9347 29.6437 51.3738 29.6437ZM61.4918 24.862H59.8643L59.8566 31H58.2446L58.2523 24.862H57.0201V23.25H58.2523L58.2446 20.8165H59.8566L59.8643 23.25H61.4918V24.862ZM63.2383 23.25H64.8503V31H63.2383V23.25ZM64.0598 22.1262C63.8118 22.1262 63.6052 22.0462 63.4398 21.886C63.2745 21.7258 63.1918 21.5243 63.1918 21.2815C63.1918 21.0438 63.2745 20.8449 63.4398 20.6847C63.6052 20.5194 63.8093 20.4367 64.0521 20.4367C64.2898 20.4367 64.4913 20.5194 64.6566 20.6847C64.8219 20.8449 64.9046 21.0438 64.9046 21.2815C64.9046 21.5243 64.8219 21.7258 64.6566 21.886C64.4964 22.0462 64.2975 22.1262 64.0598 22.1262ZM70.4434 31.2015C69.7304 31.2015 69.0794 31.0181 68.4904 30.6512C67.9066 30.2844 67.439 29.7936 67.0877 29.1787C66.7415 28.5587 66.5684 27.8742 66.5684 27.125C66.5684 26.5567 66.6692 26.0271 66.8707 25.5362C67.0722 25.0402 67.3486 24.6062 67.6999 24.2342C68.0564 23.8571 68.4698 23.5626 68.9399 23.3507C69.4101 23.1389 69.9113 23.033 70.4434 23.033C71.1564 23.033 71.8048 23.2164 72.3887 23.5832C72.9777 23.9501 73.4453 24.4435 73.7914 25.0635C74.1428 25.6835 74.3184 26.3707 74.3184 27.125C74.3184 27.6882 74.2177 28.2152 74.0162 28.706C73.8147 29.1968 73.5357 29.6308 73.1792 30.008C72.8278 30.38 72.4171 30.6719 71.9469 30.8837C71.4819 31.0956 70.9808 31.2015 70.4434 31.2015ZM70.4434 29.5895C70.8723 29.5895 71.2572 29.4758 71.5982 29.2485C71.9392 29.0212 72.2078 28.7215 72.4042 28.3495C72.6057 27.9723 72.7064 27.5642 72.7064 27.125C72.7064 26.6755 72.6031 26.2622 72.3964 25.885C72.1949 25.5078 71.9237 25.2082 71.5827 24.986C71.2417 24.7587 70.8619 24.645 70.4434 24.645C70.0198 24.645 69.6348 24.7587 69.2887 24.986C68.9477 25.2133 68.6764 25.5156 68.4749 25.8927C68.2786 26.2699 68.1804 26.6807 68.1804 27.125C68.1804 27.5848 68.2838 28.0007 68.4904 28.3727C68.6971 28.7447 68.9709 29.0418 69.3119 29.264C69.6581 29.481 70.0353 29.5895 70.4434 29.5895ZM83.0105 26.1407V31H81.3985V26.536C81.3985 26.1898 81.3133 25.8747 81.1428 25.5905C80.9775 25.3063 80.7527 25.0816 80.4685 24.9162C80.1895 24.7457 79.8744 24.6605 79.523 24.6605C79.182 24.6605 78.8695 24.7457 78.5853 24.9162C78.3011 25.0816 78.0738 25.3063 77.9033 25.5905C77.7328 25.8747 77.6475 26.1898 77.6475 26.536V31H76.0355V23.25H77.6475V24.0715C77.9162 23.7512 78.2469 23.498 78.6395 23.312C79.0322 23.126 79.4559 23.033 79.9105 23.033C80.484 23.033 81.0059 23.1725 81.476 23.4515C81.9462 23.7305 82.3182 24.1051 82.592 24.5752C82.871 25.0454 83.0105 25.5672 83.0105 26.1407ZM87.3475 31.1473C86.9393 31.1214 86.5415 31.0388 86.154 30.8992C85.7665 30.7597 85.4255 30.5712 85.131 30.3335C84.8417 30.0907 84.6247 29.8065 84.48 29.481L85.8518 28.892C85.9189 29.0315 86.0352 29.1684 86.2005 29.3027C86.371 29.4371 86.5699 29.5482 86.7973 29.636C87.0246 29.7187 87.2623 29.76 87.5103 29.76C87.7531 29.76 87.9778 29.7264 88.1845 29.6592C88.3963 29.5869 88.5694 29.4784 88.7038 29.3337C88.8381 29.1891 88.9053 29.016 88.9053 28.8145C88.9053 28.5872 88.8278 28.4115 88.6728 28.2875C88.5229 28.1583 88.3343 28.0602 88.107 27.993C87.8797 27.9258 87.6523 27.8612 87.425 27.7992C86.9187 27.6856 86.4537 27.5306 86.03 27.3342C85.6115 27.1327 85.2783 26.877 85.0303 26.567C84.7823 26.2518 84.6583 25.8669 84.6583 25.4122C84.6583 24.9162 84.7926 24.4874 85.0613 24.1257C85.3299 23.7589 85.6813 23.4773 86.1153 23.281C86.5544 23.0847 87.022 22.9865 87.518 22.9865C88.138 22.9865 88.7063 23.1182 89.223 23.3817C89.7397 23.6452 90.1349 24.0069 90.4088 24.4667L89.13 25.2262C89.0525 25.0712 88.9363 24.9317 88.7813 24.8077C88.6263 24.6837 88.4506 24.5856 88.2543 24.5132C88.0579 24.4357 87.8538 24.3918 87.642 24.3815C87.3785 24.3712 87.1331 24.4022 86.9058 24.4745C86.6836 24.5417 86.5053 24.6502 86.371 24.8C86.2367 24.9498 86.1695 25.141 86.1695 25.3735C86.1695 25.6008 86.2496 25.7713 86.4098 25.885C86.5699 25.9935 86.7714 26.0813 87.0143 26.1485C87.2623 26.2157 87.5154 26.2906 87.7738 26.3732C88.2336 26.5179 88.665 26.6962 89.068 26.908C89.471 27.1147 89.7965 27.3704 90.0445 27.6752C90.2925 27.9801 90.4113 28.3521 90.401 28.7912C90.401 29.2769 90.2538 29.7032 89.9593 30.07C89.6699 30.4368 89.2928 30.7158 88.8278 30.907C88.3628 31.0982 87.8693 31.1783 87.3475 31.1473Z" fill="black"/>
<path d="M97.986 21.2272V23.25H100.311V24.335H97.986V31H96.901V24.335H95.8392V23.25H96.901V21.2272C96.901 20.8501 96.9914 20.5091 97.1722 20.2042C97.3582 19.8942 97.6062 19.6488 97.9162 19.468C98.2262 19.282 98.5698 19.189 98.947 19.189C99.2208 19.189 99.4843 19.2432 99.7375 19.3517C99.9958 19.4602 100.226 19.6204 100.427 19.8322L99.6522 20.5995C99.5695 20.4962 99.4636 20.4161 99.3345 20.3592C99.2105 20.3024 99.0813 20.274 98.947 20.274C98.6835 20.274 98.4561 20.367 98.265 20.553C98.079 20.739 97.986 20.9637 97.986 21.2272ZM105.252 31.2015C104.539 31.2015 103.888 31.0181 103.299 30.6512C102.715 30.2844 102.247 29.7936 101.896 29.1787C101.55 28.5587 101.377 27.8742 101.377 27.125C101.377 26.5567 101.478 26.0271 101.679 25.5362C101.881 25.0402 102.157 24.6062 102.508 24.2342C102.865 23.8571 103.278 23.5626 103.748 23.3507C104.218 23.1389 104.72 23.033 105.252 23.033C105.965 23.033 106.613 23.2164 107.197 23.5832C107.786 23.9501 108.254 24.4435 108.6 25.0635C108.951 25.6835 109.127 26.3707 109.127 27.125C109.127 27.6882 109.026 28.2152 108.825 28.706C108.623 29.1968 108.344 29.6308 107.988 30.008C107.636 30.38 107.225 30.6719 106.755 30.8837C106.29 31.0956 105.789 31.2015 105.252 31.2015ZM105.252 30.1165C105.779 30.1165 106.252 29.9796 106.67 29.7057C107.094 29.4267 107.427 29.0599 107.67 28.6052C107.918 28.1506 108.042 27.6572 108.042 27.125C108.042 26.5825 107.918 26.0839 107.67 25.6292C107.422 25.1694 107.086 24.8026 106.662 24.5287C106.244 24.2549 105.774 24.118 105.252 24.118C104.725 24.118 104.249 24.2575 103.826 24.5365C103.407 24.8103 103.074 25.1746 102.826 25.6292C102.583 26.0839 102.462 26.5825 102.462 27.125C102.462 27.683 102.588 28.1893 102.842 28.644C103.095 29.0935 103.433 29.4526 103.857 29.7212C104.28 29.9847 104.745 30.1165 105.252 30.1165ZM110.904 31V23.25H111.989V24.3195C112.263 23.9268 112.62 23.6142 113.059 23.3817C113.498 23.1492 113.976 23.033 114.493 23.033C114.792 23.033 115.082 23.0717 115.361 23.1492L114.919 24.2265C114.702 24.1593 114.49 24.1257 114.283 24.1257C113.865 24.1257 113.48 24.2291 113.129 24.4357C112.783 24.6424 112.506 24.9188 112.299 25.265C112.093 25.6112 111.989 25.9961 111.989 26.4197V31H110.904Z" fill="#5B5B66"/>
<path d="M38.1612 39.15H39.7732V50H38.1612V44.9935H33.2555V50H31.6435V39.15H33.2555V43.3815H38.1612V39.15ZM41.7887 47.0937V42.25H43.4007V46.6985C43.4007 47.0447 43.486 47.3598 43.6565 47.644C43.827 47.9282 44.0543 48.1555 44.3385 48.326C44.6226 48.4913 44.9352 48.574 45.2762 48.574C45.6224 48.574 45.935 48.4913 46.214 48.326C46.4981 48.1555 46.7229 47.9282 46.8882 47.644C47.0587 47.3598 47.144 47.0447 47.144 46.6985V42.25H48.756L48.7637 50H47.1517L47.144 49.163C46.8805 49.4833 46.5524 49.7365 46.1597 49.9225C45.767 50.1085 45.346 50.2015 44.8965 50.2015C44.323 50.2015 43.8011 50.062 43.331 49.783C42.8608 49.504 42.4862 49.1294 42.2072 48.6592C41.9282 48.1891 41.7887 47.6672 41.7887 47.0937ZM50.783 50V42.25H52.395V43.0715C52.6636 42.7512 52.9917 42.498 53.3792 42.312C53.7719 42.126 54.1955 42.033 54.6502 42.033C55.203 42.033 55.712 42.1673 56.177 42.436C56.642 42.6995 57.0114 43.0508 57.2852 43.49C57.559 43.0508 57.9233 42.6995 58.378 42.436C58.8378 42.1673 59.3441 42.033 59.897 42.033C60.4705 42.033 60.9923 42.1725 61.4625 42.4515C61.9326 42.7305 62.3072 43.1051 62.5862 43.5752C62.8652 44.0454 63.0047 44.5672 63.0047 45.1407V50H61.3927V45.5515C61.3927 45.2105 61.31 44.8979 61.1447 44.6137C60.9794 44.3296 60.7572 44.0997 60.4782 43.924C60.1992 43.7483 59.8892 43.6605 59.5482 43.6605C59.2072 43.6605 58.8972 43.7432 58.6182 43.9085C58.3392 44.0738 58.117 44.2986 57.9517 44.5827C57.7864 44.8669 57.7037 45.1898 57.7037 45.5515V50H56.0917V45.5515C56.0917 45.1898 56.009 44.8669 55.8437 44.5827C55.6784 44.2986 55.4536 44.0738 55.1695 43.9085C54.8905 43.7432 54.5805 43.6605 54.2395 43.6605C53.9036 43.6605 53.5936 43.7483 53.3095 43.924C53.0305 44.0997 52.8083 44.3296 52.643 44.6137C52.4776 44.8979 52.395 45.2105 52.395 45.5515V50H50.783ZM70.9005 42.25H72.5125V50H70.8927L70.8307 48.8762C70.6034 49.2741 70.296 49.5944 69.9085 49.8372C69.521 50.0801 69.0637 50.2015 68.5367 50.2015C67.9684 50.2015 67.4337 50.0956 66.9325 49.8837C66.4313 49.6667 65.9896 49.3671 65.6072 48.9847C65.2301 48.6024 64.9356 48.1632 64.7237 47.6672C64.5119 47.1661 64.406 46.6287 64.406 46.0552C64.406 45.5024 64.5093 44.9832 64.716 44.4975C64.9227 44.0067 65.2094 43.5778 65.5762 43.211C65.9431 42.8442 66.3667 42.5574 66.8472 42.3507C67.3329 42.1389 67.8522 42.033 68.405 42.033C68.9682 42.033 69.4642 42.1622 69.893 42.4205C70.327 42.6737 70.6861 42.9992 70.9702 43.397L70.9005 42.25ZM68.498 48.6437C68.9527 48.6437 69.3505 48.5327 69.6915 48.3105C70.0325 48.0832 70.296 47.7783 70.482 47.396C70.6732 47.0137 70.7687 46.59 70.7687 46.125C70.7687 45.6548 70.6732 45.2286 70.482 44.8462C70.2908 44.4639 70.0247 44.1617 69.6837 43.9395C69.3479 43.7122 68.9527 43.5985 68.498 43.5985C68.0485 43.5985 67.6377 43.7122 67.2657 43.9395C66.8937 44.1668 66.5992 44.4717 66.3822 44.854C66.1652 45.2363 66.0567 45.66 66.0567 46.125C66.0567 46.5952 66.1678 47.0214 66.39 47.4037C66.6173 47.7809 66.9144 48.0832 67.2812 48.3105C67.6532 48.5327 68.0588 48.6437 68.498 48.6437ZM81.499 45.1407V50H79.887V45.536C79.887 45.1898 79.8017 44.8747 79.6312 44.5905C79.4659 44.3063 79.2412 44.0816 78.957 43.9162C78.678 43.7457 78.3628 43.6605 78.0115 43.6605C77.6705 43.6605 77.3579 43.7457 77.0737 43.9162C76.7896 44.0816 76.5622 44.3063 76.3917 44.5905C76.2212 44.8747 76.136 45.1898 76.136 45.536V50H74.524V42.25H76.136V43.0715C76.4047 42.7512 76.7353 42.498 77.128 42.312C77.5207 42.126 77.9443 42.033 78.399 42.033C78.9725 42.033 79.4943 42.1725 79.9645 42.4515C80.4347 42.7305 80.8067 43.1051 81.0805 43.5752C81.3595 44.0454 81.499 44.5672 81.499 45.1407ZM85.836 50.1473C85.4278 50.1214 85.03 50.0388 84.6425 49.8992C84.255 49.7597 83.914 49.5712 83.6195 49.3335C83.3301 49.0907 83.1131 48.8065 82.9685 48.481L84.3402 47.892C84.4074 48.0315 84.5236 48.1684 84.689 48.3027C84.8595 48.4371 85.0584 48.5482 85.2857 48.636C85.513 48.7187 85.7507 48.76 85.9987 48.76C86.2415 48.76 86.4663 48.7264 86.673 48.6592C86.8848 48.5869 87.0579 48.4784 87.1922 48.3337C87.3265 48.1891 87.3937 48.016 87.3937 47.8145C87.3937 47.5872 87.3162 47.4115 87.1612 47.2875C87.0114 47.1583 86.8228 47.0602 86.5955 46.993C86.3681 46.9258 86.1408 46.8612 85.9135 46.7992C85.4071 46.6856 84.9421 46.5306 84.5185 46.3342C84.1 46.1327 83.7667 45.877 83.5187 45.567C83.2707 45.2518 83.1467 44.8669 83.1467 44.4122C83.1467 43.9162 83.281 43.4874 83.5497 43.1257C83.8184 42.7589 84.1697 42.4773 84.6037 42.281C85.0429 42.0847 85.5105 41.9865 86.0065 41.9865C86.6265 41.9865 87.1948 42.1182 87.7115 42.3817C88.2281 42.6452 88.6234 43.0069 88.8972 43.4667L87.6185 44.2262C87.541 44.0712 87.4247 43.9317 87.2697 43.8077C87.1147 43.6837 86.939 43.5856 86.7427 43.5132C86.5464 43.4357 86.3423 43.3918 86.1305 43.3815C85.867 43.3712 85.6215 43.4022 85.3942 43.4745C85.172 43.5417 84.9938 43.6502 84.8595 43.8C84.7251 43.9498 84.658 44.141 84.658 44.3735C84.658 44.6008 84.738 44.7713 84.8982 44.885C85.0584 44.9935 85.2599 45.0813 85.5027 45.1485C85.7507 45.2157 86.0039 45.2906 86.2622 45.3732C86.722 45.5179 87.1535 45.6962 87.5565 45.908C87.9595 46.1147 88.285 46.3704 88.533 46.6752C88.781 46.9801 88.8998 47.3521 88.8895 47.7912C88.8895 48.2769 88.7422 48.7032 88.4477 49.07C88.1584 49.4368 87.7812 49.7158 87.3162 49.907C86.8512 50.0982 86.3578 50.1783 85.836 50.1473Z" fill="#8F00FF"/>
</svg>
