<svg width="94" height="101" viewBox="0 0 94 101" fill="none" xmlns="http://www.w3.org/2000/svg">
<path d="M3.315 8.13C2.755 8.13 2.27167 7.99333 1.865 7.72C1.45833 7.44667 1.145 7.08 0.925 6.62C0.708333 6.15667 0.6 5.64333 0.6 5.08V1H1.3V5.08C1.3 5.50667 1.37833 5.89833 1.535 6.255C1.69167 6.61167 1.92 6.89667 2.22 7.11C2.52 7.32333 2.885 7.43 3.315 7.43C3.755 7.43 4.12333 7.32333 4.42 7.11C4.72 6.89333 4.94667 6.60667 5.1 6.25C5.25333 5.89333 5.33 5.50333 5.33 5.08V1H6.03V5.08C6.03 5.50333 5.96667 5.9 5.84 6.27C5.71667 6.63667 5.53667 6.96 5.3 7.24C5.06667 7.52 4.78167 7.73833 4.445 7.895C4.11167 8.05167 3.735 8.13 3.315 8.13ZM11.5225 4.905V8H10.8225V5.045C10.8225 4.77167 10.7558 4.52333 10.6225 4.3C10.4892 4.07667 10.3108 3.89833 10.0875 3.765C9.86417 3.63167 9.61583 3.565 9.3425 3.565C9.0725 3.565 8.82417 3.63167 8.5975 3.765C8.37417 3.89833 8.19583 4.07667 8.0625 4.3C7.92917 4.52333 7.8625 4.77167 7.8625 5.045V8H7.1625V3H7.8625V3.69C8.03917 3.43667 8.26917 3.235 8.5525 3.085C8.83583 2.935 9.14417 2.86 9.4775 2.86C9.85417 2.86 10.1975 2.95167 10.5075 3.135C10.8175 3.31833 11.0642 3.565 11.2475 3.875C11.4308 4.185 11.5225 4.52833 11.5225 4.905ZM12.5922 8V0.499999H13.2922V8H12.5922ZM16.6574 8.13C16.1974 8.13 15.7774 8.01167 15.3974 7.775C15.0208 7.53833 14.7191 7.22167 14.4924 6.825C14.2691 6.425 14.1574 5.98333 14.1574 5.5C14.1574 5.13333 14.2224 4.79167 14.3524 4.475C14.4824 4.155 14.6608 3.875 14.8874 3.635C15.1174 3.39167 15.3841 3.20167 15.6874 3.065C15.9908 2.92833 16.3141 2.86 16.6574 2.86C17.1174 2.86 17.5358 2.97833 17.9124 3.215C18.2924 3.45167 18.5941 3.77 18.8174 4.17C19.0441 4.57 19.1574 5.01333 19.1574 5.5C19.1574 5.86333 19.0924 6.20333 18.9624 6.52C18.8324 6.83667 18.6524 7.11667 18.4224 7.36C18.1958 7.6 17.9308 7.78833 17.6274 7.925C17.3274 8.06167 17.0041 8.13 16.6574 8.13ZM16.6574 7.43C16.9974 7.43 17.3024 7.34167 17.5724 7.165C17.8458 6.985 18.0608 6.74833 18.2174 6.455C18.3774 6.16167 18.4574 5.84333 18.4574 5.5C18.4574 5.15 18.3774 4.82833 18.2174 4.535C18.0574 4.23833 17.8408 4.00167 17.5674 3.825C17.2974 3.64833 16.9941 3.56 16.6574 3.56C16.3174 3.56 16.0108 3.65 15.7374 3.83C15.4674 4.00667 15.2524 4.24167 15.0924 4.535C14.9358 4.82833 14.8574 5.15 14.8574 5.5C14.8574 5.86 14.9391 6.18667 15.1024 6.48C15.2658 6.77 15.4841 7.00167 15.7574 7.175C16.0308 7.345 16.3308 7.43 16.6574 7.43ZM23.5255 6.745L24.1505 7.085C23.9238 7.40167 23.6355 7.655 23.2855 7.845C22.9388 8.035 22.5621 8.13 22.1555 8.13C21.6955 8.13 21.2755 8.01167 20.8955 7.775C20.5188 7.53833 20.2171 7.22167 19.9905 6.825C19.7671 6.425 19.6555 5.98333 19.6555 5.5C19.6555 5.13333 19.7205 4.79167 19.8505 4.475C19.9805 4.155 20.1588 3.875 20.3855 3.635C20.6155 3.39167 20.8821 3.20167 21.1855 3.065C21.4888 2.92833 21.8121 2.86 22.1555 2.86C22.5621 2.86 22.9388 2.955 23.2855 3.145C23.6355 3.335 23.9238 3.59 24.1505 3.91L23.5255 4.245C23.3521 4.025 23.1438 3.85667 22.9005 3.74C22.6571 3.62 22.4088 3.56 22.1555 3.56C21.8188 3.56 21.5138 3.65 21.2405 3.83C20.9671 4.00667 20.7505 4.24167 20.5905 4.535C20.4338 4.82833 20.3555 5.15 20.3555 5.5C20.3555 5.85 20.4355 6.17167 20.5955 6.465C20.7588 6.75833 20.9771 6.99333 21.2505 7.17C21.5238 7.34333 21.8255 7.43 22.1555 7.43C22.4288 7.43 22.6855 7.36667 22.9255 7.24C23.1655 7.11333 23.3655 6.94833 23.5255 6.745ZM28.8898 8H28.0848L26.6848 5.585L25.6848 6.78V8H24.9848V0.499999H25.6848V5.69L27.9398 3H28.8548L27.1598 5.015L28.8898 8ZM34.4992 8.13C34.0392 8.13 33.6192 8.01167 33.2392 7.775C32.8626 7.53833 32.5609 7.22167 32.3342 6.825C32.1109 6.425 31.9992 5.98333 31.9992 5.5C31.9992 5.13333 32.0642 4.79167 32.1942 4.475C32.3242 4.155 32.5026 3.875 32.7292 3.635C32.9592 3.39167 33.2259 3.20167 33.5292 3.065C33.8326 2.92833 34.1559 2.86 34.4992 2.86C34.9592 2.86 35.3776 2.97833 35.7542 3.215C36.1342 3.45167 36.4359 3.77 36.6592 4.17C36.8859 4.57 36.9992 5.01333 36.9992 5.5C36.9992 5.86333 36.9342 6.20333 36.8042 6.52C36.6742 6.83667 36.4942 7.11667 36.2642 7.36C36.0376 7.6 35.7726 7.78833 35.4692 7.925C35.1692 8.06167 34.8459 8.13 34.4992 8.13ZM34.4992 7.43C34.8392 7.43 35.1442 7.34167 35.4142 7.165C35.6876 6.985 35.9026 6.74833 36.0592 6.455C36.2192 6.16167 36.2992 5.84333 36.2992 5.5C36.2992 5.15 36.2192 4.82833 36.0592 4.535C35.8992 4.23833 35.6826 4.00167 35.4092 3.825C35.1392 3.64833 34.8359 3.56 34.4992 3.56C34.1592 3.56 33.8526 3.65 33.5792 3.83C33.3092 4.00667 33.0942 4.24167 32.9342 4.535C32.7776 4.82833 32.6992 5.15 32.6992 5.5C32.6992 5.86 32.7809 6.18667 32.9442 6.48C33.1076 6.77 33.3259 7.00167 33.5992 7.175C33.8726 7.345 34.1726 7.43 34.4992 7.43ZM37.5973 6.085V3H38.2973V5.945C38.2973 6.21833 38.3639 6.46667 38.4973 6.69C38.6306 6.91333 38.8089 7.09167 39.0323 7.225C39.2589 7.35833 39.5073 7.425 39.7773 7.425C40.0506 7.425 40.2973 7.35833 40.5173 7.225C40.7406 7.09167 40.9189 6.91333 41.0523 6.69C41.1856 6.46667 41.2523 6.21833 41.2523 5.945V3H41.9523L41.9573 8H41.2573L41.2523 7.3C41.0756 7.55333 40.8456 7.755 40.5623 7.905C40.2823 8.055 39.9756 8.13 39.6423 8.13C39.2656 8.13 38.9223 8.03833 38.6123 7.855C38.3023 7.67167 38.0556 7.425 37.8723 7.115C37.6889 6.805 37.5973 6.46167 37.5973 6.085ZM42.9535 8V3H43.6535V3.69C43.8302 3.43667 44.0602 3.235 44.3435 3.085C44.6268 2.935 44.9352 2.86 45.2685 2.86C45.4618 2.86 45.6485 2.885 45.8285 2.935L45.5435 3.63C45.4035 3.58667 45.2668 3.565 45.1335 3.565C44.8635 3.565 44.6152 3.63167 44.3885 3.765C44.1652 3.89833 43.9868 4.07667 43.8535 4.3C43.7202 4.52333 43.6535 4.77167 43.6535 5.045V8H42.9535ZM52.5001 6.745L53.1251 7.085C52.8984 7.40167 52.6101 7.655 52.2601 7.845C51.9134 8.035 51.5367 8.13 51.1301 8.13C50.6701 8.13 50.2501 8.01167 49.8701 7.775C49.4934 7.53833 49.1917 7.22167 48.9651 6.825C48.7417 6.425 48.6301 5.98333 48.6301 5.5C48.6301 5.13333 48.6951 4.79167 48.8251 4.475C48.9551 4.155 49.1334 3.875 49.3601 3.635C49.5901 3.39167 49.8567 3.20167 50.1601 3.065C50.4634 2.92833 50.7867 2.86 51.1301 2.86C51.5367 2.86 51.9134 2.955 52.2601 3.145C52.6101 3.335 52.8984 3.59 53.1251 3.91L52.5001 4.245C52.3267 4.025 52.1184 3.85667 51.8751 3.74C51.6317 3.62 51.3834 3.56 51.1301 3.56C50.7934 3.56 50.4884 3.65 50.2151 3.83C49.9417 4.00667 49.7251 4.24167 49.5651 4.535C49.4084 4.82833 49.3301 5.15 49.3301 5.5C49.3301 5.85 49.4101 6.17167 49.5701 6.465C49.7334 6.75833 49.9517 6.99333 50.2251 7.17C50.4984 7.34333 50.8001 7.43 51.1301 7.43C51.4034 7.43 51.6601 7.36667 51.9001 7.24C52.1401 7.11333 52.3401 6.94833 52.5001 6.745ZM53.9594 8V0.499999H54.6594V8H53.9594ZM55.8637 3H56.5637V8H55.8637V3ZM56.2187 2.125C56.1053 2.125 56.0087 2.08833 55.9287 2.015C55.852 1.93833 55.8137 1.84333 55.8137 1.73C55.8137 1.61667 55.852 1.52333 55.9287 1.45C56.0087 1.37333 56.1053 1.335 56.2187 1.335C56.3287 1.335 56.422 1.37333 56.4987 1.45C56.5787 1.52333 56.6187 1.61667 56.6187 1.73C56.6187 1.84333 56.5803 1.93833 56.5037 2.015C56.427 2.08833 56.332 2.125 56.2187 2.125ZM59.9191 8.13C59.4591 8.13 59.0391 8.01167 58.6591 7.775C58.2825 7.53833 57.9808 7.22167 57.7541 6.825C57.5308 6.425 57.4191 5.98333 57.4191 5.5C57.4191 5.13333 57.4841 4.79167 57.6141 4.475C57.7441 4.155 57.9225 3.875 58.1491 3.635C58.3791 3.39167 58.6458 3.20167 58.9491 3.065C59.2525 2.92833 59.5758 2.86 59.9191 2.86C60.2891 2.86 60.6291 2.93333 60.9391 3.08C61.2525 3.22667 61.5208 3.43167 61.7441 3.695C61.9708 3.95833 62.1408 4.26667 62.2541 4.62C62.3708 4.97333 62.4191 5.355 62.3991 5.765H58.1591C58.1991 6.08167 58.2991 6.365 58.4591 6.615C58.6225 6.865 58.8291 7.06333 59.0791 7.21C59.3325 7.35333 59.6125 7.42667 59.9191 7.43C60.2525 7.43 60.5525 7.34333 60.8191 7.17C61.0891 6.99667 61.3058 6.75833 61.4691 6.455L62.1791 6.62C61.9791 7.06333 61.6775 7.42667 61.2741 7.71C60.8708 7.99 60.4191 8.13 59.9191 8.13ZM58.1391 5.2H61.6941C61.6708 4.89 61.5758 4.60667 61.4091 4.35C61.2458 4.09 61.0341 3.88333 60.7741 3.73C60.5141 3.57333 60.2291 3.495 59.9191 3.495C59.6091 3.495 59.3258 3.57167 59.0691 3.725C58.8125 3.875 58.6025 4.08 58.4391 4.34C58.2758 4.59667 58.1758 4.88333 58.1391 5.2ZM67.6163 4.905V8H66.9163V5.045C66.9163 4.77167 66.8496 4.52333 66.7163 4.3C66.5829 4.07667 66.4046 3.89833 66.1813 3.765C65.9579 3.63167 65.7096 3.565 65.4363 3.565C65.1663 3.565 64.9179 3.63167 64.6913 3.765C64.4679 3.89833 64.2896 4.07667 64.1563 4.3C64.0229 4.52333 63.9563 4.77167 63.9563 5.045V8H63.2563V3H63.9563V3.69C64.1329 3.43667 64.3629 3.235 64.6463 3.085C64.9296 2.935 65.2379 2.86 65.5713 2.86C65.9479 2.86 66.2913 2.95167 66.6013 3.135C66.9113 3.31833 67.1579 3.565 67.3413 3.875C67.5246 4.185 67.6163 4.52833 67.6163 4.905ZM71.1726 3.7H69.9776L69.9726 8H69.2726L69.2776 3.7H68.3726V3H69.2776L69.2726 1.43H69.9726L69.9776 3H71.1726V3.7ZM73.5708 8.095C73.2974 8.08833 73.0308 8.03833 72.7708 7.945C72.5108 7.85167 72.2841 7.725 72.0908 7.565C71.8974 7.405 71.7591 7.22333 71.6758 7.02L72.2808 6.76C72.3341 6.89 72.4324 7.01 72.5758 7.12C72.7224 7.22667 72.8891 7.31333 73.0758 7.38C73.2624 7.44333 73.4474 7.475 73.6308 7.475C73.8341 7.475 74.0241 7.44167 74.2008 7.375C74.3774 7.30833 74.5208 7.21333 74.6308 7.09C74.7441 6.96333 74.8008 6.815 74.8008 6.645C74.8008 6.46167 74.7408 6.31833 74.6208 6.215C74.5008 6.10833 74.3491 6.025 74.1658 5.965C73.9824 5.90167 73.7941 5.84167 73.6008 5.785C73.2474 5.68833 72.9358 5.58167 72.6658 5.465C72.3958 5.34833 72.1841 5.2 72.0308 5.02C71.8808 4.83667 71.8058 4.60167 71.8058 4.315C71.8058 4.01167 71.8908 3.75 72.0608 3.53C72.2341 3.30667 72.4591 3.135 72.7358 3.015C73.0158 2.89167 73.3141 2.83 73.6308 2.83C74.0374 2.83 74.4074 2.91833 74.7408 3.095C75.0774 3.27167 75.3208 3.50667 75.4708 3.8L74.9058 4.135C74.8458 3.99833 74.7508 3.88 74.6208 3.78C74.4908 3.68 74.3424 3.60167 74.1758 3.545C74.0124 3.48833 73.8458 3.45833 73.6758 3.455C73.4624 3.45167 73.2641 3.48333 73.0808 3.55C72.8974 3.61333 72.7491 3.70833 72.6358 3.835C72.5258 3.96167 72.4708 4.11667 72.4708 4.3C72.4708 4.48333 72.5258 4.62333 72.6358 4.72C72.7458 4.81333 72.8941 4.89 73.0808 4.95C73.2708 5.00667 73.4841 5.07333 73.7208 5.15C74.0241 5.24667 74.3091 5.35667 74.5758 5.48C74.8424 5.60333 75.0574 5.75667 75.2208 5.94C75.3841 6.12333 75.4641 6.355 75.4608 6.635C75.4608 6.935 75.3708 7.19667 75.1908 7.42C75.0108 7.64333 74.7774 7.815 74.4908 7.935C74.2041 8.05167 73.8974 8.105 73.5708 8.095ZM75.9227 3.61L76.2327 1H76.9327L76.3877 3.61H75.9227ZM3.08 17.86C3.56667 17.86 4.00833 17.9783 4.405 18.215C4.805 18.4517 5.12333 18.77 5.36 19.17C5.59667 19.5667 5.715 20.0083 5.715 20.495C5.715 20.8583 5.64667 21.2 5.51 21.52C5.37333 21.8367 5.18333 22.1167 4.94 22.36C4.7 22.6 4.42 22.7883 4.1 22.925C3.78333 23.0617 3.44333 23.13 3.08 23.13C2.66667 23.13 2.31 23.0317 2.01 22.835C1.71 22.6383 1.47333 22.3817 1.3 22.065V23H0.6V15.5H1.3V18.925C1.47333 18.6083 1.71 18.3517 2.01 18.155C2.31 17.9583 2.66667 17.86 3.08 17.86ZM3.075 22.445C3.43167 22.445 3.755 22.3583 4.045 22.185C4.335 22.0083 4.56667 21.7717 4.74 21.475C4.91333 21.1783 5 20.8517 5 20.495C5 20.1283 4.91167 19.7983 4.735 19.505C4.55833 19.2083 4.32333 18.9733 4.03 18.8C3.74 18.6267 3.42167 18.54 3.075 18.54C2.72167 18.54 2.415 18.6283 2.155 18.805C1.89833 18.9817 1.7 19.2183 1.56 19.515C1.42333 19.8117 1.355 20.1383 1.355 20.495C1.355 20.8583 1.425 21.1883 1.565 21.485C1.705 21.7783 1.90333 22.0117 2.16 22.185C2.42 22.3583 2.725 22.445 3.075 22.445ZM6.31797 21.085V18H7.01797V20.945C7.01797 21.2183 7.08464 21.4667 7.21797 21.69C7.3513 21.9133 7.52964 22.0917 7.75297 22.225C7.97964 22.3583 8.22797 22.425 8.49797 22.425C8.7713 22.425 9.01797 22.3583 9.23797 22.225C9.4613 22.0917 9.63964 21.9133 9.77297 21.69C9.9063 21.4667 9.97297 21.2183 9.97297 20.945V18H10.673L10.678 23H9.97797L9.97297 22.3C9.7963 22.5533 9.5663 22.755 9.28297 22.905C9.00297 23.055 8.6963 23.13 8.36297 23.13C7.9863 23.13 7.64297 23.0383 7.33297 22.855C7.02297 22.6717 6.7763 22.425 6.59297 22.115C6.40964 21.805 6.31797 21.4617 6.31797 21.085ZM13.2192 23.095C12.9459 23.0883 12.6792 23.0383 12.4192 22.945C12.1592 22.8517 11.9326 22.725 11.7392 22.565C11.5459 22.405 11.4076 22.2233 11.3242 22.02L11.9292 21.76C11.9826 21.89 12.0809 22.01 12.2242 22.12C12.3709 22.2267 12.5376 22.3133 12.7242 22.38C12.9109 22.4433 13.0959 22.475 13.2792 22.475C13.4826 22.475 13.6726 22.4417 13.8492 22.375C14.0259 22.3083 14.1692 22.2133 14.2792 22.09C14.3926 21.9633 14.4492 21.815 14.4492 21.645C14.4492 21.4617 14.3892 21.3183 14.2692 21.215C14.1492 21.1083 13.9976 21.025 13.8142 20.965C13.6309 20.9017 13.4426 20.8417 13.2492 20.785C12.8959 20.6883 12.5842 20.5817 12.3142 20.465C12.0442 20.3483 11.8326 20.2 11.6792 20.02C11.5292 19.8367 11.4542 19.6017 11.4542 19.315C11.4542 19.0117 11.5392 18.75 11.7092 18.53C11.8826 18.3067 12.1076 18.135 12.3842 18.015C12.6642 17.8917 12.9626 17.83 13.2792 17.83C13.6859 17.83 14.0559 17.9183 14.3892 18.095C14.7259 18.2717 14.9692 18.5067 15.1192 18.8L14.5542 19.135C14.4942 18.9983 14.3992 18.88 14.2692 18.78C14.1392 18.68 13.9909 18.6017 13.8242 18.545C13.6609 18.4883 13.4942 18.4583 13.3242 18.455C13.1109 18.4517 12.9126 18.4833 12.7292 18.55C12.5459 18.6133 12.3976 18.7083 12.2842 18.835C12.1742 18.9617 12.1192 19.1167 12.1192 19.3C12.1192 19.4833 12.1742 19.6233 12.2842 19.72C12.3942 19.8133 12.5426 19.89 12.7292 19.95C12.9192 20.0067 13.1326 20.0733 13.3692 20.15C13.6726 20.2467 13.9576 20.3567 14.2242 20.48C14.4909 20.6033 14.7059 20.7567 14.8692 20.94C15.0326 21.1233 15.1126 21.355 15.1092 21.635C15.1092 21.935 15.0192 22.1967 14.8392 22.42C14.6592 22.6433 14.4259 22.815 14.1392 22.935C13.8526 23.0517 13.5459 23.105 13.2192 23.095ZM15.9223 18H16.6223V23H15.9223V18ZM16.2773 17.125C16.1639 17.125 16.0673 17.0883 15.9873 17.015C15.9106 16.9383 15.8723 16.8433 15.8723 16.73C15.8723 16.6167 15.9106 16.5233 15.9873 16.45C16.0673 16.3733 16.1639 16.335 16.2773 16.335C16.3873 16.335 16.4806 16.3733 16.5573 16.45C16.6373 16.5233 16.6773 16.6167 16.6773 16.73C16.6773 16.8433 16.6389 16.9383 16.5623 17.015C16.4856 17.0883 16.3906 17.125 16.2773 17.125ZM22.167 19.905V23H21.467V20.045C21.467 19.7717 21.4004 19.5233 21.267 19.3C21.1337 19.0767 20.9554 18.8983 20.732 18.765C20.5087 18.6317 20.2604 18.565 19.987 18.565C19.717 18.565 19.4687 18.6317 19.242 18.765C19.0187 18.8983 18.8404 19.0767 18.707 19.3C18.5737 19.5233 18.507 19.7717 18.507 20.045V23H17.807V18H18.507V18.69C18.6837 18.4367 18.9137 18.235 19.197 18.085C19.4804 17.935 19.7887 17.86 20.122 17.86C20.4987 17.86 20.842 17.9517 21.152 18.135C21.462 18.3183 21.7087 18.565 21.892 18.875C22.0754 19.185 22.167 19.5283 22.167 19.905ZM25.2707 23.13C24.8107 23.13 24.3907 23.0117 24.0107 22.775C23.634 22.5383 23.3324 22.2217 23.1057 21.825C22.8824 21.425 22.7707 20.9833 22.7707 20.5C22.7707 20.1333 22.8357 19.7917 22.9657 19.475C23.0957 19.155 23.274 18.875 23.5007 18.635C23.7307 18.3917 23.9974 18.2017 24.3007 18.065C24.604 17.9283 24.9274 17.86 25.2707 17.86C25.6407 17.86 25.9807 17.9333 26.2907 18.08C26.604 18.2267 26.8724 18.4317 27.0957 18.695C27.3224 18.9583 27.4924 19.2667 27.6057 19.62C27.7224 19.9733 27.7707 20.355 27.7507 20.765H23.5107C23.5507 21.0817 23.6507 21.365 23.8107 21.615C23.974 21.865 24.1807 22.0633 24.4307 22.21C24.684 22.3533 24.964 22.4267 25.2707 22.43C25.604 22.43 25.904 22.3433 26.1707 22.17C26.4407 21.9967 26.6574 21.7583 26.8207 21.455L27.5307 21.62C27.3307 22.0633 27.029 22.4267 26.6257 22.71C26.2224 22.99 25.7707 23.13 25.2707 23.13ZM23.4907 20.2H27.0457C27.0224 19.89 26.9274 19.6067 26.7607 19.35C26.5974 19.09 26.3857 18.8833 26.1257 18.73C25.8657 18.5733 25.5807 18.495 25.2707 18.495C24.9607 18.495 24.6774 18.5717 24.4207 18.725C24.164 18.875 23.954 19.08 23.7907 19.34C23.6274 19.5967 23.5274 19.8833 23.4907 20.2ZM30.1626 23.095C29.8892 23.0883 29.6226 23.0383 29.3626 22.945C29.1026 22.8517 28.8759 22.725 28.6826 22.565C28.4892 22.405 28.3509 22.2233 28.2676 22.02L28.8726 21.76C28.9259 21.89 29.0242 22.01 29.1676 22.12C29.3142 22.2267 29.4809 22.3133 29.6676 22.38C29.8542 22.4433 30.0392 22.475 30.2226 22.475C30.4259 22.475 30.6159 22.4417 30.7926 22.375C30.9692 22.3083 31.1126 22.2133 31.2226 22.09C31.3359 21.9633 31.3926 21.815 31.3926 21.645C31.3926 21.4617 31.3326 21.3183 31.2126 21.215C31.0926 21.1083 30.9409 21.025 30.7576 20.965C30.5742 20.9017 30.3859 20.8417 30.1926 20.785C29.8392 20.6883 29.5276 20.5817 29.2576 20.465C28.9876 20.3483 28.7759 20.2 28.6226 20.02C28.4726 19.8367 28.3976 19.6017 28.3976 19.315C28.3976 19.0117 28.4826 18.75 28.6526 18.53C28.8259 18.3067 29.0509 18.135 29.3276 18.015C29.6076 17.8917 29.9059 17.83 30.2226 17.83C30.6292 17.83 30.9992 17.9183 31.3326 18.095C31.6692 18.2717 31.9126 18.5067 32.0626 18.8L31.4976 19.135C31.4376 18.9983 31.3426 18.88 31.2126 18.78C31.0826 18.68 30.9342 18.6017 30.7676 18.545C30.6042 18.4883 30.4376 18.4583 30.2676 18.455C30.0542 18.4517 29.8559 18.4833 29.6726 18.55C29.4892 18.6133 29.3409 18.7083 29.2276 18.835C29.1176 18.9617 29.0626 19.1167 29.0626 19.3C29.0626 19.4833 29.1176 19.6233 29.2276 19.72C29.3376 19.8133 29.4859 19.89 29.6726 19.95C29.8626 20.0067 30.0759 20.0733 30.3126 20.15C30.6159 20.2467 30.9009 20.3567 31.1676 20.48C31.4342 20.6033 31.6492 20.7567 31.8126 20.94C31.9759 21.1233 32.0559 21.355 32.0526 21.635C32.0526 21.935 31.9626 22.1967 31.7826 22.42C31.6026 22.6433 31.3692 22.815 31.0826 22.935C30.7959 23.0517 30.4892 23.105 30.1626 23.095ZM34.4595 23.095C34.1861 23.0883 33.9195 23.0383 33.6595 22.945C33.3995 22.8517 33.1728 22.725 32.9795 22.565C32.7861 22.405 32.6478 22.2233 32.5645 22.02L33.1695 21.76C33.2228 21.89 33.3211 22.01 33.4645 22.12C33.6111 22.2267 33.7778 22.3133 33.9645 22.38C34.1511 22.4433 34.3361 22.475 34.5195 22.475C34.7228 22.475 34.9128 22.4417 35.0895 22.375C35.2661 22.3083 35.4095 22.2133 35.5195 22.09C35.6328 21.9633 35.6895 21.815 35.6895 21.645C35.6895 21.4617 35.6295 21.3183 35.5095 21.215C35.3895 21.1083 35.2378 21.025 35.0545 20.965C34.8711 20.9017 34.6828 20.8417 34.4895 20.785C34.1361 20.6883 33.8245 20.5817 33.5545 20.465C33.2845 20.3483 33.0728 20.2 32.9195 20.02C32.7695 19.8367 32.6945 19.6017 32.6945 19.315C32.6945 19.0117 32.7795 18.75 32.9495 18.53C33.1228 18.3067 33.3478 18.135 33.6245 18.015C33.9045 17.8917 34.2028 17.83 34.5195 17.83C34.9261 17.83 35.2961 17.9183 35.6295 18.095C35.9661 18.2717 36.2095 18.5067 36.3595 18.8L35.7945 19.135C35.7345 18.9983 35.6395 18.88 35.5095 18.78C35.3795 18.68 35.2311 18.6017 35.0645 18.545C34.9011 18.4883 34.7345 18.4583 34.5645 18.455C34.3511 18.4517 34.1528 18.4833 33.9695 18.55C33.7861 18.6133 33.6378 18.7083 33.5245 18.835C33.4145 18.9617 33.3595 19.1167 33.3595 19.3C33.3595 19.4833 33.4145 19.6233 33.5245 19.72C33.6345 19.8133 33.7828 19.89 33.9695 19.95C34.1595 20.0067 34.3728 20.0733 34.6095 20.15C34.9128 20.2467 35.1978 20.3567 35.4645 20.48C35.7311 20.6033 35.9461 20.7567 36.1095 20.94C36.2728 21.1233 36.3528 21.355 36.3495 21.635C36.3495 21.935 36.2595 22.1967 36.0795 22.42C35.8995 22.6433 35.6661 22.815 35.3795 22.935C35.0928 23.0517 34.7861 23.105 34.4595 23.095ZM40.3137 25.5H39.6137V18H40.3137V18.935C40.487 18.6183 40.7237 18.3617 41.0237 18.165C41.3237 17.9683 41.6803 17.87 42.0937 17.87C42.457 17.87 42.797 17.9383 43.1137 18.075C43.4337 18.2117 43.7137 18.4017 43.9537 18.645C44.1937 18.885 44.382 19.1633 44.5187 19.48C44.6553 19.7967 44.7237 20.1367 44.7237 20.5C44.7237 20.8633 44.6553 21.205 44.5187 21.525C44.382 21.845 44.1937 22.1267 43.9537 22.37C43.7137 22.61 43.4337 22.7983 43.1137 22.935C42.797 23.0717 42.457 23.14 42.0937 23.14C41.6803 23.14 41.3237 23.0417 41.0237 22.845C40.7237 22.6483 40.487 22.3917 40.3137 22.075V25.5ZM42.0887 18.55C41.7387 18.55 41.4337 18.6383 41.1737 18.815C40.917 18.9883 40.7187 19.2217 40.5787 19.515C40.4387 19.8083 40.3687 20.1367 40.3687 20.5C40.3687 20.8567 40.437 21.1833 40.5737 21.48C40.7137 21.7767 40.912 22.0133 41.1687 22.19C41.4287 22.3667 41.7353 22.455 42.0887 22.455C42.4353 22.455 42.7537 22.3683 43.0437 22.195C43.337 22.0217 43.572 21.7883 43.7487 21.495C43.9253 21.1983 44.0137 20.8667 44.0137 20.5C44.0137 20.1433 43.927 19.8183 43.7537 19.525C43.5803 19.2283 43.3487 18.9917 43.0587 18.815C42.7687 18.6383 42.4453 18.55 42.0887 18.55ZM47.7219 23.13C47.2619 23.13 46.8419 23.0117 46.4619 22.775C46.0852 22.5383 45.7835 22.2217 45.5569 21.825C45.3335 21.425 45.2219 20.9833 45.2219 20.5C45.2219 20.1333 45.2869 19.7917 45.4169 19.475C45.5469 19.155 45.7252 18.875 45.9519 18.635C46.1819 18.3917 46.4485 18.2017 46.7519 18.065C47.0552 17.9283 47.3785 17.86 47.7219 17.86C48.1819 17.86 48.6002 17.9783 48.9769 18.215C49.3569 18.4517 49.6585 18.77 49.8819 19.17C50.1085 19.57 50.2219 20.0133 50.2219 20.5C50.2219 20.8633 50.1569 21.2033 50.0269 21.52C49.8969 21.8367 49.7169 22.1167 49.4869 22.36C49.2602 22.6 48.9952 22.7883 48.6919 22.925C48.3919 23.0617 48.0685 23.13 47.7219 23.13ZM47.7219 22.43C48.0619 22.43 48.3669 22.3417 48.6369 22.165C48.9102 21.985 49.1252 21.7483 49.2819 21.455C49.4419 21.1617 49.5219 20.8433 49.5219 20.5C49.5219 20.15 49.4419 19.8283 49.2819 19.535C49.1219 19.2383 48.9052 19.0017 48.6319 18.825C48.3619 18.6483 48.0585 18.56 47.7219 18.56C47.3819 18.56 47.0752 18.65 46.8019 18.83C46.5319 19.0067 46.3169 19.2417 46.1569 19.535C46.0002 19.8283 45.9219 20.15 45.9219 20.5C45.9219 20.86 46.0035 21.1867 46.1669 21.48C46.3302 21.77 46.5485 22.0017 46.8219 22.175C47.0952 22.345 47.3952 22.43 47.7219 22.43ZM53.5359 18.7H52.3409L52.3359 23H51.6359L51.6409 18.7H50.7359V18H51.6409L51.6359 16.43H52.3359L52.3409 18H53.5359V18.7ZM56.4914 23.13C56.0314 23.13 55.6114 23.0117 55.2314 22.775C54.8547 22.5383 54.5531 22.2217 54.3264 21.825C54.1031 21.425 53.9914 20.9833 53.9914 20.5C53.9914 20.1333 54.0564 19.7917 54.1864 19.475C54.3164 19.155 54.4947 18.875 54.7214 18.635C54.9514 18.3917 55.2181 18.2017 55.5214 18.065C55.8247 17.9283 56.1481 17.86 56.4914 17.86C56.8614 17.86 57.2014 17.9333 57.5114 18.08C57.8247 18.2267 58.0931 18.4317 58.3164 18.695C58.5431 18.9583 58.7131 19.2667 58.8264 19.62C58.9431 19.9733 58.9914 20.355 58.9714 20.765H54.7314C54.7714 21.0817 54.8714 21.365 55.0314 21.615C55.1947 21.865 55.4014 22.0633 55.6514 22.21C55.9047 22.3533 56.1847 22.4267 56.4914 22.43C56.8247 22.43 57.1247 22.3433 57.3914 22.17C57.6614 21.9967 57.8781 21.7583 58.0414 21.455L58.7514 21.62C58.5514 22.0633 58.2497 22.4267 57.8464 22.71C57.4431 22.99 56.9914 23.13 56.4914 23.13ZM54.7114 20.2H58.2664C58.2431 19.89 58.1481 19.6067 57.9814 19.35C57.8181 19.09 57.6064 18.8833 57.3464 18.73C57.0864 18.5733 56.8014 18.495 56.4914 18.495C56.1814 18.495 55.8981 18.5717 55.6414 18.725C55.3847 18.875 55.1747 19.08 55.0114 19.34C54.8481 19.5967 54.7481 19.8833 54.7114 20.2ZM64.1885 19.905V23H63.4885V20.045C63.4885 19.7717 63.4218 19.5233 63.2885 19.3C63.1552 19.0767 62.9768 18.8983 62.7535 18.765C62.5302 18.6317 62.2818 18.565 62.0085 18.565C61.7385 18.565 61.4902 18.6317 61.2635 18.765C61.0402 18.8983 60.8618 19.0767 60.7285 19.3C60.5952 19.5233 60.5285 19.7717 60.5285 20.045V23H59.8285V18H60.5285V18.69C60.7052 18.4367 60.9352 18.235 61.2185 18.085C61.5018 17.935 61.8102 17.86 62.1435 17.86C62.5202 17.86 62.8635 17.9517 63.1735 18.135C63.4835 18.3183 63.7302 18.565 63.9135 18.875C64.0968 19.185 64.1885 19.5283 64.1885 19.905ZM67.7448 18.7H66.5498L66.5448 23H65.8448L65.8498 18.7H64.9448V18H65.8498L65.8448 16.43H66.5448L66.5498 18H67.7448V18.7ZM68.598 18H69.298V23H68.598V18ZM68.953 17.125C68.8397 17.125 68.743 17.0883 68.663 17.015C68.5864 16.9383 68.548 16.8433 68.548 16.73C68.548 16.6167 68.5864 16.5233 68.663 16.45C68.743 16.3733 68.8397 16.335 68.953 16.335C69.063 16.335 69.1564 16.3733 69.233 16.45C69.313 16.5233 69.353 16.6167 69.353 16.73C69.353 16.8433 69.3147 16.9383 69.238 17.015C69.1614 17.0883 69.0664 17.125 68.953 17.125ZM74.5635 18H75.2635V23H74.5635L74.5385 22.07C74.3752 22.3867 74.1468 22.6433 73.8535 22.84C73.5602 23.0333 73.2102 23.13 72.8035 23.13C72.4368 23.13 72.0935 23.0617 71.7735 22.925C71.4535 22.785 71.1718 22.5933 70.9285 22.35C70.6852 22.1067 70.4952 21.825 70.3585 21.505C70.2218 21.185 70.1535 20.8417 70.1535 20.475C70.1535 20.115 70.2202 19.7767 70.3535 19.46C70.4902 19.1433 70.6768 18.865 70.9135 18.625C71.1535 18.385 71.4302 18.1983 71.7435 18.065C72.0602 17.9283 72.3985 17.86 72.7585 17.86C73.1752 17.86 73.5385 17.96 73.8485 18.16C74.1585 18.3567 74.4052 18.615 74.5885 18.935L74.5635 18ZM72.7885 22.45C73.1452 22.45 73.4518 22.3633 73.7085 22.19C73.9652 22.0133 74.1618 21.7767 74.2985 21.48C74.4385 21.1833 74.5085 20.8567 74.5085 20.5C74.5085 20.1333 74.4385 19.8033 74.2985 19.51C74.1585 19.2133 73.9602 18.9783 73.7035 18.805C73.4468 18.6317 73.1418 18.545 72.7885 18.545C72.4352 18.545 72.1118 18.6333 71.8185 18.81C71.5285 18.9833 71.2968 19.2183 71.1235 19.515C70.9535 19.8117 70.8685 20.14 70.8685 20.5C70.8685 20.8633 70.9568 21.1933 71.1335 21.49C71.3102 21.7833 71.5435 22.0167 71.8335 22.19C72.1268 22.3633 72.4452 22.45 72.7885 22.45ZM76.3324 23V15.5H77.0324V23H76.3324ZM83.1191 17.86C83.6057 17.86 84.0474 17.9783 84.4441 18.215C84.8441 18.4517 85.1624 18.77 85.3991 19.17C85.6357 19.5667 85.7541 20.0083 85.7541 20.495C85.7541 20.8583 85.6857 21.2 85.5491 21.52C85.4124 21.8367 85.2224 22.1167 84.9791 22.36C84.7391 22.6 84.4591 22.7883 84.1391 22.925C83.8224 23.0617 83.4824 23.13 83.1191 23.13C82.7057 23.13 82.3491 23.0317 82.0491 22.835C81.7491 22.6383 81.5124 22.3817 81.3391 22.065V23H80.6391V15.5H81.3391V18.925C81.5124 18.6083 81.7491 18.3517 82.0491 18.155C82.3491 17.9583 82.7057 17.86 83.1191 17.86ZM83.1141 22.445C83.4707 22.445 83.7941 22.3583 84.0841 22.185C84.3741 22.0083 84.6057 21.7717 84.7791 21.475C84.9524 21.1783 85.0391 20.8517 85.0391 20.495C85.0391 20.1283 84.9507 19.7983 84.7741 19.505C84.5974 19.2083 84.3624 18.9733 84.0691 18.8C83.7791 18.6267 83.4607 18.54 83.1141 18.54C82.7607 18.54 82.4541 18.6283 82.1941 18.805C81.9374 18.9817 81.7391 19.2183 81.5991 19.515C81.4624 19.8117 81.3941 20.1383 81.3941 20.495C81.3941 20.8583 81.4641 21.1883 81.6041 21.485C81.7441 21.7783 81.9424 22.0117 82.1991 22.185C82.4591 22.3583 82.7641 22.445 83.1141 22.445ZM89.777 18H90.517L87.782 25.5H87.037L87.947 23L86.152 18H86.917L88.297 22.035L89.777 18ZM0.4 36.085V33H1.1V35.945C1.1 36.2183 1.16667 36.4667 1.3 36.69C1.43333 36.9133 1.61167 37.0917 1.835 37.225C2.06167 37.3583 2.31 37.425 2.58 37.425C2.85333 37.425 3.1 37.3583 3.32 37.225C3.54333 37.0917 3.72167 36.9133 3.855 36.69C3.98833 36.4667 4.055 36.2183 4.055 35.945V33H4.755L4.76 38H4.06L4.055 37.3C3.87833 37.5533 3.64833 37.755 3.365 37.905C3.085 38.055 2.77833 38.13 2.445 38.13C2.06833 38.13 1.725 38.0383 1.415 37.855C1.105 37.6717 0.858333 37.425 0.675 37.115C0.491667 36.805 0.4 36.4617 0.4 36.085ZM10.1163 34.905V38H9.41625V35.045C9.41625 34.7717 9.34958 34.5233 9.21625 34.3C9.08292 34.0767 8.90458 33.8983 8.68125 33.765C8.45792 33.6317 8.20958 33.565 7.93625 33.565C7.66625 33.565 7.41792 33.6317 7.19125 33.765C6.96792 33.8983 6.78958 34.0767 6.65625 34.3C6.52292 34.5233 6.45625 34.7717 6.45625 35.045V38H5.75625V33H6.45625V33.69C6.63292 33.4367 6.86292 33.235 7.14625 33.085C7.42958 32.935 7.73792 32.86 8.07125 32.86C8.44792 32.86 8.79125 32.9517 9.10125 33.135C9.41125 33.3183 9.65792 33.565 9.84125 33.875C10.0246 34.185 10.1163 34.5283 10.1163 34.905ZM11.1176 33H11.8176V38H11.1176V33ZM11.4726 32.125C11.3592 32.125 11.2626 32.0883 11.1826 32.015C11.1059 31.9383 11.0676 31.8433 11.0676 31.73C11.0676 31.6167 11.1059 31.5233 11.1826 31.45C11.2626 31.3733 11.3592 31.335 11.4726 31.335C11.5826 31.335 11.6759 31.3733 11.7526 31.45C11.8326 31.5233 11.8726 31.6167 11.8726 31.73C11.8726 31.8433 11.8342 31.9383 11.7576 32.015C11.6809 32.0883 11.5859 32.125 11.4726 32.125ZM15.5769 33.7H14.3819L14.3769 38H13.6769L13.6819 33.7H12.7769V33H13.6819L13.6769 31.43H14.3769L14.3819 33H15.5769V33.7ZM16.4301 33H17.1301V38H16.4301V33ZM16.7851 32.125C16.6717 32.125 16.5751 32.0883 16.4951 32.015C16.4184 31.9383 16.3801 31.8433 16.3801 31.73C16.3801 31.6167 16.4184 31.5233 16.4951 31.45C16.5751 31.3733 16.6717 31.335 16.7851 31.335C16.8951 31.335 16.9884 31.3733 17.0651 31.45C17.1451 31.5233 17.1851 31.6167 17.1851 31.73C17.1851 31.8433 17.1467 31.9383 17.0701 32.015C16.9934 32.0883 16.8984 32.125 16.7851 32.125ZM22.6748 34.905V38H21.9748V35.045C21.9748 34.7717 21.9082 34.5233 21.7748 34.3C21.6415 34.0767 21.4632 33.8983 21.2398 33.765C21.0165 33.6317 20.7682 33.565 20.4948 33.565C20.2248 33.565 19.9765 33.6317 19.7498 33.765C19.5265 33.8983 19.3482 34.0767 19.2148 34.3C19.0815 34.5233 19.0148 34.7717 19.0148 35.045V38H18.3148V33H19.0148V33.69C19.1915 33.4367 19.4215 33.235 19.7048 33.085C19.9882 32.935 20.2965 32.86 20.6298 32.86C21.0065 32.86 21.3498 32.9517 21.6598 33.135C21.9698 33.3183 22.2165 33.565 22.3998 33.875C22.5832 34.185 22.6748 34.5283 22.6748 34.905ZM27.5535 33H28.2535V38.185C28.2535 38.505 28.1835 38.805 28.0435 39.085C27.9068 39.365 27.7202 39.61 27.4835 39.82C27.2502 40.0333 26.9835 40.2 26.6835 40.32C26.3835 40.44 26.0718 40.5 25.7485 40.5C25.4018 40.5 25.0668 40.42 24.7435 40.26C24.4202 40.1033 24.1385 39.8933 23.8985 39.63C23.6618 39.3667 23.4935 39.075 23.3935 38.755L24.0385 38.46C24.1018 38.71 24.2202 38.935 24.3935 39.135C24.5702 39.3383 24.7768 39.4983 25.0135 39.615C25.2535 39.735 25.4985 39.795 25.7485 39.795C25.9785 39.795 26.2002 39.7517 26.4135 39.665C26.6302 39.5817 26.8235 39.4667 26.9935 39.32C27.1668 39.1733 27.3035 39.0017 27.4035 38.805C27.5035 38.6117 27.5535 38.405 27.5535 38.185V37.08C27.3802 37.3933 27.1452 37.6467 26.8485 37.84C26.5552 38.0333 26.2135 38.13 25.8235 38.13C25.4735 38.13 25.1435 38.0617 24.8335 37.925C24.5268 37.7883 24.2568 37.6 24.0235 37.36C23.7902 37.1167 23.6068 36.8367 23.4735 36.52C23.3435 36.2033 23.2785 35.8633 23.2785 35.5C23.2785 35.1367 23.3435 34.7967 23.4735 34.48C23.6068 34.16 23.7902 33.88 24.0235 33.64C24.2568 33.3967 24.5268 33.2067 24.8335 33.07C25.1435 32.9333 25.4735 32.865 25.8235 32.865C26.2135 32.865 26.5552 32.9617 26.8485 33.155C27.1452 33.345 27.3802 33.5983 27.5535 33.915V33ZM25.8285 37.45C26.1752 37.45 26.4735 37.36 26.7235 37.18C26.9768 37 27.1718 36.7617 27.3085 36.465C27.4452 36.1683 27.5135 35.8467 27.5135 35.5C27.5135 35.1433 27.4435 34.8183 27.3035 34.525C27.1668 34.2283 26.9718 33.9917 26.7185 33.815C26.4652 33.635 26.1685 33.545 25.8285 33.545C25.4885 33.545 25.1785 33.6333 24.8985 33.81C24.6218 33.9833 24.4018 34.2183 24.2385 34.515C24.0752 34.8117 23.9935 35.14 23.9935 35.5C23.9935 35.86 24.0768 36.1883 24.2435 36.485C24.4102 36.7783 24.6318 37.0133 24.9085 37.19C25.1885 37.3633 25.4952 37.45 25.8285 37.45ZM35.9748 30.5H36.6748V38H35.9748V37.065C35.8014 37.385 35.5631 37.6433 35.2598 37.84C34.9598 38.0333 34.6031 38.13 34.1898 38.13C33.8264 38.13 33.4864 38.0617 33.1698 37.925C32.8531 37.7883 32.5731 37.6 32.3298 37.36C32.0898 37.1167 31.9014 36.8367 31.7648 36.52C31.6281 36.2033 31.5598 35.8633 31.5598 35.5C31.5598 35.1367 31.6281 34.7967 31.7648 34.48C31.9014 34.16 32.0898 33.88 32.3298 33.64C32.5731 33.3967 32.8531 33.2067 33.1698 33.07C33.4864 32.9333 33.8264 32.865 34.1898 32.865C34.6031 32.865 34.9598 32.9633 35.2598 33.16C35.5631 33.3533 35.8014 33.6083 35.9748 33.925V30.5ZM34.1948 37.45C34.5514 37.45 34.8581 37.3633 35.1148 37.19C35.3714 37.0133 35.5681 36.7767 35.7048 36.48C35.8448 36.1833 35.9148 35.8567 35.9148 35.5C35.9148 35.1333 35.8448 34.8033 35.7048 34.51C35.5648 34.2133 35.3664 33.9783 35.1098 33.805C34.8531 33.6317 34.5481 33.545 34.1948 33.545C33.8414 33.545 33.5198 33.6333 33.2298 33.81C32.9398 33.9833 32.7081 34.2183 32.5348 34.515C32.3614 34.8117 32.2748 35.14 32.2748 35.5C32.2748 35.8633 32.3631 36.1933 32.5398 36.49C32.7164 36.7833 32.9498 37.0167 33.2398 37.19C33.5331 37.3633 33.8514 37.45 34.1948 37.45ZM40.0363 38.13C39.5763 38.13 39.1563 38.0117 38.7763 37.775C38.3997 37.5383 38.098 37.2217 37.8713 36.825C37.648 36.425 37.5363 35.9833 37.5363 35.5C37.5363 35.1333 37.6013 34.7917 37.7313 34.475C37.8613 34.155 38.0397 33.875 38.2663 33.635C38.4963 33.3917 38.763 33.2017 39.0663 33.065C39.3697 32.9283 39.693 32.86 40.0363 32.86C40.4063 32.86 40.7463 32.9333 41.0563 33.08C41.3697 33.2267 41.638 33.4317 41.8613 33.695C42.088 33.9583 42.258 34.2667 42.3713 34.62C42.488 34.9733 42.5363 35.355 42.5163 35.765H38.2763C38.3163 36.0817 38.4163 36.365 38.5763 36.615C38.7397 36.865 38.9463 37.0633 39.1963 37.21C39.4497 37.3533 39.7297 37.4267 40.0363 37.43C40.3697 37.43 40.6697 37.3433 40.9363 37.17C41.2063 36.9967 41.423 36.7583 41.5863 36.455L42.2963 36.62C42.0963 37.0633 41.7947 37.4267 41.3913 37.71C40.988 37.99 40.5363 38.13 40.0363 38.13ZM38.2563 35.2H41.8113C41.788 34.89 41.693 34.6067 41.5263 34.35C41.363 34.09 41.1513 33.8833 40.8913 33.73C40.6313 33.5733 40.3463 33.495 40.0363 33.495C39.7263 33.495 39.443 33.5717 39.1863 33.725C38.9297 33.875 38.7197 34.08 38.5563 34.34C38.393 34.5967 38.293 34.8833 38.2563 35.2ZM44.9282 38.095C44.6549 38.0883 44.3882 38.0383 44.1282 37.945C43.8682 37.8517 43.6415 37.725 43.4482 37.565C43.2549 37.405 43.1165 37.2233 43.0332 37.02L43.6382 36.76C43.6915 36.89 43.7899 37.01 43.9332 37.12C44.0799 37.2267 44.2465 37.3133 44.4332 37.38C44.6199 37.4433 44.8049 37.475 44.9882 37.475C45.1915 37.475 45.3815 37.4417 45.5582 37.375C45.7349 37.3083 45.8782 37.2133 45.9882 37.09C46.1015 36.9633 46.1582 36.815 46.1582 36.645C46.1582 36.4617 46.0982 36.3183 45.9782 36.215C45.8582 36.1083 45.7065 36.025 45.5232 35.965C45.3399 35.9017 45.1515 35.8417 44.9582 35.785C44.6049 35.6883 44.2932 35.5817 44.0232 35.465C43.7532 35.3483 43.5415 35.2 43.3882 35.02C43.2382 34.8367 43.1632 34.6017 43.1632 34.315C43.1632 34.0117 43.2482 33.75 43.4182 33.53C43.5915 33.3067 43.8165 33.135 44.0932 33.015C44.3732 32.8917 44.6715 32.83 44.9882 32.83C45.3949 32.83 45.7649 32.9183 46.0982 33.095C46.4349 33.2717 46.6782 33.5067 46.8282 33.8L46.2632 34.135C46.2032 33.9983 46.1082 33.88 45.9782 33.78C45.8482 33.68 45.6999 33.6017 45.5332 33.545C45.3699 33.4883 45.2032 33.4583 45.0332 33.455C44.8199 33.4517 44.6215 33.4833 44.4382 33.55C44.2549 33.6133 44.1065 33.7083 43.9932 33.835C43.8832 33.9617 43.8282 34.1167 43.8282 34.3C43.8282 34.4833 43.8832 34.6233 43.9932 34.72C44.1032 34.8133 44.2515 34.89 44.4382 34.95C44.6282 35.0067 44.8415 35.0733 45.0782 35.15C45.3815 35.2467 45.6665 35.3567 45.9332 35.48C46.1999 35.6033 46.4149 35.7567 46.5782 35.94C46.7415 36.1233 46.8215 36.355 46.8182 36.635C46.8182 36.935 46.7282 37.1967 46.5482 37.42C46.3682 37.6433 46.1349 37.815 45.8482 37.935C45.5615 38.0517 45.2549 38.105 44.9282 38.095ZM47.6313 33H48.3313V38H47.6313V33ZM47.9863 32.125C47.8729 32.125 47.7763 32.0883 47.6963 32.015C47.6196 31.9383 47.5813 31.8433 47.5813 31.73C47.5813 31.6167 47.6196 31.5233 47.6963 31.45C47.7763 31.3733 47.8729 31.335 47.9863 31.335C48.0963 31.335 48.1896 31.3733 48.2663 31.45C48.3463 31.5233 48.3863 31.6167 48.3863 31.73C48.3863 31.8433 48.3479 31.9383 48.2713 32.015C48.1946 32.0883 48.0996 32.125 47.9863 32.125ZM53.4617 33H54.1617V38.185C54.1617 38.505 54.0917 38.805 53.9517 39.085C53.8151 39.365 53.6284 39.61 53.3917 39.82C53.1584 40.0333 52.8917 40.2 52.5917 40.32C52.2917 40.44 51.9801 40.5 51.6567 40.5C51.3101 40.5 50.9751 40.42 50.6517 40.26C50.3284 40.1033 50.0467 39.8933 49.8067 39.63C49.5701 39.3667 49.4017 39.075 49.3017 38.755L49.9467 38.46C50.0101 38.71 50.1284 38.935 50.3017 39.135C50.4784 39.3383 50.6851 39.4983 50.9217 39.615C51.1617 39.735 51.4067 39.795 51.6567 39.795C51.8867 39.795 52.1084 39.7517 52.3217 39.665C52.5384 39.5817 52.7317 39.4667 52.9017 39.32C53.0751 39.1733 53.2117 39.0017 53.3117 38.805C53.4117 38.6117 53.4617 38.405 53.4617 38.185V37.08C53.2884 37.3933 53.0534 37.6467 52.7567 37.84C52.4634 38.0333 52.1217 38.13 51.7317 38.13C51.3817 38.13 51.0517 38.0617 50.7417 37.925C50.4351 37.7883 50.1651 37.6 49.9317 37.36C49.6984 37.1167 49.5151 36.8367 49.3817 36.52C49.2517 36.2033 49.1867 35.8633 49.1867 35.5C49.1867 35.1367 49.2517 34.7967 49.3817 34.48C49.5151 34.16 49.6984 33.88 49.9317 33.64C50.1651 33.3967 50.4351 33.2067 50.7417 33.07C51.0517 32.9333 51.3817 32.865 51.7317 32.865C52.1217 32.865 52.4634 32.9617 52.7567 33.155C53.0534 33.345 53.2884 33.5983 53.4617 33.915V33ZM51.7367 37.45C52.0834 37.45 52.3817 37.36 52.6317 37.18C52.8851 37 53.0801 36.7617 53.2167 36.465C53.3534 36.1683 53.4217 35.8467 53.4217 35.5C53.4217 35.1433 53.3517 34.8183 53.2117 34.525C53.0751 34.2283 52.8801 33.9917 52.6267 33.815C52.3734 33.635 52.0767 33.545 51.7367 33.545C51.3967 33.545 51.0867 33.6333 50.8067 33.81C50.5301 33.9833 50.3101 34.2183 50.1467 34.515C49.9834 34.8117 49.9017 35.14 49.9017 35.5C49.9017 35.86 49.9851 36.1883 50.1517 36.485C50.3184 36.7783 50.5401 37.0133 50.8167 37.19C51.0967 37.3633 51.4034 37.45 51.7367 37.45ZM59.7256 34.905V38H59.0256V35.045C59.0256 34.7717 58.959 34.5233 58.8256 34.3C58.6923 34.0767 58.514 33.8983 58.2906 33.765C58.0673 33.6317 57.819 33.565 57.5456 33.565C57.2756 33.565 57.0273 33.6317 56.8006 33.765C56.5773 33.8983 56.399 34.0767 56.2656 34.3C56.1323 34.5233 56.0656 34.7717 56.0656 35.045V38H55.3656V33H56.0656V33.69C56.2423 33.4367 56.4723 33.235 56.7556 33.085C57.039 32.935 57.3473 32.86 57.6806 32.86C58.0573 32.86 58.4006 32.9517 58.7106 33.135C59.0206 33.3183 59.2673 33.565 59.4506 33.875C59.634 34.185 59.7256 34.5283 59.7256 34.905ZM67.2393 33H67.9393V38H67.2393L67.2143 37.07C67.051 37.3867 66.8226 37.6433 66.5293 37.84C66.236 38.0333 65.886 38.13 65.4793 38.13C65.1126 38.13 64.7693 38.0617 64.4493 37.925C64.1293 37.785 63.8476 37.5933 63.6043 37.35C63.361 37.1067 63.171 36.825 63.0343 36.505C62.8976 36.185 62.8293 35.8417 62.8293 35.475C62.8293 35.115 62.896 34.7767 63.0293 34.46C63.166 34.1433 63.3526 33.865 63.5893 33.625C63.8293 33.385 64.106 33.1983 64.4193 33.065C64.736 32.9283 65.0743 32.86 65.4343 32.86C65.851 32.86 66.2143 32.96 66.5243 33.16C66.8343 33.3567 67.081 33.615 67.2643 33.935L67.2393 33ZM65.4643 37.45C65.821 37.45 66.1276 37.3633 66.3843 37.19C66.641 37.0133 66.8376 36.7767 66.9743 36.48C67.1143 36.1833 67.1843 35.8567 67.1843 35.5C67.1843 35.1333 67.1143 34.8033 66.9743 34.51C66.8343 34.2133 66.636 33.9783 66.3793 33.805C66.1226 33.6317 65.8176 33.545 65.4643 33.545C65.111 33.545 64.7876 33.6333 64.4943 33.81C64.2043 33.9833 63.9726 34.2183 63.7993 34.515C63.6293 34.8117 63.5443 35.14 63.5443 35.5C63.5443 35.8633 63.6326 36.1933 63.8093 36.49C63.986 36.7833 64.2193 37.0167 64.5093 37.19C64.8026 37.3633 65.121 37.45 65.4643 37.45ZM73.2998 34.905V38H72.5998V35.045C72.5998 34.7717 72.5332 34.5233 72.3998 34.3C72.2665 34.0767 72.0882 33.8983 71.8648 33.765C71.6415 33.6317 71.3932 33.565 71.1198 33.565C70.8498 33.565 70.6015 33.6317 70.3748 33.765C70.1515 33.8983 69.9732 34.0767 69.8398 34.3C69.7065 34.5233 69.6398 34.7717 69.6398 35.045V38H68.9398V33H69.6398V33.69C69.8165 33.4367 70.0465 33.235 70.3298 33.085C70.6132 32.935 70.9215 32.86 71.2548 32.86C71.6315 32.86 71.9748 32.9517 72.2848 33.135C72.5948 33.3183 72.8415 33.565 73.0248 33.875C73.2082 34.185 73.2998 34.5283 73.2998 34.905ZM78.3185 30.5H79.0185V38H78.3185V37.065C78.1452 37.385 77.9068 37.6433 77.6035 37.84C77.3035 38.0333 76.9468 38.13 76.5335 38.13C76.1702 38.13 75.8302 38.0617 75.5135 37.925C75.1968 37.7883 74.9168 37.6 74.6735 37.36C74.4335 37.1167 74.2452 36.8367 74.1085 36.52C73.9718 36.2033 73.9035 35.8633 73.9035 35.5C73.9035 35.1367 73.9718 34.7967 74.1085 34.48C74.2452 34.16 74.4335 33.88 74.6735 33.64C74.9168 33.3967 75.1968 33.2067 75.5135 33.07C75.8302 32.9333 76.1702 32.865 76.5335 32.865C76.9468 32.865 77.3035 32.9633 77.6035 33.16C77.9068 33.3533 78.1452 33.6083 78.3185 33.925V30.5ZM76.5385 37.45C76.8952 37.45 77.2018 37.3633 77.4585 37.19C77.7152 37.0133 77.9118 36.7767 78.0485 36.48C78.1885 36.1833 78.2585 35.8567 78.2585 35.5C78.2585 35.1333 78.1885 34.8033 78.0485 34.51C77.9085 34.2133 77.7102 33.9783 77.4535 33.805C77.1968 33.6317 76.8918 33.545 76.5385 33.545C76.1852 33.545 75.8635 33.6333 75.5735 33.81C75.2835 33.9833 75.0518 34.2183 74.8785 34.515C74.7052 34.8117 74.6185 35.14 74.6185 35.5C74.6185 35.8633 74.7068 36.1933 74.8835 36.49C75.0602 36.7833 75.2935 37.0167 75.5835 37.19C75.8768 37.3633 76.1952 37.45 76.5385 37.45ZM2.8 53.13C2.34 53.13 1.92 53.0117 1.54 52.775C1.16333 52.5383 0.861667 52.2217 0.635 51.825C0.411667 51.425 0.3 50.9833 0.3 50.5C0.3 50.1333 0.365 49.7917 0.495 49.475C0.625 49.155 0.803333 48.875 1.03 48.635C1.26 48.3917 1.52667 48.2017 1.83 48.065C2.13333 47.9283 2.45667 47.86 2.8 47.86C3.17 47.86 3.51 47.9333 3.82 48.08C4.13333 48.2267 4.40167 48.4317 4.625 48.695C4.85167 48.9583 5.02167 49.2667 5.135 49.62C5.25167 49.9733 5.3 50.355 5.28 50.765H1.04C1.08 51.0817 1.18 51.365 1.34 51.615C1.50333 51.865 1.71 52.0633 1.96 52.21C2.21333 52.3533 2.49333 52.4267 2.8 52.43C3.13333 52.43 3.43333 52.3433 3.7 52.17C3.97 51.9967 4.18667 51.7583 4.35 51.455L5.06 51.62C4.86 52.0633 4.55833 52.4267 4.155 52.71C3.75167 52.99 3.3 53.13 2.8 53.13ZM1.02 50.2H4.575C4.55167 49.89 4.45667 49.6067 4.29 49.35C4.12667 49.09 3.915 48.8833 3.655 48.73C3.395 48.5733 3.11 48.495 2.8 48.495C2.49 48.495 2.20667 48.5717 1.95 48.725C1.69333 48.875 1.48333 49.08 1.32 49.34C1.15667 49.5967 1.05667 49.8833 1.02 50.2ZM10.4971 49.905V53H9.79711V50.045C9.79711 49.7717 9.73044 49.5233 9.59711 49.3C9.46378 49.0767 9.28544 48.8983 9.06211 48.765C8.83878 48.6317 8.59044 48.565 8.31711 48.565C8.04711 48.565 7.79878 48.6317 7.57211 48.765C7.34878 48.8983 7.17044 49.0767 7.03711 49.3C6.90378 49.5233 6.83711 49.7717 6.83711 50.045V53H6.13711V48H6.83711V48.69C7.01378 48.4367 7.24378 48.235 7.52711 48.085C7.81044 47.935 8.11878 47.86 8.45211 47.86C8.82878 47.86 9.17211 47.9517 9.48211 48.135C9.79211 48.3183 10.0388 48.565 10.2221 48.875C10.4054 49.185 10.4971 49.5283 10.4971 49.905ZM15.3758 48H16.0758V53.185C16.0758 53.505 16.0058 53.805 15.8658 54.085C15.7291 54.365 15.5424 54.61 15.3058 54.82C15.0724 55.0333 14.8058 55.2 14.5058 55.32C14.2058 55.44 13.8941 55.5 13.5708 55.5C13.2241 55.5 12.8891 55.42 12.5658 55.26C12.2424 55.1033 11.9608 54.8933 11.7208 54.63C11.4841 54.3667 11.3158 54.075 11.2158 53.755L11.8608 53.46C11.9241 53.71 12.0424 53.935 12.2158 54.135C12.3924 54.3383 12.5991 54.4983 12.8358 54.615C13.0758 54.735 13.3208 54.795 13.5708 54.795C13.8008 54.795 14.0224 54.7517 14.2358 54.665C14.4524 54.5817 14.6458 54.4667 14.8158 54.32C14.9891 54.1733 15.1258 54.0017 15.2258 53.805C15.3258 53.6117 15.3758 53.405 15.3758 53.185V52.08C15.2024 52.3933 14.9674 52.6467 14.6708 52.84C14.3774 53.0333 14.0358 53.13 13.6458 53.13C13.2958 53.13 12.9658 53.0617 12.6558 52.925C12.3491 52.7883 12.0791 52.6 11.8458 52.36C11.6124 52.1167 11.4291 51.8367 11.2958 51.52C11.1658 51.2033 11.1008 50.8633 11.1008 50.5C11.1008 50.1367 11.1658 49.7967 11.2958 49.48C11.4291 49.16 11.6124 48.88 11.8458 48.64C12.0791 48.3967 12.3491 48.2067 12.6558 48.07C12.9658 47.9333 13.2958 47.865 13.6458 47.865C14.0358 47.865 14.3774 47.9617 14.6708 48.155C14.9674 48.345 15.2024 48.5983 15.3758 48.915V48ZM13.6508 52.45C13.9974 52.45 14.2958 52.36 14.5458 52.18C14.7991 52 14.9941 51.7617 15.1308 51.465C15.2674 51.1683 15.3358 50.8467 15.3358 50.5C15.3358 50.1433 15.2658 49.8183 15.1258 49.525C14.9891 49.2283 14.7941 48.9917 14.5408 48.815C14.2874 48.635 13.9908 48.545 13.6508 48.545C13.3108 48.545 13.0008 48.6333 12.7208 48.81C12.4441 48.9833 12.2241 49.2183 12.0608 49.515C11.8974 49.8117 11.8158 50.14 11.8158 50.5C11.8158 50.86 11.8991 51.1883 12.0658 51.485C12.2324 51.7783 12.4541 52.0133 12.7308 52.19C13.0108 52.3633 13.3174 52.45 13.6508 52.45ZM17.2309 48H17.9309V53H17.2309V48ZM17.5859 47.125C17.4725 47.125 17.3759 47.0883 17.2959 47.015C17.2192 46.9383 17.1809 46.8433 17.1809 46.73C17.1809 46.6167 17.2192 46.5233 17.2959 46.45C17.3759 46.3733 17.4725 46.335 17.5859 46.335C17.6959 46.335 17.7892 46.3733 17.8659 46.45C17.9459 46.5233 17.9859 46.6167 17.9859 46.73C17.9859 46.8433 17.9475 46.9383 17.8709 47.015C17.7942 47.0883 17.6992 47.125 17.5859 47.125ZM23.4756 49.905V53H22.7756V50.045C22.7756 49.7717 22.709 49.5233 22.5756 49.3C22.4423 49.0767 22.264 48.8983 22.0406 48.765C21.8173 48.6317 21.569 48.565 21.2956 48.565C21.0256 48.565 20.7773 48.6317 20.5506 48.765C20.3273 48.8983 20.149 49.0767 20.0156 49.3C19.8823 49.5233 19.8156 49.7717 19.8156 50.045V53H19.1156V48H19.8156V48.69C19.9923 48.4367 20.2223 48.235 20.5056 48.085C20.789 47.935 21.0973 47.86 21.4306 47.86C21.8073 47.86 22.1506 47.9517 22.4606 48.135C22.7706 48.3183 23.0173 48.565 23.2006 48.875C23.384 49.185 23.4756 49.5283 23.4756 49.905ZM26.5793 53.13C26.1193 53.13 25.6993 53.0117 25.3193 52.775C24.9426 52.5383 24.641 52.2217 24.4143 51.825C24.191 51.425 24.0793 50.9833 24.0793 50.5C24.0793 50.1333 24.1443 49.7917 24.2743 49.475C24.4043 49.155 24.5826 48.875 24.8093 48.635C25.0393 48.3917 25.306 48.2017 25.6093 48.065C25.9126 47.9283 26.236 47.86 26.5793 47.86C26.9493 47.86 27.2893 47.9333 27.5993 48.08C27.9126 48.2267 28.181 48.4317 28.4043 48.695C28.631 48.9583 28.801 49.2667 28.9143 49.62C29.031 49.9733 29.0793 50.355 29.0593 50.765H24.8193C24.8593 51.0817 24.9593 51.365 25.1193 51.615C25.2826 51.865 25.4893 52.0633 25.7393 52.21C25.9926 52.3533 26.2726 52.4267 26.5793 52.43C26.9126 52.43 27.2126 52.3433 27.4793 52.17C27.7493 51.9967 27.966 51.7583 28.1293 51.455L28.8393 51.62C28.6393 52.0633 28.3376 52.4267 27.9343 52.71C27.531 52.99 27.0793 53.13 26.5793 53.13ZM24.7993 50.2H28.3543C28.331 49.89 28.236 49.6067 28.0693 49.35C27.906 49.09 27.6943 48.8833 27.4343 48.73C27.1743 48.5733 26.8893 48.495 26.5793 48.495C26.2693 48.495 25.986 48.5717 25.7293 48.725C25.4726 48.875 25.2626 49.08 25.0993 49.34C24.936 49.5967 24.836 49.8833 24.7993 50.2ZM32.0676 53.13C31.6076 53.13 31.1876 53.0117 30.8076 52.775C30.4309 52.5383 30.1292 52.2217 29.9026 51.825C29.6792 51.425 29.5676 50.9833 29.5676 50.5C29.5676 50.1333 29.6326 49.7917 29.7626 49.475C29.8926 49.155 30.0709 48.875 30.2976 48.635C30.5276 48.3917 30.7942 48.2017 31.0976 48.065C31.4009 47.9283 31.7242 47.86 32.0676 47.86C32.4376 47.86 32.7776 47.9333 33.0876 48.08C33.4009 48.2267 33.6692 48.4317 33.8926 48.695C34.1192 48.9583 34.2892 49.2667 34.4026 49.62C34.5192 49.9733 34.5676 50.355 34.5476 50.765H30.3076C30.3476 51.0817 30.4476 51.365 30.6076 51.615C30.7709 51.865 30.9776 52.0633 31.2276 52.21C31.4809 52.3533 31.7609 52.4267 32.0676 52.43C32.4009 52.43 32.7009 52.3433 32.9676 52.17C33.2376 51.9967 33.4542 51.7583 33.6176 51.455L34.3276 51.62C34.1276 52.0633 33.8259 52.4267 33.4226 52.71C33.0192 52.99 32.5676 53.13 32.0676 53.13ZM30.2876 50.2H33.8426C33.8192 49.89 33.7242 49.6067 33.5576 49.35C33.3942 49.09 33.1826 48.8833 32.9226 48.73C32.6626 48.5733 32.3776 48.495 32.0676 48.495C31.7576 48.495 31.4742 48.5717 31.2176 48.725C30.9609 48.875 30.7509 49.08 30.5876 49.34C30.4242 49.5967 30.3242 49.8833 30.2876 50.2ZM35.4047 53V48H36.1047V48.69C36.2814 48.4367 36.5114 48.235 36.7947 48.085C37.078 47.935 37.3864 47.86 37.7197 47.86C37.913 47.86 38.0997 47.885 38.2797 47.935L37.9947 48.63C37.8547 48.5867 37.718 48.565 37.5847 48.565C37.3147 48.565 37.0664 48.6317 36.8397 48.765C36.6164 48.8983 36.438 49.0767 36.3047 49.3C36.1714 49.5233 36.1047 49.7717 36.1047 50.045V53H35.4047ZM38.9105 48H39.6105V53H38.9105V48ZM39.2655 47.125C39.1522 47.125 39.0555 47.0883 38.9755 47.015C38.8989 46.9383 38.8605 46.8433 38.8605 46.73C38.8605 46.6167 38.8989 46.5233 38.9755 46.45C39.0555 46.3733 39.1522 46.335 39.2655 46.335C39.3755 46.335 39.4689 46.3733 39.5455 46.45C39.6255 46.5233 39.6655 46.6167 39.6655 46.73C39.6655 46.8433 39.6272 46.9383 39.5505 47.015C39.4739 47.0883 39.3789 47.125 39.2655 47.125ZM45.1553 49.905V53H44.4553V50.045C44.4553 49.7717 44.3886 49.5233 44.2553 49.3C44.122 49.0767 43.9436 48.8983 43.7203 48.765C43.497 48.6317 43.2486 48.565 42.9753 48.565C42.7053 48.565 42.457 48.6317 42.2303 48.765C42.007 48.8983 41.8286 49.0767 41.6953 49.3C41.562 49.5233 41.4953 49.7717 41.4953 50.045V53H40.7953V48H41.4953V48.69C41.672 48.4367 41.902 48.235 42.1853 48.085C42.4686 47.935 42.777 47.86 43.1103 47.86C43.487 47.86 43.8303 47.9517 44.1403 48.135C44.4503 48.3183 44.697 48.565 44.8803 48.875C45.0636 49.185 45.1553 49.5283 45.1553 49.905ZM50.034 48H50.734V53.185C50.734 53.505 50.664 53.805 50.524 54.085C50.3873 54.365 50.2007 54.61 49.964 54.82C49.7307 55.0333 49.464 55.2 49.164 55.32C48.864 55.44 48.5523 55.5 48.229 55.5C47.8823 55.5 47.5473 55.42 47.224 55.26C46.9007 55.1033 46.619 54.8933 46.379 54.63C46.1423 54.3667 45.974 54.075 45.874 53.755L46.519 53.46C46.5823 53.71 46.7007 53.935 46.874 54.135C47.0507 54.3383 47.2573 54.4983 47.494 54.615C47.734 54.735 47.979 54.795 48.229 54.795C48.459 54.795 48.6807 54.7517 48.894 54.665C49.1107 54.5817 49.304 54.4667 49.474 54.32C49.6473 54.1733 49.784 54.0017 49.884 53.805C49.984 53.6117 50.034 53.405 50.034 53.185V52.08C49.8607 52.3933 49.6257 52.6467 49.329 52.84C49.0357 53.0333 48.694 53.13 48.304 53.13C47.954 53.13 47.624 53.0617 47.314 52.925C47.0073 52.7883 46.7373 52.6 46.504 52.36C46.2707 52.1167 46.0873 51.8367 45.954 51.52C45.824 51.2033 45.759 50.8633 45.759 50.5C45.759 50.1367 45.824 49.7967 45.954 49.48C46.0873 49.16 46.2707 48.88 46.504 48.64C46.7373 48.3967 47.0073 48.2067 47.314 48.07C47.624 47.9333 47.954 47.865 48.304 47.865C48.694 47.865 49.0357 47.9617 49.329 48.155C49.6257 48.345 49.8607 48.5983 50.034 48.915V48ZM48.309 52.45C48.6557 52.45 48.954 52.36 49.204 52.18C49.4573 52 49.6523 51.7617 49.789 51.465C49.9257 51.1683 49.994 50.8467 49.994 50.5C49.994 50.1433 49.924 49.8183 49.784 49.525C49.6473 49.2283 49.4523 48.9917 49.199 48.815C48.9457 48.635 48.649 48.545 48.309 48.545C47.969 48.545 47.659 48.6333 47.379 48.81C47.1023 48.9833 46.8823 49.2183 46.719 49.515C46.5557 49.8117 46.474 50.14 46.474 50.5C46.474 50.86 46.5573 51.1883 46.724 51.485C46.8907 51.7783 47.1123 52.0133 47.389 52.19C47.669 52.3633 47.9757 52.45 48.309 52.45ZM56.8952 48.7H55.7002L55.6952 53H54.9952L55.0002 48.7H54.0952V48H55.0002L54.9952 46.43H55.6952L55.7002 48H56.8952V48.7ZM59.8508 53.13C59.3908 53.13 58.9708 53.0117 58.5908 52.775C58.2141 52.5383 57.9124 52.2217 57.6858 51.825C57.4624 51.425 57.3508 50.9833 57.3508 50.5C57.3508 50.1333 57.4158 49.7917 57.5458 49.475C57.6758 49.155 57.8541 48.875 58.0808 48.635C58.3108 48.3917 58.5774 48.2017 58.8808 48.065C59.1841 47.9283 59.5074 47.86 59.8508 47.86C60.3108 47.86 60.7291 47.9783 61.1058 48.215C61.4858 48.4517 61.7874 48.77 62.0108 49.17C62.2374 49.57 62.3508 50.0133 62.3508 50.5C62.3508 50.8633 62.2858 51.2033 62.1558 51.52C62.0258 51.8367 61.8458 52.1167 61.6158 52.36C61.3891 52.6 61.1241 52.7883 60.8208 52.925C60.5208 53.0617 60.1974 53.13 59.8508 53.13ZM59.8508 52.43C60.1908 52.43 60.4958 52.3417 60.7658 52.165C61.0391 51.985 61.2541 51.7483 61.4108 51.455C61.5708 51.1617 61.6508 50.8433 61.6508 50.5C61.6508 50.15 61.5708 49.8283 61.4108 49.535C61.2508 49.2383 61.0341 49.0017 60.7608 48.825C60.4908 48.6483 60.1874 48.56 59.8508 48.56C59.5108 48.56 59.2041 48.65 58.9308 48.83C58.6608 49.0067 58.4458 49.2417 58.2858 49.535C58.1291 49.8283 58.0508 50.15 58.0508 50.5C58.0508 50.86 58.1324 51.1867 58.2958 51.48C58.4591 51.77 58.6774 52.0017 58.9508 52.175C59.2241 52.345 59.5241 52.43 59.8508 52.43ZM69.2188 51.745L69.8438 52.085C69.6172 52.4017 69.3288 52.655 68.9788 52.845C68.6322 53.035 68.2555 53.13 67.8488 53.13C67.3888 53.13 66.9688 53.0117 66.5888 52.775C66.2122 52.5383 65.9105 52.2217 65.6838 51.825C65.4605 51.425 65.3488 50.9833 65.3488 50.5C65.3488 50.1333 65.4138 49.7917 65.5438 49.475C65.6738 49.155 65.8522 48.875 66.0788 48.635C66.3088 48.3917 66.5755 48.2017 66.8788 48.065C67.1822 47.9283 67.5055 47.86 67.8488 47.86C68.2555 47.86 68.6322 47.955 68.9788 48.145C69.3288 48.335 69.6172 48.59 69.8438 48.91L69.2188 49.245C69.0455 49.025 68.8372 48.8567 68.5938 48.74C68.3505 48.62 68.1022 48.56 67.8488 48.56C67.5122 48.56 67.2072 48.65 66.9338 48.83C66.6605 49.0067 66.4438 49.2417 66.2838 49.535C66.1272 49.8283 66.0488 50.15 66.0488 50.5C66.0488 50.85 66.1288 51.1717 66.2888 51.465C66.4522 51.7583 66.6705 51.9933 66.9438 52.17C67.2172 52.3433 67.5188 52.43 67.8488 52.43C68.1222 52.43 68.3788 52.3667 68.6188 52.24C68.8588 52.1133 69.0588 51.9483 69.2188 51.745ZM70.7465 53V48H71.4465V48.69C71.6232 48.4367 71.8532 48.235 72.1365 48.085C72.4198 47.935 72.7282 47.86 73.0615 47.86C73.2548 47.86 73.4415 47.885 73.6215 47.935L73.3365 48.63C73.1965 48.5867 73.0598 48.565 72.9265 48.565C72.6565 48.565 72.4082 48.6317 72.1815 48.765C71.9582 48.8983 71.7798 49.0767 71.6465 49.3C71.5132 49.5233 71.4465 49.7717 71.4465 50.045V53H70.7465ZM76.1887 53.13C75.7287 53.13 75.3087 53.0117 74.9287 52.775C74.552 52.5383 74.2503 52.2217 74.0237 51.825C73.8003 51.425 73.6887 50.9833 73.6887 50.5C73.6887 50.1333 73.7537 49.7917 73.8837 49.475C74.0137 49.155 74.192 48.875 74.4187 48.635C74.6487 48.3917 74.9153 48.2017 75.2187 48.065C75.522 47.9283 75.8453 47.86 76.1887 47.86C76.5587 47.86 76.8987 47.9333 77.2087 48.08C77.522 48.2267 77.7903 48.4317 78.0137 48.695C78.2403 48.9583 78.4103 49.2667 78.5237 49.62C78.6403 49.9733 78.6887 50.355 78.6687 50.765H74.4287C74.4687 51.0817 74.5687 51.365 74.7287 51.615C74.892 51.865 75.0987 52.0633 75.3487 52.21C75.602 52.3533 75.882 52.4267 76.1887 52.43C76.522 52.43 76.822 52.3433 77.0887 52.17C77.3587 51.9967 77.5753 51.7583 77.7387 51.455L78.4487 51.62C78.2487 52.0633 77.947 52.4267 77.5437 52.71C77.1403 52.99 76.6887 53.13 76.1887 53.13ZM74.4087 50.2H77.9637C77.9403 49.89 77.8453 49.6067 77.6787 49.35C77.5153 49.09 77.3037 48.8833 77.0437 48.73C76.7837 48.5733 76.4987 48.495 76.1887 48.495C75.8787 48.495 75.5953 48.5717 75.3387 48.725C75.082 48.875 74.872 49.08 74.7087 49.34C74.5453 49.5967 74.4453 49.8833 74.4087 50.2ZM83.587 48H84.287V53H83.587L83.562 52.07C83.3986 52.3867 83.1703 52.6433 82.877 52.84C82.5836 53.0333 82.2336 53.13 81.827 53.13C81.4603 53.13 81.117 53.0617 80.797 52.925C80.477 52.785 80.1953 52.5933 79.952 52.35C79.7086 52.1067 79.5186 51.825 79.382 51.505C79.2453 51.185 79.177 50.8417 79.177 50.475C79.177 50.115 79.2436 49.7767 79.377 49.46C79.5136 49.1433 79.7003 48.865 79.937 48.625C80.177 48.385 80.4536 48.1983 80.767 48.065C81.0836 47.9283 81.422 47.86 81.782 47.86C82.1986 47.86 82.562 47.96 82.872 48.16C83.182 48.3567 83.4286 48.615 83.612 48.935L83.587 48ZM81.812 52.45C82.1686 52.45 82.4753 52.3633 82.732 52.19C82.9886 52.0133 83.1853 51.7767 83.322 51.48C83.462 51.1833 83.532 50.8567 83.532 50.5C83.532 50.1333 83.462 49.8033 83.322 49.51C83.182 49.2133 82.9836 48.9783 82.727 48.805C82.4703 48.6317 82.1653 48.545 81.812 48.545C81.4586 48.545 81.1353 48.6333 80.842 48.81C80.552 48.9833 80.3203 49.2183 80.147 49.515C79.977 49.8117 79.892 50.14 79.892 50.5C79.892 50.8633 79.9803 51.1933 80.157 51.49C80.3336 51.7833 80.567 52.0167 80.857 52.19C81.1503 52.3633 81.4686 52.45 81.812 52.45ZM87.8425 48.7H86.6475L86.6425 53H85.9425L85.9475 48.7H85.0425V48H85.9475L85.9425 46.43H86.6425L86.6475 48H87.8425V48.7ZM90.798 53.13C90.338 53.13 89.918 53.0117 89.538 52.775C89.1614 52.5383 88.8597 52.2217 88.633 51.825C88.4097 51.425 88.298 50.9833 88.298 50.5C88.298 50.1333 88.363 49.7917 88.493 49.475C88.623 49.155 88.8014 48.875 89.028 48.635C89.258 48.3917 89.5247 48.2017 89.828 48.065C90.1314 47.9283 90.4547 47.86 90.798 47.86C91.168 47.86 91.508 47.9333 91.818 48.08C92.1314 48.2267 92.3997 48.4317 92.623 48.695C92.8497 48.9583 93.0197 49.2667 93.133 49.62C93.2497 49.9733 93.298 50.355 93.278 50.765H89.038C89.078 51.0817 89.178 51.365 89.338 51.615C89.5014 51.865 89.708 52.0633 89.958 52.21C90.2114 52.3533 90.4914 52.4267 90.798 52.43C91.1314 52.43 91.4314 52.3433 91.698 52.17C91.968 51.9967 92.1847 51.7583 92.348 51.455L93.058 51.62C92.858 52.0633 92.5564 52.4267 92.153 52.71C91.7497 52.99 91.298 53.13 90.798 53.13ZM89.018 50.2H92.573C92.5497 49.89 92.4547 49.6067 92.288 49.35C92.1247 49.09 91.913 48.8833 91.653 48.73C91.393 48.5733 91.108 48.495 90.798 48.495C90.488 48.495 90.2047 48.5717 89.948 48.725C89.6914 48.875 89.4814 49.08 89.318 49.34C89.1547 49.5967 89.0547 49.8833 89.018 50.2ZM3.155 63.7H1.96L1.955 68H1.255L1.26 63.7H0.355V63H1.26L1.255 61.43H1.955L1.96 63H3.155V63.7ZM8.40727 64.905V68H7.70727V65.045C7.70727 64.7717 7.6406 64.5233 7.50727 64.3C7.37393 64.0767 7.1956 63.8983 6.97227 63.765C6.74893 63.6317 6.5006 63.565 6.22727 63.565C5.95727 63.565 5.70893 63.6317 5.48227 63.765C5.25893 63.8983 5.0806 64.0767 4.94727 64.3C4.81393 64.5233 4.74727 64.7717 4.74727 65.045V68H4.04727V60.5H4.74727V63.69C4.92393 63.4367 5.15393 63.235 5.43727 63.085C5.7206 62.935 6.02893 62.86 6.36227 62.86C6.73893 62.86 7.08227 62.9517 7.39227 63.135C7.70227 63.3183 7.94893 63.565 8.13227 63.875C8.3156 64.185 8.40727 64.5283 8.40727 64.905ZM11.5109 68.13C11.0509 68.13 10.6309 68.0117 10.2509 67.775C9.87427 67.5383 9.5726 67.2217 9.34594 66.825C9.1226 66.425 9.01094 65.9833 9.01094 65.5C9.01094 65.1333 9.07594 64.7917 9.20594 64.475C9.33594 64.155 9.51427 63.875 9.74094 63.635C9.97094 63.3917 10.2376 63.2017 10.5409 63.065C10.8443 62.9283 11.1676 62.86 11.5109 62.86C11.8809 62.86 12.2209 62.9333 12.5309 63.08C12.8443 63.2267 13.1126 63.4317 13.3359 63.695C13.5626 63.9583 13.7326 64.2667 13.8459 64.62C13.9626 64.9733 14.0109 65.355 13.9909 65.765H9.75094C9.79094 66.0817 9.89094 66.365 10.0509 66.615C10.2143 66.865 10.4209 67.0633 10.6709 67.21C10.9243 67.3533 11.2043 67.4267 11.5109 67.43C11.8443 67.43 12.1443 67.3433 12.4109 67.17C12.6809 66.9967 12.8976 66.7583 13.0609 66.455L13.7709 66.62C13.5709 67.0633 13.2693 67.4267 12.8659 67.71C12.4626 67.99 12.0109 68.13 11.5109 68.13ZM9.73094 65.2H13.2859C13.2626 64.89 13.1676 64.6067 13.0009 64.35C12.8376 64.09 12.6259 63.8833 12.3659 63.73C12.1059 63.5733 11.8209 63.495 11.5109 63.495C11.2009 63.495 10.9176 63.5717 10.6609 63.725C10.4043 63.875 10.1943 64.08 10.0309 64.34C9.8676 64.5967 9.7676 64.8833 9.73094 65.2ZM17.2992 68V63H17.9992V63.69C18.1792 63.4367 18.4092 63.235 18.6892 63.085C18.9692 62.935 19.2759 62.86 19.6092 62.86C19.9859 62.86 20.3309 62.9533 20.6442 63.14C20.9576 63.3233 21.2026 63.5683 21.3792 63.875C21.5559 63.5683 21.7992 63.3233 22.1092 63.14C22.4192 62.9533 22.7626 62.86 23.1392 62.86C23.5159 62.86 23.8592 62.9517 24.1692 63.135C24.4792 63.3183 24.7259 63.565 24.9092 63.875C25.0926 64.185 25.1842 64.5283 25.1842 64.905V68H24.4842V65.06C24.4842 64.7933 24.4192 64.5467 24.2892 64.32C24.1592 64.0933 23.9842 63.9117 23.7642 63.775C23.5476 63.635 23.3059 63.565 23.0392 63.565C22.7726 63.565 22.5292 63.63 22.3092 63.76C22.0926 63.8867 21.9192 64.0633 21.7892 64.29C21.6592 64.5133 21.5942 64.77 21.5942 65.06V68H20.8942V65.06C20.8942 64.77 20.8292 64.5133 20.6992 64.29C20.5692 64.0633 20.3942 63.8867 20.1742 63.76C19.9542 63.63 19.7109 63.565 19.4442 63.565C19.1809 63.565 18.9392 63.635 18.7192 63.775C18.4992 63.9117 18.3242 64.0933 18.1942 64.32C18.0642 64.5467 17.9992 64.7933 17.9992 65.06V68H17.2992ZM28.2883 68.13C27.8283 68.13 27.4083 68.0117 27.0283 67.775C26.6516 67.5383 26.3499 67.2217 26.1233 66.825C25.8999 66.425 25.7883 65.9833 25.7883 65.5C25.7883 65.1333 25.8533 64.7917 25.9833 64.475C26.1133 64.155 26.2916 63.875 26.5183 63.635C26.7483 63.3917 27.0149 63.2017 27.3183 63.065C27.6216 62.9283 27.9449 62.86 28.2883 62.86C28.7483 62.86 29.1666 62.9783 29.5433 63.215C29.9233 63.4517 30.2249 63.77 30.4483 64.17C30.6749 64.57 30.7883 65.0133 30.7883 65.5C30.7883 65.8633 30.7233 66.2033 30.5933 66.52C30.4633 66.8367 30.2833 67.1167 30.0533 67.36C29.8266 67.6 29.5616 67.7883 29.2583 67.925C28.9583 68.0617 28.6349 68.13 28.2883 68.13ZM28.2883 67.43C28.6283 67.43 28.9333 67.3417 29.2033 67.165C29.4766 66.985 29.6916 66.7483 29.8483 66.455C30.0083 66.1617 30.0883 65.8433 30.0883 65.5C30.0883 65.15 30.0083 64.8283 29.8483 64.535C29.6883 64.2383 29.4716 64.0017 29.1983 63.825C28.9283 63.6483 28.6249 63.56 28.2883 63.56C27.9483 63.56 27.6416 63.65 27.3683 63.83C27.0983 64.0067 26.8833 64.2417 26.7233 64.535C26.5666 64.8283 26.4883 65.15 26.4883 65.5C26.4883 65.86 26.5699 66.1867 26.7333 66.48C26.8966 66.77 27.1149 67.0017 27.3883 67.175C27.6616 67.345 27.9616 67.43 28.2883 67.43ZM33.1899 68.095C32.9166 68.0883 32.6499 68.0383 32.3899 67.945C32.1299 67.8517 31.9033 67.725 31.7099 67.565C31.5166 67.405 31.3783 67.2233 31.2949 67.02L31.8999 66.76C31.9533 66.89 32.0516 67.01 32.1949 67.12C32.3416 67.2267 32.5083 67.3133 32.6949 67.38C32.8816 67.4433 33.0666 67.475 33.2499 67.475C33.4533 67.475 33.6433 67.4417 33.8199 67.375C33.9966 67.3083 34.1399 67.2133 34.2499 67.09C34.3633 66.9633 34.4199 66.815 34.4199 66.645C34.4199 66.4617 34.3599 66.3183 34.2399 66.215C34.1199 66.1083 33.9683 66.025 33.7849 65.965C33.6016 65.9017 33.4133 65.8417 33.2199 65.785C32.8666 65.6883 32.5549 65.5817 32.2849 65.465C32.0149 65.3483 31.8033 65.2 31.6499 65.02C31.4999 64.8367 31.4249 64.6017 31.4249 64.315C31.4249 64.0117 31.5099 63.75 31.6799 63.53C31.8533 63.3067 32.0783 63.135 32.3549 63.015C32.6349 62.8917 32.9333 62.83 33.2499 62.83C33.6566 62.83 34.0266 62.9183 34.3599 63.095C34.6966 63.2717 34.9399 63.5067 35.0899 63.8L34.5249 64.135C34.4649 63.9983 34.3699 63.88 34.2399 63.78C34.1099 63.68 33.9616 63.6017 33.7949 63.545C33.6316 63.4883 33.4649 63.4583 33.2949 63.455C33.0816 63.4517 32.8833 63.4833 32.6999 63.55C32.5166 63.6133 32.3683 63.7083 32.2549 63.835C32.1449 63.9617 32.0899 64.1167 32.0899 64.3C32.0899 64.4833 32.1449 64.6233 32.2549 64.72C32.3649 64.8133 32.5133 64.89 32.6999 64.95C32.8899 65.0067 33.1033 65.0733 33.3399 65.15C33.6433 65.2467 33.9283 65.3567 34.1949 65.48C34.4616 65.6033 34.6766 65.7567 34.8399 65.94C35.0033 66.1233 35.0833 66.355 35.0799 66.635C35.0799 66.935 34.9899 67.1967 34.8099 67.42C34.6299 67.6433 34.3966 67.815 34.1099 67.935C33.8233 68.0517 33.5166 68.105 33.1899 68.095ZM38.4968 63.7H37.3018L37.2968 68H36.5968L36.6018 63.7H35.6968V63H36.6018L36.5968 61.43H37.2968L37.3018 63H38.4968V63.7ZM4.71 78H5.41V83H4.71L4.685 82.07C4.52167 82.3867 4.29333 82.6433 4 82.84C3.70667 83.0333 3.35667 83.13 2.95 83.13C2.58333 83.13 2.24 83.0617 1.92 82.925C1.6 82.785 1.31833 82.5933 1.075 82.35C0.831667 82.1067 0.641667 81.825 0.505 81.505C0.368333 81.185 0.3 80.8417 0.3 80.475C0.3 80.115 0.366667 79.7767 0.5 79.46C0.636667 79.1433 0.823333 78.865 1.06 78.625C1.3 78.385 1.57667 78.1983 1.89 78.065C2.20667 77.9283 2.545 77.86 2.905 77.86C3.32167 77.86 3.685 77.96 3.995 78.16C4.305 78.3567 4.55167 78.615 4.735 78.935L4.71 78ZM2.935 82.45C3.29167 82.45 3.59833 82.3633 3.855 82.19C4.11167 82.0133 4.30833 81.7767 4.445 81.48C4.585 81.1833 4.655 80.8567 4.655 80.5C4.655 80.1333 4.585 79.8033 4.445 79.51C4.305 79.2133 4.10667 78.9783 3.85 78.805C3.59333 78.6317 3.28833 78.545 2.935 78.545C2.58167 78.545 2.25833 78.6333 1.965 78.81C1.675 78.9833 1.44333 79.2183 1.27 79.515C1.1 79.8117 1.015 80.14 1.015 80.5C1.015 80.8633 1.10333 81.1933 1.28 81.49C1.45667 81.7833 1.69 82.0167 1.98 82.19C2.27333 82.3633 2.59167 82.45 2.935 82.45ZM10.7705 79.905V83H10.0705V80.045C10.0705 79.7717 10.0039 79.5233 9.87055 79.3C9.73721 79.0767 9.55888 78.8983 9.33555 78.765C9.11221 78.6317 8.86388 78.565 8.59055 78.565C8.32055 78.565 8.07221 78.6317 7.84555 78.765C7.62221 78.8983 7.44388 79.0767 7.31055 79.3C7.17721 79.5233 7.11055 79.7717 7.11055 80.045V83H6.41055V78H7.11055V78.69C7.28721 78.4367 7.51721 78.235 7.80055 78.085C8.08388 77.935 8.39221 77.86 8.72555 77.86C9.10221 77.86 9.44555 77.9517 9.75555 78.135C10.0655 78.3183 10.3122 78.565 10.4955 78.875C10.6789 79.185 10.7705 79.5283 10.7705 79.905ZM15.7892 75.5H16.4892V83H15.7892V82.065C15.6159 82.385 15.3776 82.6433 15.0742 82.84C14.7742 83.0333 14.4176 83.13 14.0042 83.13C13.6409 83.13 13.3009 83.0617 12.9842 82.925C12.6676 82.7883 12.3876 82.6 12.1442 82.36C11.9042 82.1167 11.7159 81.8367 11.5792 81.52C11.4426 81.2033 11.3742 80.8633 11.3742 80.5C11.3742 80.1367 11.4426 79.7967 11.5792 79.48C11.7159 79.16 11.9042 78.88 12.1442 78.64C12.3876 78.3967 12.6676 78.2067 12.9842 78.07C13.3009 77.9333 13.6409 77.865 14.0042 77.865C14.4176 77.865 14.7742 77.9633 15.0742 78.16C15.3776 78.3533 15.6159 78.6083 15.7892 78.925V75.5ZM14.0092 82.45C14.3659 82.45 14.6726 82.3633 14.9292 82.19C15.1859 82.0133 15.3826 81.7767 15.5192 81.48C15.6592 81.1833 15.7292 80.8567 15.7292 80.5C15.7292 80.1333 15.6592 79.8033 15.5192 79.51C15.3792 79.2133 15.1809 78.9783 14.9242 78.805C14.6676 78.6317 14.3626 78.545 14.0092 78.545C13.6559 78.545 13.3342 78.6333 13.0442 78.81C12.7542 78.9833 12.5226 79.2183 12.3492 79.515C12.1759 79.8117 12.0892 80.14 12.0892 80.5C12.0892 80.8633 12.1776 81.1933 12.3542 81.49C12.5309 81.7833 12.7642 82.0167 13.0542 82.19C13.3476 82.3633 13.6659 82.45 14.0092 82.45ZM69.383 75.5H70.083V83H69.383V82.065C69.2096 82.385 68.9713 82.6433 68.668 82.84C68.368 83.0333 68.0113 83.13 67.598 83.13C67.2346 83.13 66.8946 83.0617 66.578 82.925C66.2613 82.7883 65.9813 82.6 65.738 82.36C65.498 82.1167 65.3096 81.8367 65.173 81.52C65.0363 81.2033 64.968 80.8633 64.968 80.5C64.968 80.1367 65.0363 79.7967 65.173 79.48C65.3096 79.16 65.498 78.88 65.738 78.64C65.9813 78.3967 66.2613 78.2067 66.578 78.07C66.8946 77.9333 67.2346 77.865 67.598 77.865C68.0113 77.865 68.368 77.9633 68.668 78.16C68.9713 78.3533 69.2096 78.6083 69.383 78.925V75.5ZM67.603 82.45C67.9596 82.45 68.2663 82.3633 68.523 82.19C68.7796 82.0133 68.9763 81.7767 69.113 81.48C69.253 81.1833 69.323 80.8567 69.323 80.5C69.323 80.1333 69.253 79.8033 69.113 79.51C68.973 79.2133 68.7746 78.9783 68.518 78.805C68.2613 78.6317 67.9563 78.545 67.603 78.545C67.2496 78.545 66.928 78.6333 66.638 78.81C66.348 78.9833 66.1163 79.2183 65.943 79.515C65.7696 79.8117 65.683 80.14 65.683 80.5C65.683 80.8633 65.7713 81.1933 65.948 81.49C66.1246 81.7833 66.358 82.0167 66.648 82.19C66.9413 82.3633 67.2596 82.45 67.603 82.45ZM71.2836 78H71.9836V83H71.2836V78ZM71.6386 77.125C71.5253 77.125 71.4286 77.0883 71.3486 77.015C71.2719 76.9383 71.2336 76.8433 71.2336 76.73C71.2336 76.6167 71.2719 76.5233 71.3486 76.45C71.4286 76.3733 71.5253 76.335 71.6386 76.335C71.7486 76.335 71.8419 76.3733 71.9186 76.45C71.9986 76.5233 72.0386 76.6167 72.0386 76.73C72.0386 76.8433 72.0003 76.9383 71.9236 77.015C71.8469 77.0883 71.7519 77.125 71.6386 77.125ZM77.1141 78H77.8141V83.185C77.8141 83.505 77.7441 83.805 77.6041 84.085C77.4674 84.365 77.2807 84.61 77.0441 84.82C76.8107 85.0333 76.5441 85.2 76.2441 85.32C75.9441 85.44 75.6324 85.5 75.3091 85.5C74.9624 85.5 74.6274 85.42 74.3041 85.26C73.9807 85.1033 73.6991 84.8933 73.4591 84.63C73.2224 84.3667 73.0541 84.075 72.9541 83.755L73.5991 83.46C73.6624 83.71 73.7807 83.935 73.9541 84.135C74.1307 84.3383 74.3374 84.4983 74.5741 84.615C74.8141 84.735 75.0591 84.795 75.3091 84.795C75.5391 84.795 75.7607 84.7517 75.9741 84.665C76.1907 84.5817 76.3841 84.4667 76.5541 84.32C76.7274 84.1733 76.8641 84.0017 76.9641 83.805C77.0641 83.6117 77.1141 83.405 77.1141 83.185V82.08C76.9407 82.3933 76.7057 82.6467 76.4091 82.84C76.1157 83.0333 75.7741 83.13 75.3841 83.13C75.0341 83.13 74.7041 83.0617 74.3941 82.925C74.0874 82.7883 73.8174 82.6 73.5841 82.36C73.3507 82.1167 73.1674 81.8367 73.0341 81.52C72.9041 81.2033 72.8391 80.8633 72.8391 80.5C72.8391 80.1367 72.9041 79.7967 73.0341 79.48C73.1674 79.16 73.3507 78.88 73.5841 78.64C73.8174 78.3967 74.0874 78.2067 74.3941 78.07C74.7041 77.9333 75.0341 77.865 75.3841 77.865C75.7741 77.865 76.1157 77.9617 76.4091 78.155C76.7057 78.345 76.9407 78.5983 77.1141 78.915V78ZM75.3891 82.45C75.7357 82.45 76.0341 82.36 76.2841 82.18C76.5374 82 76.7324 81.7617 76.8691 81.465C77.0057 81.1683 77.0741 80.8467 77.0741 80.5C77.0741 80.1433 77.0041 79.8183 76.8641 79.525C76.7274 79.2283 76.5324 78.9917 76.2791 78.815C76.0257 78.635 75.7291 78.545 75.3891 78.545C75.0491 78.545 74.7391 78.6333 74.4591 78.81C74.1824 78.9833 73.9624 79.2183 73.7991 79.515C73.6357 79.8117 73.5541 80.14 73.5541 80.5C73.5541 80.86 73.6374 81.1883 73.8041 81.485C73.9707 81.7783 74.1924 82.0133 74.4691 82.19C74.7491 82.3633 75.0557 82.45 75.3891 82.45ZM78.9691 78H79.6691V83H78.9691V78ZM79.3241 77.125C79.2108 77.125 79.1141 77.0883 79.0341 77.015C78.9575 76.9383 78.9191 76.8433 78.9191 76.73C78.9191 76.6167 78.9575 76.5233 79.0341 76.45C79.1141 76.3733 79.2108 76.335 79.3241 76.335C79.4341 76.335 79.5275 76.3733 79.6041 76.45C79.6841 76.5233 79.7241 76.6167 79.7241 76.73C79.7241 76.8433 79.6858 76.9383 79.6091 77.015C79.5325 77.0883 79.4375 77.125 79.3241 77.125ZM83.4284 78.7H82.2334L82.2284 83H81.5284L81.5334 78.7H80.6284V78H81.5334L81.5284 76.43H82.2284L82.2334 78H83.4284V78.7ZM88.294 78H88.994V83H88.294L88.269 82.07C88.1057 82.3867 87.8773 82.6433 87.584 82.84C87.2907 83.0333 86.9407 83.13 86.534 83.13C86.1673 83.13 85.824 83.0617 85.504 82.925C85.184 82.785 84.9023 82.5933 84.659 82.35C84.4157 82.1067 84.2257 81.825 84.089 81.505C83.9523 81.185 83.884 80.8417 83.884 80.475C83.884 80.115 83.9507 79.7767 84.084 79.46C84.2207 79.1433 84.4073 78.865 84.644 78.625C84.884 78.385 85.1607 78.1983 85.474 78.065C85.7907 77.9283 86.129 77.86 86.489 77.86C86.9057 77.86 87.269 77.96 87.579 78.16C87.889 78.3567 88.1357 78.615 88.319 78.935L88.294 78ZM86.519 82.45C86.8757 82.45 87.1823 82.3633 87.439 82.19C87.6957 82.0133 87.8923 81.7767 88.029 81.48C88.169 81.1833 88.239 80.8567 88.239 80.5C88.239 80.1333 88.169 79.8033 88.029 79.51C87.889 79.2133 87.6907 78.9783 87.434 78.805C87.1773 78.6317 86.8723 78.545 86.519 78.545C86.1657 78.545 85.8423 78.6333 85.549 78.81C85.259 78.9833 85.0273 79.2183 84.854 79.515C84.684 79.8117 84.599 80.14 84.599 80.5C84.599 80.8633 84.6873 81.1933 84.864 81.49C85.0407 81.7833 85.274 82.0167 85.564 82.19C85.8573 82.3633 86.1757 82.45 86.519 82.45ZM90.0629 83V75.5H90.7629V83H90.0629ZM1.3 100.5H0.6V93H1.3V93.935C1.47333 93.6183 1.71 93.3617 2.01 93.165C2.31 92.9683 2.66667 92.87 3.08 92.87C3.44333 92.87 3.78333 92.9383 4.1 93.075C4.42 93.2117 4.7 93.4017 4.94 93.645C5.18 93.885 5.36833 94.1633 5.505 94.48C5.64167 94.7967 5.71 95.1367 5.71 95.5C5.71 95.8633 5.64167 96.205 5.505 96.525C5.36833 96.845 5.18 97.1267 4.94 97.37C4.7 97.61 4.42 97.7983 4.1 97.935C3.78333 98.0717 3.44333 98.14 3.08 98.14C2.66667 98.14 2.31 98.0417 2.01 97.845C1.71 97.6483 1.47333 97.3917 1.3 97.075V100.5ZM3.075 93.55C2.725 93.55 2.42 93.6383 2.16 93.815C1.90333 93.9883 1.705 94.2217 1.565 94.515C1.425 94.8083 1.355 95.1367 1.355 95.5C1.355 95.8567 1.42333 96.1833 1.56 96.48C1.7 96.7767 1.89833 97.0133 2.155 97.19C2.415 97.3667 2.72167 97.455 3.075 97.455C3.42167 97.455 3.74 97.3683 4.03 97.195C4.32333 97.0217 4.55833 96.7883 4.735 96.495C4.91167 96.1983 5 95.8667 5 95.5C5 95.1433 4.91333 94.8183 4.74 94.525C4.56667 94.2283 4.335 93.9917 4.045 93.815C3.755 93.6383 3.43167 93.55 3.075 93.55ZM6.55703 98V93H7.25703V93.69C7.4337 93.4367 7.6637 93.235 7.94703 93.085C8.23036 92.935 8.5387 92.86 8.87203 92.86C9.06536 92.86 9.25203 92.885 9.43203 92.935L9.14703 93.63C9.00703 93.5867 8.87036 93.565 8.73703 93.565C8.46703 93.565 8.2187 93.6317 7.99203 93.765C7.7687 93.8983 7.59036 94.0767 7.45703 94.3C7.3237 94.5233 7.25703 94.7717 7.25703 95.045V98H6.55703ZM11.9992 98.13C11.5392 98.13 11.1192 98.0117 10.7392 97.775C10.3626 97.5383 10.0609 97.2217 9.83422 96.825C9.61089 96.425 9.49922 95.9833 9.49922 95.5C9.49922 95.1333 9.56422 94.7917 9.69422 94.475C9.82422 94.155 10.0026 93.875 10.2292 93.635C10.4592 93.3917 10.7259 93.2017 11.0292 93.065C11.3326 92.9283 11.6559 92.86 11.9992 92.86C12.4592 92.86 12.8776 92.9783 13.2542 93.215C13.6342 93.4517 13.9359 93.77 14.1592 94.17C14.3859 94.57 14.4992 95.0133 14.4992 95.5C14.4992 95.8633 14.4342 96.2033 14.3042 96.52C14.1742 96.8367 13.9942 97.1167 13.7642 97.36C13.5376 97.6 13.2726 97.7883 12.9692 97.925C12.6692 98.0617 12.3459 98.13 11.9992 98.13ZM11.9992 97.43C12.3392 97.43 12.6442 97.3417 12.9142 97.165C13.1876 96.985 13.4026 96.7483 13.5592 96.455C13.7192 96.1617 13.7992 95.8433 13.7992 95.5C13.7992 95.15 13.7192 94.8283 13.5592 94.535C13.3992 94.2383 13.1826 94.0017 12.9092 93.825C12.6392 93.6483 12.3359 93.56 11.9992 93.56C11.6592 93.56 11.3526 93.65 11.0792 93.83C10.8092 94.0067 10.5942 94.2417 10.4342 94.535C10.2776 94.8283 10.1992 95.15 10.1992 95.5C10.1992 95.86 10.2809 96.1867 10.4442 96.48C10.6076 96.77 10.8259 97.0017 11.0992 97.175C11.3726 97.345 11.6726 97.43 11.9992 97.43ZM19.4123 90.5H20.1123V98H19.4123V97.065C19.2389 97.385 19.0006 97.6433 18.6973 97.84C18.3973 98.0333 18.0406 98.13 17.6273 98.13C17.2639 98.13 16.9239 98.0617 16.6073 97.925C16.2906 97.7883 16.0106 97.6 15.7673 97.36C15.5273 97.1167 15.3389 96.8367 15.2023 96.52C15.0656 96.2033 14.9973 95.8633 14.9973 95.5C14.9973 95.1367 15.0656 94.7967 15.2023 94.48C15.3389 94.16 15.5273 93.88 15.7673 93.64C16.0106 93.3967 16.2906 93.2067 16.6073 93.07C16.9239 92.9333 17.2639 92.865 17.6273 92.865C18.0406 92.865 18.3973 92.9633 18.6973 93.16C19.0006 93.3533 19.2389 93.6083 19.4123 93.925V90.5ZM17.6323 97.45C17.9889 97.45 18.2956 97.3633 18.5523 97.19C18.8089 97.0133 19.0056 96.7767 19.1423 96.48C19.2823 96.1833 19.3523 95.8567 19.3523 95.5C19.3523 95.1333 19.2823 94.8033 19.1423 94.51C19.0023 94.2133 18.8039 93.9783 18.5473 93.805C18.2906 93.6317 17.9856 93.545 17.6323 93.545C17.2789 93.545 16.9573 93.6333 16.6673 93.81C16.3773 93.9833 16.1456 94.2183 15.9723 94.515C15.7989 94.8117 15.7123 95.14 15.7123 95.5C15.7123 95.8633 15.8006 96.1933 15.9773 96.49C16.1539 96.7833 16.3873 97.0167 16.6773 97.19C16.9706 97.3633 17.2889 97.45 17.6323 97.45ZM21.1129 96.085V93H21.8129V95.945C21.8129 96.2183 21.8796 96.4667 22.0129 96.69C22.1462 96.9133 22.3246 97.0917 22.5479 97.225C22.7746 97.3583 23.0229 97.425 23.2929 97.425C23.5662 97.425 23.8129 97.3583 24.0329 97.225C24.2562 97.0917 24.4346 96.9133 24.5679 96.69C24.7012 96.4667 24.7679 96.2183 24.7679 95.945V93H25.4679L25.4729 98H24.7729L24.7679 97.3C24.5912 97.5533 24.3612 97.755 24.0779 97.905C23.7979 98.055 23.4912 98.13 23.1579 98.13C22.7812 98.13 22.4379 98.0383 22.1279 97.855C21.8179 97.6717 21.5712 97.425 21.3879 97.115C21.2046 96.805 21.1129 96.4617 21.1129 96.085ZM30.0001 96.745L30.6251 97.085C30.3984 97.4017 30.1101 97.655 29.7601 97.845C29.4134 98.035 29.0367 98.13 28.6301 98.13C28.1701 98.13 27.7501 98.0117 27.3701 97.775C26.9934 97.5383 26.6917 97.2217 26.4651 96.825C26.2417 96.425 26.1301 95.9833 26.1301 95.5C26.1301 95.1333 26.1951 94.7917 26.3251 94.475C26.4551 94.155 26.6334 93.875 26.8601 93.635C27.0901 93.3917 27.3567 93.2017 27.6601 93.065C27.9634 92.9283 28.2867 92.86 28.6301 92.86C29.0367 92.86 29.4134 92.955 29.7601 93.145C30.1101 93.335 30.3984 93.59 30.6251 93.91L30.0001 94.245C29.8267 94.025 29.6184 93.8567 29.3751 93.74C29.1317 93.62 28.8834 93.56 28.6301 93.56C28.2934 93.56 27.9884 93.65 27.7151 93.83C27.4417 94.0067 27.2251 94.2417 27.0651 94.535C26.9084 94.8283 26.8301 95.15 26.8301 95.5C26.8301 95.85 26.9101 96.1717 27.0701 96.465C27.2334 96.7583 27.4517 96.9933 27.7251 97.17C27.9984 97.3433 28.3001 97.43 28.6301 97.43C28.9034 97.43 29.1601 97.3667 29.4001 97.24C29.6401 97.1133 29.8401 96.9483 30.0001 96.745ZM34.0827 93.7H32.8877L32.8827 98H32.1827L32.1877 93.7H31.2827V93H32.1877L32.1827 91.43H32.8827L32.8877 93H34.0827V93.7ZM36.4809 98.095C36.2076 98.0883 35.9409 98.0383 35.6809 97.945C35.4209 97.8517 35.1943 97.725 35.0009 97.565C34.8076 97.405 34.6693 97.2233 34.5859 97.02L35.1909 96.76C35.2443 96.89 35.3426 97.01 35.4859 97.12C35.6326 97.2267 35.7993 97.3133 35.9859 97.38C36.1726 97.4433 36.3576 97.475 36.5409 97.475C36.7443 97.475 36.9343 97.4417 37.1109 97.375C37.2876 97.3083 37.4309 97.2133 37.5409 97.09C37.6543 96.9633 37.7109 96.815 37.7109 96.645C37.7109 96.4617 37.6509 96.3183 37.5309 96.215C37.4109 96.1083 37.2593 96.025 37.0759 95.965C36.8926 95.9017 36.7043 95.8417 36.5109 95.785C36.1576 95.6883 35.8459 95.5817 35.5759 95.465C35.3059 95.3483 35.0943 95.2 34.9409 95.02C34.7909 94.8367 34.7159 94.6017 34.7159 94.315C34.7159 94.0117 34.8009 93.75 34.9709 93.53C35.1443 93.3067 35.3693 93.135 35.6459 93.015C35.9259 92.8917 36.2243 92.83 36.5409 92.83C36.9476 92.83 37.3176 92.9183 37.6509 93.095C37.9876 93.2717 38.2309 93.5067 38.3809 93.8L37.8159 94.135C37.7559 93.9983 37.6609 93.88 37.5309 93.78C37.4009 93.68 37.2526 93.6017 37.0859 93.545C36.9226 93.4883 36.7559 93.4583 36.5859 93.455C36.3726 93.4517 36.1743 93.4833 35.9909 93.55C35.8076 93.6133 35.6593 93.7083 35.5459 93.835C35.4359 93.9617 35.3809 94.1167 35.3809 94.3C35.3809 94.4833 35.4359 94.6233 35.5459 94.72C35.6559 94.8133 35.8043 94.89 35.9909 94.95C36.1809 95.0067 36.3943 95.0733 36.6309 95.15C36.9343 95.2467 37.2193 95.3567 37.4859 95.48C37.7526 95.6033 37.9676 95.7567 38.1309 95.94C38.2943 96.1233 38.3743 96.355 38.3709 96.635C38.3709 96.935 38.2809 97.1967 38.1009 97.42C37.9209 97.6433 37.6876 97.815 37.4009 97.935C37.1143 98.0517 36.8076 98.105 36.4809 98.095ZM39.4083 98.13C39.2983 98.13 39.2049 98.09 39.1283 98.01C39.0516 97.9333 39.0133 97.8383 39.0133 97.725C39.0133 97.6183 39.0516 97.5267 39.1283 97.45C39.2049 97.37 39.2983 97.33 39.4083 97.33C39.5216 97.33 39.6166 97.37 39.6933 97.45C39.7733 97.5267 39.8133 97.6183 39.8133 97.725C39.8133 97.8383 39.7733 97.9333 39.6933 98.01C39.6166 98.09 39.5216 98.13 39.4083 98.13Z" fill="black"/>
<path d="M41.7914 63H42.8314V68H41.7914V63ZM42.3214 62.275C42.1614 62.275 42.0281 62.2233 41.9214 62.12C41.8147 62.0167 41.7614 61.8867 41.7614 61.73C41.7614 61.5767 41.8147 61.4483 41.9214 61.345C42.0281 61.2383 42.1597 61.185 42.3164 61.185C42.4697 61.185 42.5997 61.2383 42.7064 61.345C42.8131 61.4483 42.8664 61.5767 42.8664 61.73C42.8664 61.8867 42.8131 62.0167 42.7064 62.12C42.6031 62.2233 42.4747 62.275 42.3214 62.275ZM48.4887 64.865V68H47.4487V65.12C47.4487 64.8967 47.3937 64.6933 47.2837 64.51C47.177 64.3267 47.032 64.1817 46.8487 64.075C46.6687 63.965 46.4653 63.91 46.2387 63.91C46.0187 63.91 45.817 63.965 45.6337 64.075C45.4503 64.1817 45.3037 64.3267 45.1937 64.51C45.0837 64.6933 45.0287 64.8967 45.0287 65.12V68H43.9887V63H45.0287V63.53C45.202 63.3233 45.4153 63.16 45.6687 63.04C45.922 62.92 46.1953 62.86 46.4887 62.86C46.8587 62.86 47.1953 62.95 47.4987 63.13C47.802 63.31 48.042 63.5517 48.2187 63.855C48.3987 64.1583 48.4887 64.495 48.4887 64.865ZM52.1267 64.04H51.0767L51.0717 68H50.0317L50.0367 64.04H49.2417V63H50.0367L50.0317 61.43H51.0717L51.0767 63H52.1267V64.04ZM52.8219 66.125V63H53.8619V65.87C53.8619 66.0933 53.9169 66.2967 54.0269 66.48C54.1369 66.6633 54.2835 66.81 54.4669 66.92C54.6502 67.0267 54.8519 67.08 55.0719 67.08C55.2952 67.08 55.4969 67.0267 55.6769 66.92C55.8602 66.81 56.0052 66.6633 56.1119 66.48C56.2219 66.2967 56.2769 66.0933 56.2769 65.87V63H57.3169L57.3219 68H56.2819L56.2769 67.46C56.1069 67.6667 55.8952 67.83 55.6419 67.95C55.3885 68.07 55.1169 68.13 54.8269 68.13C54.4569 68.13 54.1202 68.04 53.8169 67.86C53.5135 67.68 53.2719 67.4383 53.0919 67.135C52.9119 66.8317 52.8219 66.495 52.8219 66.125ZM58.3246 63H59.3646V68H58.3246V63ZM58.8546 62.275C58.6946 62.275 58.5613 62.2233 58.4546 62.12C58.3479 62.0167 58.2946 61.8867 58.2946 61.73C58.2946 61.5767 58.3479 61.4483 58.4546 61.345C58.5613 61.2383 58.6929 61.185 58.8496 61.185C59.0029 61.185 59.1329 61.2383 59.2396 61.345C59.3463 61.4483 59.3996 61.5767 59.3996 61.73C59.3996 61.8867 59.3463 62.0167 59.2396 62.12C59.1363 62.2233 59.0079 62.275 58.8546 62.275ZM63.2009 64.04H62.1509L62.1459 68H61.1059L61.1109 64.04H60.3159V63H61.1109L61.1059 61.43H62.1459L62.1509 63H63.2009V64.04ZM64.0277 63H65.0677V68H64.0277V63ZM64.5577 62.275C64.3977 62.275 64.2644 62.2233 64.1577 62.12C64.0511 62.0167 63.9977 61.8867 63.9977 61.73C63.9977 61.5767 64.0511 61.4483 64.1577 61.345C64.2644 61.2383 64.3961 61.185 64.5527 61.185C64.7061 61.185 64.8361 61.2383 64.9427 61.345C65.0494 61.4483 65.1027 61.5767 65.1027 61.73C65.1027 61.8867 65.0494 62.0167 64.9427 62.12C64.8394 62.2233 64.7111 62.275 64.5577 62.275ZM68.9971 68H67.6621L65.8371 62.99H66.9471L68.3271 66.8L69.7121 62.99H70.8171L68.9971 68ZM73.591 68.13C73.131 68.13 72.711 68.0117 72.331 67.775C71.9543 67.5383 71.6527 67.2217 71.426 66.825C71.2027 66.425 71.091 65.9833 71.091 65.5C71.091 65.1333 71.156 64.7917 71.286 64.475C71.416 64.155 71.5943 63.875 71.821 63.635C72.051 63.3917 72.3177 63.2017 72.621 63.065C72.9243 62.9283 73.2477 62.86 73.591 62.86C73.9743 62.86 74.326 62.94 74.646 63.1C74.966 63.2567 75.2393 63.475 75.466 63.755C75.6927 64.0317 75.8593 64.3517 75.966 64.715C76.0727 65.075 76.1043 65.4583 76.061 65.865H72.206C72.2493 66.095 72.3327 66.3033 72.456 66.49C72.5827 66.6733 72.7427 66.8183 72.936 66.925C73.1327 67.0317 73.351 67.0867 73.591 67.09C73.8443 67.09 74.0743 67.0267 74.281 66.9C74.491 66.7733 74.6627 66.5983 74.796 66.375L75.851 66.62C75.651 67.0633 75.3493 67.4267 74.946 67.71C74.5427 67.99 74.091 68.13 73.591 68.13ZM72.171 65.07H75.011C74.9777 64.83 74.8927 64.6133 74.756 64.42C74.6227 64.2233 74.4543 64.0683 74.251 63.955C74.051 63.8383 73.831 63.78 73.591 63.78C73.3543 63.78 73.1343 63.8367 72.931 63.95C72.731 64.0633 72.5643 64.2183 72.431 64.415C72.301 64.6083 72.2143 64.8267 72.171 65.07ZM20.0922 78H21.1322V83H20.0922V78ZM20.6222 77.275C20.4622 77.275 20.3289 77.2233 20.2222 77.12C20.1155 77.0167 20.0622 76.8867 20.0622 76.73C20.0622 76.5767 20.1155 76.4483 20.2222 76.345C20.3289 76.2383 20.4605 76.185 20.6172 76.185C20.7705 76.185 20.9005 76.2383 21.0072 76.345C21.1139 76.4483 21.1672 76.5767 21.1672 76.73C21.1672 76.8867 21.1139 77.0167 21.0072 77.12C20.9039 77.2233 20.7755 77.275 20.6222 77.275ZM22.2895 83V78H23.3295V78.53C23.5028 78.3233 23.7145 78.16 23.9645 78.04C24.2178 77.92 24.4911 77.86 24.7845 77.86C25.1411 77.86 25.4695 77.9467 25.7695 78.12C26.0695 78.29 26.3078 78.5167 26.4845 78.8C26.6611 78.5167 26.8961 78.29 27.1895 78.12C27.4861 77.9467 27.8128 77.86 28.1695 77.86C28.5395 77.86 28.8761 77.95 29.1795 78.13C29.4828 78.31 29.7245 78.5517 29.9045 78.855C30.0845 79.1583 30.1745 79.495 30.1745 79.865V83H29.1345V80.13C29.1345 79.91 29.0811 79.7083 28.9745 79.525C28.8678 79.3417 28.7245 79.1933 28.5445 79.08C28.3645 78.9667 28.1645 78.91 27.9445 78.91C27.7245 78.91 27.5245 78.9633 27.3445 79.07C27.1645 79.1767 27.0211 79.3217 26.9145 79.505C26.8078 79.6883 26.7545 79.8967 26.7545 80.13V83H25.7145V80.13C25.7145 79.8967 25.6611 79.6883 25.5545 79.505C25.4478 79.3217 25.3028 79.1767 25.1195 79.07C24.9395 78.9633 24.7395 78.91 24.5195 78.91C24.3028 78.91 24.1028 78.9667 23.9195 79.08C23.7395 79.1933 23.5961 79.3417 23.4895 79.525C23.3828 79.7083 23.3295 79.91 23.3295 80.13V83H22.2895ZM32.2162 85.5H31.1762V78H32.2162V78.735C32.3828 78.4783 32.5962 78.27 32.8562 78.11C33.1162 77.95 33.4228 77.87 33.7762 77.87C34.1395 77.87 34.4795 77.9383 34.7962 78.075C35.1162 78.2117 35.3962 78.4017 35.6362 78.645C35.8762 78.885 36.0645 79.1633 36.2012 79.48C36.3378 79.7967 36.4062 80.1367 36.4062 80.5C36.4062 80.8633 36.3378 81.205 36.2012 81.525C36.0645 81.845 35.8762 82.1267 35.6362 82.37C35.3962 82.61 35.1162 82.7983 34.7962 82.935C34.4795 83.0717 34.1395 83.14 33.7762 83.14C33.4228 83.14 33.1162 83.06 32.8562 82.9C32.5962 82.7367 32.3828 82.5283 32.2162 82.275V85.5ZM33.7662 78.875C33.4762 78.875 33.2212 78.9483 33.0012 79.095C32.7812 79.2417 32.6095 79.4383 32.4862 79.685C32.3628 79.9283 32.3012 80.2 32.3012 80.5C32.3012 80.8 32.3628 81.0733 32.4862 81.32C32.6095 81.5667 32.7812 81.7633 33.0012 81.91C33.2212 82.0567 33.4762 82.13 33.7662 82.13C34.0528 82.13 34.3162 82.0583 34.5562 81.915C34.7962 81.7683 34.9878 81.5717 35.1312 81.325C35.2745 81.0783 35.3462 80.8033 35.3462 80.5C35.3462 80.2033 35.2745 79.9317 35.1312 79.685C34.9912 79.4383 34.8012 79.2417 34.5612 79.095C34.3212 78.9483 34.0562 78.875 33.7662 78.875ZM41.1013 78H42.1413V83H41.0963L41.0563 82.275C40.9097 82.5317 40.7113 82.7383 40.4613 82.895C40.2113 83.0517 39.9163 83.13 39.5763 83.13C39.2097 83.13 38.8647 83.0617 38.5413 82.925C38.218 82.785 37.933 82.5917 37.6863 82.345C37.443 82.0983 37.253 81.815 37.1163 81.495C36.9797 81.1717 36.9113 80.825 36.9113 80.455C36.9113 80.0983 36.978 79.7633 37.1113 79.45C37.2447 79.1333 37.4297 78.8567 37.6663 78.62C37.903 78.3833 38.1763 78.1983 38.4863 78.065C38.7997 77.9283 39.1347 77.86 39.4913 77.86C39.8547 77.86 40.1747 77.9433 40.4513 78.11C40.7313 78.2733 40.963 78.4833 41.1463 78.74L41.1013 78ZM39.5513 82.125C39.8447 82.125 40.1013 82.0533 40.3213 81.91C40.5413 81.7633 40.7113 81.5667 40.8313 81.32C40.9547 81.0733 41.0163 80.8 41.0163 80.5C41.0163 80.1967 40.9547 79.9217 40.8313 79.675C40.708 79.4283 40.5363 79.2333 40.3163 79.09C40.0997 78.9433 39.8447 78.87 39.5513 78.87C39.2613 78.87 38.9963 78.9433 38.7563 79.09C38.5163 79.2367 38.3263 79.4333 38.1863 79.68C38.0463 79.9267 37.9763 80.2 37.9763 80.5C37.9763 80.8033 38.048 81.0783 38.1913 81.325C38.338 81.5683 38.5297 81.7633 38.7663 81.91C39.0063 82.0533 39.268 82.125 39.5513 82.125ZM46.3064 81.58L47.2364 82.085C47.0097 82.4017 46.7214 82.655 46.3714 82.845C46.0247 83.035 45.6481 83.13 45.2414 83.13C44.7814 83.13 44.3614 83.0117 43.9814 82.775C43.6047 82.5383 43.3031 82.2217 43.0764 81.825C42.8531 81.425 42.7414 80.9833 42.7414 80.5C42.7414 80.1333 42.8064 79.7917 42.9364 79.475C43.0664 79.155 43.2447 78.875 43.4714 78.635C43.7014 78.3917 43.9681 78.2017 44.2714 78.065C44.5747 77.9283 44.8981 77.86 45.2414 77.86C45.6481 77.86 46.0247 77.955 46.3714 78.145C46.7214 78.335 47.0097 78.59 47.2364 78.91L46.3064 79.415C46.1664 79.2483 46.0031 79.1217 45.8164 79.035C45.6297 78.945 45.4381 78.9 45.2414 78.9C44.9681 78.9 44.7197 78.975 44.4964 79.125C44.2764 79.2717 44.1014 79.4667 43.9714 79.71C43.8447 79.95 43.7814 80.2133 43.7814 80.5C43.7814 80.7833 43.8464 81.0467 43.9764 81.29C44.1064 81.53 44.2814 81.7233 44.5014 81.87C44.7247 82.0167 44.9714 82.09 45.2414 82.09C45.4481 82.09 45.6447 82.0433 45.8314 81.95C46.0181 81.8567 46.1764 81.7333 46.3064 81.58ZM50.7791 79.04H49.7291L49.7241 83H48.6841L48.6891 79.04H47.8941V78H48.6891L48.6841 76.43H49.7241L49.7291 78H50.7791V79.04ZM52.9592 76.865V78H54.3692V79.04H52.9592V83H51.9192V79.04H51.3242V78H51.9192V76.865C51.9192 76.5917 51.9859 76.3433 52.1192 76.12C52.2526 75.8933 52.4309 75.7133 52.6542 75.58C52.8809 75.4467 53.1326 75.38 53.4092 75.38C53.6092 75.38 53.8042 75.42 53.9942 75.5C54.1842 75.58 54.3542 75.7033 54.5042 75.87L53.7592 76.605C53.7226 76.545 53.6709 76.5 53.6042 76.47C53.5409 76.4367 53.4759 76.42 53.4092 76.42C53.2859 76.42 53.1792 76.4633 53.0892 76.55C53.0026 76.6367 52.9592 76.7417 52.9592 76.865ZM55.0875 81.125V78H56.1275V80.87C56.1275 81.0933 56.1825 81.2967 56.2925 81.48C56.4025 81.6633 56.5492 81.81 56.7325 81.92C56.9158 82.0267 57.1175 82.08 57.3375 82.08C57.5608 82.08 57.7625 82.0267 57.9425 81.92C58.1258 81.81 58.2708 81.6633 58.3775 81.48C58.4875 81.2967 58.5425 81.0933 58.5425 80.87V78H59.5825L59.5875 83H58.5475L58.5425 82.46C58.3725 82.6667 58.1608 82.83 57.9075 82.95C57.6542 83.07 57.3825 83.13 57.0925 83.13C56.7225 83.13 56.3858 83.04 56.0825 82.86C55.7792 82.68 55.5375 82.4383 55.3575 82.135C55.1775 81.8317 55.0875 81.495 55.0875 81.125ZM60.6293 83V75.5H61.6693V83H60.6293Z" fill="#8F00FF"/>
</svg>
