<svg width="124" height="63" viewBox="0 0 124 63" fill="none" xmlns="http://www.w3.org/2000/svg">
<path d="M8.649 0.399999H10.521V13H8.649V7.186H2.952V13H1.08V0.399999H2.952V5.314H8.649V0.399999ZM12.3216 9.625V4H14.1936V9.166C14.1936 9.568 14.2926 9.934 14.4906 10.264C14.6886 10.594 14.9526 10.858 15.2826 11.056C15.6126 11.248 15.9756 11.344 16.3716 11.344C16.7736 11.344 17.1366 11.248 17.4606 11.056C17.7906 10.858 18.0516 10.594 18.2436 10.264C18.4416 9.934 18.5406 9.568 18.5406 9.166V4H20.4126L20.4216 13H18.5496L18.5406 12.028C18.2346 12.4 17.8536 12.694 17.3976 12.91C16.9416 13.126 16.4526 13.234 15.9306 13.234C15.2646 13.234 14.6586 13.072 14.1126 12.748C13.5666 12.424 13.1316 11.989 12.8076 11.443C12.4836 10.897 12.3216 10.291 12.3216 9.625ZM22.2265 13V4H24.0985V4.954C24.4105 4.582 24.7915 4.288 25.2415 4.072C25.6975 3.856 26.1895 3.748 26.7175 3.748C27.3595 3.748 27.9505 3.904 28.4905 4.216C29.0305 4.522 29.4595 4.93 29.7775 5.44C30.0955 4.93 30.5185 4.522 31.0465 4.216C31.5805 3.904 32.1685 3.748 32.8105 3.748C33.4765 3.748 34.0825 3.91 34.6285 4.234C35.1745 4.558 35.6095 4.993 35.9335 5.539C36.2575 6.085 36.4195 6.691 36.4195 7.357V13H34.5475V7.834C34.5475 7.438 34.4515 7.075 34.2595 6.745C34.0675 6.415 33.8095 6.148 33.4855 5.944C33.1615 5.74 32.8015 5.638 32.4055 5.638C32.0095 5.638 31.6495 5.734 31.3255 5.926C31.0015 6.118 30.7435 6.379 30.5515 6.709C30.3595 7.039 30.2635 7.414 30.2635 7.834V13H28.3915V7.834C28.3915 7.414 28.2955 7.039 28.1035 6.709C27.9115 6.379 27.6505 6.118 27.3205 5.926C26.9965 5.734 26.6365 5.638 26.2405 5.638C25.8505 5.638 25.4905 5.74 25.1605 5.944C24.8365 6.148 24.5785 6.415 24.3865 6.745C24.1945 7.075 24.0985 7.438 24.0985 7.834V13H22.2265ZM45.0488 4H46.9208V13H45.0398L44.9678 11.695C44.7038 12.157 44.3468 12.529 43.8968 12.811C43.4468 13.093 42.9158 13.234 42.3038 13.234C41.6438 13.234 41.0228 13.111 40.4408 12.865C39.8588 12.613 39.3458 12.265 38.9018 11.821C38.4638 11.377 38.1218 10.867 37.8758 10.291C37.6298 9.709 37.5068 9.085 37.5068 8.419C37.5068 7.777 37.6268 7.174 37.8668 6.61C38.1068 6.04 38.4398 5.542 38.8658 5.116C39.2918 4.69 39.7838 4.357 40.3418 4.117C40.9058 3.871 41.5088 3.748 42.1508 3.748C42.8048 3.748 43.3808 3.898 43.8788 4.198C44.3828 4.492 44.7998 4.87 45.1298 5.332L45.0488 4ZM42.2588 11.425C42.7868 11.425 43.2488 11.296 43.6448 11.038C44.0408 10.774 44.3468 10.42 44.5628 9.976C44.7848 9.532 44.8958 9.04 44.8958 8.5C44.8958 7.954 44.7848 7.459 44.5628 7.015C44.3408 6.571 44.0318 6.22 43.6358 5.962C43.2458 5.698 42.7868 5.566 42.2588 5.566C41.7368 5.566 41.2598 5.698 40.8278 5.962C40.3958 6.226 40.0538 6.58 39.8018 7.024C39.5498 7.468 39.4238 7.96 39.4238 8.5C39.4238 9.046 39.5528 9.541 39.8108 9.985C40.0748 10.423 40.4198 10.774 40.8458 11.038C41.2778 11.296 41.7488 11.425 42.2588 11.425ZM56.8167 7.357V13H54.9447V7.816C54.9447 7.414 54.8457 7.048 54.6477 6.718C54.4557 6.388 54.1947 6.127 53.8647 5.935C53.5407 5.737 53.1747 5.638 52.7667 5.638C52.3707 5.638 52.0077 5.737 51.6777 5.935C51.3477 6.127 51.0837 6.388 50.8857 6.718C50.6877 7.048 50.5887 7.414 50.5887 7.816V13H48.7167V4H50.5887V4.954C50.9007 4.582 51.2847 4.288 51.7407 4.072C52.1967 3.856 52.6887 3.748 53.2167 3.748C53.8827 3.748 54.4887 3.91 55.0347 4.234C55.5807 4.558 56.0127 4.993 56.3307 5.539C56.6547 6.085 56.8167 6.691 56.8167 7.357ZM58.6132 6.664H64.3732V8.536H58.6132V6.664ZM72.3729 13.234C71.5209 13.234 70.7199 13.066 69.9699 12.73C69.2199 12.388 68.5599 11.92 67.9899 11.326C67.4259 10.726 66.9819 10.03 66.6579 9.238C66.3399 8.446 66.1809 7.6 66.1809 6.7C66.1809 5.8 66.3399 4.954 66.6579 4.162C66.9819 3.37 67.4259 2.677 67.9899 2.083C68.5599 1.483 69.2199 1.015 69.9699 0.678999C70.7199 0.336999 71.5209 0.165999 72.3729 0.165999C73.3929 0.165999 74.3319 0.402999 75.1899 0.876999C76.0479 1.351 76.7589 1.981 77.3229 2.767L75.6579 3.658C75.2679 3.166 74.7849 2.773 74.2089 2.479C73.6329 2.185 73.0209 2.038 72.3729 2.038C71.7729 2.038 71.2119 2.161 70.6899 2.407C70.1679 2.653 69.7089 2.989 69.3129 3.415C68.9169 3.841 68.6079 4.336 68.3859 4.9C68.1639 5.464 68.0529 6.064 68.0529 6.7C68.0529 7.342 68.1639 7.945 68.3859 8.509C68.6079 9.067 68.9169 9.562 69.3129 9.994C69.7149 10.42 70.1769 10.756 70.6989 11.002C71.2209 11.242 71.7789 11.362 72.3729 11.362C73.0329 11.362 73.6479 11.215 74.2179 10.921C74.7939 10.621 75.2739 10.225 75.6579 9.733L77.3229 10.642C76.7589 11.428 76.0479 12.058 75.1899 12.532C74.3319 13 73.3929 13.234 72.3729 13.234ZM82.5595 13.234C81.7315 13.234 80.9755 13.021 80.2915 12.595C79.6135 12.169 79.0705 11.599 78.6625 10.885C78.2605 10.165 78.0595 9.37 78.0595 8.5C78.0595 7.84 78.1765 7.225 78.4105 6.655C78.6445 6.079 78.9655 5.575 79.3735 5.143C79.7875 4.705 80.2675 4.363 80.8135 4.117C81.3595 3.871 81.9415 3.748 82.5595 3.748C83.2495 3.748 83.8825 3.892 84.4585 4.18C85.0345 4.462 85.5265 4.855 85.9345 5.359C86.3425 5.857 86.6425 6.433 86.8345 7.087C87.0265 7.735 87.0835 8.425 87.0055 9.157H80.0665C80.1445 9.571 80.2945 9.946 80.5165 10.282C80.7445 10.612 81.0325 10.873 81.3805 11.065C81.7345 11.257 82.1275 11.356 82.5595 11.362C83.0155 11.362 83.4295 11.248 83.8015 11.02C84.1795 10.792 84.4885 10.477 84.7285 10.075L86.6275 10.516C86.2675 11.314 85.7245 11.968 84.9985 12.478C84.2725 12.982 83.4595 13.234 82.5595 13.234ZM80.0035 7.726H85.1155C85.0555 7.294 84.9025 6.904 84.6565 6.556C84.4165 6.202 84.1135 5.923 83.7475 5.719C83.3875 5.509 82.9915 5.404 82.5595 5.404C82.1335 5.404 81.7375 5.506 81.3715 5.71C81.0115 5.914 80.7115 6.193 80.4715 6.547C80.2375 6.895 80.0815 7.288 80.0035 7.726ZM96.596 7.357V13H94.724V7.816C94.724 7.414 94.625 7.048 94.427 6.718C94.235 6.388 93.974 6.127 93.644 5.935C93.32 5.737 92.954 5.638 92.546 5.638C92.15 5.638 91.787 5.737 91.457 5.935C91.127 6.127 90.863 6.388 90.665 6.718C90.467 7.048 90.368 7.414 90.368 7.816V13H88.496V4H90.368V4.954C90.68 4.582 91.064 4.288 91.52 4.072C91.976 3.856 92.468 3.748 92.996 3.748C93.662 3.748 94.268 3.91 94.814 4.234C95.36 4.558 95.792 4.993 96.11 5.539C96.434 6.085 96.596 6.691 96.596 7.357ZM103.145 5.872H101.255L101.246 13H99.3735L99.3825 5.872H97.9515V4H99.3825L99.3735 1.174H101.246L101.255 4H103.145V5.872ZM104.756 13V4H106.628V4.954C106.94 4.582 107.324 4.288 107.78 4.072C108.236 3.856 108.728 3.748 109.256 3.748C109.592 3.748 109.925 3.793 110.255 3.883L109.508 5.773C109.274 5.683 109.04 5.638 108.806 5.638C108.41 5.638 108.047 5.737 107.717 5.935C107.387 6.127 107.123 6.388 106.925 6.718C106.727 7.048 106.628 7.414 106.628 7.816V13H104.756ZM111.295 4H113.167V13H111.295V4ZM112.249 2.695C111.961 2.695 111.721 2.602 111.529 2.416C111.337 2.23 111.241 1.996 111.241 1.714C111.241 1.438 111.337 1.207 111.529 1.021C111.721 0.829 111.958 0.733 112.24 0.733C112.516 0.733 112.75 0.829 112.942 1.021C113.134 1.207 113.23 1.438 113.23 1.714C113.23 1.996 113.134 2.23 112.942 2.416C112.756 2.602 112.525 2.695 112.249 2.695ZM121.039 10.444L122.713 11.353C122.305 11.923 121.786 12.379 121.156 12.721C120.532 13.063 119.854 13.234 119.122 13.234C118.294 13.234 117.538 13.021 116.854 12.595C116.176 12.169 115.633 11.599 115.225 10.885C114.823 10.165 114.622 9.37 114.622 8.5C114.622 7.84 114.739 7.225 114.973 6.655C115.207 6.079 115.528 5.575 115.936 5.143C116.35 4.705 116.83 4.363 117.376 4.117C117.922 3.871 118.504 3.748 119.122 3.748C119.854 3.748 120.532 3.919 121.156 4.261C121.786 4.603 122.305 5.062 122.713 5.638L121.039 6.547C120.787 6.247 120.493 6.019 120.157 5.863C119.821 5.701 119.476 5.62 119.122 5.62C118.63 5.62 118.183 5.755 117.781 6.025C117.385 6.289 117.07 6.64 116.836 7.078C116.608 7.51 116.494 7.984 116.494 8.5C116.494 9.01 116.611 9.484 116.845 9.922C117.079 10.354 117.394 10.702 117.79 10.966C118.192 11.23 118.636 11.362 119.122 11.362C119.494 11.362 119.848 11.278 120.184 11.11C120.52 10.942 120.805 10.72 121.039 10.444Z" fill="#8F00FF"/>
<path d="M5.517 35.234C4.839 35.234 4.185 35.129 3.555 34.919C2.925 34.703 2.373 34.397 1.899 34.001C1.431 33.605 1.098 33.134 0.9 32.588L2.313 32.057C2.433 32.393 2.655 32.687 2.979 32.939C3.309 33.185 3.696 33.377 4.14 33.515C4.584 33.653 5.043 33.722 5.517 33.722C6.057 33.722 6.558 33.635 7.02 33.461C7.488 33.281 7.866 33.032 8.154 32.714C8.442 32.396 8.586 32.024 8.586 31.598C8.586 31.16 8.436 30.803 8.136 30.527C7.836 30.245 7.452 30.023 6.984 29.861C6.516 29.693 6.027 29.564 5.517 29.474C4.647 29.33 3.867 29.126 3.177 28.862C2.493 28.592 1.95 28.217 1.548 27.737C1.152 27.257 0.954 26.624 0.954 25.838C0.954 25.106 1.164 24.467 1.584 23.921C2.01 23.375 2.571 22.952 3.267 22.652C3.963 22.352 4.713 22.202 5.517 22.202C6.183 22.202 6.828 22.307 7.452 22.517C8.082 22.721 8.637 23.021 9.117 23.417C9.597 23.813 9.942 24.296 10.152 24.866L8.721 25.388C8.601 25.046 8.376 24.752 8.046 24.506C7.722 24.254 7.338 24.062 6.894 23.93C6.456 23.792 5.997 23.723 5.517 23.723C4.983 23.717 4.485 23.804 4.023 23.984C3.561 24.164 3.186 24.413 2.898 24.731C2.61 25.049 2.466 25.418 2.466 25.838C2.466 26.342 2.598 26.729 2.862 26.999C3.132 27.263 3.498 27.461 3.96 27.593C4.422 27.725 4.941 27.842 5.517 27.944C6.333 28.082 7.089 28.301 7.785 28.601C8.481 28.895 9.039 29.288 9.459 29.78C9.885 30.272 10.098 30.878 10.098 31.598C10.098 32.33 9.885 32.969 9.459 33.515C9.039 34.061 8.481 34.484 7.785 34.784C7.089 35.084 6.333 35.234 5.517 35.234ZM15.9384 35.234C15.1104 35.234 14.3544 35.021 13.6704 34.595C12.9924 34.169 12.4494 33.599 12.0414 32.885C11.6394 32.165 11.4384 31.37 11.4384 30.5C11.4384 29.84 11.5554 29.225 11.7894 28.655C12.0234 28.079 12.3444 27.575 12.7524 27.143C13.1664 26.705 13.6464 26.363 14.1924 26.117C14.7384 25.871 15.3204 25.748 15.9384 25.748C16.7664 25.748 17.5194 25.961 18.1974 26.387C18.8814 26.813 19.4244 27.386 19.8264 28.106C20.2344 28.826 20.4384 29.624 20.4384 30.5C20.4384 31.154 20.3214 31.766 20.0874 32.336C19.8534 32.906 19.5294 33.41 19.1154 33.848C18.7074 34.28 18.2304 34.619 17.6844 34.865C17.1444 35.111 16.5624 35.234 15.9384 35.234ZM15.9384 33.722C16.5024 33.722 17.0094 33.575 17.4594 33.281C17.9154 32.981 18.2724 32.588 18.5304 32.102C18.7944 31.61 18.9264 31.076 18.9264 30.5C18.9264 29.912 18.7914 29.372 18.5214 28.88C18.2574 28.388 17.9004 27.995 17.4504 27.701C17.0004 27.407 16.4964 27.26 15.9384 27.26C15.3744 27.26 14.8674 27.41 14.4174 27.71C13.9674 28.004 13.6104 28.397 13.3464 28.889C13.0824 29.381 12.9504 29.918 12.9504 30.5C12.9504 31.1 13.0854 31.646 13.3554 32.138C13.6254 32.624 13.9884 33.011 14.4444 33.299C14.9004 33.581 15.3984 33.722 15.9384 33.722ZM21.8398 35V21.5H23.3518V35H21.8398ZM25.1536 31.58V26H26.6656V31.247C26.6656 31.703 26.7766 32.117 26.9986 32.489C27.2206 32.861 27.5176 33.158 27.8896 33.38C28.2676 33.596 28.6816 33.704 29.1316 33.704C29.5876 33.704 29.9986 33.596 30.3646 33.38C30.7366 33.158 31.0336 32.861 31.2556 32.489C31.4776 32.117 31.5886 31.703 31.5886 31.247V26H33.1006L33.1096 35H31.5976L31.5886 33.857C31.2706 34.277 30.8686 34.613 30.3826 34.865C29.8966 35.111 29.3716 35.234 28.8076 35.234C28.1356 35.234 27.5206 35.072 26.9626 34.748C26.4106 34.418 25.9696 33.977 25.6396 33.425C25.3156 32.873 25.1536 32.258 25.1536 31.58ZM39.5799 27.512H37.5369L37.5279 35H36.0159L36.0249 27.512H34.4769V26H36.0249L36.0159 23.174H37.5279L37.5369 26H39.5799V27.512ZM41.1054 26H42.6174V35H41.1054V26ZM41.8794 24.533C41.6394 24.533 41.4384 24.455 41.2764 24.299C41.1144 24.143 41.0334 23.948 41.0334 23.714C41.0334 23.48 41.1144 23.285 41.2764 23.129C41.4384 22.973 41.6364 22.895 41.8704 22.895C42.1044 22.895 42.3024 22.973 42.4644 23.129C42.6264 23.285 42.7074 23.48 42.7074 23.714C42.7074 23.948 42.6264 24.143 42.4644 24.299C42.3084 24.455 42.1134 24.533 41.8794 24.533ZM48.6162 35.234C47.7882 35.234 47.0322 35.021 46.3482 34.595C45.6702 34.169 45.1272 33.599 44.7192 32.885C44.3172 32.165 44.1162 31.37 44.1162 30.5C44.1162 29.84 44.2332 29.225 44.4672 28.655C44.7012 28.079 45.0222 27.575 45.4302 27.143C45.8442 26.705 46.3242 26.363 46.8702 26.117C47.4162 25.871 47.9982 25.748 48.6162 25.748C49.4442 25.748 50.1972 25.961 50.8752 26.387C51.5592 26.813 52.1022 27.386 52.5042 28.106C52.9122 28.826 53.1162 29.624 53.1162 30.5C53.1162 31.154 52.9992 31.766 52.7652 32.336C52.5312 32.906 52.2072 33.41 51.7932 33.848C51.3852 34.28 50.9082 34.619 50.3622 34.865C49.8222 35.111 49.2402 35.234 48.6162 35.234ZM48.6162 33.722C49.1802 33.722 49.6872 33.575 50.1372 33.281C50.5932 32.981 50.9502 32.588 51.2082 32.102C51.4722 31.61 51.6042 31.076 51.6042 30.5C51.6042 29.912 51.4692 29.372 51.1992 28.88C50.9352 28.388 50.5782 27.995 50.1282 27.701C49.6782 27.407 49.1742 27.26 48.6162 27.26C48.0522 27.26 47.5452 27.41 47.0952 27.71C46.6452 28.004 46.2882 28.397 46.0242 28.889C45.7602 29.381 45.6282 29.918 45.6282 30.5C45.6282 31.1 45.7632 31.646 46.0332 32.138C46.3032 32.624 46.6662 33.011 47.1222 33.299C47.5782 33.581 48.0762 33.722 48.6162 33.722ZM62.5614 29.402V35H61.0494V29.735C61.0494 29.279 60.9384 28.865 60.7164 28.493C60.4944 28.121 60.1974 27.827 59.8254 27.611C59.4534 27.389 59.0394 27.278 58.5834 27.278C58.1334 27.278 57.7194 27.389 57.3414 27.611C56.9694 27.827 56.6724 28.121 56.4504 28.493C56.2284 28.865 56.1174 29.279 56.1174 29.735V35H54.6054V26H56.1174V27.125C56.4354 26.705 56.8374 26.372 57.3234 26.126C57.8094 25.874 58.3374 25.748 58.9074 25.748C59.5794 25.748 60.1914 25.913 60.7434 26.243C61.3014 26.567 61.7424 27.005 62.0664 27.557C62.3964 28.109 62.5614 28.724 62.5614 29.402ZM67.1063 35.171C66.6203 35.153 66.1463 35.063 65.6843 34.901C65.2283 34.733 64.8263 34.508 64.4783 34.226C64.1363 33.938 63.8873 33.608 63.7313 33.236L65.0273 32.678C65.1173 32.882 65.2793 33.074 65.5133 33.254C65.7473 33.434 66.0173 33.578 66.3233 33.686C66.6293 33.794 66.9383 33.848 67.2503 33.848C67.5803 33.848 67.8893 33.797 68.1773 33.695C68.4653 33.593 68.6993 33.443 68.8793 33.245C69.0653 33.041 69.1583 32.798 69.1583 32.516C69.1583 32.216 69.0563 31.982 68.8523 31.814C68.6543 31.64 68.4023 31.505 68.0963 31.409C67.7963 31.307 67.4903 31.211 67.1783 31.121C66.5603 30.965 66.0083 30.779 65.5223 30.563C65.0363 30.341 64.6523 30.062 64.3703 29.726C64.0943 29.384 63.9563 28.949 63.9563 28.421C63.9563 27.863 64.1093 27.38 64.4153 26.972C64.7273 26.564 65.1353 26.249 65.6393 26.027C66.1433 25.805 66.6833 25.694 67.2593 25.694C67.9853 25.694 68.6483 25.85 69.2483 26.162C69.8483 26.474 70.2953 26.897 70.5893 27.431L69.3743 28.142C69.2723 27.926 69.1163 27.737 68.9062 27.575C68.6963 27.407 68.4563 27.275 68.1863 27.179C67.9163 27.083 67.6403 27.032 67.3583 27.026C67.0103 27.014 66.6833 27.059 66.3773 27.161C66.0773 27.263 65.8343 27.419 65.6483 27.629C65.4683 27.833 65.3783 28.088 65.3783 28.394C65.3783 28.694 65.4743 28.922 65.6663 29.078C65.8643 29.234 66.1193 29.36 66.4313 29.456C66.7493 29.546 67.0943 29.651 67.4663 29.771C68.0123 29.945 68.5223 30.146 68.9963 30.374C69.4703 30.602 69.8513 30.887 70.1393 31.229C70.4333 31.571 70.5773 31.994 70.5713 32.498C70.5713 33.05 70.4063 33.533 70.0763 33.947C69.7463 34.355 69.3173 34.667 68.7893 34.883C68.2673 35.099 67.7063 35.195 67.1063 35.171Z" fill="black"/>
<path d="M2.401 52.091C2.009 52.091 1.66367 51.9953 1.365 51.804C1.06867 51.6127 0.8365 51.356 0.6685 51.034C0.502833 50.7097 0.42 50.3503 0.42 49.956V47.1H1.386V49.956C1.386 50.1683 1.42567 50.3632 1.505 50.5405C1.58433 50.7178 1.69983 50.8602 1.8515 50.9675C2.00317 51.0725 2.18633 51.125 2.401 51.125C2.618 51.125 2.80117 51.0725 2.9505 50.9675C3.10217 50.8625 3.2165 50.7213 3.2935 50.544C3.3705 50.3667 3.409 50.1707 3.409 49.956V47.1H4.375V49.956C4.375 50.2523 4.32717 50.53 4.2315 50.789C4.13817 51.0457 4.004 51.272 3.829 51.468C3.654 51.664 3.44517 51.8168 3.2025 51.9265C2.96217 52.0362 2.695 52.091 2.401 52.091ZM8.33361 49.774V52H7.36761V50.04C7.36761 49.9163 7.33728 49.8055 7.27661 49.7075C7.21828 49.6072 7.13894 49.5278 7.03861 49.4695C6.94061 49.4112 6.83094 49.382 6.70961 49.382C6.58828 49.382 6.47744 49.4112 6.37711 49.4695C6.27678 49.5278 6.19744 49.6072 6.13911 49.7075C6.08078 49.8055 6.05161 49.9163 6.05161 50.04V52H5.08561L5.08211 48.5H6.04811L6.05161 48.759C6.16828 48.647 6.30478 48.5595 6.46111 48.4965C6.61978 48.4335 6.78661 48.402 6.96161 48.402C7.21594 48.402 7.44578 48.4638 7.65111 48.5875C7.85878 48.7112 8.02444 48.8768 8.14811 49.0845C8.27178 49.2898 8.33361 49.5197 8.33361 49.774ZM9.04012 52V46.75H10.0061V52H9.04012ZM12.3164 52.091C11.9944 52.091 11.7004 52.0082 11.4344 51.8425C11.1708 51.6768 10.9596 51.454 10.8009 51.174C10.6446 50.894 10.5664 50.5848 10.5664 50.2465C10.5664 49.9922 10.6119 49.7542 10.7029 49.5325C10.7939 49.3085 10.9188 49.1125 11.0774 48.9445C11.2384 48.7742 11.4251 48.6412 11.6374 48.5455C11.8498 48.4498 12.0761 48.402 12.3164 48.402C12.5941 48.402 12.8473 48.4615 13.0759 48.5805C13.3069 48.6995 13.5018 48.8617 13.6604 49.067C13.8214 49.2723 13.9358 49.5045 14.0034 49.7635C14.0734 50.0225 14.0851 50.292 14.0384 50.572H11.6094C11.6398 50.6747 11.6864 50.768 11.7494 50.852C11.8148 50.9337 11.8941 50.999 11.9874 51.048C12.0831 51.097 12.1928 51.1227 12.3164 51.125C12.4378 51.1273 12.5498 51.0993 12.6524 51.041C12.7551 50.9827 12.8426 50.9045 12.9149 50.8065L13.9019 51.034C13.7596 51.3443 13.5473 51.5987 13.2649 51.797C12.9826 51.993 12.6664 52.091 12.3164 52.091ZM11.5744 49.858H13.0619C13.0316 49.7413 12.9803 49.6363 12.9079 49.543C12.8356 49.4497 12.7481 49.3762 12.6454 49.3225C12.5451 49.2688 12.4354 49.242 12.3164 49.242C12.1998 49.242 12.0901 49.2688 11.9874 49.3225C11.8871 49.3762 11.8008 49.4497 11.7284 49.543C11.6584 49.634 11.6071 49.739 11.5744 49.858ZM17.1941 48.5H18.1601V52H17.1906L17.1451 51.636C17.0541 51.7713 16.9374 51.881 16.7951 51.965C16.6527 52.049 16.4859 52.091 16.2946 52.091C16.0332 52.091 15.7894 52.042 15.5631 51.944C15.3367 51.846 15.1372 51.7107 14.9646 51.538C14.7919 51.3653 14.6566 51.1658 14.5586 50.9395C14.4629 50.7108 14.4151 50.4658 14.4151 50.2045C14.4151 49.9548 14.4606 49.7215 14.5516 49.5045C14.6426 49.2875 14.7709 49.0962 14.9366 48.9305C15.1022 48.7648 15.2924 48.6353 15.5071 48.542C15.7241 48.4487 15.9574 48.402 16.2071 48.402C16.4217 48.402 16.6142 48.4475 16.7846 48.5385C16.9572 48.6295 17.1077 48.745 17.2361 48.885L17.1941 48.5ZM16.2701 51.1635C16.4287 51.1635 16.5722 51.1227 16.7006 51.041C16.8289 50.9593 16.9304 50.8497 17.0051 50.712C17.0797 50.572 17.1171 50.418 17.1171 50.25C17.1171 50.0797 17.0797 49.9257 17.0051 49.788C16.9304 49.6503 16.8289 49.5407 16.7006 49.459C16.5722 49.3773 16.4287 49.3365 16.2701 49.3365C16.1091 49.3365 15.9632 49.3773 15.8326 49.459C15.7019 49.5407 15.5981 49.6515 15.5211 49.7915C15.4441 49.9292 15.4056 50.082 15.4056 50.25C15.4056 50.418 15.4441 50.572 15.5211 50.712C15.6004 50.8497 15.7054 50.9593 15.8361 51.041C15.9667 51.1227 16.1114 51.1635 16.2701 51.1635ZM19.8819 52.063C19.7022 52.049 19.5295 52.0117 19.3639 51.951C19.1982 51.888 19.05 51.804 18.9194 51.699C18.791 51.5917 18.6907 51.4633 18.6184 51.314L19.4304 50.964C19.456 51.0013 19.4945 51.0422 19.5459 51.0865C19.5972 51.1285 19.659 51.1658 19.7314 51.1985C19.806 51.2312 19.8924 51.2475 19.9904 51.2475C20.0627 51.2475 20.1327 51.2393 20.2004 51.223C20.268 51.2043 20.3229 51.1752 20.3649 51.1355C20.4069 51.0935 20.4279 51.0387 20.4279 50.971C20.4279 50.8963 20.401 50.8392 20.3474 50.7995C20.2937 50.7598 20.2284 50.7307 20.1514 50.712C20.0767 50.691 20.0044 50.6735 19.9344 50.6595C19.7197 50.6222 19.5167 50.5557 19.3254 50.46C19.1364 50.362 18.9824 50.236 18.8634 50.082C18.7444 49.928 18.6849 49.7437 18.6849 49.529C18.6849 49.2933 18.7467 49.0903 18.8704 48.92C18.994 48.7473 19.155 48.6143 19.3534 48.521C19.5517 48.4277 19.7664 48.381 19.9974 48.381C20.2704 48.381 20.5235 48.4382 20.7569 48.5525C20.9902 48.6668 21.178 48.8278 21.3204 49.0355L20.5574 49.487C20.527 49.4427 20.4874 49.4007 20.4384 49.361C20.3917 49.319 20.3369 49.284 20.2739 49.256C20.2132 49.2257 20.1479 49.2082 20.0779 49.2035C19.9869 49.1965 19.904 49.2023 19.8294 49.221C19.7547 49.2373 19.6952 49.2688 19.6509 49.3155C19.6089 49.3622 19.5879 49.4252 19.5879 49.5045C19.5879 49.5815 19.6217 49.6387 19.6894 49.676C19.757 49.711 19.8352 49.7378 19.9239 49.7565C20.0125 49.7728 20.0907 49.7927 20.1584 49.816C20.3614 49.8813 20.5515 49.9653 20.7289 50.068C20.9085 50.1683 21.0532 50.292 21.1629 50.439C21.2725 50.586 21.3239 50.7587 21.3169 50.957C21.3169 51.188 21.248 51.391 21.1104 51.566C20.9727 51.7387 20.7942 51.8705 20.5749 51.9615C20.3579 52.0502 20.1269 52.084 19.8819 52.063ZM25.1637 49.774V52H24.1977V50.04C24.1977 49.9163 24.1674 49.8055 24.1067 49.7075C24.0484 49.6072 23.969 49.5278 23.8687 49.4695C23.7707 49.4112 23.661 49.382 23.5397 49.382C23.4184 49.382 23.3075 49.4112 23.2072 49.4695C23.1069 49.5278 23.0275 49.6072 22.9692 49.7075C22.9109 49.8055 22.8817 49.9163 22.8817 50.04V52H21.9157L21.9122 46.75H22.8782L22.8817 48.759C22.9984 48.647 23.1349 48.5595 23.2912 48.4965C23.4499 48.4335 23.6167 48.402 23.7917 48.402C24.046 48.402 24.2759 48.4638 24.4812 48.5875C24.6889 48.7112 24.8545 48.8768 24.9782 49.0845C25.1019 49.2898 25.1637 49.5197 25.1637 49.774ZM25.8634 48.5H26.8294V52H25.8634V48.5ZM26.3534 48.0975C26.2134 48.0975 26.0955 48.0508 25.9999 47.9575C25.9042 47.8642 25.8564 47.7487 25.8564 47.611C25.8564 47.4733 25.9042 47.3578 25.9999 47.2645C26.0955 47.1712 26.2122 47.1245 26.3499 47.1245C26.4875 47.1245 26.603 47.1712 26.6964 47.2645C26.792 47.3578 26.8399 47.4733 26.8399 47.611C26.8399 47.7487 26.7932 47.8642 26.6999 47.9575C26.6089 48.0508 26.4934 48.0975 26.3534 48.0975ZM30.8854 49.774V52H29.9194V50.04C29.9194 49.9163 29.889 49.8055 29.8284 49.7075C29.77 49.6072 29.6907 49.5278 29.5904 49.4695C29.4924 49.4112 29.3827 49.382 29.2614 49.382C29.14 49.382 29.0292 49.4112 28.9289 49.4695C28.8285 49.5278 28.7492 49.6072 28.6909 49.7075C28.6325 49.8055 28.6034 49.9163 28.6034 50.04V52H27.6374L27.6339 48.5H28.5999L28.6034 48.759C28.72 48.647 28.8565 48.5595 29.0129 48.4965C29.1715 48.4335 29.3384 48.402 29.5134 48.402C29.7677 48.402 29.9975 48.4638 30.2029 48.5875C30.4105 48.7112 30.5762 48.8768 30.6999 49.0845C30.8235 49.2898 30.8854 49.5197 30.8854 49.774ZM34.0577 48.5H35.0237V52.049C35.0237 52.308 34.9712 52.5413 34.8662 52.749C34.7612 52.959 34.6177 53.1387 34.4357 53.288C34.256 53.4373 34.0483 53.5517 33.8127 53.631C33.5793 53.7103 33.332 53.75 33.0707 53.75C32.8233 53.75 32.5865 53.701 32.3602 53.603C32.1338 53.5073 31.9332 53.3743 31.7582 53.204C31.5832 53.0337 31.4467 52.8377 31.3487 52.616L32.2307 52.2135C32.2797 52.3302 32.3462 52.4305 32.4302 52.5145C32.5165 52.5985 32.6145 52.6627 32.7242 52.707C32.8362 52.7537 32.9517 52.777 33.0707 52.777C33.199 52.777 33.3215 52.7618 33.4382 52.7315C33.5572 52.7012 33.6633 52.6557 33.7567 52.595C33.85 52.5343 33.9235 52.4585 33.9772 52.3675C34.0308 52.2765 34.0577 52.1703 34.0577 52.049V51.643C33.9503 51.776 33.8197 51.8845 33.6657 51.9685C33.514 52.0502 33.3378 52.091 33.1372 52.091C32.8852 52.091 32.6483 52.0432 32.4267 51.9475C32.2073 51.8518 32.0137 51.72 31.8457 51.552C31.6777 51.3817 31.5458 51.1857 31.4502 50.964C31.3545 50.7423 31.3067 50.5043 31.3067 50.25C31.3067 49.9957 31.3545 49.7577 31.4502 49.536C31.5458 49.3143 31.6777 49.1195 31.8457 48.9515C32.0137 48.7812 32.2073 48.6482 32.4267 48.5525C32.6483 48.4568 32.8852 48.409 33.1372 48.409C33.3378 48.409 33.514 48.451 33.6657 48.535C33.8197 48.6167 33.9503 48.724 34.0577 48.857V48.5ZM33.1512 51.1635C33.3098 51.1635 33.4533 51.1227 33.5817 51.041C33.71 50.957 33.8103 50.8462 33.8827 50.7085C33.9573 50.5708 33.9947 50.418 33.9947 50.25C33.9947 50.082 33.9573 49.9292 33.8827 49.7915C33.8103 49.6515 33.71 49.5407 33.5817 49.459C33.4533 49.3773 33.3098 49.3365 33.1512 49.3365C32.9948 49.3365 32.8513 49.3773 32.7207 49.459C32.5923 49.5407 32.4897 49.6515 32.4127 49.7915C32.3357 49.9292 32.2972 50.082 32.2972 50.25C32.2972 50.418 32.3357 50.572 32.4127 50.712C32.4897 50.8497 32.5923 50.9593 32.7207 51.041C32.8513 51.1227 32.9948 51.1635 33.1512 51.1635ZM39.45 49.466H38.82V52H37.854V49.466H37.371V48.5H37.854V47.401H38.82V48.5H39.45V49.466ZM43.3336 49.774V52H42.3676V50.04C42.3676 49.9163 42.3373 49.8055 42.2766 49.7075C42.2183 49.6072 42.1389 49.5278 42.0386 49.4695C41.9406 49.4112 41.8309 49.382 41.7096 49.382C41.5883 49.382 41.4774 49.4112 41.3771 49.4695C41.2768 49.5278 41.1974 49.6072 41.1391 49.7075C41.0808 49.8055 41.0516 49.9163 41.0516 50.04V52H40.0856L40.0821 46.75H41.0481L41.0516 48.759C41.1683 48.647 41.3048 48.5595 41.4611 48.4965C41.6198 48.4335 41.7866 48.402 41.9616 48.402C42.2159 48.402 42.4458 48.4638 42.6511 48.5875C42.8588 48.7112 43.0244 48.8768 43.1481 49.0845C43.2718 49.2898 43.3336 49.5197 43.3336 49.774ZM45.5049 52.091C45.1829 52.091 44.8889 52.0082 44.6229 51.8425C44.3593 51.6768 44.1481 51.454 43.9894 51.174C43.8331 50.894 43.7549 50.5848 43.7549 50.2465C43.7549 49.9922 43.8004 49.7542 43.8914 49.5325C43.9824 49.3085 44.1073 49.1125 44.2659 48.9445C44.4269 48.7742 44.6136 48.6412 44.8259 48.5455C45.0383 48.4498 45.2646 48.402 45.5049 48.402C45.7826 48.402 46.0358 48.4615 46.2644 48.5805C46.4954 48.6995 46.6903 48.8617 46.8489 49.067C47.0099 49.2723 47.1243 49.5045 47.1919 49.7635C47.2619 50.0225 47.2736 50.292 47.2269 50.572H44.7979C44.8283 50.6747 44.8749 50.768 44.9379 50.852C45.0033 50.9337 45.0826 50.999 45.1759 51.048C45.2716 51.097 45.3813 51.1227 45.5049 51.125C45.6263 51.1273 45.7383 51.0993 45.8409 51.041C45.9436 50.9827 46.0311 50.9045 46.1034 50.8065L47.0904 51.034C46.9481 51.3443 46.7358 51.5987 46.4534 51.797C46.1711 51.993 45.8549 52.091 45.5049 52.091ZM44.7629 49.858H46.2504C46.2201 49.7413 46.1688 49.6363 46.0964 49.543C46.0241 49.4497 45.9366 49.3762 45.8339 49.3225C45.7336 49.2688 45.6239 49.242 45.5049 49.242C45.3883 49.242 45.2786 49.2688 45.1759 49.3225C45.0756 49.3762 44.9893 49.4497 44.9169 49.543C44.8469 49.634 44.7956 49.739 44.7629 49.858ZM49.5636 52V47.1H51.3696C51.6379 47.1 51.8794 47.1677 52.0941 47.303C52.3111 47.4383 52.4837 47.6192 52.6121 47.8455C52.7404 48.0695 52.8046 48.3168 52.8046 48.5875C52.8046 48.8628 52.7392 49.1137 52.6086 49.34C52.4779 49.564 52.3029 49.7425 52.0836 49.8755C51.8666 50.0085 51.6286 50.075 51.3696 50.075H50.5296V52H49.5636ZM50.5296 49.109H51.2611C51.3684 49.109 51.4652 49.0833 51.5516 49.032C51.6379 48.9783 51.7067 48.9072 51.7581 48.8185C51.8117 48.7275 51.8386 48.6272 51.8386 48.5175C51.8386 48.4102 51.8117 48.3122 51.7581 48.2235C51.7067 48.1325 51.6379 48.0602 51.5516 48.0065C51.4652 47.9528 51.3684 47.926 51.2611 47.926H50.5296V49.109ZM54.7403 52.091C54.4183 52.091 54.1243 52.0082 53.8583 51.8425C53.5946 51.6768 53.3834 51.4552 53.2248 51.1775C53.0684 50.8975 52.9903 50.5883 52.9903 50.25C52.9903 49.9933 53.0358 49.7542 53.1268 49.5325C53.2178 49.3085 53.3426 49.1125 53.5013 48.9445C53.6623 48.7742 53.8489 48.6412 54.0613 48.5455C54.2736 48.4498 54.4999 48.402 54.7403 48.402C55.0623 48.402 55.3551 48.4848 55.6188 48.6505C55.8848 48.8162 56.0959 49.039 56.2523 49.319C56.4109 49.599 56.4903 49.9093 56.4903 50.25C56.4903 50.5043 56.4448 50.7423 56.3538 50.964C56.2628 51.1857 56.1368 51.3817 55.9758 51.552C55.8171 51.72 55.6316 51.8518 55.4193 51.9475C55.2093 52.0432 54.9829 52.091 54.7403 52.091ZM54.7403 51.125C54.8896 51.125 55.0238 51.0853 55.1428 51.006C55.2618 50.9243 55.3551 50.817 55.4228 50.684C55.4904 50.551 55.5243 50.4063 55.5243 50.25C55.5243 50.089 55.4881 49.942 55.4158 49.809C55.3458 49.6737 55.2513 49.5663 55.1323 49.487C55.0133 49.4077 54.8826 49.368 54.7403 49.368C54.5933 49.368 54.4603 49.4088 54.3413 49.4905C54.2223 49.5722 54.1278 49.6795 54.0578 49.8125C53.9901 49.9455 53.9563 50.0913 53.9563 50.25C53.9563 50.4157 53.9913 50.565 54.0613 50.698C54.1336 50.8287 54.2293 50.9325 54.3483 51.0095C54.4673 51.0865 54.5979 51.125 54.7403 51.125ZM58.7617 52H57.8097L56.6407 48.5H57.5857L58.2892 50.5965L58.9857 48.5H59.9307L60.6272 50.5965L61.3272 48.5H62.2757L61.1032 52H60.1547L59.4582 49.9L58.7617 52ZM64.1807 52.091C63.8587 52.091 63.5647 52.0082 63.2987 51.8425C63.035 51.6768 62.8239 51.454 62.6652 51.174C62.5089 50.894 62.4307 50.5848 62.4307 50.2465C62.4307 49.9922 62.4762 49.7542 62.5672 49.5325C62.6582 49.3085 62.783 49.1125 62.9417 48.9445C63.1027 48.7742 63.2894 48.6412 63.5017 48.5455C63.714 48.4498 63.9404 48.402 64.1807 48.402C64.4584 48.402 64.7115 48.4615 64.9402 48.5805C65.1712 48.6995 65.366 48.8617 65.5247 49.067C65.6857 49.2723 65.8 49.5045 65.8677 49.7635C65.9377 50.0225 65.9494 50.292 65.9027 50.572H63.4737C63.504 50.6747 63.5507 50.768 63.6137 50.852C63.679 50.9337 63.7584 50.999 63.8517 51.048C63.9474 51.097 64.057 51.1227 64.1807 51.125C64.302 51.1273 64.414 51.0993 64.5167 51.041C64.6194 50.9827 64.7069 50.9045 64.7792 50.8065L65.7662 51.034C65.6239 51.3443 65.4115 51.5987 65.1292 51.797C64.8469 51.993 64.5307 52.091 64.1807 52.091ZM63.4387 49.858H64.9262C64.8959 49.7413 64.8445 49.6363 64.7722 49.543C64.6999 49.4497 64.6124 49.3762 64.5097 49.3225C64.4094 49.2688 64.2997 49.242 64.1807 49.242C64.064 49.242 63.9544 49.2688 63.8517 49.3225C63.7514 49.3762 63.665 49.4497 63.5927 49.543C63.5227 49.634 63.4714 49.739 63.4387 49.858ZM66.4655 52L66.462 48.5H67.428L67.4315 48.759C67.5482 48.647 67.6847 48.5595 67.841 48.4965C67.9997 48.4335 68.1665 48.402 68.3415 48.402C68.4698 48.402 68.5982 48.4207 68.7265 48.458L68.345 49.4345C68.261 49.3995 68.1758 49.382 68.0895 49.382C67.9682 49.382 67.8573 49.4112 67.757 49.4695C67.6567 49.5278 67.5773 49.6072 67.519 49.7075C67.4607 49.8055 67.4315 49.9163 67.4315 50.04V52H66.4655ZM1.96 61.091C1.638 61.091 1.344 61.0082 1.078 60.8425C0.814333 60.6768 0.603167 60.4552 0.4445 60.1775C0.288167 59.8975 0.21 59.5883 0.21 59.25C0.21 58.9933 0.2555 58.7542 0.3465 58.5325C0.4375 58.3085 0.562333 58.1125 0.721 57.9445C0.882 57.7742 1.06867 57.6412 1.281 57.5455C1.49333 57.4498 1.71967 57.402 1.96 57.402C2.282 57.402 2.57483 57.4848 2.8385 57.6505C3.1045 57.8162 3.31567 58.039 3.472 58.319C3.63067 58.599 3.71 58.9093 3.71 59.25C3.71 59.5043 3.6645 59.7423 3.5735 59.964C3.4825 60.1857 3.3565 60.3817 3.1955 60.552C3.03683 60.72 2.85133 60.8518 2.639 60.9475C2.429 61.0432 2.20267 61.091 1.96 61.091ZM1.96 60.125C2.10933 60.125 2.2435 60.0853 2.3625 60.006C2.4815 59.9243 2.57483 59.817 2.6425 59.684C2.71017 59.551 2.744 59.4063 2.744 59.25C2.744 59.089 2.70783 58.942 2.6355 58.809C2.5655 58.6737 2.471 58.5663 2.352 58.487C2.233 58.4077 2.10233 58.368 1.96 58.368C1.813 58.368 1.68 58.4088 1.561 58.4905C1.442 58.5722 1.3475 58.6795 1.2775 58.8125C1.20983 58.9455 1.176 59.0913 1.176 59.25C1.176 59.4157 1.211 59.565 1.281 59.698C1.35333 59.8287 1.449 59.9325 1.568 60.0095C1.687 60.0865 1.81767 60.125 1.96 60.125ZM5.40799 56.821V57.5H6.33549V58.466H5.40799V61H4.44199V58.466H4.09199V57.5H4.44199V56.821C4.44199 56.6087 4.49449 56.4162 4.59949 56.2435C4.70449 56.0685 4.84449 55.9285 5.01949 55.8235C5.19683 55.7185 5.39166 55.666 5.60399 55.666C5.76033 55.666 5.91433 55.6987 6.06599 55.764C6.21766 55.827 6.35299 55.9262 6.47199 56.0615L5.77899 56.744C5.76266 56.7067 5.73816 56.6787 5.70549 56.66C5.67283 56.6413 5.63899 56.632 5.60399 56.632C5.55033 56.632 5.50366 56.6507 5.46399 56.688C5.42666 56.723 5.40799 56.7673 5.40799 56.821ZM8.6368 61V56.1H10.2608C10.5991 56.1 10.9153 56.1642 11.2093 56.2925C11.5056 56.4185 11.7658 56.5947 11.9898 56.821C12.2161 57.045 12.3923 57.3052 12.5183 57.6015C12.6466 57.8955 12.7108 58.2117 12.7108 58.55C12.7108 58.8883 12.6466 59.2057 12.5183 59.502C12.3923 59.796 12.2161 60.0562 11.9898 60.2825C11.7658 60.5065 11.5056 60.6827 11.2093 60.811C10.9153 60.937 10.5991 61 10.2608 61H8.6368ZM9.6028 60.034H10.2608C10.4615 60.034 10.6505 59.9955 10.8278 59.9185C11.0075 59.8415 11.1661 59.7353 11.3038 59.6C11.4415 59.4647 11.5488 59.3072 11.6258 59.1275C11.7051 58.9478 11.7448 58.7553 11.7448 58.55C11.7448 58.3447 11.7051 58.1533 11.6258 57.976C11.5488 57.7963 11.4415 57.6388 11.3038 57.5035C11.1685 57.3658 11.011 57.2585 10.8313 57.1815C10.654 57.1045 10.4638 57.066 10.2608 57.066H9.6028V60.034ZM13.2716 57.5H14.2376V61H13.2716V57.5ZM13.7616 57.0975C13.6216 57.0975 13.5037 57.0508 13.4081 56.9575C13.3124 56.8642 13.2646 56.7487 13.2646 56.611C13.2646 56.4733 13.3124 56.3578 13.4081 56.2645C13.5037 56.1712 13.6204 56.1245 13.7581 56.1245C13.8957 56.1245 14.0112 56.1712 14.1046 56.2645C14.2002 56.3578 14.2481 56.4733 14.2481 56.611C14.2481 56.7487 14.2014 56.8642 14.1081 56.9575C14.0171 57.0508 13.9016 57.0975 13.7616 57.0975ZM17.2599 61H16.0104L14.7364 57.5H15.7654L16.6334 59.8905L17.5014 57.5H18.5339L17.2599 61ZM20.4375 61.091C20.1155 61.091 19.8215 61.0082 19.5555 60.8425C19.2919 60.6768 19.0807 60.454 18.922 60.174C18.7657 59.894 18.6875 59.5848 18.6875 59.2465C18.6875 58.9922 18.733 58.7542 18.824 58.5325C18.915 58.3085 19.0399 58.1125 19.1985 57.9445C19.3595 57.7742 19.5462 57.6412 19.7585 57.5455C19.9709 57.4498 20.1972 57.402 20.4375 57.402C20.7152 57.402 20.9684 57.4615 21.197 57.5805C21.428 57.6995 21.6229 57.8617 21.7815 58.067C21.9425 58.2723 22.0569 58.5045 22.1245 58.7635C22.1945 59.0225 22.2062 59.292 22.1595 59.572H19.7305C19.7609 59.6747 19.8075 59.768 19.8705 59.852C19.9359 59.9337 20.0152 59.999 20.1085 60.048C20.2042 60.097 20.3139 60.1227 20.4375 60.125C20.5589 60.1273 20.6709 60.0993 20.7735 60.041C20.8762 59.9827 20.9637 59.9045 21.036 59.8065L22.023 60.034C21.8807 60.3443 21.6684 60.5987 21.386 60.797C21.1037 60.993 20.7875 61.091 20.4375 61.091ZM19.6955 58.858H21.183C21.1527 58.7413 21.1014 58.6363 21.029 58.543C20.9567 58.4497 20.8692 58.3762 20.7665 58.3225C20.6662 58.2688 20.5565 58.242 20.4375 58.242C20.3209 58.242 20.2112 58.2688 20.1085 58.3225C20.0082 58.3762 19.9219 58.4497 19.8495 58.543C19.7795 58.634 19.7282 58.739 19.6955 58.858ZM22.7223 61L22.7188 57.5H23.6848L23.6883 57.759C23.805 57.647 23.9415 57.5595 24.0978 57.4965C24.2565 57.4335 24.4233 57.402 24.5983 57.402C24.7267 57.402 24.855 57.4207 24.9833 57.458L24.6018 58.4345C24.5178 58.3995 24.4327 58.382 24.3463 58.382C24.225 58.382 24.1142 58.4112 24.0138 58.4695C23.9135 58.5278 23.8342 58.6072 23.7758 58.7075C23.7175 58.8055 23.6883 58.9163 23.6883 59.04V61H22.7223ZM26.3623 61.063C26.1827 61.049 26.01 61.0117 25.8443 60.951C25.6787 60.888 25.5305 60.804 25.3998 60.699C25.2715 60.5917 25.1712 60.4633 25.0988 60.314L25.9108 59.964C25.9365 60.0013 25.975 60.0422 26.0263 60.0865C26.0777 60.1285 26.1395 60.1658 26.2118 60.1985C26.2865 60.2312 26.3728 60.2475 26.4708 60.2475C26.5432 60.2475 26.6132 60.2393 26.6808 60.223C26.7485 60.2043 26.8033 60.1752 26.8453 60.1355C26.8873 60.0935 26.9083 60.0387 26.9083 59.971C26.9083 59.8963 26.8815 59.8392 26.8278 59.7995C26.7742 59.7598 26.7088 59.7307 26.6318 59.712C26.5572 59.691 26.4848 59.6735 26.4148 59.6595C26.2002 59.6222 25.9972 59.5557 25.8058 59.46C25.6168 59.362 25.4628 59.236 25.3438 59.082C25.2248 58.928 25.1653 58.7437 25.1653 58.529C25.1653 58.2933 25.2272 58.0903 25.3508 57.92C25.4745 57.7473 25.6355 57.6143 25.8338 57.521C26.0322 57.4277 26.2468 57.381 26.4778 57.381C26.7508 57.381 27.004 57.4382 27.2373 57.5525C27.4707 57.6668 27.6585 57.8278 27.8008 58.0355L27.0378 58.487C27.0075 58.4427 26.9678 58.4007 26.9188 58.361C26.8722 58.319 26.8173 58.284 26.7543 58.256C26.6937 58.2257 26.6283 58.2082 26.5583 58.2035C26.4673 58.1965 26.3845 58.2023 26.3098 58.221C26.2352 58.2373 26.1757 58.2688 26.1313 58.3155C26.0893 58.3622 26.0683 58.4252 26.0683 58.5045C26.0683 58.5815 26.1022 58.6387 26.1698 58.676C26.2375 58.711 26.3157 58.7378 26.4043 58.7565C26.493 58.7728 26.5712 58.7927 26.6388 58.816C26.8418 58.8813 27.032 58.9653 27.2093 59.068C27.389 59.1683 27.5337 59.292 27.6433 59.439C27.753 59.586 27.8043 59.7587 27.7973 59.957C27.7973 60.188 27.7285 60.391 27.5908 60.566C27.4532 60.7387 27.2747 60.8705 27.0553 60.9615C26.8383 61.0502 26.6073 61.084 26.3623 61.063ZM28.297 57.5H29.263V61H28.297V57.5ZM28.787 57.0975C28.647 57.0975 28.5291 57.0508 28.4335 56.9575C28.3378 56.8642 28.29 56.7487 28.29 56.611C28.29 56.4733 28.3378 56.3578 28.4335 56.2645C28.5291 56.1712 28.6458 56.1245 28.7835 56.1245C28.9211 56.1245 29.0366 56.1712 29.13 56.2645C29.2256 56.3578 29.2735 56.4733 29.2735 56.611C29.2735 56.7487 29.2268 56.8642 29.1335 56.9575C29.0425 57.0508 28.927 57.0975 28.787 57.0975ZM32.0056 58.466H31.3756V61H30.4096V58.466H29.9266V57.5H30.4096V56.401H31.3756V57.5H32.0056V58.466ZM34.8815 57.5H35.9105L33.9925 62.75H32.9705L33.6005 61L32.3405 57.5H33.3975L34.0835 59.6805L34.8815 57.5ZM40.8601 57.5H41.8261V61H40.8566L40.8111 60.636C40.7201 60.7713 40.6034 60.881 40.4611 60.965C40.3188 61.049 40.1519 61.091 39.9606 61.091C39.6993 61.091 39.4554 61.042 39.2291 60.944C39.0028 60.846 38.8033 60.7107 38.6306 60.538C38.4579 60.3653 38.3226 60.1658 38.2246 59.9395C38.1289 59.7108 38.0811 59.4658 38.0811 59.2045C38.0811 58.9548 38.1266 58.7215 38.2176 58.5045C38.3086 58.2875 38.4369 58.0962 38.6026 57.9305C38.7683 57.7648 38.9584 57.6353 39.1731 57.542C39.3901 57.4487 39.6234 57.402 39.8731 57.402C40.0878 57.402 40.2803 57.4475 40.4506 57.5385C40.6233 57.6295 40.7738 57.745 40.9021 57.885L40.8601 57.5ZM39.9361 60.1635C40.0948 60.1635 40.2383 60.1227 40.3666 60.041C40.4949 59.9593 40.5964 59.8497 40.6711 59.712C40.7458 59.572 40.7831 59.418 40.7831 59.25C40.7831 59.0797 40.7458 58.9257 40.6711 58.788C40.5964 58.6503 40.4949 58.5407 40.3666 58.459C40.2383 58.3773 40.0948 58.3365 39.9361 58.3365C39.7751 58.3365 39.6293 58.3773 39.4986 58.459C39.3679 58.5407 39.2641 58.6515 39.1871 58.7915C39.1101 58.9292 39.0716 59.082 39.0716 59.25C39.0716 59.418 39.1101 59.572 39.1871 59.712C39.2664 59.8497 39.3714 59.9593 39.5021 60.041C39.6328 60.1227 39.7774 60.1635 39.9361 60.1635ZM45.7809 58.774V61H44.8149V59.04C44.8149 58.9163 44.7845 58.8055 44.7239 58.7075C44.6655 58.6072 44.5862 58.5278 44.4859 58.4695C44.3879 58.4112 44.2782 58.382 44.1569 58.382C44.0355 58.382 43.9247 58.4112 43.8244 58.4695C43.724 58.5278 43.6447 58.6072 43.5864 58.7075C43.528 58.8055 43.4989 58.9163 43.4989 59.04V61H42.5329L42.5294 57.5H43.4954L43.4989 57.759C43.6155 57.647 43.752 57.5595 43.9084 57.4965C44.067 57.4335 44.2339 57.402 44.4089 57.402C44.6632 57.402 44.893 57.4638 45.0984 57.5875C45.306 57.7112 45.4717 57.8768 45.5954 58.0845C45.719 58.2898 45.7809 58.5197 45.7809 58.774ZM48.9847 55.75H49.9507V61H48.9847V60.629C48.8774 60.7643 48.7444 60.8752 48.5857 60.9615C48.427 61.0478 48.2462 61.091 48.0432 61.091C47.7889 61.091 47.5509 61.0432 47.3292 60.9475C47.1075 60.8518 46.9115 60.72 46.7412 60.552C46.5732 60.3817 46.4414 60.1857 46.3457 59.964C46.25 59.7423 46.2022 59.5043 46.2022 59.25C46.2022 58.9957 46.25 58.7577 46.3457 58.536C46.4414 58.3143 46.5732 58.1195 46.7412 57.9515C46.9115 57.7812 47.1075 57.6482 47.3292 57.5525C47.5509 57.4568 47.7889 57.409 48.0432 57.409C48.2462 57.409 48.427 57.4522 48.5857 57.5385C48.7444 57.6225 48.8774 57.7333 48.9847 57.871V55.75ZM48.0572 60.1635C48.2159 60.1635 48.3594 60.1227 48.4877 60.041C48.616 59.9593 48.7175 59.8497 48.7922 59.712C48.8669 59.572 48.9042 59.418 48.9042 59.25C48.9042 59.0797 48.8669 58.9257 48.7922 58.788C48.7175 58.6503 48.616 58.5407 48.4877 58.459C48.3594 58.3773 48.2159 58.3365 48.0572 58.3365C47.8962 58.3365 47.7504 58.3773 47.6197 58.459C47.489 58.5407 47.3852 58.6515 47.3082 58.7915C47.2312 58.9292 47.1927 59.082 47.1927 59.25C47.1927 59.418 47.2312 59.572 47.3082 59.712C47.3875 59.8497 47.4925 59.9593 47.6232 60.041C47.7539 60.1227 47.8985 60.1635 48.0572 60.1635ZM52.4757 61V56.1H55.5767V57.066H53.4417V57.892H55.1077V58.858H53.4417V60.034H55.5767V61H52.4757ZM55.9997 61L57.2807 59.243L56.0137 57.5H57.2037L57.8722 58.417L58.5477 57.5H59.7412L58.4707 59.243L59.7517 61H58.5617L57.8722 60.062L57.1897 61H55.9997ZM61.2346 62.75H60.2686V57.5H61.2346V57.878C61.3466 57.7403 61.4796 57.6283 61.6336 57.542C61.7876 57.4533 61.9673 57.409 62.1726 57.409C62.427 57.409 62.665 57.4568 62.8866 57.5525C63.1106 57.6482 63.3066 57.7812 63.4746 57.9515C63.6426 58.1195 63.7745 58.3143 63.8701 58.536C63.9658 58.7577 64.0136 58.9957 64.0136 59.25C64.0136 59.5043 63.9658 59.7435 63.8701 59.9675C63.7745 60.1915 63.6426 60.3887 63.4746 60.559C63.3066 60.727 63.1106 60.8588 62.8866 60.9545C62.665 61.0502 62.427 61.098 62.1726 61.098C61.9673 61.098 61.7876 61.0537 61.6336 60.965C61.4796 60.8763 61.3466 60.7643 61.2346 60.629V62.75ZM62.1586 58.3365C62 58.3365 61.8565 58.3785 61.7281 58.4625C61.6021 58.5442 61.5018 58.6538 61.4271 58.7915C61.3548 58.9292 61.3186 59.082 61.3186 59.25C61.3186 59.418 61.3548 59.572 61.4271 59.712C61.5018 59.8497 61.6021 59.9593 61.7281 60.041C61.8565 60.1227 62 60.1635 62.1586 60.1635C62.3173 60.1635 62.462 60.1227 62.5926 60.041C62.7256 59.9593 62.8306 59.8497 62.9076 59.712C62.987 59.5743 63.0266 59.4203 63.0266 59.25C63.0266 59.0843 62.9881 58.9327 62.9111 58.795C62.8341 58.655 62.7291 58.5442 62.5961 58.4625C62.4655 58.3785 62.3196 58.3365 62.1586 58.3365ZM66.1153 61.091C65.7933 61.091 65.4993 61.0082 65.2333 60.8425C64.9696 60.6768 64.7584 60.454 64.5998 60.174C64.4434 59.894 64.3653 59.5848 64.3653 59.2465C64.3653 58.9922 64.4108 58.7542 64.5018 58.5325C64.5928 58.3085 64.7176 58.1125 64.8763 57.9445C65.0373 57.7742 65.2239 57.6412 65.4363 57.5455C65.6486 57.4498 65.8749 57.402 66.1153 57.402C66.3929 57.402 66.6461 57.4615 66.8748 57.5805C67.1058 57.6995 67.3006 57.8617 67.4593 58.067C67.6203 58.2723 67.7346 58.5045 67.8023 58.7635C67.8723 59.0225 67.8839 59.292 67.8373 59.572H65.4083C65.4386 59.6747 65.4853 59.768 65.5483 59.852C65.6136 59.9337 65.6929 59.999 65.7863 60.048C65.8819 60.097 65.9916 60.1227 66.1153 60.125C66.2366 60.1273 66.3486 60.0993 66.4513 60.041C66.5539 59.9827 66.6414 59.9045 66.7138 59.8065L67.7008 60.034C67.5584 60.3443 67.3461 60.5987 67.0638 60.797C66.7814 60.993 66.4653 61.091 66.1153 61.091ZM65.3733 58.858H66.8608C66.8304 58.7413 66.7791 58.6363 66.7068 58.543C66.6344 58.4497 66.5469 58.3762 66.4443 58.3225C66.3439 58.2688 66.2343 58.242 66.1153 58.242C65.9986 58.242 65.8889 58.2688 65.7863 58.3225C65.6859 58.3762 65.5996 58.4497 65.5273 58.543C65.4573 58.634 65.4059 58.739 65.3733 58.858ZM68.4001 61L68.3966 57.5H69.3626L69.3661 57.759C69.4827 57.647 69.6192 57.5595 69.7756 57.4965C69.9342 57.4335 70.1011 57.402 70.2761 57.402C70.4044 57.402 70.5327 57.4207 70.6611 57.458L70.2796 58.4345C70.1956 58.3995 70.1104 58.382 70.0241 58.382C69.9027 58.382 69.7919 58.4112 69.6916 58.4695C69.5912 58.5278 69.5119 58.6072 69.4536 58.7075C69.3952 58.8055 69.3661 58.9163 69.3661 59.04V61H68.4001ZM73.0554 58.466H72.4254V61H71.4594V58.466H70.9764V57.5H71.4594V56.401H72.4254V57.5H73.0554V58.466ZM73.6192 57.5H74.5852V61H73.6192V57.5ZM74.1092 57.0975C73.9692 57.0975 73.8514 57.0508 73.7557 56.9575C73.6601 56.8642 73.6122 56.7487 73.6122 56.611C73.6122 56.4733 73.6601 56.3578 73.7557 56.2645C73.8514 56.1712 73.9681 56.1245 74.1057 56.1245C74.2434 56.1245 74.3589 56.1712 74.4522 56.2645C74.5479 56.3578 74.5957 56.4733 74.5957 56.611C74.5957 56.7487 74.5491 56.8642 74.4557 56.9575C74.3647 57.0508 74.2492 57.0975 74.1092 57.0975ZM76.374 61.063C76.1944 61.049 76.0217 61.0117 75.856 60.951C75.6904 60.888 75.5422 60.804 75.4115 60.699C75.2832 60.5917 75.1829 60.4633 75.1105 60.314L75.9225 59.964C75.9482 60.0013 75.9867 60.0422 76.038 60.0865C76.0894 60.1285 76.1512 60.1658 76.2235 60.1985C76.2982 60.2312 76.3845 60.2475 76.4825 60.2475C76.5549 60.2475 76.6249 60.2393 76.6925 60.223C76.7602 60.2043 76.815 60.1752 76.857 60.1355C76.899 60.0935 76.92 60.0387 76.92 59.971C76.92 59.8963 76.8932 59.8392 76.8395 59.7995C76.7859 59.7598 76.7205 59.7307 76.6435 59.712C76.5689 59.691 76.4965 59.6735 76.4265 59.6595C76.2119 59.6222 76.0089 59.5557 75.8175 59.46C75.6285 59.362 75.4745 59.236 75.3555 59.082C75.2365 58.928 75.177 58.7437 75.177 58.529C75.177 58.2933 75.2389 58.0903 75.3625 57.92C75.4862 57.7473 75.6472 57.6143 75.8455 57.521C76.0439 57.4277 76.2585 57.381 76.4895 57.381C76.7625 57.381 77.0157 57.4382 77.249 57.5525C77.4824 57.6668 77.6702 57.8278 77.8125 58.0355L77.0495 58.487C77.0192 58.4427 76.9795 58.4007 76.9305 58.361C76.8839 58.319 76.829 58.284 76.766 58.256C76.7054 58.2257 76.64 58.2082 76.57 58.2035C76.479 58.1965 76.3962 58.2023 76.3215 58.221C76.2469 58.2373 76.1874 58.2688 76.143 58.3155C76.101 58.3622 76.08 58.4252 76.08 58.5045C76.08 58.5815 76.1139 58.6387 76.1815 58.676C76.2492 58.711 76.3274 58.7378 76.416 58.7565C76.5047 58.7728 76.5829 58.7927 76.6505 58.816C76.8535 58.8813 77.0437 58.9653 77.221 59.068C77.4007 59.1683 77.5454 59.292 77.655 59.439C77.7647 59.586 77.816 59.7587 77.809 59.957C77.809 60.188 77.7402 60.391 77.6025 60.566C77.4649 60.7387 77.2864 60.8705 77.067 60.9615C76.85 61.0502 76.619 61.084 76.374 61.063ZM79.876 61.091C79.554 61.091 79.26 61.0082 78.994 60.8425C78.7303 60.6768 78.5192 60.454 78.3605 60.174C78.2042 59.894 78.126 59.5848 78.126 59.2465C78.126 58.9922 78.1715 58.7542 78.2625 58.5325C78.3535 58.3085 78.4783 58.1125 78.637 57.9445C78.798 57.7742 78.9847 57.6412 79.197 57.5455C79.4093 57.4498 79.6357 57.402 79.876 57.402C80.1537 57.402 80.4068 57.4615 80.6355 57.5805C80.8665 57.6995 81.0613 57.8617 81.22 58.067C81.381 58.2723 81.4953 58.5045 81.563 58.7635C81.633 59.0225 81.6447 59.292 81.598 59.572H79.169C79.1993 59.6747 79.246 59.768 79.309 59.852C79.3743 59.9337 79.4537 59.999 79.547 60.048C79.6427 60.097 79.7523 60.1227 79.876 60.125C79.9973 60.1273 80.1093 60.0993 80.212 60.041C80.3147 59.9827 80.4022 59.9045 80.4745 59.8065L81.4615 60.034C81.3192 60.3443 81.1068 60.5987 80.8245 60.797C80.5422 60.993 80.226 61.091 79.876 61.091ZM79.134 58.858H80.6215C80.5912 58.7413 80.5398 58.6363 80.4675 58.543C80.3952 58.4497 80.3077 58.3762 80.205 58.3225C80.1047 58.2688 79.995 58.242 79.876 58.242C79.7593 58.242 79.6497 58.2688 79.547 58.3225C79.4467 58.3762 79.3603 58.4497 79.288 58.543C79.218 58.634 79.1667 58.739 79.134 58.858Z" fill="black"/>
</svg>
