<svg width="117" height="90" viewBox="0 0 117 90" fill="none" xmlns="http://www.w3.org/2000/svg">
<path d="M2.2275 9L0.2585 1.3H1.0505L2.6785 7.6745L4.301 1.3H4.983L6.611 7.6745L8.2335 1.3H9.0255L7.0675 9H6.1545L4.642 3.0875L3.1295 9H2.2275ZM11.8241 9.143C11.3181 9.143 10.8561 9.01283 10.4381 8.7525C10.0238 8.49217 9.69197 8.14383 9.44264 7.7075C9.19697 7.2675 9.07414 6.78167 9.07414 6.25C9.07414 5.84667 9.14564 5.47083 9.28864 5.1225C9.43164 4.7705 9.62781 4.4625 9.87714 4.1985C10.1301 3.93083 10.4235 3.72183 10.7571 3.5715C11.0908 3.42117 11.4465 3.346 11.8241 3.346C12.2311 3.346 12.6051 3.42667 12.9461 3.588C13.2908 3.74933 13.586 3.97483 13.8316 4.2645C14.081 4.55417 14.268 4.89333 14.3926 5.282C14.521 5.67067 14.5741 6.0905 14.5521 6.5415H9.88814C9.93214 6.88983 10.0421 7.2015 10.2181 7.4765C10.3978 7.7515 10.6251 7.96967 10.9001 8.131C11.1788 8.28867 11.4868 8.36933 11.8241 8.373C12.1908 8.373 12.5208 8.27767 12.8141 8.087C13.1111 7.89633 13.3495 7.63417 13.5291 7.3005L14.3101 7.482C14.0901 7.96967 13.7583 8.36933 13.3146 8.681C12.871 8.989 12.3741 9.143 11.8241 9.143ZM9.86614 5.92H13.7766C13.751 5.579 13.6465 5.26733 13.4631 4.985C13.2835 4.699 13.0506 4.47167 12.7646 4.303C12.4786 4.13067 12.1651 4.0445 11.8241 4.0445C11.4831 4.0445 11.1715 4.12883 10.8891 4.2975C10.6068 4.4625 10.3758 4.688 10.1961 4.974C10.0165 5.25633 9.90647 5.57167 9.86614 5.92ZM15.1087 4.171L15.4497 1.3H16.2197L15.6202 4.171H15.1087ZM19.8702 9H18.8912L16.8837 3.4835H17.7032L19.3807 8.098L21.0582 3.4835H21.8777L19.8702 9ZM24.9941 9.143C24.4881 9.143 24.0261 9.01283 23.6081 8.7525C23.1937 8.49217 22.8619 8.14383 22.6126 7.7075C22.3669 7.2675 22.2441 6.78167 22.2441 6.25C22.2441 5.84667 22.3156 5.47083 22.4586 5.1225C22.6016 4.7705 22.7977 4.4625 23.0471 4.1985C23.3001 3.93083 23.5934 3.72183 23.9271 3.5715C24.2607 3.42117 24.6164 3.346 24.9941 3.346C25.4011 3.346 25.7751 3.42667 26.1161 3.588C26.4607 3.74933 26.7559 3.97483 27.0016 4.2645C27.2509 4.55417 27.4379 4.89333 27.5626 5.282C27.6909 5.67067 27.7441 6.0905 27.7221 6.5415H23.0581C23.1021 6.88983 23.2121 7.2015 23.3881 7.4765C23.5677 7.7515 23.7951 7.96967 24.0701 8.131C24.3487 8.28867 24.6567 8.36933 24.9941 8.373C25.3607 8.373 25.6907 8.27767 25.9841 8.087C26.2811 7.89633 26.5194 7.63417 26.6991 7.3005L27.4801 7.482C27.2601 7.96967 26.9282 8.36933 26.4846 8.681C26.0409 8.989 25.5441 9.143 24.9941 9.143ZM23.0361 5.92H26.9466C26.9209 5.579 26.8164 5.26733 26.6331 4.985C26.4534 4.699 26.2206 4.47167 25.9346 4.303C25.6486 4.13067 25.3351 4.0445 24.9941 4.0445C24.6531 4.0445 24.3414 4.12883 24.0591 4.2975C23.7767 4.4625 23.5457 4.688 23.3661 4.974C23.1864 5.25633 23.0764 5.57167 23.0361 5.92ZM35.2882 7.6195L35.9757 7.9935C35.7263 8.34183 35.4092 8.6205 35.0242 8.8295C34.6428 9.0385 34.2285 9.143 33.7812 9.143C33.2752 9.143 32.8132 9.01283 32.3952 8.7525C31.9808 8.49217 31.649 8.14383 31.3997 7.7075C31.154 7.2675 31.0312 6.78167 31.0312 6.25C31.0312 5.84667 31.1027 5.47083 31.2457 5.1225C31.3887 4.7705 31.5848 4.4625 31.8342 4.1985C32.0872 3.93083 32.3805 3.72183 32.7142 3.5715C33.0478 3.42117 33.4035 3.346 33.7812 3.346C34.2285 3.346 34.6428 3.4505 35.0242 3.6595C35.4092 3.8685 35.7263 4.149 35.9757 4.501L35.2882 4.8695C35.0975 4.6275 34.8683 4.44233 34.6007 4.314C34.333 4.182 34.0598 4.116 33.7812 4.116C33.4108 4.116 33.0753 4.215 32.7747 4.413C32.474 4.60733 32.2357 4.86583 32.0597 5.1885C31.8873 5.51117 31.8012 5.865 31.8012 6.25C31.8012 6.635 31.8892 6.98883 32.0652 7.3115C32.2448 7.63417 32.485 7.89267 32.7857 8.087C33.0863 8.27767 33.4182 8.373 33.7812 8.373C34.0818 8.373 34.3642 8.30333 34.6282 8.164C34.8922 8.02467 35.1122 7.84317 35.2882 7.6195ZM36.9686 9V3.5H37.7386V4.259C37.9329 3.98033 38.1859 3.7585 38.4976 3.5935C38.8093 3.4285 39.1484 3.346 39.5151 3.346C39.7278 3.346 39.9331 3.3735 40.1311 3.4285L39.8176 4.193C39.6636 4.14533 39.5133 4.1215 39.3666 4.1215C39.0696 4.1215 38.7964 4.19483 38.5471 4.3415C38.3014 4.48817 38.1053 4.68433 37.9586 4.93C37.8119 5.17567 37.7386 5.44883 37.7386 5.7495V9H36.9686ZM45.056 3.5H45.826V9H45.056L45.0285 7.977C44.8488 8.32533 44.5977 8.60767 44.275 8.824C43.9523 9.03667 43.5673 9.143 43.12 9.143C42.7167 9.143 42.339 9.06783 41.987 8.9175C41.635 8.7635 41.3252 8.55267 41.0575 8.285C40.7898 8.01733 40.5808 7.7075 40.4305 7.3555C40.2802 7.0035 40.205 6.62583 40.205 6.2225C40.205 5.8265 40.2783 5.45433 40.425 5.106C40.5753 4.75767 40.7807 4.4515 41.041 4.1875C41.305 3.9235 41.6093 3.71817 41.954 3.5715C42.3023 3.42117 42.6745 3.346 43.0705 3.346C43.5288 3.346 43.9285 3.456 44.2695 3.676C44.6105 3.89233 44.8818 4.1765 45.0835 4.5285L45.056 3.5ZM43.1035 8.395C43.4958 8.395 43.8332 8.29967 44.1155 8.109C44.3978 7.91467 44.6142 7.65433 44.7645 7.328C44.9185 7.00167 44.9955 6.64233 44.9955 6.25C44.9955 5.84667 44.9185 5.48367 44.7645 5.161C44.6105 4.83467 44.3923 4.57617 44.11 4.3855C43.8277 4.19483 43.4922 4.0995 43.1035 4.0995C42.7148 4.0995 42.3592 4.19667 42.0365 4.391C41.7175 4.58167 41.4627 4.84017 41.272 5.1665C41.085 5.49283 40.9915 5.854 40.9915 6.25C40.9915 6.64967 41.0887 7.01267 41.283 7.339C41.4773 7.66167 41.734 7.91833 42.053 8.109C42.3757 8.29967 42.7258 8.395 43.1035 8.395ZM48.0651 2.0645V3.5H49.7151V4.27H48.0651V9H47.2951V4.27H46.5416V3.5H47.2951V2.0645C47.2951 1.79683 47.3593 1.55483 47.4876 1.3385C47.6196 1.1185 47.7956 0.944333 48.0156 0.816C48.2356 0.684 48.4794 0.618 48.7471 0.618C48.9414 0.618 49.1284 0.6565 49.3081 0.7335C49.4914 0.8105 49.6546 0.924166 49.7976 1.0745L49.2476 1.619C49.1889 1.54567 49.1138 1.48883 49.0221 1.4485C48.9341 1.40817 48.8424 1.388 48.7471 1.388C48.5601 1.388 48.3988 1.454 48.2631 1.586C48.1311 1.718 48.0651 1.8775 48.0651 2.0645ZM53.5935 4.27H52.279L52.2735 9H51.5035L51.509 4.27H50.5135V3.5H51.509L51.5035 1.773H52.2735L52.279 3.5H53.5935V4.27ZM56.8446 9.143C56.3386 9.143 55.8766 9.01283 55.4586 8.7525C55.0443 8.49217 54.7125 8.14383 54.4631 7.7075C54.2175 7.2675 54.0946 6.78167 54.0946 6.25C54.0946 5.84667 54.1661 5.47083 54.3091 5.1225C54.4521 4.7705 54.6483 4.4625 54.8976 4.1985C55.1506 3.93083 55.444 3.72183 55.7776 3.5715C56.1113 3.42117 56.467 3.346 56.8446 3.346C57.2516 3.346 57.6256 3.42667 57.9666 3.588C58.3113 3.74933 58.6065 3.97483 58.8521 4.2645C59.1015 4.55417 59.2885 4.89333 59.4131 5.282C59.5415 5.67067 59.5946 6.0905 59.5726 6.5415H54.9086C54.9526 6.88983 55.0626 7.2015 55.2386 7.4765C55.4183 7.7515 55.6456 7.96967 55.9206 8.131C56.1993 8.28867 56.5073 8.36933 56.8446 8.373C57.2113 8.373 57.5413 8.27767 57.8346 8.087C58.1316 7.89633 58.37 7.63417 58.5496 7.3005L59.3306 7.482C59.1106 7.96967 58.7788 8.36933 58.3351 8.681C57.8915 8.989 57.3946 9.143 56.8446 9.143ZM54.8866 5.92H58.7971C58.7715 5.579 58.667 5.26733 58.4836 4.985C58.304 4.699 58.0711 4.47167 57.7851 4.303C57.4991 4.13067 57.1856 4.0445 56.8446 4.0445C56.5036 4.0445 56.192 4.12883 55.9096 4.2975C55.6273 4.4625 55.3963 4.688 55.2166 4.974C55.037 5.25633 54.927 5.57167 54.8866 5.92ZM64.9883 0.749999H65.7583V9H64.9883V7.9715C64.7976 8.3235 64.5354 8.60767 64.2018 8.824C63.8718 9.03667 63.4794 9.143 63.0248 9.143C62.6251 9.143 62.2511 9.06783 61.9028 8.9175C61.5544 8.76717 61.2464 8.56 60.9788 8.296C60.7148 8.02833 60.5076 7.72033 60.3573 7.372C60.2069 7.02367 60.1318 6.64967 60.1318 6.25C60.1318 5.85033 60.2069 5.47633 60.3573 5.128C60.5076 4.776 60.7148 4.468 60.9788 4.204C61.2464 3.93633 61.5544 3.72733 61.9028 3.577C62.2511 3.42667 62.6251 3.3515 63.0248 3.3515C63.4794 3.3515 63.8718 3.45967 64.2018 3.676C64.5354 3.88867 64.7976 4.16917 64.9883 4.5175V0.749999ZM63.0303 8.395C63.4226 8.395 63.7599 8.29967 64.0423 8.109C64.3246 7.91467 64.5409 7.65433 64.6913 7.328C64.8453 7.00167 64.9223 6.64233 64.9223 6.25C64.9223 5.84667 64.8453 5.48367 64.6913 5.161C64.5373 4.83467 64.3191 4.57617 64.0368 4.3855C63.7544 4.19483 63.4189 4.0995 63.0303 4.0995C62.6416 4.0995 62.2878 4.19667 61.9688 4.391C61.6498 4.58167 61.3949 4.84017 61.2043 5.1665C61.0136 5.49283 60.9183 5.854 60.9183 6.25C60.9183 6.64967 61.0154 7.01267 61.2098 7.339C61.4041 7.66167 61.6608 7.91833 61.9798 8.109C62.3024 8.29967 62.6526 8.395 63.0303 8.395ZM74.094 3.5H74.864V9.2035C74.864 9.5555 74.787 9.8855 74.633 10.1935C74.4827 10.5015 74.2774 10.771 74.017 11.002C73.7604 11.2367 73.467 11.42 73.137 11.552C72.807 11.684 72.4642 11.75 72.1085 11.75C71.7272 11.75 71.3587 11.662 71.003 11.486C70.6474 11.3137 70.3375 11.0827 70.0735 10.793C69.8132 10.5033 69.628 10.1825 69.518 9.8305L70.2275 9.506C70.2972 9.781 70.4274 10.0285 70.618 10.2485C70.8124 10.4722 71.0397 10.6482 71.3 10.7765C71.564 10.9085 71.8335 10.9745 72.1085 10.9745C72.3615 10.9745 72.6054 10.9268 72.84 10.8315C73.0784 10.7398 73.291 10.6133 73.478 10.452C73.6687 10.2907 73.819 10.1018 73.929 9.8855C74.039 9.67283 74.094 9.4455 74.094 9.2035V7.988C73.9034 8.33267 73.6449 8.61133 73.3185 8.824C72.9959 9.03667 72.62 9.143 72.191 9.143C71.806 9.143 71.443 9.06783 71.102 8.9175C70.7647 8.76717 70.4677 8.56 70.211 8.296C69.9544 8.02833 69.7527 7.72033 69.606 7.372C69.463 7.02367 69.3915 6.64967 69.3915 6.25C69.3915 5.85033 69.463 5.47633 69.606 5.128C69.7527 4.776 69.9544 4.468 70.211 4.204C70.4677 3.93633 70.7647 3.72733 71.102 3.577C71.443 3.42667 71.806 3.3515 72.191 3.3515C72.62 3.3515 72.9959 3.45783 73.3185 3.6705C73.6449 3.8795 73.9034 4.15817 74.094 4.5065V3.5ZM72.1965 8.395C72.5779 8.395 72.906 8.296 73.181 8.098C73.4597 7.9 73.6742 7.63783 73.8245 7.3115C73.9749 6.98517 74.05 6.63133 74.05 6.25C74.05 5.85767 73.973 5.50017 73.819 5.1775C73.6687 4.85117 73.4542 4.59083 73.1755 4.3965C72.8969 4.1985 72.5705 4.0995 72.1965 4.0995C71.8225 4.0995 71.4815 4.19667 71.1735 4.391C70.8692 4.58167 70.6272 4.84017 70.4475 5.1665C70.2679 5.49283 70.178 5.854 70.178 6.25C70.178 6.646 70.2697 7.00717 70.453 7.3335C70.6364 7.65617 70.8802 7.91467 71.1845 8.109C71.4925 8.29967 71.8299 8.395 72.1965 8.395ZM76.1883 9V0.749999H76.9583V9H76.1883ZM80.6601 9.143C80.1541 9.143 79.6921 9.01283 79.2741 8.7525C78.8597 8.49217 78.5279 8.14383 78.2786 7.7075C78.0329 7.2675 77.9101 6.78167 77.9101 6.25C77.9101 5.84667 77.9816 5.47083 78.1246 5.1225C78.2676 4.7705 78.4637 4.4625 78.7131 4.1985C78.9661 3.93083 79.2594 3.72183 79.5931 3.5715C79.9267 3.42117 80.2824 3.346 80.6601 3.346C81.1661 3.346 81.6262 3.47617 82.0406 3.7365C82.4586 3.99683 82.7904 4.347 83.0361 4.787C83.2854 5.227 83.4101 5.71467 83.4101 6.25C83.4101 6.64967 83.3386 7.02367 83.1956 7.372C83.0526 7.72033 82.8546 8.02833 82.6016 8.296C82.3522 8.56 82.0607 8.76717 81.7271 8.9175C81.3971 9.06783 81.0414 9.143 80.6601 9.143ZM80.6601 8.373C81.0341 8.373 81.3696 8.27583 81.6666 8.0815C81.9672 7.8835 82.2037 7.62317 82.3761 7.3005C82.5521 6.97783 82.6401 6.62767 82.6401 6.25C82.6401 5.865 82.5521 5.51117 82.3761 5.1885C82.2001 4.86217 81.9617 4.60183 81.6611 4.4075C81.3641 4.21317 81.0304 4.116 80.6601 4.116C80.2861 4.116 79.9487 4.215 79.6481 4.413C79.3511 4.60733 79.1146 4.86583 78.9386 5.1885C78.7662 5.51117 78.6801 5.865 78.6801 6.25C78.6801 6.646 78.7699 7.00533 78.9496 7.328C79.1292 7.647 79.3694 7.90183 79.6701 8.0925C79.9707 8.2795 80.3007 8.373 80.6601 8.373ZM87.0267 3.346C87.562 3.346 88.0478 3.47617 88.4842 3.7365C88.9242 3.99683 89.2743 4.347 89.5347 4.787C89.795 5.22333 89.9252 5.70917 89.9252 6.2445C89.9252 6.64417 89.85 7.02 89.6997 7.372C89.5493 7.72033 89.3403 8.02833 89.0727 8.296C88.8087 8.56 88.5007 8.76717 88.1487 8.9175C87.8003 9.06783 87.4263 9.143 87.0267 9.143C86.572 9.143 86.1797 9.03483 85.8497 8.8185C85.5197 8.60217 85.2593 8.31983 85.0687 7.9715V9H84.2987V0.749999H85.0687V4.5175C85.2593 4.16917 85.5197 3.88683 85.8497 3.6705C86.1797 3.45417 86.572 3.346 87.0267 3.346ZM87.0212 8.3895C87.4135 8.3895 87.7692 8.29417 88.0882 8.1035C88.4072 7.90917 88.662 7.64883 88.8527 7.3225C89.0433 6.99617 89.1387 6.63683 89.1387 6.2445C89.1387 5.84117 89.0415 5.47817 88.8472 5.1555C88.6528 4.82917 88.3943 4.57067 88.0717 4.38C87.7527 4.18933 87.4025 4.094 87.0212 4.094C86.6325 4.094 86.2952 4.19117 86.0092 4.3855C85.7268 4.57983 85.5087 4.84017 85.3547 5.1665C85.2043 5.49283 85.1292 5.85217 85.1292 6.2445C85.1292 6.64417 85.2062 7.00717 85.3602 7.3335C85.5142 7.65617 85.7323 7.91283 86.0147 8.1035C86.3007 8.29417 86.6362 8.3895 87.0212 8.3895ZM95.3294 3.5H96.0994V9H95.3294L95.3019 7.977C95.1223 8.32533 94.8711 8.60767 94.5484 8.824C94.2258 9.03667 93.8408 9.143 93.3934 9.143C92.9901 9.143 92.6124 9.06783 92.2604 8.9175C91.9084 8.7635 91.5986 8.55267 91.3309 8.285C91.0633 8.01733 90.8543 7.7075 90.7039 7.3555C90.5536 7.0035 90.4784 6.62583 90.4784 6.2225C90.4784 5.8265 90.5518 5.45433 90.6984 5.106C90.8488 4.75767 91.0541 4.4515 91.3144 4.1875C91.5784 3.9235 91.8828 3.71817 92.2274 3.5715C92.5758 3.42117 92.9479 3.346 93.3439 3.346C93.8023 3.346 94.2019 3.456 94.5429 3.676C94.8839 3.89233 95.1553 4.1765 95.3569 4.5285L95.3294 3.5ZM93.3769 8.395C93.7693 8.395 94.1066 8.29967 94.3889 8.109C94.6713 7.91467 94.8876 7.65433 95.0379 7.328C95.1919 7.00167 95.2689 6.64233 95.2689 6.25C95.2689 5.84667 95.1919 5.48367 95.0379 5.161C94.8839 4.83467 94.6658 4.57617 94.3834 4.3855C94.1011 4.19483 93.7656 4.0995 93.3769 4.0995C92.9883 4.0995 92.6326 4.19667 92.3099 4.391C91.9909 4.58167 91.7361 4.84017 91.5454 5.1665C91.3584 5.49283 91.2649 5.854 91.2649 6.25C91.2649 6.64967 91.3621 7.01267 91.5564 7.339C91.7508 7.66167 92.0074 7.91833 92.3264 8.109C92.6491 8.29967 92.9993 8.395 93.3769 8.395ZM97.2752 9V0.749999H98.0452V9H97.2752ZM1.43 27.75H0.66V19.5H1.43V20.5285C1.62067 20.1802 1.881 19.8978 2.211 19.6815C2.541 19.4652 2.93333 19.357 3.388 19.357C3.78767 19.357 4.16167 19.4322 4.51 19.5825C4.862 19.7328 5.17 19.9418 5.434 20.2095C5.698 20.4735 5.90517 20.7797 6.0555 21.128C6.20583 21.4763 6.281 21.8503 6.281 22.25C6.281 22.6497 6.20583 23.0255 6.0555 23.3775C5.90517 23.7295 5.698 24.0393 5.434 24.307C5.17 24.571 4.862 24.7782 4.51 24.9285C4.16167 25.0788 3.78767 25.154 3.388 25.154C2.93333 25.154 2.541 25.0458 2.211 24.8295C1.881 24.6132 1.62067 24.3308 1.43 23.9825V27.75ZM3.3825 20.105C2.9975 20.105 2.662 20.2022 2.376 20.3965C2.09367 20.5872 1.8755 20.8438 1.7215 21.1665C1.5675 21.4892 1.4905 21.8503 1.4905 22.25C1.4905 22.6423 1.56567 23.0017 1.716 23.328C1.87 23.6543 2.08817 23.9147 2.3705 24.109C2.6565 24.3033 2.99383 24.4005 3.3825 24.4005C3.76383 24.4005 4.114 24.3052 4.433 24.1145C4.75567 23.9238 5.01417 23.6672 5.2085 23.3445C5.40283 23.0182 5.5 22.6533 5.5 22.25C5.5 21.8577 5.40467 21.5002 5.214 21.1775C5.02333 20.8512 4.7685 20.5908 4.4495 20.3965C4.1305 20.2022 3.77483 20.105 3.3825 20.105ZM7.21273 25V19.5H7.98273V20.259C8.17707 19.9803 8.43007 19.7585 8.74173 19.5935C9.0534 19.4285 9.39257 19.346 9.75923 19.346C9.9719 19.346 10.1772 19.3735 10.3752 19.4285L10.0617 20.193C9.90773 20.1453 9.7574 20.1215 9.61073 20.1215C9.31373 20.1215 9.04057 20.1948 8.79123 20.3415C8.54557 20.4882 8.3494 20.6843 8.20273 20.93C8.05607 21.1757 7.98273 21.4488 7.98273 21.7495V25H7.21273ZM13.1991 25.143C12.6931 25.143 12.2311 25.0128 11.8131 24.7525C11.3988 24.4922 11.067 24.1438 10.8176 23.7075C10.572 23.2675 10.4491 22.7817 10.4491 22.25C10.4491 21.8467 10.5206 21.4708 10.6636 21.1225C10.8066 20.7705 11.0028 20.4625 11.2521 20.1985C11.5051 19.9308 11.7985 19.7218 12.1321 19.5715C12.4658 19.4212 12.8215 19.346 13.1991 19.346C13.7051 19.346 14.1653 19.4762 14.5796 19.7365C14.9976 19.9968 15.3295 20.347 15.5751 20.787C15.8245 21.227 15.9491 21.7147 15.9491 22.25C15.9491 22.6497 15.8776 23.0237 15.7346 23.372C15.5916 23.7203 15.3936 24.0283 15.1406 24.296C14.8913 24.56 14.5998 24.7672 14.2661 24.9175C13.9361 25.0678 13.5805 25.143 13.1991 25.143ZM13.1991 24.373C13.5731 24.373 13.9086 24.2758 14.2056 24.0815C14.5063 23.8835 14.7428 23.6232 14.9151 23.3005C15.0911 22.9778 15.1791 22.6277 15.1791 22.25C15.1791 21.865 15.0911 21.5112 14.9151 21.1885C14.7391 20.8622 14.5008 20.6018 14.2001 20.4075C13.9031 20.2132 13.5695 20.116 13.1991 20.116C12.8251 20.116 12.4878 20.215 12.1871 20.413C11.8901 20.6073 11.6536 20.8658 11.4776 21.1885C11.3053 21.5112 11.2191 21.865 11.2191 22.25C11.2191 22.646 11.309 23.0053 11.4886 23.328C11.6683 23.647 11.9085 23.9018 12.2091 24.0925C12.5098 24.2795 12.8398 24.373 13.1991 24.373ZM21.3535 16.75H22.1235V25H21.3535V23.9715C21.1628 24.3235 20.9007 24.6077 20.567 24.824C20.237 25.0367 19.8447 25.143 19.39 25.143C18.9903 25.143 18.6163 25.0678 18.268 24.9175C17.9197 24.7672 17.6117 24.56 17.344 24.296C17.08 24.0283 16.8728 23.7203 16.7225 23.372C16.5722 23.0237 16.497 22.6497 16.497 22.25C16.497 21.8503 16.5722 21.4763 16.7225 21.128C16.8728 20.776 17.08 20.468 17.344 20.204C17.6117 19.9363 17.9197 19.7273 18.268 19.577C18.6163 19.4267 18.9903 19.3515 19.39 19.3515C19.8447 19.3515 20.237 19.4597 20.567 19.676C20.9007 19.8887 21.1628 20.1692 21.3535 20.5175V16.75ZM19.3955 24.395C19.7878 24.395 20.1252 24.2997 20.4075 24.109C20.6898 23.9147 20.9062 23.6543 21.0565 23.328C21.2105 23.0017 21.2875 22.6423 21.2875 22.25C21.2875 21.8467 21.2105 21.4837 21.0565 21.161C20.9025 20.8347 20.6843 20.5762 20.402 20.3855C20.1197 20.1948 19.7842 20.0995 19.3955 20.0995C19.0068 20.0995 18.653 20.1967 18.334 20.391C18.015 20.5817 17.7602 20.8402 17.5695 21.1665C17.3788 21.4928 17.2835 21.854 17.2835 22.25C17.2835 22.6497 17.3807 23.0127 17.575 23.339C17.7693 23.6617 18.026 23.9183 18.345 24.109C18.6677 24.2997 19.0178 24.395 19.3955 24.395ZM23.2242 22.8935V19.5H23.9942V22.7395C23.9942 23.0402 24.0675 23.3133 24.2142 23.559C24.3608 23.8047 24.557 24.0008 24.8027 24.1475C25.052 24.2942 25.3252 24.3675 25.6222 24.3675C25.9228 24.3675 26.1942 24.2942 26.4362 24.1475C26.6818 24.0008 26.878 23.8047 27.0247 23.559C27.1713 23.3133 27.2447 23.0402 27.2447 22.7395V19.5H28.0147L28.0202 25H27.2502L27.2447 24.23C27.0503 24.5087 26.7973 24.7305 26.4857 24.8955C26.1777 25.0605 25.8403 25.143 25.4737 25.143C25.0593 25.143 24.6817 25.0422 24.3407 24.8405C23.9997 24.6388 23.7283 24.3675 23.5267 24.0265C23.325 23.6855 23.2242 23.3078 23.2242 22.8935ZM33.0001 23.6195L33.6876 23.9935C33.4383 24.3418 33.1211 24.6205 32.7361 24.8295C32.3548 25.0385 31.9404 25.143 31.4931 25.143C30.9871 25.143 30.5251 25.0128 30.1071 24.7525C29.6928 24.4922 29.3609 24.1438 29.1116 23.7075C28.8659 23.2675 28.7431 22.7817 28.7431 22.25C28.7431 21.8467 28.8146 21.4708 28.9576 21.1225C29.1006 20.7705 29.2968 20.4625 29.5461 20.1985C29.7991 19.9308 30.0924 19.7218 30.4261 19.5715C30.7598 19.4212 31.1154 19.346 31.4931 19.346C31.9404 19.346 32.3548 19.4505 32.7361 19.6595C33.1211 19.8685 33.4383 20.149 33.6876 20.501L33.0001 20.8695C32.8094 20.6275 32.5803 20.4423 32.3126 20.314C32.0449 20.182 31.7718 20.116 31.4931 20.116C31.1228 20.116 30.7873 20.215 30.4866 20.413C30.1859 20.6073 29.9476 20.8658 29.7716 21.1885C29.5993 21.5112 29.5131 21.865 29.5131 22.25C29.5131 22.635 29.6011 22.9888 29.7771 23.3115C29.9568 23.6342 30.1969 23.8927 30.4976 24.087C30.7983 24.2777 31.1301 24.373 31.4931 24.373C31.7938 24.373 32.0761 24.3033 32.3401 24.164C32.6041 24.0247 32.8241 23.8432 33.0001 23.6195ZM37.491 20.27H36.1765L36.171 25H35.401L35.4065 20.27H34.411V19.5H35.4065L35.401 17.773H36.171L36.1765 19.5H37.491V20.27ZM40.129 25.1045C39.8284 25.0972 39.535 25.0422 39.249 24.9395C38.963 24.8368 38.7137 24.6975 38.501 24.5215C38.2884 24.3455 38.1362 24.1457 38.0445 23.922L38.71 23.636C38.7687 23.779 38.8769 23.911 39.0345 24.032C39.1959 24.1493 39.3792 24.2447 39.5845 24.318C39.7899 24.3877 39.9934 24.4225 40.195 24.4225C40.4187 24.4225 40.6277 24.3858 40.822 24.3125C41.0164 24.2392 41.174 24.1347 41.295 23.999C41.4197 23.8597 41.482 23.6965 41.482 23.5095C41.482 23.3078 41.416 23.1502 41.284 23.0365C41.152 22.9192 40.9852 22.8275 40.7835 22.7615C40.5819 22.6918 40.3747 22.6258 40.162 22.5635C39.7734 22.4572 39.4305 22.3398 39.1335 22.2115C38.8365 22.0832 38.6037 21.92 38.435 21.722C38.27 21.5203 38.1875 21.2618 38.1875 20.9465C38.1875 20.6128 38.281 20.325 38.468 20.083C38.6587 19.8373 38.9062 19.6485 39.2105 19.5165C39.5185 19.3808 39.8467 19.313 40.195 19.313C40.6424 19.313 41.0494 19.4102 41.416 19.6045C41.7864 19.7988 42.054 20.0573 42.219 20.38L41.5975 20.7485C41.5315 20.5982 41.427 20.468 41.284 20.358C41.141 20.248 40.9779 20.1618 40.7945 20.0995C40.6149 20.0372 40.4315 20.0042 40.2445 20.0005C40.0099 19.9968 39.7917 20.0317 39.59 20.105C39.3884 20.1747 39.2252 20.2792 39.1005 20.4185C38.9795 20.5578 38.919 20.7283 38.919 20.93C38.919 21.1317 38.9795 21.2857 39.1005 21.392C39.2215 21.4947 39.3847 21.579 39.59 21.645C39.799 21.7073 40.0337 21.7807 40.294 21.865C40.6277 21.9713 40.9412 22.0923 41.2345 22.228C41.5279 22.3637 41.7644 22.5323 41.944 22.734C42.1237 22.9357 42.2117 23.1905 42.208 23.4985C42.208 23.8285 42.109 24.1163 41.911 24.362C41.713 24.6077 41.4564 24.7965 41.141 24.9285C40.8257 25.0568 40.4884 25.1155 40.129 25.1045ZM45.7987 19.5H46.5687V25H45.7987V19.5ZM46.1892 18.5375C46.0645 18.5375 45.9582 18.4972 45.8702 18.4165C45.7858 18.3322 45.7437 18.2277 45.7437 18.103C45.7437 17.9783 45.7858 17.8757 45.8702 17.795C45.9582 17.7107 46.0645 17.6685 46.1892 17.6685C46.3102 17.6685 46.4128 17.7107 46.4972 17.795C46.5852 17.8757 46.6292 17.9783 46.6292 18.103C46.6292 18.2277 46.587 18.3322 46.5027 18.4165C46.4183 18.4972 46.3138 18.5375 46.1892 18.5375ZM52.6679 21.5955V25H51.8979V21.7495C51.8979 21.4488 51.8246 21.1757 51.6779 20.93C51.5312 20.6843 51.3351 20.4882 51.0894 20.3415C50.8437 20.1948 50.5706 20.1215 50.2699 20.1215C49.9729 20.1215 49.6997 20.1948 49.4504 20.3415C49.2047 20.4882 49.0086 20.6843 48.8619 20.93C48.7152 21.1757 48.6419 21.4488 48.6419 21.7495V25H47.8719V19.5H48.6419V20.259C48.8362 19.9803 49.0892 19.7585 49.4009 19.5935C49.7126 19.4285 50.0517 19.346 50.4184 19.346C50.8327 19.346 51.2104 19.4468 51.5514 19.6485C51.8924 19.8502 52.1637 20.1215 52.3654 20.4625C52.5671 20.8035 52.6679 21.1812 52.6679 21.5955ZM90.481 25.616L90.822 23.757H91.592L90.9925 25.616H90.481ZM63.6685 41.616L64.0095 39.757H64.7795L64.18 41.616H63.6685ZM79.3629 41.616L79.7039 39.757H80.4739L79.8744 41.616H79.3629ZM74.0347 57.616L74.3757 55.757H75.1457L74.5462 57.616H74.0347ZM115.682 57.616L116.023 55.757H116.793L116.194 57.616H115.682ZM35.0513 73.616L35.3923 71.757H36.1623L35.5628 73.616H35.0513ZM87.7632 73.616L88.1042 71.757H88.8742L88.2747 73.616H87.7632ZM94.8462 73.143C94.4099 73.143 94.023 73.0385 93.6857 72.8295C93.352 72.6168 93.0899 72.34 92.8992 71.999C92.7122 71.658 92.6187 71.2932 92.6187 70.9045C92.6187 70.6662 92.6425 70.459 92.6902 70.283C92.7415 70.107 92.8277 69.9328 92.9487 69.7605C93.0734 69.5882 93.2457 69.3883 93.4657 69.161C93.6857 68.9337 93.9662 68.6495 94.3072 68.3085C94.1055 68.1032 93.9387 67.9308 93.8067 67.7915C93.6784 67.6522 93.5775 67.5275 93.5042 67.4175C93.4309 67.3038 93.3795 67.1902 93.3502 67.0765C93.3209 66.9592 93.3062 66.8235 93.3062 66.6695C93.3062 66.3798 93.3759 66.1177 93.5152 65.883C93.6582 65.6483 93.847 65.4632 94.0817 65.3275C94.3164 65.1882 94.5712 65.1185 94.8462 65.1185C95.1322 65.1185 95.3925 65.1882 95.6272 65.3275C95.8619 65.4668 96.0489 65.6538 96.1882 65.8885C96.3275 66.1195 96.3972 66.3798 96.3972 66.6695C96.3972 66.8272 96.3807 66.9665 96.3477 67.0875C96.3184 67.2048 96.2652 67.3203 96.1882 67.434C96.1149 67.5477 96.0122 67.6742 95.8802 67.8135C95.7519 67.9492 95.5905 68.1142 95.3962 68.3085L97.4532 70.3655L98.6632 69.1555V70.2445L97.9867 70.921L99.5322 72.4555L98.9877 73L97.4532 71.471C97.1085 71.8157 96.8207 72.098 96.5897 72.318C96.3624 72.5343 96.1625 72.703 95.9902 72.824C95.8179 72.945 95.6437 73.0275 95.4677 73.0715C95.2954 73.1192 95.0882 73.143 94.8462 73.143ZM94.8462 72.373C95.0295 72.373 95.1854 72.3528 95.3137 72.3125C95.442 72.2722 95.5722 72.2007 95.7042 72.098C95.8399 71.9917 95.9994 71.8432 96.1827 71.6525C96.3697 71.4618 96.6117 71.2162 96.9087 70.9155L94.8462 68.853C94.5419 69.161 94.2944 69.4103 94.1037 69.601C93.913 69.7917 93.7664 69.953 93.6637 70.085C93.561 70.2133 93.4895 70.3417 93.4492 70.47C93.4125 70.5947 93.3942 70.745 93.3942 70.921C93.3942 71.1923 93.4602 71.438 93.5922 71.658C93.7242 71.878 93.9002 72.0522 94.1202 72.1805C94.3402 72.3088 94.5822 72.373 94.8462 72.373ZM94.8462 67.852C95.0845 67.6173 95.2642 67.4395 95.3852 67.3185C95.5062 67.1975 95.5887 67.093 95.6327 67.005C95.6767 66.9133 95.6987 66.7978 95.6987 66.6585C95.6987 66.4165 95.6125 66.2148 95.4402 66.0535C95.2715 65.8922 95.0735 65.8115 94.8462 65.8115C94.6115 65.8115 94.4117 65.8958 94.2467 66.0645C94.0854 66.2332 94.0047 66.4312 94.0047 66.6585C94.0047 66.7978 94.0285 66.9152 94.0762 67.0105C94.1239 67.1022 94.2082 67.2085 94.3292 67.3295C94.4502 67.4505 94.6225 67.6247 94.8462 67.852ZM0.66 89V83.5H1.43V84.259C1.628 83.9803 1.881 83.7585 2.189 83.5935C2.497 83.4285 2.83433 83.346 3.201 83.346C3.61533 83.346 3.99483 83.4487 4.3395 83.654C4.68417 83.8557 4.95367 84.1252 5.148 84.4625C5.34233 84.1252 5.61 83.8557 5.951 83.654C6.292 83.4487 6.66967 83.346 7.084 83.346C7.49833 83.346 7.876 83.4468 8.217 83.6485C8.558 83.8502 8.82933 84.1215 9.031 84.4625C9.23267 84.8035 9.3335 85.1812 9.3335 85.5955V89H8.5635V85.766C8.5635 85.4727 8.492 85.2013 8.349 84.952C8.206 84.7027 8.0135 84.5028 7.7715 84.3525C7.53317 84.1985 7.26733 84.1215 6.974 84.1215C6.68067 84.1215 6.413 84.193 6.171 84.336C5.93267 84.4753 5.742 84.6697 5.599 84.919C5.456 85.1647 5.3845 85.447 5.3845 85.766V89H4.6145V85.766C4.6145 85.447 4.543 85.1647 4.4 84.919C4.257 84.6697 4.0645 84.4753 3.8225 84.336C3.5805 84.193 3.31283 84.1215 3.0195 84.1215C2.72983 84.1215 2.464 84.1985 2.222 84.3525C1.98 84.5028 1.7875 84.7027 1.6445 84.952C1.5015 85.2013 1.43 85.4727 1.43 85.766V89H0.66ZM12.748 89.143C12.242 89.143 11.78 89.0128 11.362 88.7525C10.9476 88.4922 10.6158 88.1438 10.3665 87.7075C10.1208 87.2675 9.99797 86.7817 9.99797 86.25C9.99797 85.8467 10.0695 85.4708 10.2125 85.1225C10.3555 84.7705 10.5516 84.4625 10.801 84.1985C11.054 83.9308 11.3473 83.7218 11.681 83.5715C12.0146 83.4212 12.3703 83.346 12.748 83.346C13.254 83.346 13.7141 83.4762 14.1285 83.7365C14.5465 83.9968 14.8783 84.347 15.124 84.787C15.3733 85.227 15.498 85.7147 15.498 86.25C15.498 86.6497 15.4265 87.0237 15.2835 87.372C15.1405 87.7203 14.9425 88.0283 14.6895 88.296C14.4401 88.56 14.1486 88.7672 13.815 88.9175C13.485 89.0678 13.1293 89.143 12.748 89.143ZM12.748 88.373C13.122 88.373 13.4575 88.2758 13.7545 88.0815C14.0551 87.8835 14.2916 87.6232 14.464 87.3005C14.64 86.9778 14.728 86.6277 14.728 86.25C14.728 85.865 14.64 85.5112 14.464 85.1885C14.288 84.8622 14.0496 84.6018 13.749 84.4075C13.452 84.2132 13.1183 84.116 12.748 84.116C12.374 84.116 12.0366 84.215 11.736 84.413C11.439 84.6073 11.2025 84.8658 11.0265 85.1885C10.8541 85.5112 10.768 85.865 10.768 86.25C10.768 86.646 10.8578 87.0053 11.0375 87.328C11.2171 87.647 11.4573 87.9018 11.758 88.0925C12.0586 88.2795 12.3886 88.373 12.748 88.373ZM16.4295 89V83.5H17.1995V84.259C17.3939 83.9803 17.6469 83.7585 17.9585 83.5935C18.2702 83.4285 18.6094 83.346 18.976 83.346C19.1887 83.346 19.394 83.3735 19.592 83.4285L19.2785 84.193C19.1245 84.1453 18.9742 84.1215 18.8275 84.1215C18.5305 84.1215 18.2574 84.1948 18.008 84.3415C17.7624 84.4882 17.5662 84.6843 17.4195 84.93C17.2729 85.1757 17.1995 85.4488 17.1995 85.7495V89H16.4295ZM22.4159 89.143C21.9099 89.143 21.4479 89.0128 21.0299 88.7525C20.6156 88.4922 20.2838 88.1438 20.0344 87.7075C19.7888 87.2675 19.6659 86.7817 19.6659 86.25C19.6659 85.8467 19.7374 85.4708 19.8804 85.1225C20.0234 84.7705 20.2196 84.4625 20.4689 84.1985C20.7219 83.9308 21.0153 83.7218 21.3489 83.5715C21.6826 83.4212 22.0383 83.346 22.4159 83.346C22.8229 83.346 23.1969 83.4267 23.5379 83.588C23.8826 83.7493 24.1778 83.9748 24.4234 84.2645C24.6728 84.5542 24.8598 84.8933 24.9844 85.282C25.1128 85.6707 25.1659 86.0905 25.1439 86.5415H20.4799C20.5239 86.8898 20.6339 87.2015 20.8099 87.4765C20.9896 87.7515 21.2169 87.9697 21.4919 88.131C21.7706 88.2887 22.0786 88.3693 22.4159 88.373C22.7826 88.373 23.1126 88.2777 23.4059 88.087C23.7029 87.8963 23.9413 87.6342 24.1209 87.3005L24.9019 87.482C24.6819 87.9697 24.3501 88.3693 23.9064 88.681C23.4628 88.989 22.9659 89.143 22.4159 89.143ZM20.4579 85.92H24.3684C24.3428 85.579 24.2383 85.2673 24.0549 84.985C23.8753 84.699 23.6424 84.4717 23.3564 84.303C23.0704 84.1307 22.7569 84.0445 22.4159 84.0445C22.0749 84.0445 21.7633 84.1288 21.4809 84.2975C21.1986 84.4625 20.9676 84.688 20.7879 84.974C20.6083 85.2563 20.4983 85.5717 20.4579 85.92ZM26.2475 89.143C26.1265 89.143 26.0239 89.099 25.9395 89.011C25.8552 88.9267 25.813 88.8222 25.813 88.6975C25.813 88.5802 25.8552 88.4793 25.9395 88.395C26.0239 88.307 26.1265 88.263 26.2475 88.263C26.3722 88.263 26.4767 88.307 26.561 88.395C26.649 88.4793 26.693 88.5802 26.693 88.6975C26.693 88.8222 26.649 88.9267 26.561 89.011C26.4767 89.099 26.3722 89.143 26.2475 89.143Z" fill="black"/>
<path d="M59.976 25.143C59.4553 25.143 58.9658 25.0403 58.5075 24.835C58.0491 24.626 57.6458 24.3382 57.2975 23.9715C56.9528 23.6048 56.6815 23.1813 56.4835 22.701C56.2891 22.217 56.192 21.7 56.192 21.15C56.192 20.5963 56.2891 20.0793 56.4835 19.599C56.6815 19.115 56.9528 18.6915 57.2975 18.3285C57.6458 17.9618 58.0491 17.6758 58.5075 17.4705C58.9658 17.2615 59.4553 17.157 59.976 17.157C60.5993 17.157 61.1731 17.3018 61.6975 17.5915C62.2218 17.8775 62.6563 18.2607 63.001 18.741L61.802 19.3845C61.5856 19.1168 61.3161 18.9023 60.9935 18.741C60.6745 18.5797 60.3353 18.499 59.976 18.499C59.6386 18.499 59.3215 18.5687 59.0245 18.708C58.7275 18.8437 58.4671 19.0343 58.2435 19.28C58.0198 19.522 57.8456 19.8043 57.721 20.127C57.5963 20.446 57.534 20.787 57.534 21.15C57.534 21.5167 57.5963 21.8595 57.721 22.1785C57.8493 22.4975 58.0253 22.7798 58.249 23.0255C58.4726 23.2675 58.7311 23.4582 59.0245 23.5975C59.3215 23.7332 59.6386 23.801 59.976 23.801C60.3426 23.801 60.6836 23.7203 60.999 23.559C61.318 23.394 61.5856 23.1777 61.802 22.91L63.001 23.559C62.6563 24.0357 62.2218 24.4188 61.6975 24.7085C61.1731 24.9982 60.5993 25.143 59.976 25.143ZM64.0014 25L63.9959 19.5H65.3379L65.3434 19.9895C65.5304 19.7915 65.7541 19.6357 66.0144 19.522C66.2748 19.4047 66.5553 19.346 66.8559 19.346C67.0576 19.346 67.2593 19.3753 67.4609 19.434L66.9329 20.787C66.7936 20.732 66.6543 20.7045 66.5149 20.7045C66.2986 20.7045 66.1006 20.7577 65.9209 20.864C65.7449 20.9667 65.6038 21.1078 65.4974 21.2875C65.3948 21.4635 65.3434 21.6597 65.3434 21.876V25H64.0014ZM71.8295 19.5H73.254L70.2455 27.75H68.821L69.8165 25L67.8365 19.5H69.305L70.4875 23.163L71.8295 19.5ZM75.3926 27.75H74.0506V19.5H75.3926V20.1985C75.5723 19.9492 75.7923 19.7475 76.0526 19.5935C76.3166 19.4358 76.6246 19.357 76.9766 19.357C77.38 19.357 77.7558 19.4322 78.1041 19.5825C78.4525 19.7328 78.7586 19.9418 79.0226 20.2095C79.2903 20.4735 79.4975 20.7797 79.6441 21.128C79.7945 21.4763 79.8696 21.8503 79.8696 22.25C79.8696 22.6497 79.7945 23.0255 79.6441 23.3775C79.4975 23.7295 79.2903 24.0393 79.0226 24.307C78.7586 24.571 78.4525 24.7782 78.1041 24.9285C77.7558 25.0788 77.38 25.154 76.9766 25.154C76.6246 25.154 76.3166 25.077 76.0526 24.923C75.7923 24.7653 75.5723 24.5618 75.3926 24.3125V27.75ZM76.9601 20.6495C76.6815 20.6495 76.4321 20.7228 76.2121 20.8695C75.9921 21.0125 75.8198 21.205 75.6951 21.447C75.5705 21.689 75.5081 21.9567 75.5081 22.25C75.5081 22.5433 75.5705 22.8128 75.6951 23.0585C75.8198 23.3005 75.9921 23.4948 76.2121 23.6415C76.4321 23.7845 76.6815 23.856 76.9601 23.856C77.2425 23.856 77.501 23.7845 77.7356 23.6415C77.9703 23.4985 78.1573 23.306 78.2966 23.064C78.436 22.8183 78.5056 22.547 78.5056 22.25C78.5056 21.9567 78.436 21.689 78.2966 21.447C78.1573 21.205 77.9703 21.0125 77.7356 20.8695C77.5046 20.7228 77.2461 20.6495 76.9601 20.6495ZM83.6803 20.842H82.6133V25H81.2713V20.842H80.4573V19.5H81.2713V17.773H82.6133V19.5H83.6803V20.842ZM86.9657 25.143C86.4597 25.143 85.9977 25.0128 85.5797 24.7525C85.1654 24.4922 84.8336 24.1438 84.5842 23.7075C84.3386 23.2675 84.2157 22.7817 84.2157 22.25C84.2157 21.8467 84.2872 21.4708 84.4302 21.1225C84.5732 20.7705 84.7694 20.4625 85.0187 20.1985C85.2717 19.9308 85.5651 19.7218 85.8987 19.5715C86.2324 19.4212 86.5881 19.346 86.9657 19.346C87.4717 19.346 87.9319 19.4762 88.3462 19.7365C88.7642 19.9968 89.0961 20.347 89.3417 20.787C89.5911 21.227 89.7157 21.7147 89.7157 22.25C89.7157 22.6497 89.6442 23.0237 89.5012 23.372C89.3582 23.7203 89.1602 24.0283 88.9072 24.296C88.6579 24.56 88.3664 24.7672 88.0327 24.9175C87.7027 25.0678 87.3471 25.143 86.9657 25.143ZM86.9657 23.801C87.2334 23.801 87.4736 23.7295 87.6862 23.5865C87.8989 23.4435 88.0657 23.2547 88.1867 23.02C88.3114 22.7853 88.3737 22.5287 88.3737 22.25C88.3737 21.964 88.3096 21.7037 88.1812 21.469C88.0566 21.2307 87.8861 21.0418 87.6697 20.9025C87.4571 20.7595 87.2224 20.688 86.9657 20.688C86.7017 20.688 86.4634 20.7595 86.2507 20.9025C86.0381 21.0455 85.8694 21.2362 85.7447 21.4745C85.6201 21.7128 85.5577 21.9713 85.5577 22.25C85.5577 22.5397 85.6219 22.8018 85.7502 23.0365C85.8786 23.2712 86.0491 23.4582 86.2617 23.5975C86.4781 23.7332 86.7127 23.801 86.9657 23.801ZM0.66 41V33.3H5.489V34.642H2.002V36.204H4.7685V37.546H2.002V39.658H5.489V41H0.66ZM6.69711 37.029H10.2171V38.371H6.69711V37.029ZM14.9518 39.3445L16.1618 39.999C15.9088 40.3437 15.5917 40.6205 15.2103 40.8295C14.829 41.0385 14.4128 41.143 13.9618 41.143C13.4558 41.143 12.9938 41.0128 12.5758 40.7525C12.1615 40.4922 11.8297 40.1438 11.5803 39.7075C11.3347 39.2675 11.2118 38.7817 11.2118 38.25C11.2118 37.8467 11.2833 37.4708 11.4263 37.1225C11.5693 36.7705 11.7655 36.4625 12.0148 36.1985C12.2678 35.9308 12.5612 35.7218 12.8948 35.5715C13.2285 35.4212 13.5842 35.346 13.9618 35.346C14.4128 35.346 14.829 35.4505 15.2103 35.6595C15.5917 35.8685 15.9088 36.149 16.1618 36.501L14.9518 37.15C14.8235 37.0033 14.6713 36.8897 14.4953 36.809C14.323 36.7283 14.1452 36.688 13.9618 36.688C13.6978 36.688 13.4595 36.7613 13.2468 36.908C13.0342 37.051 12.8655 37.2417 12.7408 37.48C12.6162 37.7147 12.5538 37.9713 12.5538 38.25C12.5538 38.525 12.6162 38.7817 12.7408 39.02C12.8655 39.2547 13.0342 39.4435 13.2468 39.5865C13.4595 39.7295 13.6978 39.801 13.9618 39.801C14.1525 39.801 14.334 39.7607 14.5063 39.68C14.6787 39.5957 14.8272 39.4838 14.9518 39.3445ZM19.3974 41.143C18.8914 41.143 18.4294 41.0128 18.0114 40.7525C17.597 40.4922 17.2652 40.1438 17.0159 39.7075C16.7702 39.2675 16.6474 38.7817 16.6474 38.25C16.6474 37.8467 16.7189 37.4708 16.8619 37.1225C17.0049 36.7705 17.201 36.4625 17.4504 36.1985C17.7034 35.9308 17.9967 35.7218 18.3304 35.5715C18.664 35.4212 19.0197 35.346 19.3974 35.346C19.9034 35.346 20.3635 35.4762 20.7779 35.7365C21.1959 35.9968 21.5277 36.347 21.7734 36.787C22.0227 37.227 22.1474 37.7147 22.1474 38.25C22.1474 38.6497 22.0759 39.0237 21.9329 39.372C21.7899 39.7203 21.5919 40.0283 21.3389 40.296C21.0895 40.56 20.798 40.7672 20.4644 40.9175C20.1344 41.0678 19.7787 41.143 19.3974 41.143ZM19.3974 39.801C19.665 39.801 19.9052 39.7295 20.1179 39.5865C20.3305 39.4435 20.4974 39.2547 20.6184 39.02C20.743 38.7853 20.8054 38.5287 20.8054 38.25C20.8054 37.964 20.7412 37.7037 20.6129 37.469C20.4882 37.2307 20.3177 37.0418 20.1014 36.9025C19.8887 36.7595 19.654 36.688 19.3974 36.688C19.1334 36.688 18.895 36.7595 18.6824 36.9025C18.4697 37.0455 18.301 37.2362 18.1764 37.4745C18.0517 37.7128 17.9894 37.9713 17.9894 38.25C17.9894 38.5397 18.0535 38.8018 18.1819 39.0365C18.3102 39.2712 18.4807 39.4582 18.6934 39.5975C18.9097 39.7332 19.1444 39.801 19.3974 39.801ZM23.0038 41V35.5H24.3458V35.9895C24.5328 35.7915 24.7564 35.6357 25.0168 35.522C25.2771 35.4047 25.5576 35.346 25.8583 35.346C26.2396 35.346 26.5898 35.4358 26.9088 35.6155C27.2314 35.7952 27.4881 36.0353 27.6788 36.336C27.8731 36.0353 28.1298 35.7952 28.4488 35.6155C28.7678 35.4358 29.1179 35.346 29.4993 35.346C29.9026 35.346 30.2674 35.445 30.5938 35.643C30.9238 35.8373 31.1859 36.0995 31.3803 36.4295C31.5783 36.7558 31.6773 37.1207 31.6773 37.524V41H30.3353V37.8815C30.3353 37.6688 30.2821 37.4745 30.1758 37.2985C30.0731 37.1188 29.9338 36.9758 29.7578 36.8695C29.5854 36.7595 29.3911 36.7045 29.1748 36.7045C28.9584 36.7045 28.7623 36.7577 28.5863 36.864C28.4139 36.9667 28.2746 37.106 28.1683 37.282C28.0619 37.458 28.0088 37.6578 28.0088 37.8815V41H26.6668V37.8815C26.6668 37.6578 26.6154 37.458 26.5128 37.282C26.4101 37.106 26.2708 36.9667 26.0948 36.864C25.9188 36.7577 25.7226 36.7045 25.5063 36.7045C25.2936 36.7045 25.0993 36.7595 24.9233 36.8695C24.7473 36.9758 24.6061 37.1188 24.4998 37.2985C24.3971 37.4745 24.3458 37.6688 24.3458 37.8815V41H23.0038ZM32.7791 41V35.5H34.1211V35.9895C34.3081 35.7915 34.5318 35.6357 34.7921 35.522C35.0525 35.4047 35.333 35.346 35.6336 35.346C36.015 35.346 36.3651 35.4358 36.6841 35.6155C37.0068 35.7952 37.2635 36.0353 37.4541 36.336C37.6485 36.0353 37.9051 35.7952 38.2241 35.6155C38.5431 35.4358 38.8933 35.346 39.2746 35.346C39.678 35.346 40.0428 35.445 40.3691 35.643C40.6991 35.8373 40.9613 36.0995 41.1556 36.4295C41.3536 36.7558 41.4526 37.1207 41.4526 37.524V41H40.1106V37.8815C40.1106 37.6688 40.0575 37.4745 39.9511 37.2985C39.8485 37.1188 39.7091 36.9758 39.5331 36.8695C39.3608 36.7595 39.1665 36.7045 38.9501 36.7045C38.7338 36.7045 38.5376 36.7577 38.3616 36.864C38.1893 36.9667 38.05 37.106 37.9436 37.282C37.8373 37.458 37.7841 37.6578 37.7841 37.8815V41H36.4421V37.8815C36.4421 37.6578 36.3908 37.458 36.2881 37.282C36.1855 37.106 36.0461 36.9667 35.8701 36.864C35.6941 36.7577 35.498 36.7045 35.2816 36.7045C35.069 36.7045 34.8746 36.7595 34.6986 36.8695C34.5226 36.9758 34.3815 37.1188 34.2751 37.2985C34.1725 37.4745 34.1211 37.6688 34.1211 37.8815V41H32.7791ZM44.8671 41.143C44.3611 41.143 43.8991 41.0128 43.4811 40.7525C43.0668 40.4922 42.7349 40.142 42.4856 39.702C42.2399 39.262 42.1171 38.7762 42.1171 38.2445C42.1171 37.8448 42.1886 37.4708 42.3316 37.1225C42.4746 36.7705 42.6708 36.4625 42.9201 36.1985C43.1731 35.9308 43.4664 35.7218 43.8001 35.5715C44.1338 35.4212 44.4894 35.346 44.8671 35.346C45.2961 35.346 45.6884 35.4377 46.0441 35.621C46.4034 35.8007 46.7078 36.0482 46.9571 36.3635C47.2064 36.6788 47.3879 37.0382 47.5016 37.4415C47.6153 37.8448 47.6409 38.2665 47.5786 38.7065H43.5581C43.6094 38.9118 43.6938 39.097 43.8111 39.262C43.9284 39.4233 44.0769 39.5535 44.2566 39.6525C44.4363 39.7478 44.6398 39.7973 44.8671 39.801C45.1018 39.8047 45.3144 39.7497 45.5051 39.636C45.6994 39.5187 45.8608 39.361 45.9891 39.163L47.3586 39.482C47.1349 39.9697 46.8013 40.3693 46.3576 40.681C45.9139 40.989 45.4171 41.143 44.8671 41.143ZM43.5141 37.7H46.2201C46.1798 37.48 46.0936 37.282 45.9616 37.106C45.8333 36.9263 45.6738 36.7833 45.4831 36.677C45.2924 36.5707 45.0871 36.5175 44.8671 36.5175C44.6471 36.5175 44.4436 36.5707 44.2566 36.677C44.0696 36.7797 43.9101 36.9208 43.7781 37.1005C43.6498 37.2765 43.5618 37.4763 43.5141 37.7ZM48.479 41L48.4735 35.5H49.8155L49.821 35.9895C50.008 35.7915 50.2316 35.6357 50.492 35.522C50.7523 35.4047 51.0328 35.346 51.3335 35.346C51.5351 35.346 51.7368 35.3753 51.9385 35.434L51.4105 36.787C51.2711 36.732 51.1318 36.7045 50.9925 36.7045C50.7761 36.7045 50.5781 36.7577 50.3985 36.864C50.2225 36.9667 50.0813 37.1078 49.975 37.2875C49.8723 37.4635 49.821 37.6597 49.821 37.876V41H48.479ZM55.7077 39.3445L56.9177 39.999C56.6647 40.3437 56.3475 40.6205 55.9662 40.8295C55.5849 41.0385 55.1687 41.143 54.7177 41.143C54.2117 41.143 53.7497 41.0128 53.3317 40.7525C52.9174 40.4922 52.5855 40.1438 52.3362 39.7075C52.0905 39.2675 51.9677 38.7817 51.9677 38.25C51.9677 37.8467 52.0392 37.4708 52.1822 37.1225C52.3252 36.7705 52.5214 36.4625 52.7707 36.1985C53.0237 35.9308 53.317 35.7218 53.6507 35.5715C53.9844 35.4212 54.34 35.346 54.7177 35.346C55.1687 35.346 55.5849 35.4505 55.9662 35.6595C56.3475 35.8685 56.6647 36.149 56.9177 36.501L55.7077 37.15C55.5794 37.0033 55.4272 36.8897 55.2512 36.809C55.0789 36.7283 54.901 36.688 54.7177 36.688C54.4537 36.688 54.2154 36.7613 54.0027 36.908C53.79 37.051 53.6214 37.2417 53.4967 37.48C53.372 37.7147 53.3097 37.9713 53.3097 38.25C53.3097 38.525 53.372 38.7817 53.4967 39.02C53.6214 39.2547 53.79 39.4435 54.0027 39.5865C54.2154 39.7295 54.4537 39.801 54.7177 39.801C54.9084 39.801 55.0899 39.7607 55.2622 39.68C55.4345 39.5957 55.583 39.4838 55.7077 39.3445ZM60.1532 41.143C59.6472 41.143 59.1852 41.0128 58.7672 40.7525C58.3529 40.4922 58.0211 40.142 57.7717 39.702C57.5261 39.262 57.4032 38.7762 57.4032 38.2445C57.4032 37.8448 57.4747 37.4708 57.6177 37.1225C57.7607 36.7705 57.9569 36.4625 58.2062 36.1985C58.4592 35.9308 58.7526 35.7218 59.0862 35.5715C59.4199 35.4212 59.7756 35.346 60.1532 35.346C60.5822 35.346 60.9746 35.4377 61.3302 35.621C61.6896 35.8007 61.9939 36.0482 62.2432 36.3635C62.4926 36.6788 62.6741 37.0382 62.7877 37.4415C62.9014 37.8448 62.9271 38.2665 62.8647 38.7065H58.8442C58.8956 38.9118 58.9799 39.097 59.0972 39.262C59.2146 39.4233 59.3631 39.5535 59.5427 39.6525C59.7224 39.7478 59.9259 39.7973 60.1532 39.801C60.3879 39.8047 60.6006 39.7497 60.7912 39.636C60.9856 39.5187 61.1469 39.361 61.2752 39.163L62.6447 39.482C62.4211 39.9697 62.0874 40.3693 61.6437 40.681C61.2001 40.989 60.7032 41.143 60.1532 41.143ZM58.8002 37.7H61.5062C61.4659 37.48 61.3797 37.282 61.2477 37.106C61.1194 36.9263 60.9599 36.7833 60.7692 36.677C60.5786 36.5707 60.3732 36.5175 60.1532 36.5175C59.9332 36.5175 59.7297 36.5707 59.5427 36.677C59.3557 36.7797 59.1962 36.9208 59.0642 37.1005C58.9359 37.2765 58.8479 37.4763 58.8002 37.7ZM71.318 33.3H72.8635L75.663 41H74.2385L73.7435 39.636H70.4435L69.9485 41H68.524L71.318 33.3ZM70.933 38.294H73.2485L72.088 35.1205L70.933 38.294ZM76.7508 41V33.3H78.0928V41H76.7508ZM0.66 57L2.156 49.3H3.267L5.1425 54.2335L7.018 49.3H8.129L9.625 57H8.2555L7.3315 52.237L5.599 56.824H4.6805L2.948 52.237L2.0295 57H0.66ZM14.5072 51.5H15.8492V57H14.5072L14.4467 56.318C14.2964 56.5637 14.0965 56.7635 13.8472 56.9175C13.6015 57.0678 13.31 57.143 12.9727 57.143C12.5657 57.143 12.1844 57.066 11.8287 56.912C11.473 56.758 11.1595 56.5453 10.8882 56.274C10.6205 56.0027 10.4097 55.6892 10.2557 55.3335C10.1054 54.9778 10.0302 54.5965 10.0302 54.1895C10.0302 53.7972 10.1017 53.4287 10.2447 53.084C10.3914 52.7393 10.5949 52.4368 10.8552 52.1765C11.1155 51.9162 11.4162 51.7127 11.7572 51.566C12.0982 51.4193 12.4649 51.346 12.8572 51.346C13.2202 51.346 13.5447 51.4267 13.8307 51.588C14.1204 51.7493 14.366 51.9547 14.5677 52.204L14.5072 51.5ZM12.9397 55.8505C13.2257 55.8505 13.4787 55.779 13.6987 55.636C13.9187 55.493 14.091 55.3005 14.2157 55.0585C14.3404 54.8128 14.4027 54.5433 14.4027 54.25C14.4027 53.953 14.3404 53.6835 14.2157 53.4415C14.091 53.1958 13.9169 53.0015 13.6932 52.8585C13.4732 52.7155 13.222 52.644 12.9397 52.644C12.6574 52.644 12.3989 52.7173 12.1642 52.864C11.9332 53.007 11.748 53.1995 11.6087 53.4415C11.473 53.6835 11.4052 53.953 11.4052 54.25C11.4052 54.547 11.4749 54.8165 11.6142 55.0585C11.7535 55.3005 11.9387 55.493 12.1697 55.636C12.4044 55.779 12.661 55.8505 12.9397 55.8505ZM21.9832 53.524V57H20.6412V53.876C20.6412 53.6597 20.588 53.4635 20.4817 53.2875C20.3753 53.1078 20.2323 52.9667 20.0527 52.864C19.8767 52.7577 19.6805 52.7045 19.4642 52.7045C19.2478 52.7045 19.0498 52.7577 18.8702 52.864C18.6942 52.9667 18.553 53.1078 18.4467 53.2875C18.344 53.4635 18.2927 53.6597 18.2927 53.876V57H16.9507L16.9452 51.5H18.2872L18.2927 51.9895C18.4797 51.7915 18.7033 51.6357 18.9637 51.522C19.224 51.4047 19.5045 51.346 19.8052 51.346C20.2048 51.346 20.5697 51.445 20.8997 51.643C21.2297 51.8373 21.4918 52.0995 21.6862 52.4295C21.8842 52.7558 21.9832 53.1207 21.9832 53.524ZM22.8589 54.965V51.5H24.2009V54.613C24.2009 54.8293 24.2541 55.0273 24.3604 55.207C24.4668 55.383 24.6079 55.5242 24.7839 55.6305C24.9636 55.7332 25.1598 55.7845 25.3724 55.7845C25.5924 55.7845 25.7904 55.7332 25.9664 55.6305C26.1424 55.5242 26.2836 55.383 26.3899 55.207C26.4963 55.0273 26.5494 54.8293 26.5494 54.613V51.5H27.8914L27.8969 57H26.5549L26.5494 56.4995C26.3588 56.6975 26.1333 56.8552 25.8729 56.9725C25.6126 57.0862 25.3339 57.143 25.0369 57.143C24.6373 57.143 24.2724 57.0458 23.9424 56.8515C23.6124 56.6535 23.3484 56.3913 23.1504 56.065C22.9561 55.735 22.8589 55.3683 22.8589 54.965ZM30.5544 50.345V51.5H32.0559V52.842H30.5544V57H29.2124V52.842H28.6129V51.5H29.2124V50.345C29.2124 50.0297 29.2894 49.7418 29.4434 49.4815C29.6011 49.2175 29.8119 49.0085 30.0759 48.8545C30.3399 48.6968 30.6314 48.618 30.9504 48.618C31.1814 48.618 31.4106 48.6657 31.6379 48.761C31.8652 48.8563 32.0669 49.003 32.2429 49.201L31.2749 50.147C31.2419 50.0847 31.1942 50.0388 31.1319 50.0095C31.0732 49.9765 31.0127 49.96 30.9504 49.96C30.8441 49.96 30.7506 49.9985 30.6699 50.0755C30.5929 50.1488 30.5544 50.2387 30.5544 50.345ZM37.0013 51.5H38.3433V57H37.0013L36.9408 56.318C36.7905 56.5637 36.5907 56.7635 36.3413 56.9175C36.0957 57.0678 35.8042 57.143 35.4668 57.143C35.0598 57.143 34.6785 57.066 34.3228 56.912C33.9672 56.758 33.6537 56.5453 33.3823 56.274C33.1147 56.0027 32.9038 55.6892 32.7498 55.3335C32.5995 54.9778 32.5243 54.5965 32.5243 54.1895C32.5243 53.7972 32.5958 53.4287 32.7388 53.084C32.8855 52.7393 33.089 52.4368 33.3493 52.1765C33.6097 51.9162 33.9103 51.7127 34.2513 51.566C34.5923 51.4193 34.959 51.346 35.3513 51.346C35.7143 51.346 36.0388 51.4267 36.3248 51.588C36.6145 51.7493 36.8602 51.9547 37.0618 52.204L37.0013 51.5ZM35.4338 55.8505C35.7198 55.8505 35.9728 55.779 36.1928 55.636C36.4128 55.493 36.5852 55.3005 36.7098 55.0585C36.8345 54.8128 36.8968 54.5433 36.8968 54.25C36.8968 53.953 36.8345 53.6835 36.7098 53.4415C36.5852 53.1958 36.411 53.0015 36.1873 52.8585C35.9673 52.7155 35.7162 52.644 35.4338 52.644C35.1515 52.644 34.893 52.7173 34.6583 52.864C34.4273 53.007 34.2422 53.1995 34.1028 53.4415C33.9672 53.6835 33.8993 53.953 33.8993 54.25C33.8993 54.547 33.969 54.8165 34.1083 55.0585C34.2477 55.3005 34.4328 55.493 34.6638 55.636C34.8985 55.779 35.1552 55.8505 35.4338 55.8505ZM42.7419 55.3445L43.9519 55.999C43.6989 56.3437 43.3817 56.6205 43.0004 56.8295C42.619 57.0385 42.2029 57.143 41.7519 57.143C41.2459 57.143 40.7839 57.0128 40.3659 56.7525C39.9515 56.4922 39.6197 56.1438 39.3704 55.7075C39.1247 55.2675 39.0019 54.7817 39.0019 54.25C39.0019 53.8467 39.0734 53.4708 39.2164 53.1225C39.3594 52.7705 39.5555 52.4625 39.8049 52.1985C40.0579 51.9308 40.3512 51.7218 40.6849 51.5715C41.0185 51.4212 41.3742 51.346 41.7519 51.346C42.2029 51.346 42.619 51.4505 43.0004 51.6595C43.3817 51.8685 43.6989 52.149 43.9519 52.501L42.7419 53.15C42.6135 53.0033 42.4614 52.8897 42.2854 52.809C42.113 52.7283 41.9352 52.688 41.7519 52.688C41.4879 52.688 41.2495 52.7613 41.0369 52.908C40.8242 53.051 40.6555 53.2417 40.5309 53.48C40.4062 53.7147 40.3439 53.9713 40.3439 54.25C40.3439 54.525 40.4062 54.7817 40.5309 55.02C40.6555 55.2547 40.8242 55.4435 41.0369 55.5865C41.2495 55.7295 41.4879 55.801 41.7519 55.801C41.9425 55.801 42.124 55.7607 42.2964 55.68C42.4687 55.5957 42.6172 55.4838 42.7419 55.3445ZM47.8873 52.842H46.8203V57H45.4783V52.842H44.6643V51.5H45.4783V49.773H46.8203V51.5H47.8873V52.842ZM48.6617 54.965V51.5H50.0037V54.613C50.0037 54.8293 50.0568 55.0273 50.1632 55.207C50.2695 55.383 50.4107 55.5242 50.5867 55.6305C50.7663 55.7332 50.9625 55.7845 51.1752 55.7845C51.3952 55.7845 51.5932 55.7332 51.7692 55.6305C51.9452 55.5242 52.0863 55.383 52.1927 55.207C52.299 55.0273 52.3522 54.8293 52.3522 54.613V51.5H53.6942L53.6997 57H52.3577L52.3522 56.4995C52.1615 56.6975 51.936 56.8552 51.6757 56.9725C51.4153 57.0862 51.1367 57.143 50.8397 57.143C50.44 57.143 50.0752 57.0458 49.7452 56.8515C49.4152 56.6535 49.1512 56.3913 48.9532 56.065C48.7588 55.735 48.6617 55.3683 48.6617 54.965ZM54.8061 57L54.8006 51.5H56.1426L56.1481 51.9895C56.3351 51.7915 56.5588 51.6357 56.8191 51.522C57.0795 51.4047 57.36 51.346 57.6606 51.346C57.8623 51.346 58.064 51.3753 58.2656 51.434L57.7376 52.787C57.5983 52.732 57.459 52.7045 57.3196 52.7045C57.1033 52.7045 56.9053 52.7577 56.7256 52.864C56.5496 52.9667 56.4085 53.1078 56.3021 53.2875C56.1995 53.4635 56.1481 53.6597 56.1481 53.876V57H54.8061ZM58.8612 51.5H60.2032V57H58.8612V51.5ZM59.5432 50.7905C59.3452 50.7905 59.1783 50.7263 59.0427 50.598C58.907 50.466 58.8392 50.301 58.8392 50.103C58.8392 49.9087 58.907 49.7455 59.0427 49.6135C59.1783 49.4815 59.3433 49.4155 59.5377 49.4155C59.732 49.4155 59.8952 49.4815 60.0272 49.6135C60.1628 49.7455 60.2307 49.9087 60.2307 50.103C60.2307 50.301 60.1647 50.466 60.0327 50.598C59.9007 50.7263 59.7375 50.7905 59.5432 50.7905ZM66.5203 53.524V57H65.1783V53.876C65.1783 53.6597 65.1251 53.4635 65.0188 53.2875C64.9124 53.1078 64.7694 52.9667 64.5898 52.864C64.4138 52.7577 64.2176 52.7045 64.0013 52.7045C63.7849 52.7045 63.5869 52.7577 63.4073 52.864C63.2313 52.9667 63.0901 53.1078 62.9838 53.2875C62.8811 53.4635 62.8298 53.6597 62.8298 53.876V57H61.4878L61.4823 51.5H62.8243L62.8298 51.9895C63.0168 51.7915 63.2404 51.6357 63.5008 51.522C63.7611 51.4047 64.0416 51.346 64.3423 51.346C64.7419 51.346 65.1068 51.445 65.4368 51.643C65.7668 51.8373 66.0289 52.0995 66.2233 52.4295C66.4213 52.7558 66.5203 53.1207 66.5203 53.524ZM71.5896 51.5H72.9316V57.1045C72.9316 57.5005 72.851 57.8598 72.6896 58.1825C72.5283 58.5088 72.3083 58.7875 72.0296 59.0185C71.751 59.2532 71.432 59.4328 71.0726 59.5575C70.7133 59.6858 70.3356 59.75 69.9396 59.75C69.5546 59.75 69.1843 59.6712 68.8286 59.5135C68.473 59.3558 68.1576 59.1395 67.8826 58.8645C67.6113 58.5932 67.4041 58.2833 67.2611 57.935L68.4876 57.3795C68.561 57.5812 68.671 57.7572 68.8176 57.9075C68.968 58.0615 69.1403 58.1807 69.3346 58.265C69.529 58.353 69.7306 58.397 69.9396 58.397C70.1523 58.397 70.3558 58.3677 70.5501 58.309C70.7481 58.2503 70.926 58.1642 71.0836 58.0505C71.2413 57.9405 71.3641 57.8048 71.4521 57.6435C71.5438 57.4858 71.5896 57.3062 71.5896 57.1045V56.329C71.4173 56.571 71.201 56.7672 70.9406 56.9175C70.6803 57.0678 70.3796 57.143 70.0386 57.143C69.6426 57.143 69.2723 57.0678 68.9276 56.9175C68.583 56.7672 68.2786 56.56 68.0146 56.296C67.7543 56.0283 67.549 55.7203 67.3986 55.372C67.252 55.0237 67.1786 54.6497 67.1786 54.25C67.1786 53.8503 67.252 53.4763 67.3986 53.128C67.549 52.7797 67.7543 52.4735 68.0146 52.2095C68.2786 51.9418 68.583 51.7328 68.9276 51.5825C69.2723 51.4322 69.6426 51.357 70.0386 51.357C70.3796 51.357 70.6803 51.4322 70.9406 51.5825C71.201 51.7292 71.4173 51.9235 71.5896 52.1655V51.5ZM70.0551 55.8505C70.3375 55.8505 70.5868 55.779 70.8031 55.636C71.0231 55.4893 71.1955 55.295 71.3201 55.053C71.4448 54.8073 71.5071 54.5397 71.5071 54.25C71.5071 53.9567 71.443 53.689 71.3146 53.447C71.19 53.205 71.0176 53.0107 70.7976 52.864C70.5813 52.7173 70.3338 52.644 70.0551 52.644C69.7801 52.644 69.529 52.7173 69.3016 52.864C69.0743 53.007 68.8928 53.1995 68.7571 53.4415C68.6215 53.6835 68.5536 53.953 68.5536 54.25C68.5536 54.547 68.6215 54.8165 68.7571 55.0585C68.8928 55.3005 69.0743 55.493 69.3016 55.636C69.529 55.779 69.7801 55.8505 70.0551 55.8505ZM79.1102 57V49.3H83.6587V50.642H80.4522V52.204H83.1307V53.546H80.4522V57H79.1102ZM84.1375 51.5H85.4795V57H84.1375V51.5ZM84.8195 50.7905C84.6215 50.7905 84.4547 50.7263 84.319 50.598C84.1834 50.466 84.1155 50.301 84.1155 50.103C84.1155 49.9087 84.1834 49.7455 84.319 49.6135C84.4547 49.4815 84.6197 49.4155 84.814 49.4155C85.0084 49.4155 85.1715 49.4815 85.3035 49.6135C85.4392 49.7455 85.507 49.9087 85.507 50.103C85.507 50.301 85.441 50.466 85.309 50.598C85.177 50.7263 85.0139 50.7905 84.8195 50.7905ZM91.7966 53.524V57H90.4546V53.876C90.4546 53.6597 90.4015 53.4635 90.2951 53.2875C90.1888 53.1078 90.0458 52.9667 89.8661 52.864C89.6901 52.7577 89.494 52.7045 89.2776 52.7045C89.0613 52.7045 88.8633 52.7577 88.6836 52.864C88.5076 52.9667 88.3665 53.1078 88.2601 53.2875C88.1575 53.4635 88.1061 53.6597 88.1061 53.876V57H86.7641L86.7586 51.5H88.1006L88.1061 51.9895C88.2931 51.7915 88.5168 51.6357 88.7771 51.522C89.0375 51.4047 89.318 51.346 89.6186 51.346C90.0183 51.346 90.3831 51.445 90.7131 51.643C91.0431 51.8373 91.3053 52.0995 91.4996 52.4295C91.6976 52.7558 91.7966 53.1207 91.7966 53.524ZM98.0242 49.3V50.642H95.6702V57H94.3282V50.642H91.9742V49.3H98.0242ZM100.705 57.143C100.199 57.143 99.737 57.0128 99.319 56.7525C98.9047 56.4922 98.5728 56.142 98.3235 55.702C98.0778 55.262 97.955 54.7762 97.955 54.2445C97.955 53.8448 98.0265 53.4708 98.1695 53.1225C98.3125 52.7705 98.5087 52.4625 98.758 52.1985C99.011 51.9308 99.3043 51.7218 99.638 51.5715C99.9717 51.4212 100.327 51.346 100.705 51.346C101.134 51.346 101.526 51.4377 101.882 51.621C102.241 51.8007 102.546 52.0482 102.795 52.3635C103.044 52.6788 103.226 53.0382 103.34 53.4415C103.453 53.8448 103.479 54.2665 103.417 54.7065H99.396C99.4473 54.9118 99.5317 55.097 99.649 55.262C99.7663 55.4233 99.9148 55.5535 100.095 55.6525C100.274 55.7478 100.478 55.7973 100.705 55.801C100.94 55.8047 101.152 55.7497 101.343 55.636C101.537 55.5187 101.699 55.361 101.827 55.163L103.197 55.482C102.973 55.9697 102.639 56.3693 102.196 56.681C101.752 56.989 101.255 57.143 100.705 57.143ZM99.352 53.7H102.058C102.018 53.48 101.932 53.282 101.8 53.106C101.671 52.9263 101.512 52.7833 101.321 52.677C101.13 52.5707 100.925 52.5175 100.705 52.5175C100.485 52.5175 100.282 52.5707 100.095 52.677C99.9075 52.7797 99.748 52.9208 99.616 53.1005C99.4877 53.2765 99.3997 53.4763 99.352 53.7ZM107.743 55.3445L108.953 55.999C108.7 56.3437 108.383 56.6205 108.001 56.8295C107.62 57.0385 107.204 57.143 106.753 57.143C106.247 57.143 105.785 57.0128 105.367 56.7525C104.953 56.4922 104.621 56.1438 104.371 55.7075C104.126 55.2675 104.003 54.7817 104.003 54.25C104.003 53.8467 104.074 53.4708 104.217 53.1225C104.36 52.7705 104.557 52.4625 104.806 52.1985C105.059 51.9308 105.352 51.7218 105.686 51.5715C106.02 51.4212 106.375 51.346 106.753 51.346C107.204 51.346 107.62 51.4505 108.001 51.6595C108.383 51.8685 108.7 52.149 108.953 52.501L107.743 53.15C107.615 53.0033 107.462 52.8897 107.286 52.809C107.114 52.7283 106.936 52.688 106.753 52.688C106.489 52.688 106.251 52.7613 106.038 52.908C105.825 53.051 105.657 53.2417 105.532 53.48C105.407 53.7147 105.345 53.9713 105.345 54.25C105.345 54.525 105.407 54.7817 105.532 55.02C105.657 55.2547 105.825 55.4435 106.038 55.5865C106.251 55.7295 106.489 55.801 106.753 55.801C106.944 55.801 107.125 55.7607 107.297 55.68C107.47 55.5957 107.618 55.4838 107.743 55.3445ZM114.806 53.524V57H113.464V53.876C113.464 53.6597 113.411 53.4635 113.305 53.2875C113.199 53.1078 113.056 52.9667 112.876 52.864C112.7 52.7577 112.504 52.7045 112.287 52.7045C112.071 52.7045 111.873 52.7577 111.693 52.864C111.517 52.9667 111.376 53.1078 111.27 53.2875C111.167 53.4635 111.116 53.6597 111.116 53.876V57H109.774L109.768 48.75H111.11L111.116 51.9895C111.303 51.7915 111.527 51.6357 111.787 51.522C112.047 51.4047 112.328 51.346 112.628 51.346C113.028 51.346 113.393 51.445 113.723 51.643C114.053 51.8373 114.315 52.0995 114.509 52.4295C114.707 52.7558 114.806 53.1207 114.806 53.524ZM0.66 73V65.3H5.489V66.642H2.002V68.204H4.7685V69.546H2.002V71.658H5.489V73H0.66ZM11.7351 69.524V73H10.3931V69.876C10.3931 69.6597 10.3399 69.4635 10.2336 69.2875C10.1273 69.1078 9.98428 68.9667 9.80461 68.864C9.62861 68.7577 9.43244 68.7045 9.21611 68.7045C8.99978 68.7045 8.80178 68.7577 8.62211 68.864C8.44611 68.9667 8.30494 69.1078 8.19861 69.2875C8.09594 69.4635 8.04461 69.6597 8.04461 69.876V73H6.70261L6.69711 67.5H8.03911L8.04461 67.9895C8.23161 67.7915 8.45528 67.6357 8.71561 67.522C8.97594 67.4047 9.25644 67.346 9.55711 67.346C9.95678 67.346 10.3216 67.445 10.6516 67.643C10.9816 67.8373 11.2438 68.0995 11.4381 68.4295C11.6361 68.7558 11.7351 69.1207 11.7351 69.524ZM15.1435 73.143C14.6375 73.143 14.1755 73.0128 13.7575 72.7525C13.3431 72.4922 13.0113 72.142 12.762 71.702C12.5163 71.262 12.3935 70.7762 12.3935 70.2445C12.3935 69.8448 12.465 69.4708 12.608 69.1225C12.751 68.7705 12.9471 68.4625 13.1965 68.1985C13.4495 67.9308 13.7428 67.7218 14.0765 67.5715C14.4101 67.4212 14.7658 67.346 15.1435 67.346C15.5725 67.346 15.9648 67.4377 16.3205 67.621C16.6798 67.8007 16.9841 68.0482 17.2335 68.3635C17.4828 68.6788 17.6643 69.0382 17.778 69.4415C17.8916 69.8448 17.9173 70.2665 17.855 70.7065H13.8345C13.8858 70.9118 13.9701 71.097 14.0875 71.262C14.2048 71.4233 14.3533 71.5535 14.533 71.6525C14.7126 71.7478 14.9161 71.7973 15.1435 71.801C15.3781 71.8047 15.5908 71.7497 15.7815 71.636C15.9758 71.5187 16.1371 71.361 16.2655 71.163L17.635 71.482C17.4113 71.9697 17.0776 72.3693 16.634 72.681C16.1903 72.989 15.6935 73.143 15.1435 73.143ZM13.7905 69.7H16.4965C16.4561 69.48 16.37 69.282 16.238 69.106C16.1096 68.9263 15.9501 68.7833 15.7595 68.677C15.5688 68.5707 15.3635 68.5175 15.1435 68.5175C14.9235 68.5175 14.72 68.5707 14.533 68.677C14.346 68.7797 14.1865 68.9208 14.0545 69.1005C13.9261 69.2765 13.8381 69.4763 13.7905 69.7ZM18.7553 73L18.7498 67.5H20.0918L20.0973 67.9895C20.2843 67.7915 20.508 67.6357 20.7683 67.522C21.0287 67.4047 21.3092 67.346 21.6098 67.346C21.8115 67.346 22.0132 67.3753 22.2148 67.434L21.6868 68.787C21.5475 68.732 21.4082 68.7045 21.2688 68.7045C21.0525 68.7045 20.8545 68.7577 20.6748 68.864C20.4988 68.9667 20.3577 69.1078 20.2513 69.2875C20.1487 69.4635 20.0973 69.6597 20.0973 69.876V73H18.7553ZM26.6551 67.5H27.9971V73.1045C27.9971 73.5005 27.9164 73.8598 27.7551 74.1825C27.5937 74.5088 27.3737 74.7875 27.0951 75.0185C26.8164 75.2532 26.4974 75.4328 26.1381 75.5575C25.7787 75.6858 25.4011 75.75 25.0051 75.75C24.6201 75.75 24.2497 75.6712 23.8941 75.5135C23.5384 75.3558 23.2231 75.1395 22.9481 74.8645C22.6767 74.5932 22.4696 74.2833 22.3266 73.935L23.5531 73.3795C23.6264 73.5812 23.7364 73.7572 23.8831 73.9075C24.0334 74.0615 24.2057 74.1807 24.4001 74.265C24.5944 74.353 24.7961 74.397 25.0051 74.397C25.2177 74.397 25.4212 74.3677 25.6156 74.309C25.8136 74.2503 25.9914 74.1642 26.1491 74.0505C26.3067 73.9405 26.4296 73.8048 26.5176 73.6435C26.6092 73.4858 26.6551 73.3062 26.6551 73.1045V72.329C26.4827 72.571 26.2664 72.7672 26.0061 72.9175C25.7457 73.0678 25.4451 73.143 25.1041 73.143C24.7081 73.143 24.3377 73.0678 23.9931 72.9175C23.6484 72.7672 23.3441 72.56 23.0801 72.296C22.8197 72.0283 22.6144 71.7203 22.4641 71.372C22.3174 71.0237 22.2441 70.6497 22.2441 70.25C22.2441 69.8503 22.3174 69.4763 22.4641 69.128C22.6144 68.7797 22.8197 68.4735 23.0801 68.2095C23.3441 67.9418 23.6484 67.7328 23.9931 67.5825C24.3377 67.4322 24.7081 67.357 25.1041 67.357C25.4451 67.357 25.7457 67.4322 26.0061 67.5825C26.2664 67.7292 26.4827 67.9235 26.6551 68.1655V67.5ZM25.1206 71.8505C25.4029 71.8505 25.6522 71.779 25.8686 71.636C26.0886 71.4893 26.2609 71.295 26.3856 71.053C26.5102 70.8073 26.5726 70.5397 26.5726 70.25C26.5726 69.9567 26.5084 69.689 26.3801 69.447C26.2554 69.205 26.0831 69.0107 25.8631 68.864C25.6467 68.7173 25.3992 68.644 25.1206 68.644C24.8456 68.644 24.5944 68.7173 24.3671 68.864C24.1397 69.007 23.9582 69.1995 23.8226 69.4415C23.6869 69.6835 23.6191 69.953 23.6191 70.25C23.6191 70.547 23.6869 70.8165 23.8226 71.0585C23.9582 71.3005 24.1397 71.493 24.3671 71.636C24.5944 71.779 24.8456 71.8505 25.1206 71.8505ZM32.7494 67.5H34.1739L31.1654 75.75H29.7409L30.7364 73L28.7564 67.5H30.2249L31.4074 71.163L32.7494 67.5ZM40.2918 73V65.3H41.6338V73H40.2918ZM48.1619 69.524V73H46.8199V69.876C46.8199 69.6597 46.7667 69.4635 46.6604 69.2875C46.554 69.1078 46.411 68.9667 46.2314 68.864C46.0554 68.7577 45.8592 68.7045 45.6429 68.7045C45.4265 68.7045 45.2285 68.7577 45.0489 68.864C44.8729 68.9667 44.7317 69.1078 44.6254 69.2875C44.5227 69.4635 44.4714 69.6597 44.4714 69.876V73H43.1294L43.1239 67.5H44.4659L44.4714 67.9895C44.6584 67.7915 44.882 67.6357 45.1424 67.522C45.4027 67.4047 45.6832 67.346 45.9839 67.346C46.3835 67.346 46.7484 67.445 47.0784 67.643C47.4084 67.8373 47.6705 68.0995 47.8649 68.4295C48.0629 68.7558 48.1619 69.1207 48.1619 69.524ZM50.8802 73.099C50.5942 73.0807 50.3173 73.0238 50.0497 72.9285C49.7857 72.8295 49.551 72.6957 49.3457 72.527C49.1403 72.3583 48.9827 72.1567 48.8727 71.922L50.0057 71.438C50.0497 71.5113 50.1212 71.5902 50.2202 71.6745C50.3192 71.7552 50.4365 71.823 50.5722 71.878C50.7115 71.933 50.8637 71.9605 51.0287 71.9605C51.168 71.9605 51.3 71.9422 51.4247 71.9055C51.553 71.8652 51.6557 71.8047 51.7327 71.724C51.8133 71.6433 51.8537 71.5388 51.8537 71.4105C51.8537 71.2748 51.806 71.1703 51.7107 71.097C51.619 71.02 51.5017 70.9632 51.3587 70.9265C51.2193 70.8862 51.0837 70.8495 50.9517 70.8165C50.6033 70.7468 50.2788 70.6387 49.9782 70.492C49.6812 70.3453 49.441 70.1565 49.2577 69.9255C49.078 69.6908 48.9882 69.4085 48.9882 69.0785C48.9882 68.7155 49.0835 68.402 49.2742 68.138C49.4685 67.874 49.7197 67.6705 50.0277 67.5275C50.3393 67.3845 50.6748 67.313 51.0342 67.313C51.4705 67.313 51.8702 67.4047 52.2332 67.588C52.5998 67.7677 52.8895 68.0225 53.1022 68.3525L52.0407 68.9795C51.9893 68.8915 51.9178 68.8108 51.8262 68.7375C51.7345 68.6605 51.63 68.5982 51.5127 68.5505C51.3953 68.4992 51.2725 68.4698 51.1442 68.4625C50.9792 68.4552 50.8288 68.4698 50.6932 68.5065C50.5575 68.5432 50.4475 68.6055 50.3632 68.6935C50.2825 68.7815 50.2422 68.8988 50.2422 69.0455C50.2422 69.1848 50.2972 69.2893 50.4072 69.359C50.5172 69.425 50.6492 69.4763 50.8032 69.513C50.9608 69.5497 51.1112 69.59 51.2542 69.634C51.5768 69.7403 51.8793 69.8705 52.1617 70.0245C52.4477 70.1785 52.6768 70.3673 52.8492 70.591C53.0215 70.8147 53.104 71.0823 53.0967 71.394C53.0967 71.7497 52.9903 72.0613 52.7777 72.329C52.565 72.593 52.29 72.7947 51.9527 72.934C51.619 73.0733 51.2615 73.1283 50.8802 73.099ZM53.8179 70.965V67.5H55.1599V70.613C55.1599 70.8293 55.2131 71.0273 55.3194 71.207C55.4258 71.383 55.5669 71.5242 55.7429 71.6305C55.9226 71.7332 56.1188 71.7845 56.3314 71.7845C56.5514 71.7845 56.7494 71.7332 56.9254 71.6305C57.1014 71.5242 57.2426 71.383 57.3489 71.207C57.4553 71.0273 57.5084 70.8293 57.5084 70.613V67.5H58.8504L58.8559 73H57.5139L57.5084 72.4995C57.3178 72.6975 57.0923 72.8552 56.8319 72.9725C56.5716 73.0862 56.2929 73.143 55.9959 73.143C55.5963 73.143 55.2314 73.0458 54.9014 72.8515C54.5714 72.6535 54.3074 72.3913 54.1094 72.065C53.9151 71.735 53.8179 71.3683 53.8179 70.965ZM59.9624 73L59.9569 67.5H61.2989L61.3044 67.9895C61.4914 67.7915 61.715 67.6357 61.9754 67.522C62.2357 67.4047 62.5162 67.346 62.8169 67.346C63.0185 67.346 63.2202 67.3753 63.4219 67.434L62.8939 68.787C62.7545 68.732 62.6152 68.7045 62.4759 68.7045C62.2595 68.7045 62.0615 68.7577 61.8819 68.864C61.7059 68.9667 61.5647 69.1078 61.4584 69.2875C61.3557 69.4635 61.3044 69.6597 61.3044 69.876V73H59.9624ZM67.9281 67.5H69.2701V73H67.9281L67.8676 72.318C67.7173 72.5637 67.5174 72.7635 67.2681 72.9175C67.0224 73.0678 66.7309 73.143 66.3936 73.143C65.9866 73.143 65.6053 73.066 65.2496 72.912C64.8939 72.758 64.5804 72.5453 64.3091 72.274C64.0414 72.0027 63.8306 71.6892 63.6766 71.3335C63.5263 70.9778 63.4511 70.5965 63.4511 70.1895C63.4511 69.7972 63.5226 69.4287 63.6656 69.084C63.8123 68.7393 64.0158 68.4368 64.2761 68.1765C64.5364 67.9162 64.8371 67.7127 65.1781 67.566C65.5191 67.4193 65.8858 67.346 66.2781 67.346C66.6411 67.346 66.9656 67.4267 67.2516 67.588C67.5413 67.7493 67.7869 67.9547 67.9886 68.204L67.9281 67.5ZM66.3606 71.8505C66.6466 71.8505 66.8996 71.779 67.1196 71.636C67.3396 71.493 67.5119 71.3005 67.6366 71.0585C67.7613 70.8128 67.8236 70.5433 67.8236 70.25C67.8236 69.953 67.7613 69.6835 67.6366 69.4415C67.5119 69.1958 67.3378 69.0015 67.1141 68.8585C66.8941 68.7155 66.6429 68.644 66.3606 68.644C66.0783 68.644 65.8198 68.7173 65.5851 68.864C65.3541 69.007 65.1689 69.1995 65.0296 69.4415C64.8939 69.6835 64.8261 69.953 64.8261 70.25C64.8261 70.547 64.8958 70.8165 65.0351 71.0585C65.1744 71.3005 65.3596 71.493 65.5906 71.636C65.8253 71.779 66.0819 71.8505 66.3606 71.8505ZM75.4041 69.524V73H74.0621V69.876C74.0621 69.6597 74.0089 69.4635 73.9026 69.2875C73.7962 69.1078 73.6532 68.9667 73.4736 68.864C73.2976 68.7577 73.1014 68.7045 72.8851 68.7045C72.6687 68.7045 72.4707 68.7577 72.2911 68.864C72.1151 68.9667 71.9739 69.1078 71.8676 69.2875C71.7649 69.4635 71.7136 69.6597 71.7136 69.876V73H70.3716L70.3661 67.5H71.7081L71.7136 67.9895C71.9006 67.7915 72.1242 67.6357 72.3846 67.522C72.6449 67.4047 72.9254 67.346 73.2261 67.346C73.6257 67.346 73.9906 67.445 74.3206 67.643C74.6506 67.8373 74.9127 68.0995 75.1071 68.4295C75.3051 68.7558 75.4041 69.1207 75.4041 69.524ZM79.8024 71.3445L81.0124 71.999C80.7594 72.3437 80.4423 72.6205 80.0609 72.8295C79.6796 73.0385 79.2634 73.143 78.8124 73.143C78.3064 73.143 77.8444 73.0128 77.4264 72.7525C77.0121 72.4922 76.6803 72.1438 76.4309 71.7075C76.1853 71.2675 76.0624 70.7817 76.0624 70.25C76.0624 69.8467 76.1339 69.4708 76.2769 69.1225C76.4199 68.7705 76.6161 68.4625 76.8654 68.1985C77.1184 67.9308 77.4118 67.7218 77.7454 67.5715C78.0791 67.4212 78.4348 67.346 78.8124 67.346C79.2634 67.346 79.6796 67.4505 80.0609 67.6595C80.4423 67.8685 80.7594 68.149 81.0124 68.501L79.8024 69.15C79.6741 69.0033 79.5219 68.8897 79.3459 68.809C79.1736 68.7283 78.9958 68.688 78.8124 68.688C78.5484 68.688 78.3101 68.7613 78.0974 68.908C77.8848 69.051 77.7161 69.2417 77.5914 69.48C77.4668 69.7147 77.4044 69.9713 77.4044 70.25C77.4044 70.525 77.4668 70.7817 77.5914 71.02C77.7161 71.2547 77.8848 71.4435 78.0974 71.5865C78.3101 71.7295 78.5484 71.801 78.8124 71.801C79.0031 71.801 79.1846 71.7607 79.3569 71.68C79.5293 71.5957 79.6778 71.4838 79.8024 71.3445ZM84.248 73.143C83.742 73.143 83.28 73.0128 82.862 72.7525C82.4476 72.4922 82.1158 72.142 81.8665 71.702C81.6208 71.262 81.498 70.7762 81.498 70.2445C81.498 69.8448 81.5695 69.4708 81.7125 69.1225C81.8555 68.7705 82.0516 68.4625 82.301 68.1985C82.554 67.9308 82.8473 67.7218 83.181 67.5715C83.5146 67.4212 83.8703 67.346 84.248 67.346C84.677 67.346 85.0693 67.4377 85.425 67.621C85.7843 67.8007 86.0886 68.0482 86.338 68.3635C86.5873 68.6788 86.7688 69.0382 86.8825 69.4415C86.9961 69.8448 87.0218 70.2665 86.9595 70.7065H82.939C82.9903 70.9118 83.0746 71.097 83.192 71.262C83.3093 71.4233 83.4578 71.5535 83.6375 71.6525C83.8171 71.7478 84.0206 71.7973 84.248 71.801C84.4826 71.8047 84.6953 71.7497 84.886 71.636C85.0803 71.5187 85.2416 71.361 85.37 71.163L86.7395 71.482C86.5158 71.9697 86.1821 72.3693 85.7385 72.681C85.2948 72.989 84.798 73.143 84.248 73.143ZM82.895 69.7H85.601C85.5606 69.48 85.4745 69.282 85.3425 69.106C85.2141 68.9263 85.0546 68.7833 84.864 68.677C84.6733 68.5707 84.468 68.5175 84.248 68.5175C84.028 68.5175 83.8245 68.5707 83.6375 68.677C83.4505 68.7797 83.291 68.9208 83.159 69.1005C83.0306 69.2765 82.9426 69.4763 82.895 69.7Z" fill="#8F00FF"/>
</svg>
