<svg width="94" height="32" viewBox="0 0 94 32" fill="none" xmlns="http://www.w3.org/2000/svg">
<path d="M5.775 11.195C5.065 11.195 4.3975 11.055 3.7725 10.775C3.1475 10.49 2.5975 10.0975 2.1225 9.5975C1.6475 9.0975 1.275 8.52 1.005 7.865C0.735 7.205 0.6 6.5 0.6 5.75C0.6 5 0.735 4.2975 1.005 3.6425C1.275 2.9825 1.6475 2.4025 2.1225 1.9025C2.5975 1.4025 3.1475 1.0125 3.7725 0.732499C4.3975 0.447499 5.065 0.304999 5.775 0.304999C6.49 0.304999 7.16 0.447499 7.785 0.732499C8.41 1.0125 8.96 1.4025 9.435 1.9025C9.91 2.4025 10.28 2.9825 10.545 3.6425C10.815 4.2975 10.95 5 10.95 5.75C10.95 6.5 10.815 7.205 10.545 7.865C10.28 8.52 9.91 9.0975 9.435 9.5975C8.96 10.0975 8.41 10.49 7.785 10.775C7.16 11.055 6.49 11.195 5.775 11.195ZM5.775 10.145C6.35 10.145 6.885 10.03 7.38 9.8C7.88 9.565 8.3175 9.245 8.6925 8.84C9.0725 8.435 9.3675 7.9675 9.5775 7.4375C9.7925 6.9075 9.9 6.345 9.9 5.75C9.9 5.15 9.7925 4.585 9.5775 4.055C9.3625 3.52 9.065 3.0525 8.685 2.6525C8.31 2.2475 7.8725 1.93 7.3725 1.7C6.8775 1.47 6.345 1.355 5.775 1.355C5.2 1.355 4.6625 1.4725 4.1625 1.7075C3.6675 1.9375 3.23 2.255 2.85 2.66C2.475 3.065 2.18 3.5325 1.965 4.0625C1.755 4.5925 1.65 5.155 1.65 5.75C1.65 6.355 1.7575 6.9225 1.9725 7.4525C2.1875 7.9825 2.4825 8.45 2.8575 8.855C3.2375 9.26 3.675 9.5775 4.17 9.8075C4.67 10.0325 5.205 10.145 5.775 10.145ZM12.0404 8.1275V3.5H13.0904V7.9175C13.0904 8.3275 13.1904 8.7 13.3904 9.035C13.5904 9.37 13.8579 9.6375 14.1929 9.8375C14.5329 10.0375 14.9054 10.1375 15.3104 10.1375C15.7204 10.1375 16.0904 10.0375 16.4204 9.8375C16.7554 9.6375 17.0229 9.37 17.2229 9.035C17.4229 8.7 17.5229 8.3275 17.5229 7.9175V3.5H18.5729L18.5804 11H17.5304L17.5229 9.95C17.2579 10.33 16.9129 10.6325 16.4879 10.8575C16.0679 11.0825 15.6079 11.195 15.1079 11.195C14.5429 11.195 14.0279 11.0575 13.5629 10.7825C13.0979 10.5075 12.7279 10.1375 12.4529 9.6725C12.1779 9.2075 12.0404 8.6925 12.0404 8.1275ZM20.0748 11V3.5H21.1248V4.535C21.3898 4.155 21.7348 3.8525 22.1598 3.6275C22.5848 3.4025 23.0473 3.29 23.5473 3.29C23.8373 3.29 24.1173 3.3275 24.3873 3.4025L23.9598 4.445C23.7498 4.38 23.5448 4.3475 23.3448 4.3475C22.9398 4.3475 22.5673 4.4475 22.2273 4.6475C21.8923 4.8475 21.6248 5.115 21.4248 5.45C21.2248 5.785 21.1248 6.1575 21.1248 6.5675V11H20.0748Z" fill="black"/>
<path d="M4.6425 28.195C4.0675 28.195 3.515 28.105 2.985 27.925C2.455 27.745 1.9925 27.4875 1.5975 27.1525C1.2025 26.8125 0.92 26.41 0.75 25.945L2.2125 25.3975C2.2975 25.6375 2.46 25.8525 2.7 26.0425C2.945 26.2275 3.235 26.3725 3.57 26.4775C3.91 26.5825 4.2675 26.635 4.6425 26.635C5.0425 26.635 5.4175 26.57 5.7675 26.44C6.1225 26.31 6.4075 26.13 6.6225 25.9C6.8425 25.67 6.9525 25.4 6.9525 25.09C6.9525 24.77 6.8375 24.5075 6.6075 24.3025C6.3825 24.0975 6.0925 23.935 5.7375 23.815C5.3875 23.695 5.0225 23.605 4.6425 23.545C3.9075 23.425 3.2475 23.25 2.6625 23.02C2.0825 22.79 1.6225 22.4675 1.2825 22.0525C0.9475 21.6375 0.78 21.0975 0.78 20.4325C0.78 19.8075 0.9575 19.2625 1.3125 18.7975C1.6725 18.3325 2.145 17.9725 2.73 17.7175C3.32 17.4575 3.9575 17.3275 4.6425 17.3275C5.2075 17.3275 5.7525 17.4175 6.2775 17.5975C6.8075 17.7725 7.2725 18.03 7.6725 18.37C8.0775 18.705 8.3675 19.1125 8.5425 19.5925L7.065 20.125C6.98 19.88 6.8175 19.6675 6.5775 19.4875C6.3375 19.3025 6.0475 19.1575 5.7075 19.0525C5.3725 18.9475 5.0175 18.895 4.6425 18.895C4.2425 18.89 3.8675 18.955 3.5175 19.09C3.1725 19.22 2.89 19.4 2.67 19.63C2.45 19.86 2.34 20.1275 2.34 20.4325C2.34 20.8075 2.4425 21.0925 2.6475 21.2875C2.8525 21.4825 3.1275 21.6275 3.4725 21.7225C3.8225 21.8125 4.2125 21.895 4.6425 21.97C5.3325 22.08 5.97 22.2625 6.555 22.5175C7.145 22.7725 7.6175 23.1125 7.9725 23.5375C8.3325 23.9575 8.5125 24.475 8.5125 25.09C8.5125 25.71 8.3325 26.255 7.9725 26.725C7.6175 27.19 7.145 27.5525 6.555 27.8125C5.97 28.0675 5.3325 28.195 4.6425 28.195ZM11.6153 31.75H10.0553V20.5H11.6153V21.6025C11.8653 21.2175 12.1853 20.905 12.5753 20.665C12.9653 20.425 13.4253 20.305 13.9553 20.305C14.5003 20.305 15.0103 20.4075 15.4853 20.6125C15.9653 20.8175 16.3853 21.1025 16.7453 21.4675C17.1053 21.8275 17.3878 22.245 17.5928 22.72C17.7978 23.195 17.9003 23.705 17.9003 24.25C17.9003 24.795 17.7978 25.3075 17.5928 25.7875C17.3878 26.2675 17.1053 26.69 16.7453 27.055C16.3853 27.415 15.9653 27.6975 15.4853 27.9025C15.0103 28.1075 14.5003 28.21 13.9553 28.21C13.4253 28.21 12.9653 28.09 12.5753 27.85C12.1853 27.605 11.8653 27.2925 11.6153 26.9125V31.75ZM13.9403 21.8125C13.5053 21.8125 13.1228 21.9225 12.7928 22.1425C12.4628 22.3625 12.2053 22.6575 12.0203 23.0275C11.8353 23.3925 11.7428 23.8 11.7428 24.25C11.7428 24.7 11.8353 25.11 12.0203 25.48C12.2053 25.85 12.4628 26.145 12.7928 26.365C13.1228 26.585 13.5053 26.695 13.9403 26.695C14.3703 26.695 14.7653 26.5875 15.1253 26.3725C15.4853 26.1525 15.7728 25.8575 15.9878 25.4875C16.2028 25.1175 16.3103 24.705 16.3103 24.25C16.3103 23.805 16.2028 23.3975 15.9878 23.0275C15.7778 22.6575 15.4928 22.3625 15.1328 22.1425C14.7728 21.9225 14.3753 21.8125 13.9403 21.8125ZM22.408 28.195C21.718 28.195 21.088 28.0175 20.518 27.6625C19.953 27.3075 19.5005 26.8325 19.1605 26.2375C18.8255 25.6375 18.658 24.975 18.658 24.25C18.658 23.7 18.7555 23.1875 18.9505 22.7125C19.1455 22.2325 19.413 21.8125 19.753 21.4525C20.098 21.0875 20.498 20.8025 20.953 20.5975C21.408 20.3925 21.893 20.29 22.408 20.29C22.983 20.29 23.5105 20.41 23.9905 20.65C24.4705 20.885 24.8805 21.2125 25.2205 21.6325C25.5605 22.0475 25.8105 22.5275 25.9705 23.0725C26.1305 23.6125 26.178 24.1875 26.113 24.7975H20.3305C20.3955 25.1425 20.5205 25.455 20.7055 25.735C20.8955 26.01 21.1355 26.2275 21.4255 26.3875C21.7205 26.5475 22.048 26.63 22.408 26.635C22.788 26.635 23.133 26.54 23.443 26.35C23.758 26.16 24.0155 25.8975 24.2155 25.5625L25.798 25.93C25.498 26.595 25.0455 27.14 24.4405 27.565C23.8355 27.985 23.158 28.195 22.408 28.195ZM20.278 23.605H24.538C24.488 23.245 24.3605 22.92 24.1555 22.63C23.9555 22.335 23.703 22.1025 23.398 21.9325C23.098 21.7575 22.768 21.67 22.408 21.67C22.053 21.67 21.723 21.755 21.418 21.925C21.118 22.095 20.868 22.3275 20.668 22.6225C20.473 22.9125 20.343 23.24 20.278 23.605ZM32.2379 25.87L33.6329 26.6275C33.2929 27.1025 32.8604 27.4825 32.3354 27.7675C31.8154 28.0525 31.2504 28.195 30.6404 28.195C29.9504 28.195 29.3204 28.0175 28.7504 27.6625C28.1854 27.3075 27.7329 26.8325 27.3929 26.2375C27.0579 25.6375 26.8904 24.975 26.8904 24.25C26.8904 23.7 26.9879 23.1875 27.1829 22.7125C27.3779 22.2325 27.6454 21.8125 27.9854 21.4525C28.3304 21.0875 28.7304 20.8025 29.1854 20.5975C29.6404 20.3925 30.1254 20.29 30.6404 20.29C31.2504 20.29 31.8154 20.4325 32.3354 20.7175C32.8604 21.0025 33.2929 21.385 33.6329 21.865L32.2379 22.6225C32.0279 22.3725 31.7829 22.1825 31.5029 22.0525C31.2229 21.9175 30.9354 21.85 30.6404 21.85C30.2304 21.85 29.8579 21.9625 29.5229 22.1875C29.1929 22.4075 28.9304 22.7 28.7354 23.065C28.5454 23.425 28.4504 23.82 28.4504 24.25C28.4504 24.675 28.5479 25.07 28.7429 25.435C28.9379 25.795 29.2004 26.085 29.5304 26.305C29.8654 26.525 30.2354 26.635 30.6404 26.635C30.9504 26.635 31.2454 26.565 31.5254 26.425C31.8054 26.285 32.0429 26.1 32.2379 25.87ZM34.7525 20.5H36.3125V28H34.7525V20.5ZM35.5475 19.4125C35.3075 19.4125 35.1075 19.335 34.9475 19.18C34.7875 19.025 34.7075 18.83 34.7075 18.595C34.7075 18.365 34.7875 18.1725 34.9475 18.0175C35.1075 17.8575 35.305 17.7775 35.54 17.7775C35.77 17.7775 35.965 17.8575 36.125 18.0175C36.285 18.1725 36.365 18.365 36.365 18.595C36.365 18.83 36.285 19.025 36.125 19.18C35.97 19.335 35.7775 19.4125 35.5475 19.4125ZM43.8102 20.5H45.3702V28H43.8027L43.7427 26.9125C43.5227 27.2975 43.2252 27.6075 42.8502 27.8425C42.4752 28.0775 42.0327 28.195 41.5227 28.195C40.9727 28.195 40.4552 28.0925 39.9702 27.8875C39.4852 27.6775 39.0577 27.3875 38.6877 27.0175C38.3227 26.6475 38.0377 26.2225 37.8327 25.7425C37.6277 25.2575 37.5252 24.7375 37.5252 24.1825C37.5252 23.6475 37.6252 23.145 37.8252 22.675C38.0252 22.2 38.3027 21.785 38.6577 21.43C39.0127 21.075 39.4227 20.7975 39.8877 20.5975C40.3577 20.3925 40.8602 20.29 41.3952 20.29C41.9402 20.29 42.4202 20.415 42.8352 20.665C43.2552 20.91 43.6027 21.225 43.8777 21.61L43.8102 20.5ZM41.4852 26.6875C41.9252 26.6875 42.3102 26.58 42.6402 26.365C42.9702 26.145 43.2252 25.85 43.4052 25.48C43.5902 25.11 43.6827 24.7 43.6827 24.25C43.6827 23.795 43.5902 23.3825 43.4052 23.0125C43.2202 22.6425 42.9627 22.35 42.6327 22.135C42.3077 21.915 41.9252 21.805 41.4852 21.805C41.0502 21.805 40.6527 21.915 40.2927 22.135C39.9327 22.355 39.6477 22.65 39.4377 23.02C39.2277 23.39 39.1227 23.8 39.1227 24.25C39.1227 24.705 39.2302 25.1175 39.4452 25.4875C39.6652 25.8525 39.9527 26.145 40.3077 26.365C40.6677 26.58 41.0602 26.6875 41.4852 26.6875ZM46.9254 28V16.75H48.4854V28H46.9254ZM50.2799 20.5H51.8399V28H50.2799V20.5ZM51.0749 19.4125C50.8349 19.4125 50.6349 19.335 50.4749 19.18C50.3149 19.025 50.2349 18.83 50.2349 18.595C50.2349 18.365 50.3149 18.1725 50.4749 18.0175C50.6349 17.8575 50.8324 17.7775 51.0674 17.7775C51.2974 17.7775 51.4924 17.8575 51.6524 18.0175C51.8124 18.1725 51.8924 18.365 51.8924 18.595C51.8924 18.83 51.8124 19.025 51.6524 19.18C51.4974 19.335 51.3049 19.4125 51.0749 19.4125ZM59.7394 22.06L55.5694 26.44H59.7394V28H53.3344V26.44L57.5044 22.06H53.3344V20.5H59.7394V22.06ZM66.9401 20.5H68.5001V28H66.9326L66.8726 26.9125C66.6526 27.2975 66.3551 27.6075 65.9801 27.8425C65.6051 28.0775 65.1626 28.195 64.6526 28.195C64.1026 28.195 63.5851 28.0925 63.1001 27.8875C62.6151 27.6775 62.1876 27.3875 61.8176 27.0175C61.4526 26.6475 61.1676 26.2225 60.9626 25.7425C60.7576 25.2575 60.6551 24.7375 60.6551 24.1825C60.6551 23.6475 60.7551 23.145 60.9551 22.675C61.1551 22.2 61.4326 21.785 61.7876 21.43C62.1426 21.075 62.5526 20.7975 63.0176 20.5975C63.4876 20.3925 63.9901 20.29 64.5251 20.29C65.0701 20.29 65.5501 20.415 65.9651 20.665C66.3851 20.91 66.7326 21.225 67.0076 21.61L66.9401 20.5ZM64.6151 26.6875C65.0551 26.6875 65.4401 26.58 65.7701 26.365C66.1001 26.145 66.3551 25.85 66.5351 25.48C66.7201 25.11 66.8126 24.7 66.8126 24.25C66.8126 23.795 66.7201 23.3825 66.5351 23.0125C66.3501 22.6425 66.0926 22.35 65.7626 22.135C65.4376 21.915 65.0551 21.805 64.6151 21.805C64.1801 21.805 63.7826 21.915 63.4226 22.135C63.0626 22.355 62.7776 22.65 62.5676 23.02C62.3576 23.39 62.2526 23.8 62.2526 24.25C62.2526 24.705 62.3601 25.1175 62.5751 25.4875C62.7951 25.8525 63.0826 26.145 63.4376 26.365C63.7976 26.58 64.1901 26.6875 64.6151 26.6875ZM73.9567 22.06H72.3817L72.3742 28H70.8142L70.8217 22.06H69.6292V20.5H70.8217L70.8142 18.145H72.3742L72.3817 20.5H73.9567V22.06ZM75.1969 20.5H76.7569V28H75.1969V20.5ZM75.9919 19.4125C75.7519 19.4125 75.5519 19.335 75.3919 19.18C75.2319 19.025 75.1519 18.83 75.1519 18.595C75.1519 18.365 75.2319 18.1725 75.3919 18.0175C75.5519 17.8575 75.7494 17.7775 75.9844 17.7775C76.2144 17.7775 76.4094 17.8575 76.5694 18.0175C76.7294 18.1725 76.8094 18.365 76.8094 18.595C76.8094 18.83 76.7294 19.025 76.5694 19.18C76.4144 19.335 76.2219 19.4125 75.9919 19.4125ZM81.7195 28.195C81.0295 28.195 80.3995 28.0175 79.8295 27.6625C79.2645 27.3075 78.812 26.8325 78.472 26.2375C78.137 25.6375 77.9695 24.975 77.9695 24.25C77.9695 23.7 78.067 23.1875 78.262 22.7125C78.457 22.2325 78.7245 21.8125 79.0645 21.4525C79.4095 21.0875 79.8095 20.8025 80.2645 20.5975C80.7195 20.3925 81.2045 20.29 81.7195 20.29C82.4095 20.29 83.037 20.4675 83.602 20.8225C84.172 21.1775 84.6245 21.655 84.9595 22.255C85.2995 22.855 85.4695 23.52 85.4695 24.25C85.4695 24.795 85.372 25.305 85.177 25.78C84.982 26.255 84.712 26.675 84.367 27.04C84.027 27.4 83.6295 27.6825 83.1745 27.8875C82.7245 28.0925 82.2395 28.195 81.7195 28.195ZM81.7195 26.635C82.1345 26.635 82.507 26.525 82.837 26.305C83.167 26.085 83.427 25.795 83.617 25.435C83.812 25.07 83.9095 24.675 83.9095 24.25C83.9095 23.815 83.8095 23.415 83.6095 23.05C83.4145 22.685 83.152 22.395 82.822 22.18C82.492 21.96 82.1245 21.85 81.7195 21.85C81.3095 21.85 80.937 21.96 80.602 22.18C80.272 22.4 80.0095 22.6925 79.8145 23.0575C79.6245 23.4225 79.5295 23.82 79.5295 24.25C79.5295 24.695 79.6295 25.0975 79.8295 25.4575C80.0295 25.8175 80.2945 26.105 80.6245 26.32C80.9595 26.53 81.3245 26.635 81.7195 26.635ZM93.4313 23.2975V28H91.8713V23.68C91.8713 23.345 91.7888 23.04 91.6238 22.765C91.4638 22.49 91.2463 22.2725 90.9713 22.1125C90.7013 21.9475 90.3963 21.865 90.0563 21.865C89.7263 21.865 89.4238 21.9475 89.1488 22.1125C88.8738 22.2725 88.6538 22.49 88.4888 22.765C88.3238 23.04 88.2413 23.345 88.2413 23.68V28H86.6813V20.5H88.2413V21.295C88.5013 20.985 88.8213 20.74 89.2013 20.56C89.5813 20.38 89.9913 20.29 90.4313 20.29C90.9863 20.29 91.4913 20.425 91.9463 20.695C92.4013 20.965 92.7613 21.3275 93.0263 21.7825C93.2963 22.2375 93.4313 22.7425 93.4313 23.2975Z" fill="#8F00FF"/>
</svg>
