<svg width="88" height="77" viewBox="0 0 88 77" fill="none" xmlns="http://www.w3.org/2000/svg">
<path d="M2.184 5.091C1.91333 5.091 1.65317 5.049 1.4035 4.965C1.15617 4.87867 0.939167 4.75617 0.7525 4.5975C0.565833 4.4365 0.431667 4.244 0.35 4.02L1.1515 3.726C1.18417 3.81933 1.25067 3.9045 1.351 3.9815C1.45133 4.0585 1.57383 4.12033 1.7185 4.167C1.86317 4.21367 2.01833 4.237 2.184 4.237C2.35433 4.237 2.513 4.21133 2.66 4.16C2.80933 4.10633 2.9295 4.03283 3.0205 3.9395C3.1115 3.84383 3.157 3.733 3.157 3.607C3.157 3.47867 3.10917 3.37367 3.0135 3.292C2.91783 3.208 2.79533 3.1415 2.646 3.0925C2.49667 3.0435 2.34267 3.00617 2.184 2.9805C1.83633 2.92683 1.52483 2.844 1.2495 2.732C0.974167 2.62 0.756 2.46483 0.595 2.2665C0.436333 2.06817 0.357 1.8115 0.357 1.4965C0.357 1.20017 0.442167 0.941167 0.6125 0.7195C0.782833 0.497833 1.00683 0.325166 1.2845 0.2015C1.56217 0.0778332 1.862 0.0159999 2.184 0.0159999C2.45233 0.0159999 2.71133 0.0579999 2.961 0.142C3.21067 0.226 3.42883 0.3485 3.6155 0.5095C3.8045 0.6705 3.93983 0.864166 4.0215 1.0905L3.2165 1.381C3.18383 1.28767 3.11733 1.2025 3.017 1.1255C2.91667 1.0485 2.79417 0.987833 2.6495 0.9435C2.50483 0.896833 2.34967 0.8735 2.184 0.8735C2.01833 0.871166 1.86083 0.898 1.7115 0.954C1.5645 1.00767 1.44433 1.08117 1.351 1.1745C1.25767 1.26783 1.211 1.37517 1.211 1.4965C1.211 1.65283 1.25417 1.77067 1.3405 1.85C1.42917 1.92933 1.547 1.98767 1.694 2.025C1.841 2.06 2.00433 2.09267 2.184 2.123C2.51067 2.17433 2.81283 2.26067 3.0905 2.382C3.36817 2.50333 3.591 2.6655 3.759 2.8685C3.927 3.06917 4.011 3.31533 4.011 3.607C4.011 3.90333 3.927 4.1635 3.759 4.3875C3.591 4.60917 3.36817 4.78183 3.0905 4.9055C2.81283 5.02917 2.51067 5.091 2.184 5.091ZM4.56613 3.705V1.5H5.42013V3.481C5.42013 3.61867 5.45397 3.74467 5.52163 3.859C5.5893 3.971 5.67913 4.06083 5.79113 4.1285C5.90547 4.19383 6.0303 4.2265 6.16563 4.2265C6.30563 4.2265 6.43163 4.19383 6.54363 4.1285C6.65563 4.06083 6.74547 3.971 6.81313 3.859C6.8808 3.74467 6.91463 3.61867 6.91463 3.481V1.5H7.76863L7.77213 5H6.91813L6.91463 4.6815C6.7933 4.8075 6.6498 4.90783 6.48413 4.9825C6.31847 5.05483 6.14113 5.091 5.95213 5.091C5.6978 5.091 5.46563 5.02917 5.25563 4.9055C5.04563 4.7795 4.87763 4.61267 4.75163 4.405C4.62797 4.195 4.56613 3.96167 4.56613 3.705ZM10.588 3.9465L11.358 4.363C11.197 4.58233 10.9952 4.7585 10.7525 4.8915C10.5099 5.0245 10.245 5.091 9.95805 5.091C9.63605 5.091 9.34205 5.00817 9.07605 4.8425C8.81238 4.67683 8.60121 4.45517 8.44255 4.1775C8.28621 3.8975 8.20805 3.58833 8.20805 3.25C8.20805 2.99333 8.25355 2.75417 8.34455 2.5325C8.43555 2.3085 8.56038 2.1125 8.71905 1.9445C8.88005 1.77417 9.06671 1.64117 9.27905 1.5455C9.49138 1.44983 9.71771 1.402 9.95805 1.402C10.245 1.402 10.5099 1.4685 10.7525 1.6015C10.9952 1.7345 11.197 1.913 11.358 2.137L10.588 2.55C10.5064 2.45667 10.4095 2.38433 10.2975 2.333C10.1879 2.28167 10.0747 2.256 9.95805 2.256C9.79005 2.256 9.63838 2.30267 9.50305 2.396C9.36771 2.487 9.26038 2.60833 9.18105 2.76C9.10171 2.90933 9.06205 3.07267 9.06205 3.25C9.06205 3.425 9.10171 3.58833 9.18105 3.74C9.26038 3.88933 9.36771 4.0095 9.50305 4.1005C9.63838 4.1915 9.79005 4.237 9.95805 4.237C10.0794 4.237 10.1949 4.21133 10.3045 4.16C10.4142 4.10633 10.5087 4.03517 10.588 3.9465ZM14.047 3.9465L14.817 4.363C14.656 4.58233 14.4542 4.7585 14.2115 4.8915C13.9689 5.0245 13.704 5.091 13.417 5.091C13.095 5.091 12.801 5.00817 12.535 4.8425C12.2714 4.67683 12.0602 4.45517 11.9015 4.1775C11.7452 3.8975 11.667 3.58833 11.667 3.25C11.667 2.99333 11.7125 2.75417 11.8035 2.5325C11.8945 2.3085 12.0194 2.1125 12.178 1.9445C12.339 1.77417 12.5257 1.64117 12.738 1.5455C12.9504 1.44983 13.1767 1.402 13.417 1.402C13.704 1.402 13.9689 1.4685 14.2115 1.6015C14.4542 1.7345 14.656 1.913 14.817 2.137L14.047 2.55C13.9654 2.45667 13.8685 2.38433 13.7565 2.333C13.6469 2.28167 13.5337 2.256 13.417 2.256C13.249 2.256 13.0974 2.30267 12.962 2.396C12.8267 2.487 12.7194 2.60833 12.64 2.76C12.5607 2.90933 12.521 3.07267 12.521 3.25C12.521 3.425 12.5607 3.58833 12.64 3.74C12.7194 3.88933 12.8267 4.0095 12.962 4.1005C13.0974 4.1915 13.249 4.237 13.417 4.237C13.5384 4.237 13.6539 4.21133 13.7635 4.16C13.8732 4.10633 13.9677 4.03517 14.047 3.9465ZM16.876 5.091C16.554 5.091 16.26 5.00817 15.994 4.8425C15.7303 4.67683 15.5192 4.454 15.3605 4.174C15.2042 3.894 15.126 3.58483 15.126 3.2465C15.126 2.99217 15.1715 2.75417 15.2625 2.5325C15.3535 2.3085 15.4783 2.1125 15.637 1.9445C15.798 1.77417 15.9847 1.64117 16.197 1.5455C16.4093 1.44983 16.6357 1.402 16.876 1.402C17.149 1.402 17.3987 1.46033 17.625 1.577C17.8537 1.69133 18.0473 1.84883 18.206 2.0495C18.3647 2.25017 18.4802 2.47883 18.5525 2.7355C18.6248 2.99217 18.6412 3.2605 18.6015 3.5405H16.043C16.0757 3.67117 16.1293 3.789 16.204 3.894C16.2787 3.99667 16.3732 4.0795 16.4875 4.1425C16.6018 4.20317 16.7313 4.23467 16.876 4.237C17.0253 4.23933 17.1607 4.20433 17.282 4.132C17.4057 4.05733 17.5083 3.957 17.59 3.831L18.4615 4.034C18.3192 4.34433 18.1068 4.59867 17.8245 4.797C17.5422 4.993 17.226 5.091 16.876 5.091ZM16.015 2.9H17.737C17.7113 2.76 17.6565 2.634 17.5725 2.522C17.4908 2.40767 17.3893 2.31667 17.268 2.249C17.1467 2.18133 17.016 2.1475 16.876 2.1475C16.736 2.1475 16.6065 2.18133 16.4875 2.249C16.3685 2.31433 16.267 2.40417 16.183 2.5185C16.1013 2.6305 16.0453 2.75767 16.015 2.9ZM20.2308 5.063C20.0488 5.05133 19.8727 5.01517 19.7023 4.9545C19.5343 4.8915 19.385 4.80633 19.2543 4.699C19.1237 4.59167 19.0233 4.46333 18.9533 4.314L19.6743 4.006C19.7023 4.05267 19.7478 4.10283 19.8108 4.1565C19.8738 4.20783 19.9485 4.251 20.0348 4.286C20.1235 4.321 20.2203 4.3385 20.3253 4.3385C20.414 4.3385 20.498 4.32683 20.5773 4.3035C20.659 4.27783 20.7243 4.23933 20.7733 4.188C20.8247 4.13667 20.8503 4.07017 20.8503 3.9885C20.8503 3.90217 20.82 3.83567 20.7593 3.789C20.701 3.74 20.6263 3.70383 20.5353 3.6805C20.4467 3.65483 20.3603 3.6315 20.2763 3.6105C20.0547 3.56617 19.8482 3.49733 19.6568 3.404C19.4678 3.31067 19.315 3.1905 19.1983 3.0435C19.084 2.89417 19.0268 2.7145 19.0268 2.5045C19.0268 2.2735 19.0875 2.074 19.2088 1.906C19.3325 1.738 19.4923 1.6085 19.6883 1.5175C19.8867 1.4265 20.1002 1.381 20.3288 1.381C20.6065 1.381 20.8608 1.43933 21.0918 1.556C21.3252 1.67033 21.5095 1.8325 21.6448 2.0425L20.9693 2.4415C20.9367 2.3855 20.8912 2.33417 20.8328 2.2875C20.7745 2.2385 20.708 2.19883 20.6333 2.1685C20.5587 2.13583 20.4805 2.11717 20.3988 2.1125C20.2938 2.10783 20.1982 2.11717 20.1118 2.1405C20.0255 2.16383 19.9555 2.2035 19.9018 2.2595C19.8505 2.3155 19.8248 2.39017 19.8248 2.4835C19.8248 2.57217 19.8598 2.63867 19.9298 2.683C19.9998 2.725 20.0838 2.75767 20.1818 2.781C20.2822 2.80433 20.3778 2.83 20.4688 2.858C20.6742 2.92567 20.8667 3.0085 21.0463 3.1065C21.2283 3.2045 21.3742 3.32467 21.4838 3.467C21.5935 3.60933 21.646 3.77967 21.6413 3.978C21.6413 4.20433 21.5737 4.40267 21.4383 4.573C21.303 4.741 21.128 4.86933 20.9133 4.958C20.701 5.04667 20.4735 5.08167 20.2308 5.063ZM23.2728 5.063C23.0908 5.05133 22.9146 5.01517 22.7443 4.9545C22.5763 4.8915 22.427 4.80633 22.2963 4.699C22.1656 4.59167 22.0653 4.46333 21.9953 4.314L22.7163 4.006C22.7443 4.05267 22.7898 4.10283 22.8528 4.1565C22.9158 4.20783 22.9905 4.251 23.0768 4.286C23.1655 4.321 23.2623 4.3385 23.3673 4.3385C23.456 4.3385 23.54 4.32683 23.6193 4.3035C23.701 4.27783 23.7663 4.23933 23.8153 4.188C23.8666 4.13667 23.8923 4.07017 23.8923 3.9885C23.8923 3.90217 23.862 3.83567 23.8013 3.789C23.743 3.74 23.6683 3.70383 23.5773 3.6805C23.4886 3.65483 23.4023 3.6315 23.3183 3.6105C23.0966 3.56617 22.8901 3.49733 22.6988 3.404C22.5098 3.31067 22.357 3.1905 22.2403 3.0435C22.126 2.89417 22.0688 2.7145 22.0688 2.5045C22.0688 2.2735 22.1295 2.074 22.2508 1.906C22.3745 1.738 22.5343 1.6085 22.7303 1.5175C22.9286 1.4265 23.1421 1.381 23.3708 1.381C23.6485 1.381 23.9028 1.43933 24.1338 1.556C24.3671 1.67033 24.5515 1.8325 24.6868 2.0425L24.0113 2.4415C23.9786 2.3855 23.9331 2.33417 23.8748 2.2875C23.8165 2.2385 23.75 2.19883 23.6753 2.1685C23.6006 2.13583 23.5225 2.11717 23.4408 2.1125C23.3358 2.10783 23.2401 2.11717 23.1538 2.1405C23.0675 2.16383 22.9975 2.2035 22.9438 2.2595C22.8925 2.3155 22.8668 2.39017 22.8668 2.4835C22.8668 2.57217 22.9018 2.63867 22.9718 2.683C23.0418 2.725 23.1258 2.75767 23.2238 2.781C23.3241 2.80433 23.4198 2.83 23.5108 2.858C23.7161 2.92567 23.9086 3.0085 24.0883 3.1065C24.2703 3.2045 24.4161 3.32467 24.5258 3.467C24.6355 3.60933 24.688 3.77967 24.6833 3.978C24.6833 4.20433 24.6156 4.40267 24.4803 4.573C24.345 4.741 24.17 4.86933 23.9553 4.958C23.743 5.04667 23.5155 5.08167 23.2728 5.063ZM28.7279 5.091C28.4573 5.091 28.1971 5.049 27.9474 4.965C27.7001 4.87867 27.4831 4.75617 27.2964 4.5975C27.1098 4.4365 26.9756 4.244 26.8939 4.02L27.6954 3.726C27.7281 3.81933 27.7946 3.9045 27.8949 3.9815C27.9953 4.0585 28.1178 4.12033 28.2624 4.167C28.4071 4.21367 28.5623 4.237 28.7279 4.237C28.8983 4.237 29.0569 4.21133 29.2039 4.16C29.3533 4.10633 29.4734 4.03283 29.5644 3.9395C29.6554 3.84383 29.7009 3.733 29.7009 3.607C29.7009 3.47867 29.6531 3.37367 29.5574 3.292C29.4618 3.208 29.3393 3.1415 29.1899 3.0925C29.0406 3.0435 28.8866 3.00617 28.7279 2.9805C28.3803 2.92683 28.0688 2.844 27.7934 2.732C27.5181 2.62 27.2999 2.46483 27.1389 2.2665C26.9803 2.06817 26.9009 1.8115 26.9009 1.4965C26.9009 1.20017 26.9861 0.941167 27.1564 0.7195C27.3268 0.497833 27.5508 0.325166 27.8284 0.2015C28.1061 0.0778332 28.4059 0.0159999 28.7279 0.0159999C28.9963 0.0159999 29.2553 0.0579999 29.5049 0.142C29.7546 0.226 29.9728 0.3485 30.1594 0.5095C30.3484 0.6705 30.4838 0.864166 30.5654 1.0905L29.7604 1.381C29.7278 1.28767 29.6613 1.2025 29.5609 1.1255C29.4606 1.0485 29.3381 0.987833 29.1934 0.9435C29.0488 0.896833 28.8936 0.8735 28.7279 0.8735C28.5623 0.871166 28.4048 0.898 28.2554 0.954C28.1084 1.00767 27.9883 1.08117 27.8949 1.1745C27.8016 1.26783 27.7549 1.37517 27.7549 1.4965C27.7549 1.65283 27.7981 1.77067 27.8844 1.85C27.9731 1.92933 28.0909 1.98767 28.2379 2.025C28.3849 2.06 28.5483 2.09267 28.7279 2.123C29.0546 2.17433 29.3568 2.26067 29.6344 2.382C29.9121 2.50333 30.1349 2.6655 30.3029 2.8685C30.4709 3.06917 30.5549 3.31533 30.5549 3.607C30.5549 3.90333 30.4709 4.1635 30.3029 4.3875C30.1349 4.60917 29.9121 4.78183 29.6344 4.9055C29.3568 5.02917 29.0546 5.091 28.7279 5.091ZM33.1261 2.354H32.4471V5H31.5931V2.354H31.0751V1.5H31.5931V0.401H32.4471V1.5H33.1261V2.354ZM35.2168 5.091C34.8948 5.091 34.6008 5.00817 34.3348 4.8425C34.0712 4.67683 33.86 4.45517 33.7013 4.1775C33.545 3.8975 33.4668 3.58833 33.4668 3.25C33.4668 2.99333 33.5123 2.75417 33.6033 2.5325C33.6943 2.3085 33.8192 2.1125 33.9778 1.9445C34.1388 1.77417 34.3255 1.64117 34.5378 1.5455C34.7502 1.44983 34.9765 1.402 35.2168 1.402C35.5388 1.402 35.8317 1.48483 36.0953 1.6505C36.3613 1.81617 36.5725 2.039 36.7288 2.319C36.8875 2.599 36.9668 2.90933 36.9668 3.25C36.9668 3.50433 36.9213 3.74233 36.8303 3.964C36.7393 4.18567 36.6133 4.38167 36.4523 4.552C36.2937 4.72 36.1082 4.85183 35.8958 4.9475C35.6858 5.04317 35.4595 5.091 35.2168 5.091ZM35.2168 4.237C35.3872 4.237 35.54 4.1915 35.6753 4.1005C35.8107 4.0095 35.9168 3.88933 35.9938 3.74C36.0732 3.59067 36.1128 3.42733 36.1128 3.25C36.1128 3.068 36.072 2.90233 35.9903 2.753C35.911 2.60133 35.8025 2.48117 35.6648 2.3925C35.5295 2.3015 35.3802 2.256 35.2168 2.256C35.0488 2.256 34.8972 2.3015 34.7618 2.3925C34.6265 2.4835 34.5192 2.60483 34.4398 2.7565C34.3605 2.90817 34.3208 3.07267 34.3208 3.25C34.3208 3.43433 34.3617 3.60117 34.4433 3.7505C34.525 3.89983 34.6335 4.01883 34.7688 4.1075C34.9065 4.19383 35.0558 4.237 35.2168 4.237ZM37.5153 5L37.5118 1.5H38.3658L38.3693 1.8115C38.4883 1.6855 38.6306 1.58633 38.7963 1.514C38.962 1.43933 39.1405 1.402 39.3318 1.402C39.4601 1.402 39.5885 1.42067 39.7168 1.458L39.3808 2.319C39.2921 2.284 39.2035 2.2665 39.1148 2.2665C38.9771 2.2665 38.8511 2.30033 38.7368 2.368C38.6248 2.43333 38.535 2.52317 38.4673 2.6375C38.402 2.7495 38.3693 2.87433 38.3693 3.012V5H37.5153ZM40.0958 1.5H40.9498V5H40.0958V1.5ZM40.5298 1.0485C40.4038 1.0485 40.2976 1.00767 40.2113 0.926C40.1249 0.842 40.0818 0.737 40.0818 0.611C40.0818 0.487333 40.1249 0.3835 40.2113 0.2995C40.2976 0.2155 40.4026 0.1735 40.5263 0.1735C40.6499 0.1735 40.7538 0.2155 40.8378 0.2995C40.9241 0.3835 40.9673 0.487333 40.9673 0.611C40.9673 0.737 40.9253 0.842 40.8413 0.926C40.7573 1.00767 40.6534 1.0485 40.5298 1.0485ZM43.2491 5.091C42.9271 5.091 42.6331 5.00817 42.3671 4.8425C42.1034 4.67683 41.8922 4.454 41.7336 4.174C41.5772 3.894 41.4991 3.58483 41.4991 3.2465C41.4991 2.99217 41.5446 2.75417 41.6356 2.5325C41.7266 2.3085 41.8514 2.1125 42.0101 1.9445C42.1711 1.77417 42.3577 1.64117 42.5701 1.5455C42.7824 1.44983 43.0087 1.402 43.2491 1.402C43.5221 1.402 43.7717 1.46033 43.9981 1.577C44.2267 1.69133 44.4204 1.84883 44.5791 2.0495C44.7377 2.25017 44.8532 2.47883 44.9256 2.7355C44.9979 2.99217 45.0142 3.2605 44.9746 3.5405H42.4161C42.4487 3.67117 42.5024 3.789 42.5771 3.894C42.6517 3.99667 42.7462 4.0795 42.8606 4.1425C42.9749 4.20317 43.1044 4.23467 43.2491 4.237C43.3984 4.23933 43.5337 4.20433 43.6551 4.132C43.7787 4.05733 43.8814 3.957 43.9631 3.831L44.8346 4.034C44.6922 4.34433 44.4799 4.59867 44.1976 4.797C43.9152 4.993 43.5991 5.091 43.2491 5.091ZM42.3881 2.9H44.1101C44.0844 2.76 44.0296 2.634 43.9456 2.522C43.8639 2.40767 43.7624 2.31667 43.6411 2.249C43.5197 2.18133 43.3891 2.1475 43.2491 2.1475C43.1091 2.1475 42.9796 2.18133 42.8606 2.249C42.7416 2.31433 42.6401 2.40417 42.5561 2.5185C42.4744 2.6305 42.4184 2.75767 42.3881 2.9ZM46.6039 5.063C46.4219 5.05133 46.2457 5.01517 46.0754 4.9545C45.9074 4.8915 45.758 4.80633 45.6274 4.699C45.4967 4.59167 45.3964 4.46333 45.3264 4.314L46.0474 4.006C46.0754 4.05267 46.1209 4.10283 46.1839 4.1565C46.2469 4.20783 46.3215 4.251 46.4079 4.286C46.4965 4.321 46.5934 4.3385 46.6984 4.3385C46.787 4.3385 46.871 4.32683 46.9504 4.3035C47.032 4.27783 47.0974 4.23933 47.1464 4.188C47.1977 4.13667 47.2234 4.07017 47.2234 3.9885C47.2234 3.90217 47.193 3.83567 47.1324 3.789C47.074 3.74 46.9994 3.70383 46.9084 3.6805C46.8197 3.65483 46.7334 3.6315 46.6494 3.6105C46.4277 3.56617 46.2212 3.49733 46.0299 3.404C45.8409 3.31067 45.688 3.1905 45.5714 3.0435C45.457 2.89417 45.3999 2.7145 45.3999 2.5045C45.3999 2.2735 45.4605 2.074 45.5819 1.906C45.7055 1.738 45.8654 1.6085 46.0614 1.5175C46.2597 1.4265 46.4732 1.381 46.7019 1.381C46.9795 1.381 47.2339 1.43933 47.4649 1.556C47.6982 1.67033 47.8825 1.8325 48.0179 2.0425L47.3424 2.4415C47.3097 2.3855 47.2642 2.33417 47.2059 2.2875C47.1475 2.2385 47.081 2.19883 47.0064 2.1685C46.9317 2.13583 46.8535 2.11717 46.7719 2.1125C46.6669 2.10783 46.5712 2.11717 46.4849 2.1405C46.3985 2.16383 46.3285 2.2035 46.2749 2.2595C46.2235 2.3155 46.1979 2.39017 46.1979 2.4835C46.1979 2.57217 46.2329 2.63867 46.3029 2.683C46.3729 2.725 46.4569 2.75767 46.5549 2.781C46.6552 2.80433 46.7509 2.83 46.8419 2.858C47.0472 2.92567 47.2397 3.0085 47.4194 3.1065C47.6014 3.2045 47.7472 3.32467 47.8569 3.467C47.9665 3.60933 48.019 3.77967 48.0144 3.978C48.0144 4.20433 47.9467 4.40267 47.8114 4.573C47.676 4.741 47.501 4.86933 47.2864 4.958C47.074 5.04667 46.8465 5.08167 46.6039 5.063ZM48.9109 2.3785C48.7895 2.3785 48.6857 2.3365 48.5994 2.2525C48.5154 2.16617 48.4734 2.06117 48.4734 1.9375C48.4734 1.8185 48.5154 1.71583 48.5994 1.6295C48.6857 1.54317 48.7895 1.5 48.9109 1.5C49.0322 1.5 49.136 1.54317 49.2224 1.6295C49.3087 1.71583 49.3519 1.8185 49.3519 1.9375C49.3519 2.06117 49.3087 2.16617 49.2224 2.2525C49.136 2.3365 49.0322 2.3785 48.9109 2.3785ZM48.9109 5.091C48.7895 5.091 48.6857 5.049 48.5994 4.965C48.5154 4.87867 48.4734 4.77367 48.4734 4.65C48.4734 4.531 48.5154 4.42833 48.5994 4.342C48.6857 4.25567 48.7895 4.2125 48.9109 4.2125C49.0322 4.2125 49.136 4.25567 49.2224 4.342C49.3087 4.42833 49.3519 4.531 49.3519 4.65C49.3519 4.77367 49.3087 4.87867 49.2224 4.965C49.136 5.049 49.0322 5.091 48.9109 5.091ZM4.5975 22.195C4.0325 22.195 3.4875 22.1075 2.9625 21.9325C2.4375 21.7525 1.9775 21.4975 1.5825 21.1675C1.1925 20.8375 0.915 20.445 0.75 19.99L1.9275 19.5475C2.0275 19.8275 2.2125 20.0725 2.4825 20.2825C2.7575 20.4875 3.08 20.6475 3.45 20.7625C3.82 20.8775 4.2025 20.935 4.5975 20.935C5.0475 20.935 5.465 20.8625 5.85 20.7175C6.24 20.5675 6.555 20.36 6.795 20.095C7.035 19.83 7.155 19.52 7.155 19.165C7.155 18.8 7.03 18.5025 6.78 18.2725C6.53 18.0375 6.21 17.8525 5.82 17.7175C5.43 17.5775 5.0225 17.47 4.5975 17.395C3.8725 17.275 3.2225 17.105 2.6475 16.885C2.0775 16.66 1.625 16.3475 1.29 15.9475C0.96 15.5475 0.795 15.02 0.795 14.365C0.795 13.755 0.97 13.2225 1.32 12.7675C1.675 12.3125 2.1425 11.96 2.7225 11.71C3.3025 11.46 3.9275 11.335 4.5975 11.335C5.1525 11.335 5.69 11.4225 6.21 11.5975C6.735 11.7675 7.1975 12.0175 7.5975 12.3475C7.9975 12.6775 8.285 13.08 8.46 13.555L7.2675 13.99C7.1675 13.705 6.98 13.46 6.705 13.255C6.435 13.045 6.115 12.885 5.745 12.775C5.38 12.66 4.9975 12.6025 4.5975 12.6025C4.1525 12.5975 3.7375 12.67 3.3525 12.82C2.9675 12.97 2.655 13.1775 2.415 13.4425C2.175 13.7075 2.055 14.015 2.055 14.365C2.055 14.785 2.165 15.1075 2.385 15.3325C2.61 15.5525 2.915 15.7175 3.3 15.8275C3.685 15.9375 4.1175 16.035 4.5975 16.12C5.2775 16.235 5.9075 16.4175 6.4875 16.6675C7.0675 16.9125 7.5325 17.24 7.8825 17.65C8.2375 18.06 8.415 18.565 8.415 19.165C8.415 19.775 8.2375 20.3075 7.8825 20.7625C7.5325 21.2175 7.0675 21.57 6.4875 21.82C5.9075 22.07 5.2775 22.195 4.5975 22.195ZM13.8963 15.76H12.1938L12.1863 22H10.9263L10.9338 15.76H9.64383V14.5H10.9338L10.9263 12.145H12.1863L12.1938 14.5H13.8963V15.76ZM15.2408 22V14.5H16.5008V15.4375C16.7658 15.0875 17.1008 14.81 17.5058 14.605C17.9108 14.395 18.3508 14.29 18.8258 14.29C19.1158 14.29 19.3958 14.3275 19.6658 14.4025L19.1558 15.6625C18.9508 15.5975 18.7508 15.565 18.5558 15.565C18.1808 15.565 17.8358 15.6575 17.5208 15.8425C17.2108 16.0225 16.9633 16.2675 16.7783 16.5775C16.5933 16.8875 16.5008 17.2325 16.5008 17.6125V22H15.2408ZM23.5066 22.195C22.8166 22.195 22.1866 22.0175 21.6166 21.6625C21.0516 21.3075 20.5991 20.8325 20.2591 20.2375C19.9241 19.6375 19.7566 18.975 19.7566 18.25C19.7566 17.7 19.8541 17.1875 20.0491 16.7125C20.2441 16.2325 20.5116 15.8125 20.8516 15.4525C21.1966 15.0875 21.5966 14.8025 22.0516 14.5975C22.5066 14.3925 22.9916 14.29 23.5066 14.29C24.0716 14.29 24.5891 14.405 25.0591 14.635C25.5341 14.86 25.9391 15.175 26.2741 15.58C26.6141 15.985 26.8666 16.455 27.0316 16.99C27.2016 17.525 27.2641 18.0975 27.2191 18.7075H21.0991C21.1591 19.1325 21.2991 19.5125 21.5191 19.8475C21.7391 20.1775 22.0191 20.44 22.3591 20.635C22.7041 20.83 23.0866 20.93 23.5066 20.935C23.9566 20.935 24.3641 20.82 24.7291 20.59C25.0941 20.355 25.3891 20.035 25.6141 19.63L26.8966 19.93C26.5966 20.595 26.1441 21.14 25.5391 21.565C24.9341 21.985 24.2566 22.195 23.5066 22.195ZM21.0616 17.7175H25.9516C25.9116 17.2975 25.7766 16.915 25.5466 16.57C25.3166 16.22 25.0241 15.94 24.6691 15.73C24.3141 15.52 23.9266 15.415 23.5066 15.415C23.0866 15.415 22.7016 15.5175 22.3516 15.7225C22.0016 15.9275 21.7116 16.205 21.4816 16.555C21.2566 16.9 21.1166 17.2875 21.0616 17.7175ZM34.4691 14.5H35.7291V22H34.4691L34.4166 20.7325C34.1816 21.1675 33.8566 21.52 33.4416 21.79C33.0316 22.06 32.5416 22.195 31.9716 22.195C31.4216 22.195 30.9066 22.0925 30.4266 21.8875C29.9466 21.6775 29.5216 21.39 29.1516 21.025C28.7866 20.655 28.5016 20.23 28.2966 19.75C28.0916 19.27 27.9891 18.7525 27.9891 18.1975C27.9891 17.6625 28.0891 17.1575 28.2891 16.6825C28.4891 16.2075 28.7666 15.7925 29.1216 15.4375C29.4816 15.0775 29.8966 14.7975 30.3666 14.5975C30.8366 14.3925 31.3416 14.29 31.8816 14.29C32.4716 14.29 32.9891 14.43 33.4341 14.71C33.8791 14.985 34.2391 15.3425 34.5141 15.7825L34.4691 14.5ZM31.9491 20.9725C32.4441 20.9725 32.8716 20.8525 33.2316 20.6125C33.5966 20.3675 33.8766 20.0375 34.0716 19.6225C34.2716 19.2075 34.3716 18.75 34.3716 18.25C34.3716 17.74 34.2716 17.28 34.0716 16.87C33.8716 16.455 33.5891 16.1275 33.2241 15.8875C32.8641 15.6425 32.4391 15.52 31.9491 15.52C31.4541 15.52 31.0041 15.6425 30.5991 15.8875C30.1941 16.1325 29.8716 16.4625 29.6316 16.8775C29.3966 17.2875 29.2791 17.745 29.2791 18.25C29.2791 18.755 29.4016 19.215 29.6466 19.63C29.8916 20.04 30.2166 20.3675 30.6216 20.6125C31.0266 20.8525 31.4691 20.9725 31.9491 20.9725ZM37.2281 22V14.5H38.4881V15.4375C38.7531 15.0875 39.0856 14.81 39.4856 14.605C39.8906 14.395 40.3306 14.29 40.8056 14.29C41.3606 14.29 41.8681 14.425 42.3281 14.695C42.7881 14.965 43.1506 15.3225 43.4156 15.7675C43.6806 15.3225 44.0406 14.965 44.4956 14.695C44.9556 14.425 45.4606 14.29 46.0106 14.29C46.5756 14.29 47.0881 14.4275 47.5481 14.7025C48.0081 14.9725 48.3731 15.3375 48.6431 15.7975C48.9181 16.2575 49.0556 16.77 49.0556 17.335V22H47.7956V17.635C47.7956 17.265 47.7056 16.9225 47.5256 16.6075C47.3456 16.2925 47.1031 16.04 46.7981 15.85C46.4931 15.66 46.1556 15.565 45.7856 15.565C45.4156 15.565 45.0781 15.655 44.7731 15.835C44.4681 16.01 44.2256 16.255 44.0456 16.57C43.8656 16.88 43.7756 17.235 43.7756 17.635V22H42.5156V17.635C42.5156 17.235 42.4256 16.88 42.2456 16.57C42.0656 16.255 41.8206 16.01 41.5106 15.835C41.2056 15.655 40.8681 15.565 40.4981 15.565C40.1331 15.565 39.7956 15.66 39.4856 15.85C39.1806 16.04 38.9381 16.2925 38.7581 16.6075C38.5781 16.9225 38.4881 17.265 38.4881 17.635V22H37.2281ZM50.6461 22V10.75H51.9061V22H50.6461ZM53.7076 14.5H54.9676V22H53.7076V14.5ZM54.3526 13.2775C54.1526 13.2775 53.9851 13.2125 53.8501 13.0825C53.7151 12.9525 53.6476 12.79 53.6476 12.595C53.6476 12.4 53.7151 12.2375 53.8501 12.1075C53.9851 11.9775 54.1501 11.9125 54.3451 11.9125C54.5401 11.9125 54.7051 11.9775 54.8401 12.1075C54.9751 12.2375 55.0426 12.4 55.0426 12.595C55.0426 12.79 54.9751 12.9525 54.8401 13.0825C54.7101 13.2125 54.5476 13.2775 54.3526 13.2775ZM63.3552 17.335V22H62.0952V17.6125C62.0952 17.2325 62.0027 16.8875 61.8177 16.5775C61.6327 16.2675 61.3852 16.0225 61.0752 15.8425C60.7652 15.6575 60.4202 15.565 60.0402 15.565C59.6652 15.565 59.3202 15.6575 59.0052 15.8425C58.6952 16.0225 58.4477 16.2675 58.2627 16.5775C58.0777 16.8875 57.9852 17.2325 57.9852 17.6125V22H56.7252V14.5H57.9852V15.4375C58.2502 15.0875 58.5852 14.81 58.9902 14.605C59.3952 14.395 59.8352 14.29 60.3102 14.29C60.8702 14.29 61.3802 14.4275 61.8402 14.7025C62.3052 14.9725 62.6727 15.3375 62.9427 15.7975C63.2177 16.2575 63.3552 16.77 63.3552 17.335ZM68.0086 22.195C67.3186 22.195 66.6886 22.0175 66.1186 21.6625C65.5536 21.3075 65.1011 20.8325 64.7611 20.2375C64.4261 19.6375 64.2586 18.975 64.2586 18.25C64.2586 17.7 64.3561 17.1875 64.5511 16.7125C64.7461 16.2325 65.0136 15.8125 65.3536 15.4525C65.6986 15.0875 66.0986 14.8025 66.5536 14.5975C67.0086 14.3925 67.4936 14.29 68.0086 14.29C68.5736 14.29 69.0911 14.405 69.5611 14.635C70.0361 14.86 70.4411 15.175 70.7761 15.58C71.1161 15.985 71.3686 16.455 71.5336 16.99C71.7036 17.525 71.7661 18.0975 71.7211 18.7075H65.6011C65.6611 19.1325 65.8011 19.5125 66.0211 19.8475C66.2411 20.1775 66.5211 20.44 66.8611 20.635C67.2061 20.83 67.5886 20.93 68.0086 20.935C68.4586 20.935 68.8661 20.82 69.2311 20.59C69.5961 20.355 69.8911 20.035 70.1161 19.63L71.3986 19.93C71.0986 20.595 70.6461 21.14 70.0411 21.565C69.4361 21.985 68.7586 22.195 68.0086 22.195ZM65.5636 17.7175H70.4536C70.4136 17.2975 70.2786 16.915 70.0486 16.57C69.8186 16.22 69.5261 15.94 69.1711 15.73C68.8161 15.52 68.4286 15.415 68.0086 15.415C67.5886 15.415 67.2036 15.5175 66.8536 15.7225C66.5036 15.9275 66.2136 16.205 65.9836 16.555C65.7586 16.9 65.6186 17.2875 65.5636 17.7175ZM78.9785 10.75H80.2385V22H78.9785V20.725C78.7235 21.165 78.381 21.52 77.951 21.79C77.521 22.06 77.016 22.195 76.436 22.195C75.891 22.195 75.381 22.0925 74.906 21.8875C74.431 21.6825 74.011 21.4 73.646 21.04C73.286 20.675 73.0035 20.255 72.7985 19.78C72.5935 19.305 72.491 18.795 72.491 18.25C72.491 17.705 72.5935 17.195 72.7985 16.72C73.0035 16.24 73.286 15.82 73.646 15.46C74.011 15.095 74.431 14.81 74.906 14.605C75.381 14.4 75.891 14.2975 76.436 14.2975C77.016 14.2975 77.521 14.4325 77.951 14.7025C78.381 14.9725 78.7235 15.3275 78.9785 15.7675V10.75ZM76.451 20.9725C76.946 20.9725 77.3735 20.8525 77.7335 20.6125C78.0985 20.3675 78.3785 20.0375 78.5735 19.6225C78.7735 19.2075 78.8735 18.75 78.8735 18.25C78.8735 17.74 78.7735 17.28 78.5735 16.87C78.3735 16.455 78.091 16.1275 77.726 15.8875C77.366 15.6425 76.941 15.52 76.451 15.52C75.956 15.52 75.506 15.6425 75.101 15.8875C74.701 16.1325 74.381 16.4625 74.141 16.8775C73.901 17.2875 73.781 17.745 73.781 18.25C73.781 18.755 73.9035 19.215 74.1485 19.63C74.3935 20.04 74.7185 20.3675 75.1235 20.6125C75.5285 20.8525 75.971 20.9725 76.451 20.9725ZM2.4525 46.5425V48.5H4.7025V49.55H2.4525V56H1.4025V49.55H0.375V48.5H1.4025V46.5425C1.4025 46.1775 1.49 45.8475 1.665 45.5525C1.845 45.2525 2.085 45.015 2.385 44.84C2.685 44.66 3.0175 44.57 3.3825 44.57C3.6475 44.57 3.9025 44.6225 4.1475 44.7275C4.3975 44.8325 4.62 44.9875 4.815 45.1925L4.065 45.935C3.985 45.835 3.8825 45.7575 3.7575 45.7025C3.6375 45.6475 3.5125 45.62 3.3825 45.62C3.1275 45.62 2.9075 45.71 2.7225 45.89C2.5425 46.07 2.4525 46.2875 2.4525 46.5425ZM9.03398 56.195C8.34398 56.195 7.71398 56.0175 7.14398 55.6625C6.57898 55.3075 6.12648 54.8325 5.78648 54.2375C5.45148 53.6375 5.28398 52.975 5.28398 52.25C5.28398 51.7 5.38148 51.1875 5.57648 50.7125C5.77148 50.2325 6.03898 49.8125 6.37898 49.4525C6.72398 49.0875 7.12398 48.8025 7.57898 48.5975C8.03398 48.3925 8.51898 48.29 9.03398 48.29C9.72398 48.29 10.3515 48.4675 10.9165 48.8225C11.4865 49.1775 11.939 49.655 12.274 50.255C12.614 50.855 12.784 51.52 12.784 52.25C12.784 52.795 12.6865 53.305 12.4915 53.78C12.2965 54.255 12.0265 54.675 11.6815 55.04C11.3415 55.4 10.944 55.6825 10.489 55.8875C10.039 56.0925 9.55398 56.195 9.03398 56.195ZM9.03398 55.145C9.54398 55.145 10.0015 55.0125 10.4065 54.7475C10.8165 54.4775 11.139 54.1225 11.374 53.6825C11.614 53.2425 11.734 52.765 11.734 52.25C11.734 51.725 11.614 51.2425 11.374 50.8025C11.134 50.3575 10.809 50.0025 10.399 49.7375C9.99398 49.4725 9.53898 49.34 9.03398 49.34C8.52398 49.34 8.06398 49.475 7.65398 49.745C7.24898 50.01 6.92648 50.3625 6.68648 50.8025C6.45148 51.2425 6.33398 51.725 6.33398 52.25C6.33398 52.79 6.45648 53.28 6.70148 53.72C6.94648 54.155 7.27398 54.5025 7.68398 54.7625C8.09398 55.0175 8.54398 55.145 9.03398 55.145ZM14.0543 56V48.5H15.1043V49.535C15.3693 49.155 15.7143 48.8525 16.1393 48.6275C16.5643 48.4025 17.0268 48.29 17.5268 48.29C17.8168 48.29 18.0968 48.3275 18.3668 48.4025L17.9393 49.445C17.7293 49.38 17.5243 49.3475 17.3243 49.3475C16.9193 49.3475 16.5468 49.4475 16.2068 49.6475C15.8718 49.8475 15.6043 50.115 15.4043 50.45C15.2043 50.785 15.1043 51.1575 15.1043 51.5675V56H14.0543ZM23.0191 56V45.5H26.5666C27.0766 45.5 27.5391 45.605 27.9541 45.815C28.3741 46.02 28.7066 46.3225 28.9516 46.7225C29.2016 47.1175 29.3266 47.5975 29.3266 48.1625C29.3266 48.4825 29.2691 48.7875 29.1541 49.0775C29.0391 49.3675 28.8891 49.615 28.7041 49.82C28.5191 50.02 28.3191 50.15 28.1041 50.21C28.4141 50.29 28.6816 50.43 28.9066 50.63C29.1316 50.825 29.3166 51.0575 29.4616 51.3275C29.6066 51.5925 29.7116 51.8725 29.7766 52.1675C29.8466 52.4625 29.8816 52.7525 29.8816 53.0375C29.8816 53.6275 29.7516 54.145 29.4916 54.59C29.2366 55.035 28.8941 55.3825 28.4641 55.6325C28.0341 55.8775 27.5566 56 27.0316 56H23.0191ZM24.0691 55.0625H26.9491C27.3141 55.0625 27.6441 54.9675 27.9391 54.7775C28.2391 54.5875 28.4766 54.3275 28.6516 53.9975C28.8316 53.6675 28.9216 53.295 28.9216 52.88C28.9216 52.51 28.8316 52.1625 28.6516 51.8375C28.4766 51.5075 28.2391 51.2425 27.9391 51.0425C27.6441 50.8375 27.3141 50.735 26.9491 50.735H24.0691V55.0625ZM24.0691 49.8125H26.4766C26.9716 49.8125 27.3941 49.67 27.7441 49.385C28.0991 49.095 28.2766 48.685 28.2766 48.155C28.2766 47.575 28.0991 47.145 27.7441 46.865C27.3941 46.58 26.9716 46.4375 26.4766 46.4375H24.0691V49.8125ZM30.9516 53.1275V48.5H32.0016V52.9175C32.0016 53.3275 32.1016 53.7 32.3016 54.035C32.5016 54.37 32.7691 54.6375 33.1041 54.8375C33.4441 55.0375 33.8166 55.1375 34.2216 55.1375C34.6316 55.1375 35.0016 55.0375 35.3316 54.8375C35.6666 54.6375 35.9341 54.37 36.1341 54.035C36.3341 53.7 36.4341 53.3275 36.4341 52.9175V48.5H37.4841L37.4916 56H36.4416L36.4341 54.95C36.1691 55.33 35.8241 55.6325 35.3991 55.8575C34.9791 56.0825 34.5191 56.195 34.0191 56.195C33.4541 56.195 32.9391 56.0575 32.4741 55.7825C32.0091 55.5075 31.6391 55.1375 31.3641 54.6725C31.0891 54.2075 30.9516 53.6925 30.9516 53.1275ZM41.3034 56.1425C40.8934 56.1325 40.4934 56.0575 40.1034 55.9175C39.7134 55.7775 39.3734 55.5875 39.0834 55.3475C38.7934 55.1075 38.5859 54.835 38.4609 54.53L39.3684 54.14C39.4484 54.335 39.5959 54.515 39.8109 54.68C40.0309 54.84 40.2809 54.97 40.5609 55.07C40.8409 55.165 41.1184 55.2125 41.3934 55.2125C41.6984 55.2125 41.9834 55.1625 42.2484 55.0625C42.5134 54.9625 42.7284 54.82 42.8934 54.635C43.0634 54.445 43.1484 54.2225 43.1484 53.9675C43.1484 53.6925 43.0584 53.4775 42.8784 53.3225C42.6984 53.1625 42.4709 53.0375 42.1959 52.9475C41.9209 52.8525 41.6384 52.7625 41.3484 52.6775C40.8184 52.5325 40.3509 52.3725 39.9459 52.1975C39.5409 52.0225 39.2234 51.8 38.9934 51.53C38.7684 51.255 38.6559 50.9025 38.6559 50.4725C38.6559 50.0175 38.7834 49.625 39.0384 49.295C39.2984 48.96 39.6359 48.7025 40.0509 48.5225C40.4709 48.3375 40.9184 48.245 41.3934 48.245C42.0034 48.245 42.5584 48.3775 43.0584 48.6425C43.5634 48.9075 43.9284 49.26 44.1534 49.7L43.3059 50.2025C43.2159 49.9975 43.0734 49.82 42.8784 49.67C42.6834 49.52 42.4609 49.4025 42.2109 49.3175C41.9659 49.2325 41.7159 49.1875 41.4609 49.1825C41.1409 49.1775 40.8434 49.225 40.5684 49.325C40.2934 49.42 40.0709 49.5625 39.9009 49.7525C39.7359 49.9425 39.6534 50.175 39.6534 50.45C39.6534 50.725 39.7359 50.935 39.9009 51.08C40.0659 51.22 40.2884 51.335 40.5684 51.425C40.8534 51.51 41.1734 51.61 41.5284 51.725C41.9834 51.87 42.4109 52.035 42.8109 52.22C43.2109 52.405 43.5334 52.635 43.7784 52.91C44.0234 53.185 44.1434 53.5325 44.1384 53.9525C44.1384 54.4025 44.0034 54.795 43.7334 55.13C43.4634 55.465 43.1134 55.7225 42.6834 55.9025C42.2534 56.0775 41.7934 56.1575 41.3034 56.1425ZM45.358 48.5H46.408V56H45.358V48.5ZM45.8905 47.1875C45.7205 47.1875 45.5755 47.1325 45.4555 47.0225C45.3405 46.9075 45.283 46.765 45.283 46.595C45.283 46.425 45.3405 46.285 45.4555 46.175C45.5755 46.06 45.7205 46.0025 45.8905 46.0025C46.0555 46.0025 46.1955 46.06 46.3105 46.175C46.4305 46.285 46.4905 46.425 46.4905 46.595C46.4905 46.765 46.433 46.9075 46.318 47.0225C46.203 47.1325 46.0605 47.1875 45.8905 47.1875ZM54.7252 51.3575V56H53.6752V51.5675C53.6752 51.1575 53.5752 50.785 53.3752 50.45C53.1752 50.115 52.9077 49.8475 52.5727 49.6475C52.2377 49.4475 51.8652 49.3475 51.4552 49.3475C51.0502 49.3475 50.6777 49.4475 50.3377 49.6475C50.0027 49.8475 49.7352 50.115 49.5352 50.45C49.3352 50.785 49.2352 51.1575 49.2352 51.5675V56H48.1852V48.5H49.2352V49.535C49.5002 49.155 49.8452 48.8525 50.2702 48.6275C50.6952 48.4025 51.1577 48.29 51.6577 48.29C52.2227 48.29 52.7377 48.4275 53.2027 48.7025C53.6677 48.9775 54.0377 49.3475 54.3127 49.8125C54.5877 50.2775 54.7252 50.7925 54.7252 51.3575ZM59.3807 56.195C58.6907 56.195 58.0607 56.0175 57.4907 55.6625C56.9257 55.3075 56.4732 54.8325 56.1332 54.2375C55.7982 53.6375 55.6307 52.975 55.6307 52.25C55.6307 51.7 55.7282 51.1875 55.9232 50.7125C56.1182 50.2325 56.3857 49.8125 56.7257 49.4525C57.0707 49.0875 57.4707 48.8025 57.9257 48.5975C58.3807 48.3925 58.8657 48.29 59.3807 48.29C59.9357 48.29 60.4457 48.4 60.9107 48.62C61.3807 48.84 61.7832 49.1475 62.1182 49.5425C62.4582 49.9375 62.7132 50.4 62.8832 50.93C63.0582 51.46 63.1307 52.0325 63.1007 52.6475H56.7407C56.8007 53.1225 56.9507 53.5475 57.1907 53.9225C57.4357 54.2975 57.7457 54.595 58.1207 54.815C58.5007 55.03 58.9207 55.14 59.3807 55.145C59.8807 55.145 60.3307 55.015 60.7307 54.755C61.1357 54.495 61.4607 54.1375 61.7057 53.6825L62.7707 53.93C62.4707 54.595 62.0182 55.14 61.4132 55.565C60.8082 55.985 60.1307 56.195 59.3807 56.195ZM56.7107 51.8H62.0432C62.0082 51.335 61.8657 50.91 61.6157 50.525C61.3707 50.135 61.0532 49.825 60.6632 49.595C60.2732 49.36 59.8457 49.2425 59.3807 49.2425C58.9157 49.2425 58.4907 49.3575 58.1057 49.5875C57.7207 49.8125 57.4057 50.12 57.1607 50.51C56.9157 50.895 56.7657 51.325 56.7107 51.8ZM66.7185 56.1425C66.3085 56.1325 65.9085 56.0575 65.5185 55.9175C65.1285 55.7775 64.7885 55.5875 64.4985 55.3475C64.2085 55.1075 64.001 54.835 63.876 54.53L64.7835 54.14C64.8635 54.335 65.011 54.515 65.226 54.68C65.446 54.84 65.696 54.97 65.976 55.07C66.256 55.165 66.5335 55.2125 66.8085 55.2125C67.1135 55.2125 67.3985 55.1625 67.6635 55.0625C67.9285 54.9625 68.1435 54.82 68.3085 54.635C68.4785 54.445 68.5635 54.2225 68.5635 53.9675C68.5635 53.6925 68.4735 53.4775 68.2935 53.3225C68.1135 53.1625 67.886 53.0375 67.611 52.9475C67.336 52.8525 67.0535 52.7625 66.7635 52.6775C66.2335 52.5325 65.766 52.3725 65.361 52.1975C64.956 52.0225 64.6385 51.8 64.4085 51.53C64.1835 51.255 64.071 50.9025 64.071 50.4725C64.071 50.0175 64.1985 49.625 64.4535 49.295C64.7135 48.96 65.051 48.7025 65.466 48.5225C65.886 48.3375 66.3335 48.245 66.8085 48.245C67.4185 48.245 67.9735 48.3775 68.4735 48.6425C68.9785 48.9075 69.3435 49.26 69.5685 49.7L68.721 50.2025C68.631 49.9975 68.4885 49.82 68.2935 49.67C68.0985 49.52 67.876 49.4025 67.626 49.3175C67.381 49.2325 67.131 49.1875 66.876 49.1825C66.556 49.1775 66.2585 49.225 65.9835 49.325C65.7085 49.42 65.486 49.5625 65.316 49.7525C65.151 49.9425 65.0685 50.175 65.0685 50.45C65.0685 50.725 65.151 50.935 65.316 51.08C65.481 51.22 65.7035 51.335 65.9835 51.425C66.2685 51.51 66.5885 51.61 66.9435 51.725C67.3985 51.87 67.826 52.035 68.226 52.22C68.626 52.405 68.9485 52.635 69.1935 52.91C69.4385 53.185 69.5585 53.5325 69.5535 53.9525C69.5535 54.4025 69.4185 54.795 69.1485 55.13C68.8785 55.465 68.5285 55.7225 68.0985 55.9025C67.6685 56.0775 67.2085 56.1575 66.7185 56.1425ZM73.1638 56.1425C72.7538 56.1325 72.3538 56.0575 71.9638 55.9175C71.5738 55.7775 71.2338 55.5875 70.9438 55.3475C70.6538 55.1075 70.4463 54.835 70.3213 54.53L71.2288 54.14C71.3088 54.335 71.4563 54.515 71.6713 54.68C71.8913 54.84 72.1413 54.97 72.4213 55.07C72.7013 55.165 72.9788 55.2125 73.2538 55.2125C73.5588 55.2125 73.8438 55.1625 74.1088 55.0625C74.3738 54.9625 74.5888 54.82 74.7538 54.635C74.9238 54.445 75.0088 54.2225 75.0088 53.9675C75.0088 53.6925 74.9188 53.4775 74.7388 53.3225C74.5588 53.1625 74.3313 53.0375 74.0563 52.9475C73.7813 52.8525 73.4988 52.7625 73.2088 52.6775C72.6788 52.5325 72.2113 52.3725 71.8063 52.1975C71.4013 52.0225 71.0838 51.8 70.8538 51.53C70.6288 51.255 70.5163 50.9025 70.5163 50.4725C70.5163 50.0175 70.6438 49.625 70.8988 49.295C71.1588 48.96 71.4963 48.7025 71.9113 48.5225C72.3313 48.3375 72.7788 48.245 73.2538 48.245C73.8638 48.245 74.4188 48.3775 74.9188 48.6425C75.4238 48.9075 75.7888 49.26 76.0138 49.7L75.1663 50.2025C75.0763 49.9975 74.9338 49.82 74.7388 49.67C74.5438 49.52 74.3213 49.4025 74.0713 49.3175C73.8263 49.2325 73.5763 49.1875 73.3213 49.1825C73.0013 49.1775 72.7038 49.225 72.4288 49.325C72.1538 49.42 71.9313 49.5625 71.7613 49.7525C71.5963 49.9425 71.5138 50.175 71.5138 50.45C71.5138 50.725 71.5963 50.935 71.7613 51.08C71.9263 51.22 72.1488 51.335 72.4288 51.425C72.7138 51.51 73.0338 51.61 73.3888 51.725C73.8438 51.87 74.2713 52.035 74.6713 52.22C75.0713 52.405 75.3938 52.635 75.6388 52.91C75.8838 53.185 76.0038 53.5325 75.9988 53.9525C75.9988 54.4025 75.8638 54.795 75.5938 55.13C75.3238 55.465 74.9738 55.7225 74.5438 55.9025C74.1138 56.0775 73.6538 56.1575 73.1638 56.1425ZM1.125 73V62.5H2.175V73H1.125ZM4.1959 73V65.5H5.2459V66.535C5.5159 66.155 5.8609 65.8525 6.2809 65.6275C6.7009 65.4025 7.1609 65.29 7.6609 65.29C8.2259 65.29 8.7434 65.43 9.2134 65.71C9.6834 65.985 10.0509 66.3525 10.3159 66.8125C10.5809 66.3525 10.9459 65.985 11.4109 65.71C11.8759 65.43 12.3909 65.29 12.9559 65.29C13.5209 65.29 14.0359 65.4275 14.5009 65.7025C14.9659 65.9775 15.3359 66.3475 15.6109 66.8125C15.8859 67.2775 16.0234 67.7925 16.0234 68.3575V73H14.9734V68.59C14.9734 68.19 14.8759 67.82 14.6809 67.48C14.4859 67.14 14.2234 66.8675 13.8934 66.6625C13.5684 66.4525 13.2059 66.3475 12.8059 66.3475C12.4059 66.3475 12.0409 66.445 11.7109 66.64C11.3859 66.83 11.1259 67.095 10.9309 67.435C10.7359 67.77 10.6384 68.155 10.6384 68.59V73H9.5884V68.59C9.5884 68.155 9.4909 67.77 9.2959 67.435C9.1009 67.095 8.8384 66.83 8.5084 66.64C8.1784 66.445 7.8134 66.3475 7.4134 66.3475C7.0184 66.3475 6.6559 66.4525 6.3259 66.6625C5.9959 66.8675 5.7334 67.14 5.5384 67.48C5.3434 67.82 5.2459 68.19 5.2459 68.59V73H4.1959ZM18.576 76.75H17.526V65.5H18.576V66.9025C18.836 66.4275 19.191 66.0425 19.641 65.7475C20.091 65.4525 20.626 65.305 21.246 65.305C21.791 65.305 22.301 65.4075 22.776 65.6125C23.256 65.8175 23.676 66.1025 24.036 66.4675C24.396 66.8275 24.6785 67.245 24.8835 67.72C25.0885 68.195 25.191 68.705 25.191 69.25C25.191 69.795 25.0885 70.3075 24.8835 70.7875C24.6785 71.2675 24.396 71.69 24.036 72.055C23.676 72.415 23.256 72.6975 22.776 72.9025C22.301 73.1075 21.791 73.21 21.246 73.21C20.626 73.21 20.091 73.0625 19.641 72.7675C19.191 72.4725 18.836 72.0875 18.576 71.6125V76.75ZM21.2385 66.325C20.7135 66.325 20.256 66.4575 19.866 66.7225C19.481 66.9825 19.1835 67.3325 18.9735 67.7725C18.7635 68.2125 18.6585 68.705 18.6585 69.25C18.6585 69.785 18.761 70.275 18.966 70.72C19.176 71.165 19.4735 71.52 19.8585 71.785C20.2485 72.05 20.7085 72.1825 21.2385 72.1825C21.7585 72.1825 22.236 72.0525 22.671 71.7925C23.111 71.5325 23.4635 71.1825 23.7285 70.7425C23.9935 70.2975 24.126 69.8 24.126 69.25C24.126 68.715 23.996 68.2275 23.736 67.7875C23.476 67.3425 23.1285 66.9875 22.6935 66.7225C22.2585 66.4575 21.7735 66.325 21.2385 66.325ZM32.5533 65.5H33.6033V73H32.5533L32.5158 71.605C32.2708 72.08 31.9283 72.465 31.4883 72.76C31.0483 73.05 30.5233 73.195 29.9133 73.195C29.3633 73.195 28.8483 73.0925 28.3683 72.8875C27.8883 72.6775 27.4658 72.39 27.1008 72.025C26.7358 71.66 26.4508 71.2375 26.2458 70.7575C26.0408 70.2775 25.9383 69.7625 25.9383 69.2125C25.9383 68.6725 26.0383 68.165 26.2383 67.69C26.4433 67.215 26.7233 66.7975 27.0783 66.4375C27.4383 66.0775 27.8533 65.7975 28.3233 65.5975C28.7983 65.3925 29.3058 65.29 29.8458 65.29C30.4708 65.29 31.0158 65.44 31.4808 65.74C31.9458 66.035 32.3158 66.4225 32.5908 66.9025L32.5533 65.5ZM29.8908 72.175C30.4258 72.175 30.8858 72.045 31.2708 71.785C31.6558 71.52 31.9508 71.165 32.1558 70.72C32.3658 70.275 32.4708 69.785 32.4708 69.25C32.4708 68.7 32.3658 68.205 32.1558 67.765C31.9458 67.32 31.6483 66.9675 31.2633 66.7075C30.8783 66.4475 30.4208 66.3175 29.8908 66.3175C29.3608 66.3175 28.8758 66.45 28.4358 66.715C28.0008 66.975 27.6533 67.3275 27.3933 67.7725C27.1383 68.2175 27.0108 68.71 27.0108 69.25C27.0108 69.795 27.1433 70.29 27.4083 70.735C27.6733 71.175 28.0233 71.525 28.4583 71.785C28.8983 72.045 29.3758 72.175 29.8908 72.175ZM40.3126 71.1175L41.2501 71.6275C40.9101 72.1025 40.4776 72.4825 39.9526 72.7675C39.4326 73.0525 38.8676 73.195 38.2576 73.195C37.5676 73.195 36.9376 73.0175 36.3676 72.6625C35.8026 72.3075 35.3501 71.8325 35.0101 71.2375C34.6751 70.6375 34.5076 69.975 34.5076 69.25C34.5076 68.7 34.6051 68.1875 34.8001 67.7125C34.9951 67.2325 35.2626 66.8125 35.6026 66.4525C35.9476 66.0875 36.3476 65.8025 36.8026 65.5975C37.2576 65.3925 37.7426 65.29 38.2576 65.29C38.8676 65.29 39.4326 65.4325 39.9526 65.7175C40.4776 66.0025 40.9101 66.385 41.2501 66.865L40.3126 67.3675C40.0526 67.0375 39.7401 66.785 39.3751 66.61C39.0101 66.43 38.6376 66.34 38.2576 66.34C37.7526 66.34 37.2951 66.475 36.8851 66.745C36.4751 67.01 36.1501 67.3625 35.9101 67.8025C35.6751 68.2425 35.5576 68.725 35.5576 69.25C35.5576 69.775 35.6776 70.2575 35.9176 70.6975C36.1626 71.1375 36.4901 71.49 36.9001 71.755C37.3101 72.015 37.7626 72.145 38.2576 72.145C38.6676 72.145 39.0526 72.05 39.4126 71.86C39.7726 71.67 40.0726 71.4225 40.3126 71.1175ZM46.4366 66.55H44.6441L44.6366 73H43.5866L43.5941 66.55H42.2366V65.5H43.5941L43.5866 63.145H44.6366L44.6441 65.5H46.4366V66.55Z" fill="black"/>
<path d="M0.9 39V28.5H2.46V37.44H6.9825V39H0.9ZM11.2605 39.195C10.5705 39.195 9.94055 39.0175 9.37055 38.6625C8.80555 38.3075 8.35305 37.8325 8.01305 37.2375C7.67805 36.6375 7.51055 35.975 7.51055 35.25C7.51055 34.7 7.60805 34.1875 7.80305 33.7125C7.99805 33.2325 8.26555 32.8125 8.60555 32.4525C8.95055 32.0875 9.35055 31.8025 9.80555 31.5975C10.2605 31.3925 10.7455 31.29 11.2605 31.29C11.8355 31.29 12.363 31.41 12.843 31.65C13.323 31.885 13.733 32.2125 14.073 32.6325C14.413 33.0475 14.663 33.5275 14.823 34.0725C14.983 34.6125 15.0305 35.1875 14.9655 35.7975H9.18305C9.24805 36.1425 9.37305 36.455 9.55805 36.735C9.74805 37.01 9.98805 37.2275 10.278 37.3875C10.573 37.5475 10.9005 37.63 11.2605 37.635C11.6405 37.635 11.9855 37.54 12.2955 37.35C12.6105 37.16 12.868 36.8975 13.068 36.5625L14.6505 36.93C14.3505 37.595 13.898 38.14 13.293 38.565C12.688 38.985 12.0105 39.195 11.2605 39.195ZM9.13055 34.605H13.3905C13.3405 34.245 13.213 33.92 13.008 33.63C12.808 33.335 12.5555 33.1025 12.2505 32.9325C11.9505 32.7575 11.6205 32.67 11.2605 32.67C10.9055 32.67 10.5755 32.755 10.2705 32.925C9.97055 33.095 9.72055 33.3275 9.52055 33.6225C9.32555 33.9125 9.19555 34.24 9.13055 34.605ZM22.9576 34.2975V39H21.3976V34.68C21.3976 34.345 21.3151 34.04 21.1501 33.765C20.9901 33.49 20.7726 33.2725 20.4976 33.1125C20.2276 32.9475 19.9226 32.865 19.5826 32.865C19.2526 32.865 18.9501 32.9475 18.6751 33.1125C18.4001 33.2725 18.1801 33.49 18.0151 33.765C17.8501 34.04 17.7676 34.345 17.7676 34.68V39H16.2076V31.5H17.7676V32.295C18.0276 31.985 18.3476 31.74 18.7276 31.56C19.1076 31.38 19.5176 31.29 19.9576 31.29C20.5126 31.29 21.0176 31.425 21.4726 31.695C21.9276 31.965 22.2876 32.3275 22.5526 32.7825C22.8226 33.2375 22.9576 33.7425 22.9576 34.2975ZM30.1507 27.75H31.7107V39H30.1507V37.8975C29.9057 38.2875 29.5857 38.6025 29.1907 38.8425C28.7957 39.0775 28.3332 39.195 27.8032 39.195C27.2582 39.195 26.7482 39.0925 26.2732 38.8875C25.7982 38.6825 25.3782 38.4 25.0132 38.04C24.6532 37.675 24.3707 37.255 24.1657 36.78C23.9607 36.305 23.8582 35.795 23.8582 35.25C23.8582 34.705 23.9607 34.195 24.1657 33.72C24.3707 33.24 24.6532 32.82 25.0132 32.46C25.3782 32.095 25.7982 31.81 26.2732 31.605C26.7482 31.4 27.2582 31.2975 27.8032 31.2975C28.3332 31.2975 28.7957 31.4175 29.1907 31.6575C29.5857 31.8925 29.9057 32.2025 30.1507 32.5875V27.75ZM27.8182 37.6875C28.2582 37.6875 28.6432 37.58 28.9732 37.365C29.3032 37.145 29.5582 36.85 29.7382 36.48C29.9232 36.11 30.0157 35.7 30.0157 35.25C30.0157 34.795 29.9232 34.3825 29.7382 34.0125C29.5532 33.6425 29.2957 33.35 28.9657 33.135C28.6407 32.915 28.2582 32.805 27.8182 32.805C27.3832 32.805 26.9857 32.915 26.6257 33.135C26.2707 33.355 25.9857 33.65 25.7707 34.02C25.5607 34.39 25.4557 34.8 25.4557 35.25C25.4557 35.705 25.5632 36.1175 25.7782 36.4875C25.9982 36.8525 26.2857 37.145 26.6407 37.365C27.0007 37.58 27.3932 37.6875 27.8182 37.6875ZM33.5074 31.5H35.0674V39H33.5074V31.5ZM34.3024 30.4125C34.0624 30.4125 33.8624 30.335 33.7024 30.18C33.5424 30.025 33.4624 29.83 33.4624 29.595C33.4624 29.365 33.5424 29.1725 33.7024 29.0175C33.8624 28.8575 34.0599 28.7775 34.2949 28.7775C34.5249 28.7775 34.7199 28.8575 34.8799 29.0175C35.0399 29.1725 35.1199 29.365 35.1199 29.595C35.1199 29.83 35.0399 30.025 34.8799 30.18C34.7249 30.335 34.5324 30.4125 34.3024 30.4125ZM43.5533 34.2975V39H41.9933V34.68C41.9933 34.345 41.9108 34.04 41.7458 33.765C41.5858 33.49 41.3683 33.2725 41.0933 33.1125C40.8233 32.9475 40.5183 32.865 40.1783 32.865C39.8483 32.865 39.5458 32.9475 39.2708 33.1125C38.9958 33.2725 38.7758 33.49 38.6108 33.765C38.4458 34.04 38.3633 34.345 38.3633 34.68V39H36.8033V31.5H38.3633V32.295C38.6233 31.985 38.9433 31.74 39.3233 31.56C39.7033 31.38 40.1133 31.29 40.5533 31.29C41.1083 31.29 41.6133 31.425 42.0683 31.695C42.5233 31.965 42.8833 32.3275 43.1483 32.7825C43.4183 33.2375 43.5533 33.7425 43.5533 34.2975ZM50.6114 31.5H52.1714V39.195C52.1714 39.71 52.0614 40.185 51.8414 40.62C51.6264 41.055 51.3339 41.43 50.9639 41.745C50.5939 42.065 50.1689 42.3125 49.6889 42.4875C49.2139 42.6625 48.7164 42.75 48.1964 42.75C47.6714 42.75 47.1664 42.6375 46.6814 42.4125C46.1964 42.1925 45.7689 41.8925 45.3989 41.5125C45.0339 41.1325 44.7614 40.7025 44.5814 40.2225L46.0139 39.5775C46.1139 39.8875 46.2739 40.1625 46.4939 40.4025C46.7189 40.6425 46.9789 40.8325 47.2739 40.9725C47.5739 41.1125 47.8814 41.1825 48.1964 41.1825C48.5064 41.1825 48.8039 41.1325 49.0889 41.0325C49.3789 40.9375 49.6364 40.8025 49.8614 40.6275C50.0914 40.4525 50.2739 40.2425 50.4089 39.9975C50.5439 39.7525 50.6114 39.485 50.6114 39.195V37.9275C50.3664 38.3075 50.0514 38.615 49.6664 38.85C49.2814 39.08 48.8339 39.195 48.3239 39.195C47.7939 39.195 47.2939 39.0925 46.8239 38.8875C46.3539 38.6825 45.9414 38.4 45.5864 38.04C45.2314 37.675 44.9539 37.255 44.7539 36.78C44.5539 36.305 44.4539 35.795 44.4539 35.25C44.4539 34.705 44.5539 34.195 44.7539 33.72C44.9539 33.24 45.2314 32.82 45.5864 32.46C45.9414 32.095 46.3539 31.81 46.8239 31.605C47.2939 31.4 47.7939 31.2975 48.3239 31.2975C48.8339 31.2975 49.2814 31.415 49.6664 31.65C50.0514 31.88 50.3664 32.1875 50.6114 32.5725V31.5ZM48.3389 37.6875C48.7739 37.6875 49.1539 37.5775 49.4789 37.3575C49.8039 37.1325 50.0564 36.835 50.2364 36.465C50.4164 36.095 50.5064 35.69 50.5064 35.25C50.5064 34.8 50.4139 34.3925 50.2289 34.0275C50.0489 33.6575 49.7964 33.3625 49.4714 33.1425C49.1464 32.9175 48.7689 32.805 48.3389 32.805C47.9189 32.805 47.5339 32.915 47.1839 33.135C46.8389 33.355 46.5639 33.65 46.3589 34.02C46.1539 34.39 46.0514 34.8 46.0514 35.25C46.0514 35.7 46.1539 36.11 46.3589 36.48C46.5689 36.85 46.8464 37.145 47.1914 37.365C47.5414 37.58 47.9239 37.6875 48.3389 37.6875ZM57.5748 39V28.5H63.7623V30.06H59.1348V32.595H63.0423V34.155H59.1348V39H57.5748ZM64.8697 39V27.75H66.4297V39H64.8697ZM71.4217 39.195C70.7317 39.195 70.1017 39.0175 69.5317 38.6625C68.9667 38.3075 68.5142 37.8325 68.1742 37.2375C67.8392 36.6375 67.6717 35.975 67.6717 35.25C67.6717 34.7 67.7692 34.1875 67.9642 33.7125C68.1592 33.2325 68.4267 32.8125 68.7667 32.4525C69.1117 32.0875 69.5117 31.8025 69.9667 31.5975C70.4217 31.3925 70.9067 31.29 71.4217 31.29C72.1117 31.29 72.7392 31.4675 73.3042 31.8225C73.8742 32.1775 74.3267 32.655 74.6617 33.255C75.0017 33.855 75.1717 34.52 75.1717 35.25C75.1717 35.795 75.0742 36.305 74.8792 36.78C74.6842 37.255 74.4142 37.675 74.0692 38.04C73.7292 38.4 73.3317 38.6825 72.8767 38.8875C72.4267 39.0925 71.9417 39.195 71.4217 39.195ZM71.4217 37.635C71.8367 37.635 72.2092 37.525 72.5392 37.305C72.8692 37.085 73.1292 36.795 73.3192 36.435C73.5142 36.07 73.6117 35.675 73.6117 35.25C73.6117 34.815 73.5117 34.415 73.3117 34.05C73.1167 33.685 72.8542 33.395 72.5242 33.18C72.1942 32.96 71.8267 32.85 71.4217 32.85C71.0117 32.85 70.6392 32.96 70.3042 33.18C69.9742 33.4 69.7117 33.6925 69.5167 34.0575C69.3267 34.4225 69.2317 34.82 69.2317 35.25C69.2317 35.695 69.3317 36.0975 69.5317 36.4575C69.7317 36.8175 69.9967 37.105 70.3267 37.32C70.6617 37.53 71.0267 37.635 71.4217 37.635ZM79.6468 39H78.0943L75.5818 31.5H77.1118L78.8818 36.765L80.6368 31.5H82.2118L83.9668 36.765L85.7293 31.5H87.2593L84.7543 39H83.1868L81.4168 33.6975L79.6468 39Z" fill="#8F00FF"/>
</svg>
