<svg width="112" height="37" viewBox="0 0 112 37" fill="none" xmlns="http://www.w3.org/2000/svg">
<path fill-rule="evenodd" clip-rule="evenodd" d="M36 0L44.6603 15L53.3205 0H36ZM56.6603 0L61.6603 8.66025L66.6603 0L75.3205 15H65.3205H58H48L56.6603 0Z" fill="#8F00FF"/>
<path d="M6.643 31H4.685L0.669998 19.967H2.309L5.664 29.196L9.019 19.967H10.658L6.643 31ZM15.1204 20H16.6604V31H15.1204V20ZM15.9014 18.075C15.6521 18.075 15.4394 17.9943 15.2634 17.833C15.0947 17.6643 15.0104 17.4553 15.0104 17.206C15.0104 16.9567 15.0947 16.7513 15.2634 16.59C15.4394 16.4213 15.6521 16.337 15.9014 16.337C16.1434 16.337 16.3487 16.4213 16.5174 16.59C16.6934 16.7513 16.7814 16.9567 16.7814 17.206C16.7814 17.4553 16.6971 17.6643 16.5284 17.833C16.3597 17.9943 16.1507 18.075 15.9014 18.075ZM30.8844 20H32.4244V31H30.8844L30.8294 28.954C30.4701 29.6507 29.9678 30.2153 29.3224 30.648C28.6771 31.0733 27.9071 31.286 27.0124 31.286C26.2058 31.286 25.4504 31.1357 24.7464 30.835C24.0424 30.527 23.4228 30.1053 22.8874 29.57C22.3521 29.0347 21.9341 28.415 21.6334 27.711C21.3328 27.007 21.1824 26.2517 21.1824 25.445C21.1824 24.653 21.3291 23.9087 21.6224 23.212C21.9231 22.5153 22.3338 21.903 22.8544 21.375C23.3824 20.847 23.9911 20.4363 24.6804 20.143C25.3771 19.8423 26.1214 19.692 26.9134 19.692C27.8301 19.692 28.6294 19.912 29.3114 20.352C29.9934 20.7847 30.5361 21.353 30.9394 22.057L30.8844 20ZM26.9794 29.79C27.7641 29.79 28.4388 29.5993 29.0034 29.218C29.5681 28.8293 30.0008 28.3087 30.3014 27.656C30.6094 27.0033 30.7634 26.2847 30.7634 25.5C30.7634 24.6933 30.6094 23.9673 30.3014 23.322C29.9934 22.6693 29.5571 22.1523 28.9924 21.771C28.4278 21.3897 27.7568 21.199 26.9794 21.199C26.2021 21.199 25.4908 21.3933 24.8454 21.782C24.2074 22.1633 23.6978 22.6803 23.3164 23.333C22.9424 23.9857 22.7554 24.708 22.7554 25.5C22.7554 26.2993 22.9498 27.0253 23.3384 27.678C23.7271 28.3233 24.2404 28.8367 24.8784 29.218C25.5238 29.5993 26.2241 29.79 26.9794 29.79ZM37.2656 31V20H38.8056V21.518C39.2016 20.9607 39.7076 20.517 40.3236 20.187C40.9396 19.857 41.6143 19.692 42.3476 19.692C43.1763 19.692 43.9353 19.8973 44.6246 20.308C45.314 20.7113 45.853 21.2503 46.2416 21.925C46.6303 21.2503 47.1656 20.7113 47.8476 20.308C48.5296 19.8973 49.285 19.692 50.1136 19.692C50.9423 19.692 51.6976 19.8937 52.3796 20.297C53.0616 20.7003 53.6043 21.243 54.0076 21.925C54.411 22.607 54.6126 23.3623 54.6126 24.191V31H53.0726V24.532C53.0726 23.9453 52.9296 23.4027 52.6436 22.904C52.3576 22.4053 51.9726 22.0057 51.4886 21.705C51.012 21.397 50.4803 21.243 49.8936 21.243C49.307 21.243 48.7716 21.386 48.2876 21.672C47.811 21.9507 47.4296 22.3393 47.1436 22.838C46.8576 23.3293 46.7146 23.894 46.7146 24.532V31H45.1746V24.532C45.1746 23.894 45.0316 23.3293 44.7456 22.838C44.4596 22.3393 44.0746 21.9507 43.5906 21.672C43.1066 21.386 42.5713 21.243 41.9846 21.243C41.4053 21.243 40.8736 21.397 40.3896 21.705C39.9056 22.0057 39.5206 22.4053 39.2346 22.904C38.9486 23.4027 38.8056 23.9453 38.8056 24.532V31H37.2656ZM68.2836 20H69.8236V31H68.2836L68.2286 28.954C67.8692 29.6507 67.3669 30.2153 66.7216 30.648C66.0762 31.0733 65.3062 31.286 64.4116 31.286C63.6049 31.286 62.8496 31.1357 62.1456 30.835C61.4416 30.527 60.8219 30.1053 60.2866 29.57C59.7512 29.0347 59.3332 28.415 59.0326 27.711C58.7319 27.007 58.5816 26.2517 58.5816 25.445C58.5816 24.653 58.7282 23.9087 59.0216 23.212C59.3222 22.5153 59.7329 21.903 60.2536 21.375C60.7816 20.847 61.3902 20.4363 62.0796 20.143C62.7762 19.8423 63.5206 19.692 64.3126 19.692C65.2292 19.692 66.0286 19.912 66.7106 20.352C67.3926 20.7847 67.9352 21.353 68.3386 22.057L68.2836 20ZM64.3786 29.79C65.1632 29.79 65.8379 29.5993 66.4026 29.218C66.9672 28.8293 67.3999 28.3087 67.7006 27.656C68.0086 27.0033 68.1626 26.2847 68.1626 25.5C68.1626 24.6933 68.0086 23.9673 67.7006 23.322C67.3926 22.6693 66.9562 22.1523 66.3916 21.771C65.8269 21.3897 65.1559 21.199 64.3786 21.199C63.6012 21.199 62.8899 21.3933 62.2446 21.782C61.6066 22.1633 61.0969 22.6803 60.7156 23.333C60.3416 23.9857 60.1546 24.708 60.1546 25.5C60.1546 26.2993 60.3489 27.0253 60.7376 27.678C61.1262 28.3233 61.6396 28.8367 62.2776 29.218C62.9229 29.5993 63.6232 29.79 64.3786 29.79ZM83.1949 20H84.7349V31.407C84.7349 32.111 84.5809 32.771 84.2729 33.387C83.9722 34.003 83.5616 34.542 83.0409 35.004C82.5276 35.4733 81.9409 35.84 81.2809 36.104C80.6209 36.368 79.9352 36.5 79.2239 36.5C78.4612 36.5 77.7242 36.324 77.0129 35.972C76.3016 35.6273 75.6819 35.1653 75.1539 34.586C74.6332 34.0067 74.2629 33.365 74.0429 32.661L75.4619 32.012C75.6012 32.562 75.8616 33.057 76.2429 33.497C76.6316 33.9443 77.0862 34.2963 77.6069 34.553C78.1349 34.817 78.6739 34.949 79.2239 34.949C79.7299 34.949 80.2176 34.8537 80.6869 34.663C81.1636 34.4797 81.5889 34.2267 81.9629 33.904C82.3442 33.5813 82.6449 33.2037 82.8649 32.771C83.0849 32.3457 83.1949 31.891 83.1949 31.407V28.976C82.8136 29.6653 82.2966 30.2227 81.6439 30.648C80.9986 31.0733 80.2469 31.286 79.3889 31.286C78.6189 31.286 77.8929 31.1357 77.2109 30.835C76.5362 30.5343 75.9422 30.12 75.4289 29.592C74.9156 29.0567 74.5122 28.4407 74.2189 27.744C73.9329 27.0473 73.7899 26.2993 73.7899 25.5C73.7899 24.7007 73.9329 23.9527 74.2189 23.256C74.5122 22.552 74.9156 21.936 75.4289 21.408C75.9422 20.8727 76.5362 20.4547 77.2109 20.154C77.8929 19.8533 78.6189 19.703 79.3889 19.703C80.2469 19.703 80.9986 19.9157 81.6439 20.341C82.2966 20.759 82.8136 21.3163 83.1949 22.013V20ZM79.3999 29.79C80.1626 29.79 80.8189 29.592 81.3689 29.196C81.9262 28.8 82.3552 28.2757 82.6559 27.623C82.9566 26.9703 83.1069 26.2627 83.1069 25.5C83.1069 24.7153 82.9529 24.0003 82.6449 23.355C82.3442 22.7023 81.9152 22.1817 81.3579 21.793C80.8006 21.397 80.1479 21.199 79.3999 21.199C78.6519 21.199 77.9699 21.3933 77.3539 21.782C76.7452 22.1633 76.2612 22.6803 75.9019 23.333C75.5426 23.9857 75.3629 24.708 75.3629 25.5C75.3629 26.292 75.5462 27.0143 75.9129 27.667C76.2796 28.3123 76.7672 28.8293 77.3759 29.218C77.9919 29.5993 78.6666 29.79 79.3999 29.79ZM89.4331 26.787V20H90.9731V26.479C90.9731 27.0803 91.1198 27.6267 91.4131 28.118C91.7065 28.6093 92.0988 29.0017 92.5901 29.295C93.0888 29.5883 93.6351 29.735 94.2291 29.735C94.8305 29.735 95.3731 29.5883 95.8571 29.295C96.3485 29.0017 96.7408 28.6093 97.0341 28.118C97.3275 27.6267 97.4741 27.0803 97.4741 26.479V20H99.0141L99.0251 31H97.4851L97.4741 29.46C97.0855 30.0173 96.5795 30.461 95.9561 30.791C95.3401 31.121 94.6655 31.286 93.9321 31.286C93.1035 31.286 92.3481 31.0843 91.6661 30.681C90.9841 30.2777 90.4415 29.735 90.0381 29.053C89.6348 28.371 89.4331 27.6157 89.4331 26.787ZM107.256 31.209C106.655 31.1943 106.068 31.0843 105.496 30.879C104.924 30.6737 104.425 30.395 104 30.043C103.575 29.691 103.27 29.2913 103.087 28.844L104.418 28.272C104.535 28.558 104.752 28.822 105.067 29.064C105.39 29.2987 105.756 29.4893 106.167 29.636C106.578 29.7753 106.985 29.845 107.388 29.845C107.835 29.845 108.253 29.7717 108.642 29.625C109.031 29.4783 109.346 29.2693 109.588 28.998C109.837 28.7193 109.962 28.393 109.962 28.019C109.962 27.6157 109.83 27.3003 109.566 27.073C109.302 26.8383 108.968 26.655 108.565 26.523C108.162 26.3837 107.747 26.2517 107.322 26.127C106.545 25.9143 105.859 25.6797 105.265 25.423C104.671 25.1663 104.205 24.84 103.868 24.444C103.538 24.0407 103.373 23.5237 103.373 22.893C103.373 22.2257 103.56 21.65 103.934 21.166C104.315 20.6747 104.81 20.297 105.419 20.033C106.035 19.7617 106.691 19.626 107.388 19.626C108.283 19.626 109.097 19.8203 109.83 20.209C110.571 20.5977 111.106 21.1147 111.436 21.76L110.193 22.497C110.061 22.1963 109.852 21.936 109.566 21.716C109.28 21.496 108.954 21.3237 108.587 21.199C108.228 21.0743 107.861 21.0083 107.487 21.001C107.018 20.9937 106.581 21.0633 106.178 21.21C105.775 21.3493 105.448 21.5583 105.199 21.837C104.957 22.1157 104.836 22.4567 104.836 22.86C104.836 23.2633 104.957 23.5713 105.199 23.784C105.441 23.9893 105.767 24.158 106.178 24.29C106.596 24.4147 107.065 24.5613 107.586 24.73C108.253 24.9427 108.88 25.1847 109.467 25.456C110.054 25.7273 110.527 26.0647 110.886 26.468C111.245 26.8713 111.421 27.381 111.414 27.997C111.414 28.657 111.216 29.2327 110.82 29.724C110.424 30.2153 109.911 30.593 109.28 30.857C108.649 31.1137 107.975 31.231 107.256 31.209Z" fill="#8F00FF"/>
<path d="M6.643 31V31.5H6.99312L7.11285 31.171L6.643 31ZM4.685 31L4.21514 31.171L4.33487 31.5H4.685V31ZM0.669998 19.967V19.467H-0.0440341L0.200143 20.138L0.669998 19.967ZM2.309 19.967L2.77891 19.7962L2.65925 19.467H2.309V19.967ZM5.664 29.196L5.19409 29.3668L5.664 30.6595L6.13391 29.3668L5.664 29.196ZM9.019 19.967V19.467H8.66875L8.54909 19.7962L9.019 19.967ZM10.658 19.967L11.1279 20.138L11.372 19.467H10.658V19.967ZM6.643 30.5H4.685V31.5H6.643V30.5ZM5.15485 30.829L1.13985 19.796L0.200143 20.138L4.21514 31.171L5.15485 30.829ZM0.669998 20.467H2.309V19.467H0.669998V20.467ZM1.83909 20.1378L5.19409 29.3668L6.13391 29.0252L2.77891 19.7962L1.83909 20.1378ZM6.13391 29.3668L9.48891 20.1378L8.54909 19.7962L5.19409 29.0252L6.13391 29.3668ZM9.019 20.467H10.658V19.467H9.019V20.467ZM10.1881 19.796L6.17314 30.829L7.11285 31.171L11.1279 20.138L10.1881 19.796ZM15.1204 20V19.5H14.6204V20H15.1204ZM16.6604 20H17.1604V19.5H16.6604V20ZM16.6604 31V31.5H17.1604V31H16.6604ZM15.1204 31H14.6204V31.5H15.1204V31ZM15.2634 17.833L14.9098 18.1866L14.9175 18.1942L14.9255 18.2016L15.2634 17.833ZM15.2634 16.59L15.609 16.9513L15.6093 16.951L15.2634 16.59ZM16.5174 16.59L16.1638 16.9436L16.1715 16.9512L16.1795 16.9586L16.5174 16.59ZM16.5284 17.833L16.8741 18.1944L16.8819 18.1866L16.5284 17.833ZM15.1204 20.5H16.6604V19.5H15.1204V20.5ZM16.1604 20V31H17.1604V20H16.1604ZM16.6604 30.5H15.1204V31.5H16.6604V30.5ZM15.6204 31V20H14.6204V31H15.6204ZM15.9014 17.575C15.7711 17.575 15.6806 17.5372 15.6013 17.4644L14.9255 18.2016C15.1981 18.4515 15.5331 18.575 15.9014 18.575V17.575ZM15.6169 17.4794C15.5467 17.4092 15.5104 17.3294 15.5104 17.206H14.5104C14.5104 17.5812 14.6428 17.9195 14.9098 18.1866L15.6169 17.4794ZM15.5104 17.206C15.5104 17.0827 15.5462 17.0114 15.609 16.9513L14.9178 16.2287C14.6432 16.4913 14.5104 16.8306 14.5104 17.206H15.5104ZM15.6093 16.951C15.6899 16.8738 15.7777 16.837 15.9014 16.837V15.837C15.5264 15.837 15.1889 15.9689 14.9174 16.229L15.6093 16.951ZM15.9014 16.837C16.0129 16.837 16.0905 16.8702 16.1638 16.9436L16.8709 16.2364C16.607 15.9725 16.2738 15.837 15.9014 15.837V16.837ZM16.1795 16.9586C16.2472 17.0206 16.2814 17.0898 16.2814 17.206H17.2814C17.2814 16.8235 17.1396 16.4821 16.8553 16.2214L16.1795 16.9586ZM16.2814 17.206C16.2814 17.3294 16.2451 17.4092 16.1748 17.4794L16.8819 18.1866C17.149 17.9195 17.2814 17.5812 17.2814 17.206H16.2814ZM16.1828 17.4717C16.1139 17.5375 16.0316 17.575 15.9014 17.575V18.575C16.2698 18.575 16.6055 18.4511 16.874 18.1943L16.1828 17.4717ZM30.8844 20V19.5H30.3709L30.3846 20.0134L30.8844 20ZM32.4244 20H32.9244V19.5H32.4244V20ZM32.4244 31V31.5H32.9244V31H32.4244ZM30.8844 31L30.3846 31.0134L30.3977 31.5H30.8844V31ZM30.8294 28.954L31.3292 28.9406L30.385 28.7248L30.8294 28.954ZM29.3224 30.648L29.5976 31.0655L29.6009 31.0633L29.3224 30.648ZM24.7464 30.835L24.546 31.2931L24.55 31.2948L24.7464 30.835ZM22.8874 29.57L22.5339 29.9236L22.5339 29.9236L22.8874 29.57ZM21.6334 27.711L22.0932 27.5146L22.0932 27.5146L21.6334 27.711ZM21.6224 23.212L21.1633 23.0139L21.1616 23.018L21.6224 23.212ZM22.8544 21.375L22.5009 21.0214L22.4984 21.0239L22.8544 21.375ZM24.6804 20.143L24.8762 20.6031L24.8785 20.6021L24.6804 20.143ZM29.3114 20.352L29.0404 20.7722L29.0436 20.7742L29.3114 20.352ZM30.9394 22.057L30.5056 22.3056L31.4392 22.0436L30.9394 22.057ZM29.0034 29.218L29.2833 29.6324L29.2869 29.6299L29.0034 29.218ZM30.3014 27.656L29.8492 27.4426L29.8473 27.4468L30.3014 27.656ZM30.3014 23.322L29.8492 23.5354L29.8502 23.5374L30.3014 23.322ZM28.9924 21.771L29.2723 21.3566L28.9924 21.771ZM24.8454 21.782L25.1019 22.2112L25.1034 22.2103L24.8454 21.782ZM23.3164 23.333L22.8847 23.0808L22.8826 23.0844L23.3164 23.333ZM23.3384 27.678L22.9088 27.9338L22.9101 27.936L23.3384 27.678ZM24.8784 29.218L24.6219 29.6472L24.6241 29.6485L24.8784 29.218ZM30.8844 20.5H32.4244V19.5H30.8844V20.5ZM31.9244 20V31H32.9244V20H31.9244ZM32.4244 30.5H30.8844V31.5H32.4244V30.5ZM31.3842 30.9866L31.3292 28.9406L30.3296 28.9674L30.3846 31.0134L31.3842 30.9866ZM30.385 28.7248C30.0641 29.3471 29.6185 29.8475 29.044 30.2327L29.6009 31.0633C30.317 30.5832 30.8761 29.9542 31.2738 29.1832L30.385 28.7248ZM29.0473 30.2305C28.4959 30.5939 27.8251 30.786 27.0124 30.786V31.786C27.9891 31.786 28.8583 31.5527 29.5976 31.0655L29.0473 30.2305ZM27.0124 30.786C26.2696 30.786 25.5814 30.6479 24.9428 30.3752L24.55 31.2948C25.3194 31.6234 26.1419 31.786 27.0124 31.786V30.786ZM24.9468 30.3769C24.2991 30.0935 23.7316 29.707 23.241 29.2164L22.5339 29.9236C23.114 30.5036 23.7858 30.9605 24.546 31.2931L24.9468 30.3769ZM23.241 29.2164C22.7513 28.7268 22.3691 28.1606 22.0932 27.5146L21.1736 27.9074C21.499 28.6694 21.9529 29.3426 22.5339 29.9236L23.241 29.2164ZM22.0932 27.5146C21.8205 26.876 21.6824 26.1879 21.6824 25.445H20.6824C20.6824 26.3155 20.845 27.138 21.1736 27.9074L22.0932 27.5146ZM21.6824 25.445C21.6824 24.7164 21.817 24.0384 22.0832 23.406L21.1616 23.018C20.8412 23.779 20.6824 24.5896 20.6824 25.445H21.6824ZM22.0815 23.4101C22.3582 22.769 22.7343 22.2089 23.2104 21.7261L22.4984 21.0239C21.9332 21.5971 21.488 22.2616 21.1633 23.0139L22.0815 23.4101ZM23.208 21.7286C23.6905 21.246 24.2456 20.8714 24.8762 20.6031L24.4846 19.6829C23.7366 20.0012 23.0743 20.448 22.5009 21.0214L23.208 21.7286ZM24.8785 20.6021C25.5099 20.3296 26.1865 20.192 26.9134 20.192V19.192C26.0563 19.192 25.2443 19.3551 24.4823 19.6839L24.8785 20.6021ZM26.9134 20.192C27.7468 20.192 28.4493 20.3908 29.0404 20.7721L29.5825 19.9319C28.8096 19.4332 27.9134 19.192 26.9134 19.192V20.192ZM29.0436 20.7742C29.6566 21.1631 30.1424 21.6717 30.5056 22.3056L31.3733 21.8084C30.9297 21.0343 30.3302 20.4062 29.5793 19.9298L29.0436 20.7742ZM31.4392 22.0436L31.3842 19.9866L30.3846 20.0134L30.4396 22.0704L31.4392 22.0436ZM26.9794 30.29C27.8483 30.29 28.6239 30.0776 29.2832 29.6324L28.7236 28.8036C28.2536 29.121 27.6799 29.29 26.9794 29.29V30.29ZM29.2869 29.6299C29.9293 29.1877 30.4192 28.5954 30.7556 27.8652L29.8473 27.4468C29.5824 28.0219 29.2069 28.471 28.7199 28.8061L29.2869 29.6299ZM30.7536 27.8694C31.0958 27.1443 31.2634 26.3519 31.2634 25.5H30.2634C30.2634 26.2174 30.1231 26.8623 29.8492 27.4426L30.7536 27.8694ZM31.2634 25.5C31.2634 24.6284 31.0967 23.8274 30.7527 23.1066L29.8502 23.5374C30.1222 24.1073 30.2634 24.7583 30.2634 25.5H31.2634ZM30.7536 23.1086C30.4096 22.3797 29.9158 21.7913 29.2723 21.3566L28.7126 22.1854C29.1983 22.5134 29.5772 22.959 29.8492 23.5354L30.7536 23.1086ZM29.2723 21.3566C28.6137 20.9119 27.842 20.699 26.9794 20.699V21.699C27.6715 21.699 28.2418 21.8674 28.7126 22.1854L29.2723 21.3566ZM26.9794 20.699C26.1142 20.699 25.3132 20.9166 24.5875 21.3537L25.1034 22.2103C25.6683 21.8701 26.29 21.699 26.9794 21.699V20.699ZM24.5889 21.3528C23.8772 21.7782 23.3078 22.3566 22.8847 23.0808L23.7481 23.5852C24.0877 23.0041 24.5376 22.5485 25.1019 22.2112L24.5889 21.3528ZM22.8826 23.0844C22.4629 23.8168 22.2554 24.6256 22.2554 25.5H23.2554C23.2554 24.7904 23.4219 24.1545 23.7502 23.5816L22.8826 23.0844ZM22.2554 25.5C22.2554 26.3845 22.4716 27.1997 22.9088 27.9338L23.768 27.4222C23.4279 26.851 23.2554 26.2142 23.2554 25.5H22.2554ZM22.9101 27.936C23.3405 28.6506 23.9125 29.2231 24.6219 29.6472L25.1349 28.7888C24.5684 28.4502 24.1137 27.9961 23.7667 27.42L22.9101 27.936ZM24.6241 29.6485C25.347 30.0757 26.1353 30.29 26.9794 30.29V29.29C26.3128 29.29 25.7005 29.123 25.1328 28.7875L24.6241 29.6485ZM37.2656 31H36.7656V31.5H37.2656V31ZM37.2656 20V19.5H36.7656V20H37.2656ZM38.8056 20H39.3056V19.5H38.8056V20ZM38.8056 21.518H38.3056V23.085L39.2132 21.8076L38.8056 21.518ZM40.3236 20.187L40.0875 19.7463L40.0875 19.7463L40.3236 20.187ZM44.6246 20.308L44.3687 20.7376L44.3721 20.7396L44.6246 20.308ZM46.2416 21.925L45.8084 22.1746L46.2416 22.9266L46.6749 22.1746L46.2416 21.925ZM47.8476 20.308L48.1022 20.7384L48.1056 20.7363L47.8476 20.308ZM52.3796 20.297L52.6341 19.8666L52.6341 19.8666L52.3796 20.297ZM54.6126 31V31.5H55.1126V31H54.6126ZM53.0726 31H52.5726V31.5H53.0726V31ZM52.6436 22.904L53.0774 22.6552L53.0774 22.6552L52.6436 22.904ZM51.4886 21.705L51.2172 22.125L51.2248 22.1297L51.4886 21.705ZM48.2876 21.672L48.54 22.1037L48.542 22.1025L48.2876 21.672ZM47.1436 22.838L47.5758 23.0895L47.5774 23.0868L47.1436 22.838ZM46.7146 31V31.5H47.2146V31H46.7146ZM45.1746 31H44.6746V31.5H45.1746V31ZM44.7456 22.838L44.3119 23.0868L44.3135 23.0895L44.7456 22.838ZM43.5906 21.672L43.3362 22.1025L43.3411 22.1053L43.5906 21.672ZM40.3896 21.705L40.6535 22.1297L40.6581 22.1268L40.3896 21.705ZM39.2346 22.904L38.8009 22.6552L38.8009 22.6552L39.2346 22.904ZM38.8056 31V31.5H39.3056V31H38.8056ZM37.7656 31V20H36.7656V31H37.7656ZM37.2656 20.5H38.8056V19.5H37.2656V20.5ZM38.3056 20V21.518H39.3056V20H38.3056ZM39.2132 21.8076C39.5635 21.3146 40.0102 20.9221 40.5597 20.6277L40.0875 19.7463C39.405 20.1119 38.8398 20.6067 38.398 21.2284L39.2132 21.8076ZM40.5597 20.6277C41.0995 20.3386 41.6925 20.192 42.3476 20.192V19.192C41.5361 19.192 40.7798 19.3754 40.0875 19.7463L40.5597 20.6277ZM42.3476 20.192C43.0893 20.192 43.7594 20.3745 44.3687 20.7376L44.8805 19.8784C44.1112 19.4201 43.2633 19.192 42.3476 19.192V20.192ZM44.3721 20.7396C44.9884 21.1002 45.4643 21.5773 45.8084 22.1746L46.6749 21.6754C46.2417 20.9234 45.6395 20.3225 44.8771 19.8764L44.3721 20.7396ZM46.6749 22.1746C47.0197 21.5759 47.4929 21.0987 48.1021 20.7384L47.5931 19.8776C46.8383 20.324 46.2408 20.9247 45.8084 21.6754L46.6749 22.1746ZM48.1056 20.7363C48.7064 20.3745 49.372 20.192 50.1136 20.192V19.192C49.198 19.192 48.3528 19.4201 47.5897 19.8797L48.1056 20.7363ZM50.1136 20.192C50.857 20.192 51.5238 20.3718 52.1251 20.7274L52.6341 19.8666C51.8715 19.4156 51.0276 19.192 50.1136 19.192V20.192ZM52.1251 20.7274C52.7346 21.0878 53.2168 21.57 53.5773 22.1795L54.438 21.6705C53.9918 20.916 53.3886 20.3128 52.6341 19.8666L52.1251 20.7274ZM53.5773 22.1795C53.9329 22.7808 54.1126 23.4476 54.1126 24.191H55.1126C55.1126 23.2771 54.889 22.4332 54.438 21.6705L53.5773 22.1795ZM54.1126 24.191V31H55.1126V24.191H54.1126ZM54.6126 30.5H53.0726V31.5H54.6126V30.5ZM53.5726 31V24.532H52.5726V31H53.5726ZM53.5726 24.532C53.5726 23.8599 53.4077 23.2312 53.0774 22.6552L52.2099 23.1528C52.4515 23.5741 52.5726 24.0307 52.5726 24.532H53.5726ZM53.0774 22.6552C52.7506 22.0854 52.3074 21.625 51.7525 21.2803L51.2248 22.1297C51.6378 22.3863 51.9647 22.7252 52.2099 23.1528L53.0774 22.6552ZM51.76 21.285C51.1996 20.923 50.5731 20.743 49.8936 20.743V21.743C50.3875 21.743 50.8243 21.871 51.2173 22.125L51.76 21.285ZM49.8936 20.743C49.2215 20.743 48.5977 20.908 48.0333 21.2415L48.542 22.1025C48.9455 21.864 49.3924 21.743 49.8936 21.743V20.743ZM48.0353 21.2404C47.48 21.5649 47.0375 22.0181 46.7099 22.5892L47.5774 23.0868C47.8218 22.6606 48.1419 22.3364 48.54 22.1036L48.0353 21.2404ZM46.7115 22.5865C46.3758 23.1632 46.2146 23.8167 46.2146 24.532H47.2146C47.2146 23.9713 47.3394 23.4955 47.5757 23.0895L46.7115 22.5865ZM46.2146 24.532V31H47.2146V24.532H46.2146ZM46.7146 30.5H45.1746V31.5H46.7146V30.5ZM45.6746 31V24.532H44.6746V31H45.6746ZM45.6746 24.532C45.6746 23.8167 45.5134 23.1632 45.1777 22.5865L44.3135 23.0895C44.5498 23.4955 44.6746 23.9713 44.6746 24.532H45.6746ZM45.1794 22.5892C44.8507 22.0162 44.4031 21.5628 43.8401 21.2387L43.3411 22.1053C43.7462 22.3385 44.0686 22.6625 44.3119 23.0868L45.1794 22.5892ZM43.845 21.2415C43.2805 20.908 42.6567 20.743 41.9846 20.743V21.743C42.4859 21.743 42.9327 21.864 43.3363 22.1025L43.845 21.2415ZM41.9846 20.743C41.3112 20.743 40.6862 20.9236 40.1212 21.2832L40.6581 22.1268C41.061 21.8704 41.4994 21.743 41.9846 21.743V20.743ZM40.1258 21.2803C39.5708 21.625 39.1277 22.0854 38.8009 22.6552L39.6684 23.1528C39.9135 22.7252 40.2404 22.3863 40.6535 22.1297L40.1258 21.2803ZM38.8009 22.6552C38.4705 23.2312 38.3056 23.8599 38.3056 24.532H39.3056C39.3056 24.0307 39.4267 23.5741 39.6684 23.1528L38.8009 22.6552ZM38.3056 24.532V31H39.3056V24.532H38.3056ZM38.8056 30.5H37.2656V31.5H38.8056V30.5ZM68.2836 20V19.5H67.77L67.7837 20.0134L68.2836 20ZM69.8236 20H70.3236V19.5H69.8236V20ZM69.8236 31V31.5H70.3236V31H69.8236ZM68.2836 31L67.7837 31.0134L67.7968 31.5H68.2836V31ZM68.2286 28.954L68.7284 28.9406L67.7842 28.7248L68.2286 28.954ZM66.7216 30.648L66.9967 31.0655L67 31.0633L66.7216 30.648ZM62.1456 30.835L61.9451 31.2931L61.9492 31.2948L62.1456 30.835ZM60.2866 29.57L59.933 29.9236L59.933 29.9236L60.2866 29.57ZM59.0326 27.711L59.4924 27.5146L59.4924 27.5146L59.0326 27.711ZM59.0216 23.212L58.5625 23.0139L58.5607 23.018L59.0216 23.212ZM60.2536 21.375L59.9 21.0214L59.8975 21.0239L60.2536 21.375ZM62.0796 20.143L62.2753 20.6031L62.2777 20.6021L62.0796 20.143ZM66.7106 20.352L66.4395 20.7722L66.4427 20.7742L66.7106 20.352ZM68.3386 22.057L67.9047 22.3056L68.8384 22.0436L68.3386 22.057ZM66.4026 29.218L66.6824 29.6324L66.6861 29.6299L66.4026 29.218ZM67.7006 27.656L67.2484 27.4426L67.2464 27.4468L67.7006 27.656ZM67.7006 23.322L67.2484 23.5354L67.2493 23.5374L67.7006 23.322ZM66.3916 21.771L66.6714 21.3566L66.3916 21.771ZM62.2446 21.782L62.5011 22.2112L62.5025 22.2103L62.2446 21.782ZM60.7156 23.333L60.2838 23.0808L60.2817 23.0844L60.7156 23.333ZM60.7376 27.678L60.308 27.9338L60.3092 27.936L60.7376 27.678ZM62.2776 29.218L62.021 29.6472L62.0232 29.6485L62.2776 29.218ZM68.2836 20.5H69.8236V19.5H68.2836V20.5ZM69.3236 20V31H70.3236V20H69.3236ZM69.8236 30.5H68.2836V31.5H69.8236V30.5ZM68.7834 30.9866L68.7284 28.9406L67.7287 28.9674L67.7837 31.0134L68.7834 30.9866ZM67.7842 28.7248C67.4632 29.3471 67.0177 29.8475 66.4431 30.2327L67 31.0633C67.7161 30.5832 68.2753 29.9542 68.6729 29.1832L67.7842 28.7248ZM66.4464 30.2305C65.895 30.5939 65.2242 30.786 64.4116 30.786V31.786C65.3882 31.786 66.2575 31.5527 66.9967 31.0655L66.4464 30.2305ZM64.4116 30.786C63.6687 30.786 62.9806 30.6479 62.3419 30.3752L61.9492 31.2948C62.7186 31.6234 63.5411 31.786 64.4116 31.786V30.786ZM62.346 30.3769C61.6982 30.0935 61.1307 29.707 60.6401 29.2164L59.933 29.9236C60.5131 30.5036 61.1849 30.9605 61.9452 31.2931L62.346 30.3769ZM60.6401 29.2164C60.1504 28.7268 59.7683 28.1606 59.4924 27.5146L58.5727 27.9074C58.8982 28.6694 59.352 29.3426 59.933 29.9236L60.6401 29.2164ZM59.4924 27.5146C59.2196 26.876 59.0816 26.1879 59.0816 25.445H58.0816C58.0816 26.3155 58.2442 27.138 58.5727 27.9074L59.4924 27.5146ZM59.0816 25.445C59.0816 24.7164 59.2161 24.0384 59.4824 23.406L58.5607 23.018C58.2403 23.779 58.0816 24.5896 58.0816 25.445H59.0816ZM59.4806 23.4101C59.7573 22.769 60.1335 22.2089 60.6096 21.7261L59.8975 21.0239C59.3323 21.5971 58.8871 22.2616 58.5625 23.0139L59.4806 23.4101ZM60.6071 21.7286C61.0897 21.246 61.6447 20.8714 62.2753 20.6031L61.8838 19.6829C61.1357 20.0012 60.4734 20.448 59.9 21.0214L60.6071 21.7286ZM62.2777 20.6021C62.9091 20.3296 63.5857 20.192 64.3126 20.192V19.192C63.4555 19.192 62.6434 19.3551 61.8814 19.6839L62.2777 20.6021ZM64.3126 20.192C65.1459 20.192 65.8484 20.3908 66.4395 20.7721L66.9816 19.9319C66.2087 19.4332 65.3126 19.192 64.3126 19.192V20.192ZM66.4427 20.7742C67.0558 21.1631 67.5416 21.6717 67.9047 22.3056L68.7724 21.8084C68.3289 21.0343 67.7294 20.4062 66.9784 19.9298L66.4427 20.7742ZM68.8384 22.0436L68.7834 19.9866L67.7837 20.0134L67.8387 22.0704L68.8384 22.0436ZM64.3786 30.29C65.2474 30.29 66.0231 30.0776 66.6824 29.6324L66.1227 28.8036C65.6527 29.121 65.0791 29.29 64.3786 29.29V30.29ZM66.6861 29.6299C67.3284 29.1877 67.8183 28.5954 68.1547 27.8652L67.2464 27.4468C66.9815 28.0219 66.606 28.471 66.1191 28.8061L66.6861 29.6299ZM68.1527 27.8694C68.4949 27.1443 68.6626 26.3519 68.6626 25.5H67.6626C67.6626 26.2174 67.5222 26.8623 67.2484 27.4426L68.1527 27.8694ZM68.6626 25.5C68.6626 24.6284 68.4958 23.8274 68.1518 23.1066L67.2493 23.5374C67.5213 24.1073 67.6626 24.7583 67.6626 25.5H68.6626ZM68.1527 23.1086C67.8088 22.3797 67.315 21.7913 66.6714 21.3566L66.1117 22.1854C66.5975 22.5134 66.9764 22.959 67.2484 23.5354L68.1527 23.1086ZM66.6714 21.3566C66.0128 20.9119 65.2411 20.699 64.3786 20.699V21.699C65.0707 21.699 65.641 21.8674 66.1117 22.1854L66.6714 21.3566ZM64.3786 20.699C63.5134 20.699 62.7124 20.9166 61.9866 21.3537L62.5025 22.2103C63.0674 21.8701 63.6891 21.699 64.3786 21.699V20.699ZM61.988 21.3528C61.2764 21.7782 60.707 22.3566 60.2838 23.0808L61.1473 23.5852C61.4868 23.0041 61.9367 22.5485 62.5011 22.2112L61.988 21.3528ZM60.2817 23.0844C59.8621 23.8168 59.6546 24.6256 59.6546 25.5H60.6546C60.6546 24.7904 60.8211 24.1545 61.1494 23.5816L60.2817 23.0844ZM59.6546 25.5C59.6546 26.3845 59.8708 27.1997 60.308 27.9338L61.1672 27.4222C60.827 26.851 60.6546 26.2142 60.6546 25.5H59.6546ZM60.3092 27.936C60.7397 28.6506 61.3116 29.2231 62.021 29.6472L62.5341 28.7888C61.9675 28.4502 61.5128 27.9961 61.1659 27.42L60.3092 27.936ZM62.0232 29.6485C62.7462 30.0757 63.5345 30.29 64.3786 30.29V29.29C63.712 29.29 63.0996 29.123 62.5319 28.7875L62.0232 29.6485ZM83.1949 20V19.5H82.6949V20H83.1949ZM84.7349 20H85.2349V19.5H84.7349V20ZM84.2729 33.387L83.8257 33.1634L83.8236 33.1677L84.2729 33.387ZM83.0409 35.004L82.709 34.63L82.7035 34.635L83.0409 35.004ZM81.2809 36.104L81.4666 36.5682L81.4666 36.5682L81.2809 36.104ZM77.0129 35.972L77.2347 35.5239L77.2309 35.522L77.0129 35.972ZM75.1539 34.586L74.782 34.9202L74.7844 34.9228L75.1539 34.586ZM74.0429 32.661L73.835 32.2063L73.4342 32.3896L73.5657 32.8101L74.0429 32.661ZM75.4619 32.012L75.9466 31.8892L75.7993 31.3079L75.254 31.5573L75.4619 32.012ZM76.2429 33.497L75.8651 33.8245L75.8655 33.8249L76.2429 33.497ZM77.6069 34.553L77.8305 34.1058L77.828 34.1045L77.6069 34.553ZM80.6869 34.663L80.5074 34.1962L80.4987 34.1998L80.6869 34.663ZM81.9629 33.904L81.6399 33.5223L81.6363 33.5254L81.9629 33.904ZM82.8649 32.771L82.4208 32.5413L82.4192 32.5444L82.8649 32.771ZM83.1949 28.976H83.6949L82.7574 28.734L83.1949 28.976ZM81.6439 30.648L81.3709 30.2291L81.3688 30.2305L81.6439 30.648ZM77.2109 30.835L77.0074 31.2917L77.0092 31.2925L77.2109 30.835ZM75.4289 29.592L75.068 29.9381L75.0704 29.9405L75.4289 29.592ZM74.2189 27.744L73.7564 27.9339L73.7581 27.938L74.2189 27.744ZM74.2189 23.256L73.7574 23.0637L73.7564 23.0661L74.2189 23.256ZM75.4289 21.408L75.7874 21.7565L75.7898 21.7541L75.4289 21.408ZM77.2109 20.154L77.0092 19.6965L77.0074 19.6973L77.2109 20.154ZM81.6439 20.341L81.3687 20.7585L81.3743 20.762L81.6439 20.341ZM83.1949 22.013L82.7563 22.2531L83.6949 22.013H83.1949ZM81.3689 29.196L81.0793 28.7884L81.0768 28.7902L81.3689 29.196ZM82.6559 27.623L83.11 27.8322L83.11 27.8322L82.6559 27.623ZM82.6449 23.355L82.1907 23.5642L82.1937 23.5704L82.6449 23.355ZM81.3579 21.793L81.0683 22.2006L81.0719 22.2031L81.3579 21.793ZM77.3539 21.782L77.6194 22.2057L77.6207 22.2049L77.3539 21.782ZM75.9019 23.333L75.4639 23.0919L75.4639 23.0919L75.9019 23.333ZM75.9129 27.667L75.477 27.9119L75.4782 27.914L75.9129 27.667ZM77.3759 29.218L77.1068 29.6395L77.1127 29.6431L77.3759 29.218ZM83.1949 20.5H84.7349V19.5H83.1949V20.5ZM84.2349 20V31.407H85.2349V20H84.2349ZM84.2349 31.407C84.2349 32.0352 84.0982 32.6184 83.8257 33.1634L84.7201 33.6106C85.0636 32.9236 85.2349 32.1868 85.2349 31.407H84.2349ZM83.8236 33.1677C83.552 33.724 83.1816 34.2107 82.7091 34.63L83.3728 35.378C83.9416 34.8733 84.3925 34.282 84.7222 33.6063L83.8236 33.1677ZM82.7035 34.635C82.2356 35.0628 81.7006 35.3976 81.0952 35.6398L81.4666 36.5682C82.1812 36.2824 82.8196 35.8839 83.3783 35.373L82.7035 34.635ZM81.0952 35.6398C80.4943 35.8801 79.8717 36 79.2239 36V37C79.9988 37 80.7475 36.8559 81.4666 36.5682L81.0952 35.6398ZM79.2239 36C78.5413 36 77.8799 35.8432 77.2347 35.5239L76.7912 36.4201C77.5685 36.8048 78.3812 37 79.2239 37V36ZM77.2309 35.522C76.5764 35.2049 76.0082 34.7811 75.5235 34.2492L74.7844 34.9228C75.3556 35.5496 76.0268 36.0498 76.7949 36.422L77.2309 35.522ZM75.5258 34.2518C75.0504 33.7228 74.7175 33.1435 74.5202 32.5119L73.5657 32.8101C73.8083 33.5865 74.2161 34.2905 74.782 34.9202L75.5258 34.2518ZM74.2509 33.1157L75.6699 32.4667L75.254 31.5573L73.835 32.2063L74.2509 33.1157ZM74.9772 32.1348C75.1362 32.7624 75.434 33.3271 75.8651 33.8245L76.6208 33.1695C76.2891 32.7869 76.0663 32.3616 75.9466 31.8892L74.9772 32.1348ZM75.8655 33.8249C76.2968 34.3214 76.8043 34.7148 77.3858 35.0015L77.828 34.1045C77.3682 33.8779 76.9664 33.5673 76.6203 33.1691L75.8655 33.8249ZM77.3833 35.0002C77.9755 35.2963 78.5907 35.449 79.2239 35.449V34.449C78.7572 34.449 78.2943 34.3377 77.8305 34.1058L77.3833 35.0002ZM79.2239 35.449C79.7945 35.449 80.3461 35.3412 80.8751 35.1262L80.4987 34.1998C80.0891 34.3662 79.6653 34.449 79.2239 34.449V35.449ZM80.8664 35.1297C81.395 34.9264 81.8705 34.6441 82.2895 34.2826L81.6363 33.5254C81.3074 33.8092 80.9322 34.033 80.5074 34.1963L80.8664 35.1297ZM82.2859 34.2857C82.7165 33.9213 83.0595 33.4914 83.3106 32.9976L82.4192 32.5444C82.2303 32.916 81.972 33.2414 81.6399 33.5223L82.2859 34.2857ZM83.309 33.0007C83.5662 32.5036 83.6949 31.97 83.6949 31.407H82.6949C82.6949 31.812 82.6037 32.1877 82.4208 32.5413L83.309 33.0007ZM83.6949 31.407V28.976H82.6949V31.407H83.6949ZM82.7574 28.734C82.4152 29.3526 81.9543 29.8489 81.3709 30.2291L81.9169 31.0669C82.6388 30.5964 83.212 29.978 83.6324 29.218L82.7574 28.734ZM81.3688 30.2305C80.814 30.5962 80.1603 30.786 79.3889 30.786V31.786C80.3336 31.786 81.1832 31.5505 81.9191 31.0655L81.3688 30.2305ZM79.3889 30.786C78.686 30.786 78.0289 30.6492 77.4126 30.3775L77.0092 31.2925C77.7569 31.6221 78.5518 31.786 79.3889 31.786V30.786ZM77.4144 30.3783C76.7977 30.1034 76.2563 29.7257 75.7874 29.2435L75.0704 29.9405C75.6282 30.5143 76.2748 30.9652 77.0074 31.2917L77.4144 30.3783ZM75.7898 29.2459C75.3196 28.7556 74.9498 28.1914 74.6797 27.55L73.7581 27.938C74.0747 28.69 74.5115 29.3577 75.068 29.9381L75.7898 29.2459ZM74.6815 27.5541C74.4217 26.9213 74.2899 26.2383 74.2899 25.5H73.2899C73.2899 26.3604 73.4441 27.1733 73.7564 27.9339L74.6815 27.5541ZM74.2899 25.5C74.2899 24.7617 74.4217 24.0787 74.6815 23.4459L73.7564 23.0661C73.4441 23.8267 73.2899 24.6396 73.2899 25.5H74.2899ZM74.6805 23.4483C74.9505 22.8003 75.3195 22.2378 75.7874 21.7565L75.0704 21.0595C74.5116 21.6342 74.074 22.3037 73.7574 23.0637L74.6805 23.4483ZM75.7898 21.7541C76.2585 21.2652 76.7991 20.8849 77.4144 20.6107L77.0074 19.6973C76.2733 20.0244 75.626 20.4801 75.068 21.0619L75.7898 21.7541ZM77.4126 20.6115C78.0289 20.3398 78.686 20.203 79.3889 20.203V19.203C78.5518 19.203 77.7569 19.3669 77.0092 19.6965L77.4126 20.6115ZM79.3889 20.203C80.1603 20.203 80.814 20.3928 81.3688 20.7585L81.9191 19.9235C81.1832 19.4385 80.3336 19.203 79.3889 19.203V20.203ZM81.3743 20.762C81.9545 21.1337 82.4142 21.628 82.7563 22.2531L83.6335 21.7729C83.213 21.0046 82.6386 20.3843 81.9136 19.9199L81.3743 20.762ZM83.6949 22.013V20H82.6949V22.013H83.6949ZM79.3999 30.29C80.2537 30.29 81.0155 30.0666 81.6611 29.6018L81.0768 28.7902C80.6223 29.1174 80.0714 29.29 79.3999 29.29V30.29ZM81.6585 29.6036C82.2908 29.1544 82.7748 28.56 83.11 27.8322L82.2018 27.4138C81.9357 27.9913 81.5617 28.4456 81.0793 28.7884L81.6585 29.6036ZM83.11 27.8322C83.4428 27.11 83.6069 26.3304 83.6069 25.5H82.6069C82.6069 26.195 82.4704 26.8307 82.2018 27.4138L83.11 27.8322ZM83.6069 25.5C83.6069 24.6482 83.4393 23.8586 83.0962 23.1396L82.1937 23.5704C82.4666 24.1421 82.6069 24.7825 82.6069 25.5H83.6069ZM83.099 23.1458C82.7634 22.4172 82.2784 21.8253 81.6439 21.3829L81.0719 22.2031C81.5521 22.538 81.9251 22.9874 82.1908 23.5642L83.099 23.1458ZM81.6475 21.3854C80.9976 20.9236 80.2414 20.699 79.3999 20.699V21.699C80.0544 21.699 80.6036 21.8704 81.0683 22.2006L81.6475 21.3854ZM79.3999 20.699C78.5602 20.699 77.7852 20.9187 77.0871 21.3591L77.6207 22.2049C78.1546 21.868 78.7437 21.699 79.3999 21.699V20.699ZM77.0885 21.3583C76.4049 21.7865 75.8627 22.3675 75.4639 23.0919L76.3399 23.5741C76.6598 22.9931 77.0856 22.5401 77.6194 22.2057L77.0885 21.3583ZM75.4639 23.0919C75.0613 23.8231 74.8629 24.6292 74.8629 25.5H75.8629C75.8629 24.7868 76.0238 24.1483 76.3399 23.5741L75.4639 23.0919ZM74.8629 25.5C74.8629 26.3726 75.0659 27.1801 75.477 27.9119L76.3488 27.4221C76.0266 26.8486 75.8629 26.2114 75.8629 25.5H74.8629ZM75.4782 27.914C75.8839 28.628 76.4276 29.2057 77.1068 29.6394L77.645 28.7966C77.1069 28.453 76.6753 27.9966 76.3476 27.42L75.4782 27.914ZM77.1127 29.6431C77.8088 30.074 78.5748 30.29 79.3999 30.29V29.29C78.7584 29.29 78.175 29.1246 77.6391 28.7929L77.1127 29.6431ZM89.4331 20V19.5H88.9331V20H89.4331ZM90.9731 20H91.4731V19.5H90.9731V20ZM91.4131 28.118L91.8424 27.8617L91.8424 27.8617L91.4131 28.118ZM92.5901 29.295L92.3338 29.7243L92.3366 29.726L92.5901 29.295ZM95.8571 29.295L95.6008 28.8657L95.598 28.8674L95.8571 29.295ZM97.0341 28.118L96.6048 27.8617L96.6048 27.8617L97.0341 28.118ZM97.4741 20V19.5H96.9741V20H97.4741ZM99.0141 20L99.5141 19.9995L99.5136 19.5H99.0141V20ZM99.0251 31V31.5H99.5256L99.5251 30.9995L99.0251 31ZM97.4851 31L96.9851 31.0036L96.9887 31.5H97.4851V31ZM97.4741 29.46L97.9741 29.4564L97.9629 27.885L97.064 29.174L97.4741 29.46ZM95.9561 30.791L95.7222 30.3491L95.72 30.3503L95.9561 30.791ZM91.6661 30.681L91.9207 30.2506L91.9207 30.2506L91.6661 30.681ZM90.0381 29.053L89.6078 29.3075L89.6078 29.3075L90.0381 29.053ZM89.9331 26.787V20H88.9331V26.787H89.9331ZM89.4331 20.5H90.9731V19.5H89.4331V20.5ZM90.4731 20V26.479H91.4731V20H90.4731ZM90.4731 26.479C90.4731 27.1658 90.6418 27.8015 90.9838 28.3743L91.8424 27.8617C91.5978 27.4519 91.4731 26.9949 91.4731 26.479H90.4731ZM90.9838 28.3743C91.3196 28.9367 91.7714 29.3885 92.3338 29.7243L92.8464 28.8657C92.4262 28.6148 92.0933 28.2819 91.8424 27.8617L90.9838 28.3743ZM92.3366 29.726C92.9142 30.0657 93.5485 30.235 94.2291 30.235V29.235C93.7218 29.235 93.2633 29.1109 92.8436 28.864L92.3366 29.726ZM94.2291 30.235C94.9159 30.235 95.5492 30.0663 96.1163 29.7226L95.598 28.8674C95.1971 29.1104 94.745 29.235 94.2291 29.235V30.235ZM96.1134 29.7243C96.6759 29.3885 97.1277 28.9367 97.4634 28.3743L96.6048 27.8617C96.3539 28.2819 96.0211 28.6148 95.6008 28.8657L96.1134 29.7243ZM97.4634 28.3743C97.8054 27.8015 97.9741 27.1658 97.9741 26.479H96.9741C96.9741 26.9949 96.8495 27.4519 96.6048 27.8617L97.4634 28.3743ZM97.9741 26.479V20H96.9741V26.479H97.9741ZM97.4741 20.5H99.0141V19.5H97.4741V20.5ZM98.5141 20.0005L98.5251 31.0005L99.5251 30.9995L99.5141 19.9995L98.5141 20.0005ZM99.0251 30.5H97.4851V31.5H99.0251V30.5ZM97.9851 30.9964L97.9741 29.4564L96.9741 29.4636L96.9851 31.0036L97.9851 30.9964ZM97.064 29.174C96.7226 29.6636 96.278 30.0549 95.7222 30.3491L96.1901 31.2329C96.8809 30.8671 97.4483 30.3711 97.8843 29.746L97.064 29.174ZM95.72 30.3503C95.1803 30.6394 94.5873 30.786 93.9321 30.786V31.786C94.7436 31.786 95.5 31.6026 96.1922 31.2317L95.72 30.3503ZM93.9321 30.786C93.1887 30.786 92.522 30.6062 91.9207 30.2506L91.4116 31.1114C92.1743 31.5624 93.0182 31.786 93.9321 31.786V30.786ZM91.9207 30.2506C91.3111 29.8902 90.829 29.408 90.4685 28.7985L89.6078 29.3075C90.054 30.062 90.6571 30.6652 91.4116 31.1114L91.9207 30.2506ZM90.4685 28.7985C90.1129 28.1972 89.9331 27.5304 89.9331 26.787H88.9331C88.9331 27.7009 89.1567 28.5448 89.6078 29.3075L90.4685 28.7985ZM107.256 31.209L107.271 30.7092L107.268 30.7091L107.256 31.209ZM105.496 30.879L105.665 30.4084L105.665 30.4084L105.496 30.879ZM104 30.043L103.681 30.4282L103.681 30.4282L104 30.043ZM103.087 28.844L102.889 28.3846L102.438 28.5787L102.624 29.0336L103.087 28.844ZM104.418 28.272L104.88 28.0822L104.688 27.6119L104.22 27.8126L104.418 28.272ZM105.067 29.064L104.762 29.4608L104.773 29.4684L105.067 29.064ZM106.167 29.636L105.999 30.1069L106.006 30.1095L106.167 29.636ZM108.642 29.625L108.465 29.1572L108.465 29.1572L108.642 29.625ZM109.588 28.998L109.215 28.6646L109.215 28.6652L109.588 28.998ZM109.566 27.073L109.234 27.4468L109.24 27.4519L109.566 27.073ZM108.565 26.523L108.402 26.9957L108.409 26.9982L108.565 26.523ZM107.322 26.127L107.463 25.6471L107.454 25.6447L107.322 26.127ZM105.265 25.423L105.067 25.882L105.067 25.882L105.265 25.423ZM103.868 24.444L103.481 24.7607L103.487 24.7682L103.868 24.444ZM103.934 21.166L103.539 20.8594L103.538 20.8603L103.934 21.166ZM105.419 20.033L105.618 20.4917L105.62 20.4906L105.419 20.033ZM109.83 20.209L109.596 20.6508L109.598 20.6517L109.83 20.209ZM111.436 21.76L111.691 22.1901L112.095 21.9505L111.881 21.5324L111.436 21.76ZM110.193 22.497L109.735 22.698L109.962 23.2151L110.448 22.9271L110.193 22.497ZM109.566 21.716L109.871 21.3197L109.871 21.3197L109.566 21.716ZM108.587 21.199L108.423 21.6714L108.426 21.6724L108.587 21.199ZM107.487 21.001L107.497 20.5011L107.495 20.5011L107.487 21.001ZM106.178 21.21L106.341 21.6827L106.349 21.6799L106.178 21.21ZM105.199 21.837L104.826 21.5036L104.821 21.5092L105.199 21.837ZM105.199 23.784L104.869 24.1596L104.875 24.1653L105.199 23.784ZM106.178 24.29L106.025 24.7661L106.035 24.7691L106.178 24.29ZM107.586 24.73L107.432 25.2057L107.434 25.2064L107.586 24.73ZM109.467 25.456L109.677 25.0022L109.677 25.0022L109.467 25.456ZM110.886 26.468L111.259 26.1354L111.259 26.1354L110.886 26.468ZM111.414 27.997L110.914 27.991V27.997H111.414ZM110.82 29.724L110.431 29.4102L110.431 29.4102L110.82 29.724ZM109.28 30.857L109.468 31.3201L109.473 31.3182L109.28 30.857ZM107.268 30.7091C106.721 30.6958 106.187 30.5959 105.665 30.4084L105.327 31.3496C105.949 31.5728 106.588 31.6929 107.244 31.7089L107.268 30.7091ZM105.665 30.4084C105.142 30.2207 104.695 29.9693 104.319 29.6578L103.681 30.4282C104.155 30.8207 104.706 31.1267 105.327 31.3496L105.665 30.4084ZM104.319 29.6578C103.948 29.3507 103.698 29.0155 103.55 28.6544L102.624 29.0336C102.843 29.5672 103.202 30.0313 103.681 30.4282L104.319 29.6578ZM103.284 29.3034L104.615 28.7314L104.22 27.8126L102.889 28.3846L103.284 29.3034ZM103.955 28.4618C104.114 28.8497 104.397 29.1799 104.762 29.4607L105.371 28.6673C105.106 28.4641 104.956 28.2663 104.88 28.0822L103.955 28.4618ZM104.773 29.4684C105.137 29.7336 105.547 29.9456 105.999 30.1069L106.335 29.1651C105.965 29.033 105.642 28.8638 105.361 28.6596L104.773 29.4684ZM106.006 30.1095C106.465 30.2651 106.926 30.345 107.388 30.345V29.345C107.043 29.345 106.69 29.2856 106.328 29.1625L106.006 30.1095ZM107.388 30.345C107.891 30.345 108.369 30.2623 108.818 30.0928L108.465 29.1572C108.137 29.281 107.78 29.345 107.388 29.345V30.345ZM108.818 30.0928C109.272 29.9217 109.658 29.6704 109.961 29.3308L109.215 28.6652C109.034 28.8682 108.789 29.0349 108.465 29.1572L108.818 30.0928ZM109.961 29.3314C110.292 28.961 110.462 28.516 110.462 28.019H109.462C109.462 28.27 109.383 28.4776 109.215 28.6646L109.961 29.3314ZM110.462 28.019C110.462 27.4956 110.284 27.0319 109.892 26.6941L109.24 27.4519C109.375 27.5688 109.462 27.7358 109.462 28.019H110.462ZM109.898 26.6993C109.574 26.4108 109.176 26.1969 108.72 26.0478L108.409 26.9982C108.76 27.1131 109.03 27.2659 109.234 27.4467L109.898 26.6993ZM108.728 26.0504C108.317 25.9084 107.895 25.774 107.463 25.6472L107.181 26.6068C107.599 26.7293 108.006 26.8589 108.402 26.9956L108.728 26.0504ZM107.454 25.6447C106.694 25.4368 106.031 25.2094 105.463 24.964L105.067 25.882C105.687 26.1499 106.395 26.3918 107.19 26.6093L107.454 25.6447ZM105.463 24.964C104.923 24.7305 104.526 24.445 104.249 24.1198L103.487 24.7682C103.885 25.235 104.419 25.6022 105.067 25.882L105.463 24.964ZM104.255 24.1274C104.012 23.8311 103.873 23.4334 103.873 22.893H102.873C102.873 23.6139 103.063 24.2503 103.481 24.7606L104.255 24.1274ZM103.873 22.893C103.873 22.3256 104.029 21.8601 104.33 21.4717L103.538 20.8603C103.09 21.4399 102.873 22.1257 102.873 22.893H103.873ZM104.329 21.4726C104.655 21.052 105.081 20.7246 105.618 20.4917L105.22 19.5743C104.539 19.8694 103.975 20.2973 103.539 20.8594L104.329 21.4726ZM105.62 20.4906C106.171 20.2482 106.758 20.126 107.388 20.126V19.126C106.624 19.126 105.899 19.2751 105.217 19.5754L105.62 20.4906ZM107.388 20.126C108.207 20.126 108.94 20.3033 109.596 20.6508L110.064 19.7672C109.253 19.3374 108.358 19.126 107.388 19.126V20.126ZM109.598 20.6517C110.261 21.0001 110.715 21.4479 110.991 21.9876L111.881 21.5324C111.497 20.7814 110.88 20.1953 110.062 19.7663L109.598 20.6517ZM111.181 21.3299L109.938 22.0669L110.448 22.9271L111.691 22.1901L111.181 21.3299ZM110.651 22.296C110.482 21.911 110.217 21.5857 109.871 21.3197L109.261 22.1123C109.487 22.2863 109.64 22.4817 109.735 22.698L110.651 22.296ZM109.871 21.3197C109.538 21.0639 109.163 20.8666 108.748 20.7256L108.426 21.6724C108.745 21.7807 109.022 21.9281 109.261 22.1123L109.871 21.3197ZM108.751 20.7266C108.343 20.585 107.924 20.5095 107.497 20.5011L107.477 21.5009C107.798 21.5072 108.112 21.5636 108.423 21.6714L108.751 20.7266ZM107.495 20.5011C106.97 20.4929 106.473 20.5708 106.007 20.7401L106.349 21.6799C106.69 21.5559 107.065 21.4945 107.479 21.5009L107.495 20.5011ZM106.015 20.7374C105.542 20.9006 105.14 21.153 104.826 21.5036L105.572 22.1704C105.756 21.9637 106.007 21.7981 106.341 21.6826L106.015 20.7374ZM104.821 21.5092C104.493 21.8875 104.336 22.3482 104.336 22.86H105.336C105.336 22.5651 105.421 22.3438 105.576 22.1648L104.821 21.5092ZM104.336 22.86C104.336 23.3681 104.493 23.8289 104.869 24.1596L105.529 23.4084C105.421 23.3137 105.336 23.1586 105.336 22.86H104.336ZM104.875 24.1653C105.182 24.4254 105.573 24.6207 106.025 24.766L106.331 23.814C105.962 23.6953 105.7 23.5533 105.522 23.4027L104.875 24.1653ZM106.035 24.7691C106.448 24.8925 106.914 25.0379 107.432 25.2057L107.74 24.2543C107.216 24.0848 106.743 23.9369 106.321 23.8109L106.035 24.7691ZM107.434 25.2064C108.083 25.4133 108.691 25.6479 109.257 25.9098L109.677 25.0022C109.07 24.7214 108.423 24.4721 107.738 24.2536L107.434 25.2064ZM109.257 25.9098C109.793 26.1579 110.207 26.4575 110.513 26.8006L111.259 26.1354C110.846 25.6719 110.314 25.2967 109.677 25.0022L109.257 25.9098ZM110.513 26.8006C110.777 27.0977 110.92 27.481 110.914 27.991L111.914 28.003C111.922 27.281 111.713 26.645 111.259 26.1354L110.513 26.8006ZM110.914 27.997C110.914 28.5485 110.751 29.0121 110.431 29.4102L111.209 30.0378C111.68 29.4532 111.914 28.7655 111.914 27.997H110.914ZM110.431 29.4102C110.091 29.8316 109.647 30.1611 109.087 30.3958L109.473 31.3182C110.174 31.0249 110.757 30.5991 111.209 30.0378L110.431 29.4102ZM109.091 30.3939C108.529 30.6228 107.924 30.7292 107.271 30.7092L107.241 31.7088C108.025 31.7328 108.769 31.6045 109.468 31.3201L109.091 30.3939Z" fill="#8F00FF"/>
</svg>
