<svg width="263" height="12" viewBox="0 0 263 12" fill="none" xmlns="http://www.w3.org/2000/svg">
<path d="M0.597748 11V0.499999H1.64775V11H0.597748ZM5.09365 11V0.499999H6.23365L11.7761 9.1025V0.499999H12.8261V11H11.6936L6.14365 2.3975V11H5.09365ZM16.0548 11V0.499999H19.5273C20.2523 0.499999 20.9323 0.637499 21.5673 0.9125C22.2023 1.1825 22.7598 1.56 23.2398 2.045C23.7198 2.525 24.0948 3.0825 24.3648 3.7175C24.6398 4.3475 24.7773 5.025 24.7773 5.75C24.7773 6.475 24.6398 7.155 24.3648 7.79C24.0948 8.42 23.7198 8.9775 23.2398 9.4625C22.7598 9.9425 22.2023 10.32 21.5673 10.595C20.9323 10.865 20.2523 11 19.5273 11H16.0548ZM17.1048 9.95H19.5273C20.1073 9.95 20.6498 9.8425 21.1548 9.6275C21.6648 9.4075 22.1123 9.105 22.4973 8.72C22.8823 8.335 23.1823 7.89 23.3973 7.385C23.6173 6.875 23.7273 6.33 23.7273 5.75C23.7273 5.17 23.6173 4.6275 23.3973 4.1225C23.1823 3.6125 22.8798 3.165 22.4898 2.78C22.1048 2.395 21.6598 2.095 21.1548 1.88C20.6498 1.66 20.1073 1.55 19.5273 1.55H17.1048V9.95ZM27.8122 11V0.499999H28.8622V11H27.8122ZM35.8256 0.499999H37.1306L40.9556 11H39.8381L39.0206 8.75H33.9431L33.1256 11H32.0081L35.8256 0.499999ZM34.3256 7.7H38.6306L36.4781 1.79L34.3256 7.7ZM67.666 11.195C67.106 11.195 66.5635 11.1075 66.0385 10.9325C65.5185 10.7575 65.0635 10.5075 64.6735 10.1825C64.2835 9.8575 64.0085 9.47 63.8485 9.02L64.831 8.6525C64.941 8.9625 65.141 9.23 65.431 9.455C65.726 9.675 66.0685 9.845 66.4585 9.965C66.8535 10.085 67.256 10.145 67.666 10.145C68.146 10.145 68.5935 10.065 69.0085 9.905C69.4235 9.745 69.7585 9.5225 70.0135 9.2375C70.2685 8.9475 70.396 8.6075 70.396 8.2175C70.396 7.8225 70.2635 7.4975 69.9985 7.2425C69.7335 6.9875 69.391 6.7875 68.971 6.6425C68.556 6.4925 68.121 6.3775 67.666 6.2975C66.951 6.1725 66.3085 6.0025 65.7385 5.7875C65.1735 5.5725 64.726 5.27 64.396 4.88C64.066 4.485 63.901 3.965 63.901 3.32C63.901 2.715 64.076 2.19 64.426 1.745C64.776 1.3 65.236 0.954999 65.806 0.709999C66.381 0.464999 67.001 0.342499 67.666 0.342499C68.211 0.342499 68.7435 0.427499 69.2635 0.597499C69.7835 0.7675 70.241 1.015 70.636 1.34C71.036 1.665 71.3235 2.0625 71.4985 2.5325L70.501 2.8925C70.391 2.5775 70.1885 2.31 69.8935 2.09C69.6035 1.865 69.2635 1.695 68.8735 1.58C68.4835 1.46 68.081 1.4 67.666 1.4C67.191 1.395 66.746 1.475 66.331 1.64C65.921 1.8 65.5885 2.025 65.3335 2.315C65.0785 2.6 64.951 2.935 64.951 3.32C64.951 3.77 65.0685 4.1175 65.3035 4.3625C65.5435 4.6025 65.8685 4.7825 66.2785 4.9025C66.6885 5.0225 67.151 5.13 67.666 5.225C68.336 5.34 68.9585 5.52 69.5335 5.765C70.1085 6.005 70.571 6.3275 70.921 6.7325C71.271 7.1325 71.446 7.6275 71.446 8.2175C71.446 8.8175 71.271 9.3425 70.921 9.7925C70.571 10.2375 70.1085 10.5825 69.5335 10.8275C68.9635 11.0725 68.341 11.195 67.666 11.195ZM76.5698 11L73.8848 0.499999H74.9648L77.1848 9.1925L79.3973 0.499999H80.3273L82.5473 9.1925L84.7598 0.499999H85.8398L83.1698 11H81.9248L79.8623 2.9375L77.7998 11H76.5698ZM88.8411 11V0.499999H89.8911V11H88.8411ZM101.28 0.499999V1.55H97.6795V11H96.6295V1.55H93.037V0.499999H101.28ZM103.91 11V9.95L110.998 1.55H103.91V0.499999H112.4V1.55L105.313 9.95H112.4V11H103.91ZM115.318 11V0.499999H121.708V1.55H116.368V4.85H120.785V5.9H116.368V9.95H121.708V11H115.318ZM124.887 11V0.499999H128.45C129.01 0.499999 129.515 0.637499 129.965 0.9125C130.415 1.1825 130.772 1.55 131.037 2.015C131.302 2.475 131.435 2.9925 131.435 3.5675C131.435 4.0825 131.33 4.55 131.12 4.97C130.91 5.39 130.622 5.7375 130.257 6.0125C129.897 6.2875 129.49 6.47 129.035 6.56L131.6 11H130.385L127.857 6.6425H125.937V11H124.887ZM125.937 5.5925H128.36C128.73 5.5925 129.067 5.5025 129.372 5.3225C129.682 5.1375 129.927 4.89 130.107 4.58C130.292 4.265 130.385 3.91 130.385 3.515C130.385 3.12 130.292 2.7675 130.107 2.4575C129.927 2.1425 129.682 1.895 129.372 1.715C129.067 1.53 128.73 1.4375 128.36 1.4375H125.937V5.5925ZM134.882 11V0.499999H135.932V9.95H140.754V11H134.882ZM147.075 0.499999H148.38L152.205 11H151.088L150.27 8.75H145.193L144.375 11H143.258L147.075 0.499999ZM145.575 7.7H149.88L147.728 1.79L145.575 7.7ZM155.032 11V0.499999H156.172L161.714 9.1025V0.499999H162.764V11H161.632L156.082 2.3975V11H155.032ZM165.993 11V0.499999H169.465C170.19 0.499999 170.87 0.637499 171.505 0.9125C172.14 1.1825 172.698 1.56 173.178 2.045C173.658 2.525 174.033 3.0825 174.303 3.7175C174.578 4.3475 174.715 5.025 174.715 5.75C174.715 6.475 174.578 7.155 174.303 7.79C174.033 8.42 173.658 8.9775 173.178 9.4625C172.698 9.9425 172.14 10.32 171.505 10.595C170.87 10.865 170.19 11 169.465 11H165.993ZM167.043 9.95H169.465C170.045 9.95 170.588 9.8425 171.093 9.6275C171.603 9.4075 172.05 9.105 172.435 8.72C172.82 8.335 173.12 7.89 173.335 7.385C173.555 6.875 173.665 6.33 173.665 5.75C173.665 5.17 173.555 4.6275 173.335 4.1225C173.12 3.6125 172.818 3.165 172.428 2.78C172.043 2.395 171.598 2.095 171.093 1.88C170.588 1.66 170.045 1.55 169.465 1.55H167.043V9.95ZM202.47 11.195C201.76 11.195 201.092 11.055 200.467 10.775C199.842 10.49 199.292 10.1 198.817 9.605C198.347 9.105 197.977 8.525 197.707 7.865C197.442 7.205 197.31 6.5 197.31 5.75C197.31 5 197.442 4.295 197.707 3.635C197.977 2.975 198.347 2.3975 198.817 1.9025C199.292 1.4025 199.842 1.0125 200.467 0.732499C201.092 0.447499 201.76 0.304999 202.47 0.304999C203.32 0.304999 204.102 0.502499 204.817 0.897499C205.532 1.2925 206.125 1.8175 206.595 2.4725L205.665 2.975C205.295 2.48 204.825 2.0875 204.255 1.7975C203.69 1.5025 203.095 1.355 202.47 1.355C201.895 1.355 201.357 1.4725 200.857 1.7075C200.362 1.9375 199.927 2.255 199.552 2.66C199.177 3.065 198.885 3.5325 198.675 4.0625C198.465 4.5925 198.36 5.155 198.36 5.75C198.36 6.355 198.465 6.9225 198.675 7.4525C198.89 7.9825 199.185 8.45 199.56 8.855C199.94 9.26 200.377 9.5775 200.872 9.8075C201.372 10.0325 201.905 10.145 202.47 10.145C203.12 10.145 203.722 9.9975 204.277 9.7025C204.837 9.4025 205.3 9.0125 205.665 8.5325L206.595 9.035C206.125 9.69 205.532 10.215 204.817 10.61C204.102 11 203.32 11.195 202.47 11.195ZM212.982 0.499999H214.287L218.112 11H216.995L216.177 8.75H211.1L210.282 11H209.165L212.982 0.499999ZM211.482 7.7H215.787L213.635 1.79L211.482 7.7ZM220.938 11V0.499999H222.078L227.621 9.1025V0.499999H228.671V11H227.538L221.988 2.3975V11H220.938ZM235.417 0.499999H236.722L240.547 11H239.43L238.612 8.75H233.535L232.717 11H231.6L235.417 0.499999ZM233.917 7.7H238.222L236.07 1.79L233.917 7.7ZM243.373 11V0.499999H246.846C247.571 0.499999 248.251 0.637499 248.886 0.9125C249.521 1.1825 250.078 1.56 250.558 2.045C251.038 2.525 251.413 3.0825 251.683 3.7175C251.958 4.3475 252.096 5.025 252.096 5.75C252.096 6.475 251.958 7.155 251.683 7.79C251.413 8.42 251.038 8.9775 250.558 9.4625C250.078 9.9425 249.521 10.32 248.886 10.595C248.251 10.865 247.571 11 246.846 11H243.373ZM244.423 9.95H246.846C247.426 9.95 247.968 9.8425 248.473 9.6275C248.983 9.4075 249.431 9.105 249.816 8.72C250.201 8.335 250.501 7.89 250.716 7.385C250.936 6.875 251.046 6.33 251.046 5.75C251.046 5.17 250.936 4.6275 250.716 4.1225C250.501 3.6125 250.198 3.165 249.808 2.78C249.423 2.395 248.978 2.095 248.473 1.88C247.968 1.66 247.426 1.55 246.846 1.55H244.423V9.95ZM257.793 0.499999H259.098L262.923 11H261.806L260.988 8.75H255.911L255.093 11H253.976L257.793 0.499999ZM256.293 7.7H260.598L258.446 1.79L256.293 7.7Z" fill="black"/>
</svg>
