<svg width="203" height="38" viewBox="0 0 203 38" fill="none" xmlns="http://www.w3.org/2000/svg">
<rect width="203" height="38" rx="19" fill="#8F00FF"/>
<path d="M30.534 19.713V25H29.106V20.0275C29.106 19.5968 29.0012 19.2058 28.7915 18.8545C28.5818 18.5032 28.3013 18.2255 27.95 18.0215C27.5987 17.8118 27.2077 17.707 26.777 17.707C26.352 17.707 25.961 17.8118 25.604 18.0215C25.2527 18.2255 24.9722 18.5032 24.7625 18.8545C24.5528 19.2058 24.448 19.5968 24.448 20.0275V25H23.02V12.25H24.448V17.5625C24.7483 17.1658 25.128 16.8513 25.587 16.619C26.046 16.381 26.5447 16.262 27.083 16.262C27.7177 16.262 28.2957 16.4178 28.817 16.7295C29.344 17.0355 29.7605 17.4492 30.0665 17.9705C30.3782 18.4918 30.534 19.0727 30.534 19.713ZM35.8079 25.221C35.0259 25.221 34.3119 25.0198 33.6659 24.6175C33.0255 24.2152 32.5127 23.6768 32.1274 23.0025C31.7477 22.3225 31.5579 21.5717 31.5579 20.75C31.5579 20.1267 31.6684 19.5458 31.8894 19.0075C32.1104 18.4635 32.4135 17.9875 32.7989 17.5795C33.1899 17.1658 33.6432 16.8428 34.1589 16.6105C34.6745 16.3782 35.2242 16.262 35.8079 16.262C36.4482 16.262 37.0347 16.3923 37.5674 16.653C38.1057 16.908 38.5647 17.265 38.9444 17.724C39.3297 18.183 39.6159 18.7157 39.8029 19.322C39.9955 19.9283 40.0664 20.5772 40.0154 21.2685H33.0794C33.1474 21.7502 33.306 22.1808 33.5554 22.5605C33.8047 22.9345 34.122 23.232 34.5074 23.453C34.8984 23.674 35.3319 23.7873 35.8079 23.793C36.3179 23.793 36.7797 23.6627 37.1934 23.402C37.607 23.1357 37.9414 22.773 38.1964 22.314L39.6499 22.654C39.3099 23.4077 38.797 24.0253 38.1114 24.507C37.4257 24.983 36.6579 25.221 35.8079 25.221ZM33.0369 20.1465H38.5789C38.5335 19.6705 38.3805 19.237 38.1199 18.846C37.8592 18.4493 37.5277 18.132 37.1254 17.894C36.723 17.656 36.2839 17.537 35.8079 17.537C35.3319 17.537 34.8955 17.6532 34.4989 17.8855C34.1022 18.1178 33.7735 18.4323 33.5129 18.829C33.2579 19.22 33.0992 19.6592 33.0369 20.1465ZM41.3647 25V12.25H42.7927V25H41.3647ZM44.8345 25V12.25H46.2625V25H44.8345ZM51.9612 25.221C51.1792 25.221 50.4652 25.0198 49.8192 24.6175C49.1788 24.2152 48.666 23.6768 48.2807 23.0025C47.901 22.3225 47.7112 21.5717 47.7112 20.75C47.7112 20.1267 47.8217 19.5458 48.0427 19.0075C48.2637 18.4635 48.5668 17.9875 48.9522 17.5795C49.3432 17.1658 49.7965 16.8428 50.3122 16.6105C50.8278 16.3782 51.3775 16.262 51.9612 16.262C52.7432 16.262 53.4543 16.4632 54.0947 16.8655C54.7407 17.2678 55.2535 17.809 55.6332 18.489C56.0185 19.169 56.2112 19.9227 56.2112 20.75C56.2112 21.3677 56.1007 21.9457 55.8797 22.484C55.6587 23.0223 55.3527 23.4983 54.9617 23.912C54.5763 24.32 54.1258 24.6402 53.6102 24.8725C53.1002 25.1048 52.5505 25.221 51.9612 25.221ZM51.9612 23.793C52.4938 23.793 52.9727 23.6542 53.3977 23.3765C53.8283 23.0932 54.1655 22.722 54.4092 22.263C54.6585 21.7983 54.7832 21.294 54.7832 20.75C54.7832 20.1947 54.6557 19.6847 54.4007 19.22C54.1513 18.7553 53.8142 18.3842 53.3892 18.1065C52.9642 17.8288 52.4882 17.69 51.9612 17.69C51.4285 17.69 50.9497 17.8317 50.5247 18.115C50.0997 18.3927 49.7625 18.7638 49.5132 19.2285C49.2638 19.6932 49.1392 20.2003 49.1392 20.75C49.1392 21.3167 49.2667 21.8323 49.5217 22.297C49.7767 22.756 50.1195 23.1215 50.5502 23.3935C50.9808 23.6598 51.4512 23.793 51.9612 23.793ZM64.1939 26.7255C63.2532 26.7255 62.372 26.5697 61.5504 26.258C60.7287 25.9463 60.0062 25.5043 59.3829 24.932C58.7595 24.354 58.2722 23.674 57.9209 22.892C57.5695 22.11 57.3939 21.2515 57.3939 20.3165C57.3939 19.3815 57.5695 18.5032 57.9209 17.6815C58.2722 16.8598 58.7595 16.1373 59.3829 15.514C60.0062 14.8907 60.7287 14.4033 61.5504 14.052C62.372 13.7007 63.2532 13.525 64.1939 13.525C65.1402 13.525 66.0242 13.7035 66.8459 14.0605C67.6675 14.4118 68.3872 14.8992 69.0049 15.5225C69.6282 16.1458 70.1127 16.8683 70.4584 17.69C70.8097 18.506 70.9854 19.3815 70.9854 20.3165C70.9854 20.8038 70.923 21.2883 70.7984 21.77C70.6794 22.246 70.5037 22.6795 70.2714 23.0705C70.0447 23.4615 69.7614 23.776 69.4214 24.014C69.087 24.2463 68.7045 24.3625 68.2739 24.3625C67.9395 24.3625 67.608 24.2888 67.2794 24.1415C66.9564 23.9885 66.6815 23.7817 66.4549 23.521C66.2339 23.2603 66.1064 22.9713 66.0724 22.654C65.84 22.9713 65.5425 23.2263 65.1799 23.419C64.8229 23.606 64.412 23.6995 63.9474 23.6995C63.3297 23.6995 62.763 23.5493 62.2474 23.249C61.7374 22.943 61.3294 22.535 61.0234 22.025C60.723 21.5093 60.5729 20.9398 60.5729 20.3165C60.5729 19.6932 60.723 19.1265 61.0234 18.6165C61.3294 18.1065 61.7374 17.7013 62.2474 17.401C62.763 17.095 63.3297 16.942 63.9474 16.942C64.395 16.942 64.8144 17.0327 65.2054 17.214C65.602 17.3953 65.9109 17.6362 66.1319 17.9365V17.112L67.2454 17.3075V22.0505C67.2454 22.3055 67.3417 22.518 67.5344 22.688C67.727 22.8523 67.948 22.9345 68.1974 22.9345C68.5147 22.9345 68.7725 22.7957 68.9709 22.518C69.1749 22.2347 69.3222 21.8918 69.4129 21.4895C69.5092 21.0815 69.5574 20.6905 69.5574 20.3165C69.5574 19.5742 69.4157 18.88 69.1324 18.234C68.8547 17.5823 68.4694 17.0128 67.9764 16.5255C67.4834 16.0325 66.9139 15.6472 66.2679 15.3695C65.6219 15.0918 64.9305 14.953 64.1939 14.953C63.4572 14.953 62.763 15.0918 62.1114 15.3695C61.4654 15.6472 60.8959 16.0325 60.4029 16.5255C59.9099 17.0128 59.5217 17.5823 59.2384 18.234C58.9607 18.88 58.8219 19.5742 58.8219 20.3165C58.8219 21.0588 58.9607 21.736 59.2384 22.348C59.516 22.9543 59.9014 23.4785 60.3944 23.9205C60.8874 24.3625 61.4569 24.7053 62.1029 24.949C62.7545 25.187 63.4515 25.306 64.1939 25.306V26.7255ZM64.0494 22.586C64.4687 22.586 64.8314 22.4727 65.1374 22.246C65.4434 22.0193 65.6814 21.7275 65.8514 21.3705C66.0214 21.0078 66.1064 20.6282 66.1064 20.2315C66.1064 19.8518 66.027 19.4977 65.8684 19.169C65.7097 18.8347 65.4774 18.5683 65.1714 18.37C64.8654 18.166 64.4914 18.064 64.0494 18.064C63.63 18.064 63.2504 18.166 62.9104 18.37C62.5704 18.5683 62.2984 18.8375 62.0944 19.1775C61.8904 19.5175 61.7884 19.8972 61.7884 20.3165C61.7884 20.7415 61.8904 21.124 62.0944 21.464C62.304 21.804 62.5789 22.076 62.9189 22.28C63.2645 22.484 63.6414 22.586 64.0494 22.586ZM77.1119 25H75.2844L72.1819 16.483H73.7034L76.1939 23.3425L78.6844 16.483H80.2059L77.1119 25ZM81.5903 16.5H83.0183V25H81.5903V16.5ZM82.3213 15.1145C82.0946 15.1145 81.9048 15.0408 81.7518 14.8935C81.5988 14.7462 81.5223 14.562 81.5223 14.341C81.5223 14.12 81.5988 13.9358 81.7518 13.7885C81.9048 13.6412 82.0918 13.5675 82.3128 13.5675C82.5338 13.5675 82.7208 13.6412 82.8738 13.7885C83.0268 13.9358 83.1033 14.12 83.1033 14.341C83.1033 14.562 83.0268 14.7462 82.8738 14.8935C82.7265 15.0408 82.5423 15.1145 82.3213 15.1145ZM91.7778 16.5H93.2058V25H91.7778L91.7183 23.5635C91.452 24.0565 91.0837 24.456 90.6133 24.762C90.1487 25.068 89.5933 25.221 88.9473 25.221C88.324 25.221 87.7403 25.1048 87.1963 24.8725C86.6523 24.6345 86.1707 24.3087 85.7513 23.895C85.3377 23.4757 85.0147 22.994 84.7823 22.45C84.55 21.906 84.4338 21.3195 84.4338 20.6905C84.4338 20.0842 84.5472 19.5118 84.7738 18.9735C85.0005 18.4352 85.315 17.9648 85.7173 17.5625C86.1253 17.1545 86.5957 16.8372 87.1283 16.6105C87.661 16.3782 88.2333 16.262 88.8453 16.262C89.514 16.262 90.1005 16.4207 90.6048 16.738C91.1092 17.0497 91.5172 17.4548 91.8288 17.9535L91.7778 16.5ZM88.9218 23.8355C89.4828 23.8355 89.9673 23.6995 90.3753 23.4275C90.789 23.1498 91.1063 22.7758 91.3273 22.3055C91.554 21.8352 91.6673 21.3167 91.6673 20.75C91.6673 20.172 91.554 19.6507 91.3273 19.186C91.1007 18.7157 90.7805 18.3445 90.3668 18.0725C89.9588 17.7948 89.4772 17.656 88.9218 17.656C88.3608 17.656 87.8508 17.7948 87.3918 18.0725C86.9328 18.3502 86.5673 18.7242 86.2953 19.1945C86.029 19.6592 85.8958 20.1777 85.8958 20.75C85.8958 21.3223 86.0347 21.8437 86.3123 22.314C86.59 22.7787 86.9583 23.1498 87.4173 23.4275C87.8763 23.6995 88.3778 23.8355 88.9218 23.8355ZM94.9048 25V16.5H96.3328V17.5625C96.6331 17.1658 97.0099 16.8513 97.4633 16.619C97.9223 16.381 98.4209 16.262 98.9593 16.262C99.5883 16.262 100.163 16.415 100.685 16.721C101.206 17.027 101.617 17.4322 101.917 17.9365C102.218 17.4322 102.626 17.027 103.141 16.721C103.663 16.415 104.235 16.262 104.858 16.262C105.499 16.262 106.079 16.4178 106.601 16.7295C107.122 17.0355 107.536 17.4492 107.842 17.9705C108.153 18.4918 108.309 19.0727 108.309 19.713V25H106.881V20.053C106.881 19.6337 106.779 19.2455 106.575 18.8885C106.371 18.5315 106.096 18.2453 105.751 18.03C105.405 17.8147 105.023 17.707 104.603 17.707C104.184 17.707 103.801 17.809 103.456 18.013C103.11 18.2113 102.835 18.489 102.631 18.846C102.427 19.1973 102.325 19.5997 102.325 20.053V25H100.897V20.053C100.897 19.5997 100.795 19.1973 100.591 18.846C100.387 18.489 100.11 18.2113 99.7583 18.013C99.4126 17.809 99.0301 17.707 98.6108 17.707C98.1971 17.707 97.8146 17.8147 97.4633 18.03C97.1176 18.2453 96.8428 18.5315 96.6388 18.8885C96.4348 19.2455 96.3328 19.6337 96.3328 20.053V25H94.9048ZM116.68 16.5H118.108V25H116.68L116.621 23.5635C116.354 24.0565 115.986 24.456 115.516 24.762C115.051 25.068 114.496 25.221 113.85 25.221C113.226 25.221 112.643 25.1048 112.099 24.8725C111.555 24.6345 111.073 24.3087 110.654 23.895C110.24 23.4757 109.917 22.994 109.685 22.45C109.452 21.906 109.336 21.3195 109.336 20.6905C109.336 20.0842 109.45 19.5118 109.676 18.9735C109.903 18.4352 110.217 17.9648 110.62 17.5625C111.028 17.1545 111.498 16.8372 112.031 16.6105C112.563 16.3782 113.136 16.262 113.748 16.262C114.416 16.262 115.003 16.4207 115.507 16.738C116.012 17.0497 116.42 17.4548 116.731 17.9535L116.68 16.5ZM113.824 23.8355C114.385 23.8355 114.87 23.6995 115.278 23.4275C115.691 23.1498 116.009 22.7758 116.23 22.3055C116.456 21.8352 116.57 21.3167 116.57 20.75C116.57 20.172 116.456 19.6507 116.23 19.186C116.003 18.7157 115.683 18.3445 115.269 18.0725C114.861 17.7948 114.38 17.656 113.824 17.656C113.263 17.656 112.753 17.7948 112.294 18.0725C111.835 18.3502 111.47 18.7242 111.198 19.1945C110.931 19.6592 110.798 20.1777 110.798 20.75C110.798 21.3223 110.937 21.8437 111.215 22.314C111.492 22.7787 111.861 23.1498 112.32 23.4275C112.779 23.6995 113.28 23.8355 113.824 23.8355ZM126.28 16.5H127.708V25.272C127.708 25.833 127.586 26.3543 127.342 26.836C127.104 27.3233 126.781 27.7455 126.373 28.1025C125.965 28.4652 125.5 28.7457 124.979 28.944C124.458 29.148 123.914 29.25 123.347 29.25C122.758 29.25 122.188 29.1168 121.639 28.8505C121.089 28.5898 120.607 28.2385 120.194 27.7965C119.786 27.3602 119.491 26.87 119.31 26.326L120.619 25.731C120.726 26.122 120.919 26.4733 121.197 26.785C121.48 27.1023 121.809 27.3517 122.183 27.533C122.562 27.72 122.95 27.8135 123.347 27.8135C123.721 27.8135 124.081 27.7483 124.427 27.618C124.778 27.4877 125.092 27.3063 125.37 27.074C125.653 26.8473 125.874 26.5782 126.033 26.2665C126.197 25.9605 126.28 25.629 126.28 25.272V23.5805C125.991 24.0678 125.608 24.4645 125.132 24.7705C124.662 25.0708 124.112 25.221 123.483 25.221C122.882 25.221 122.319 25.1048 121.792 24.8725C121.265 24.6402 120.803 24.32 120.406 23.912C120.009 23.4983 119.698 23.0223 119.471 22.484C119.244 21.9457 119.131 21.3677 119.131 20.75C119.131 20.1323 119.244 19.5543 119.471 19.016C119.698 18.472 120.009 17.996 120.406 17.588C120.803 17.1743 121.265 16.8513 121.792 16.619C122.319 16.3867 122.882 16.2705 123.483 16.2705C124.112 16.2705 124.662 16.4207 125.132 16.721C125.608 17.0213 125.991 17.418 126.28 17.911V16.5ZM123.492 23.8355C124.041 23.8355 124.517 23.6938 124.92 23.4105C125.328 23.1272 125.642 22.7503 125.863 22.28C126.084 21.8097 126.195 21.2997 126.195 20.75C126.195 20.1833 126.081 19.6677 125.855 19.203C125.634 18.7327 125.319 18.3587 124.911 18.081C124.509 17.7977 124.036 17.656 123.492 17.656C122.959 17.656 122.472 17.7948 122.03 18.0725C121.588 18.3502 121.236 18.7242 120.976 19.1945C120.721 19.6592 120.593 20.1777 120.593 20.75C120.593 21.3223 120.723 21.8437 120.984 22.314C121.25 22.7787 121.602 23.1498 122.038 23.4275C122.48 23.6995 122.965 23.8355 123.492 23.8355ZM129.262 21.77V16.5H130.69V21.4555C130.69 21.8862 130.795 22.2772 131.005 22.6285C131.214 22.9798 131.495 23.2603 131.846 23.47C132.203 23.674 132.594 23.776 133.019 23.776C133.45 23.776 133.838 23.674 134.184 23.47C134.535 23.2603 134.815 22.9798 135.025 22.6285C135.235 22.2772 135.34 21.8862 135.34 21.4555V16.5H136.768L136.776 25H135.348L135.34 23.9205C135.039 24.3172 134.66 24.6345 134.201 24.8725C133.742 25.1048 133.246 25.221 132.713 25.221C132.078 25.221 131.498 25.068 130.971 24.762C130.449 24.4503 130.033 24.0338 129.721 23.5125C129.415 22.9912 129.262 22.4103 129.262 21.77ZM141.076 25.1615C140.617 25.1445 140.17 25.0595 139.733 24.9065C139.303 24.7478 138.923 24.5353 138.594 24.269C138.271 23.997 138.036 23.6853 137.889 23.334L139.113 22.807C139.198 22.9997 139.351 23.181 139.572 23.351C139.793 23.521 140.048 23.657 140.337 23.759C140.626 23.861 140.918 23.912 141.212 23.912C141.524 23.912 141.816 23.8638 142.088 23.7675C142.36 23.6712 142.581 23.5295 142.751 23.3425C142.927 23.1498 143.014 22.9203 143.014 22.654C143.014 22.3707 142.918 22.1497 142.725 21.991C142.538 21.8267 142.3 21.6992 142.011 21.6085C141.728 21.5122 141.439 21.4215 141.144 21.3365C140.561 21.1892 140.039 21.0135 139.58 20.8095C139.121 20.5998 138.759 20.3363 138.492 20.019C138.232 19.696 138.101 19.2852 138.101 18.7865C138.101 18.2595 138.246 17.8033 138.535 17.418C138.83 17.0327 139.215 16.7352 139.691 16.5255C140.167 16.3158 140.677 16.211 141.221 16.211C141.907 16.211 142.533 16.3583 143.099 16.653C143.666 16.9477 144.088 17.3472 144.366 17.8515L143.218 18.523C143.122 18.319 142.975 18.1405 142.776 17.9875C142.578 17.8288 142.351 17.7042 142.096 17.6135C141.841 17.5228 141.581 17.4747 141.314 17.469C140.986 17.4577 140.677 17.5002 140.388 17.5965C140.105 17.6928 139.875 17.8402 139.699 18.0385C139.529 18.2312 139.444 18.472 139.444 18.761C139.444 19.0443 139.535 19.2597 139.716 19.407C139.903 19.5543 140.144 19.6733 140.439 19.764C140.739 19.849 141.065 19.9482 141.416 20.0615C141.932 20.2258 142.414 20.4157 142.861 20.631C143.309 20.8463 143.669 21.1155 143.941 21.4385C144.219 21.7615 144.355 22.161 144.349 22.637C144.349 23.1583 144.193 23.6145 143.881 24.0055C143.57 24.3908 143.165 24.6855 142.666 24.8895C142.173 25.0935 141.643 25.1842 141.076 25.1615ZM146.189 25.221C145.974 25.221 145.789 25.1445 145.636 24.9915C145.489 24.8385 145.415 24.6515 145.415 24.4305C145.415 24.2208 145.489 24.0395 145.636 23.8865C145.789 23.7335 145.974 23.657 146.189 23.657C146.41 23.657 146.597 23.7335 146.75 23.8865C146.903 24.0395 146.979 24.2208 146.979 24.4305C146.979 24.6515 146.903 24.8385 146.75 24.9915C146.597 25.1445 146.41 25.221 146.189 25.221ZM154.799 22.756L156.074 23.4445C155.689 23.9828 155.199 24.4135 154.604 24.7365C154.015 25.0595 153.374 25.221 152.683 25.221C151.901 25.221 151.187 25.0198 150.541 24.6175C149.901 24.2152 149.388 23.6768 149.002 23.0025C148.623 22.3225 148.433 21.5717 148.433 20.75C148.433 20.1267 148.543 19.5458 148.764 19.0075C148.985 18.4635 149.289 17.9875 149.674 17.5795C150.065 17.1658 150.518 16.8428 151.034 16.6105C151.55 16.3782 152.099 16.262 152.683 16.262C153.374 16.262 154.015 16.4235 154.604 16.7465C155.199 17.0695 155.689 17.503 156.074 18.047L154.799 18.7355C154.527 18.4012 154.204 18.1433 153.83 17.962C153.456 17.7807 153.074 17.69 152.683 17.69C152.156 17.69 151.677 17.8317 151.246 18.115C150.821 18.3927 150.484 18.7638 150.235 19.2285C149.986 19.6932 149.861 20.2003 149.861 20.75C149.861 21.2997 149.986 21.8068 150.235 22.2715C150.49 22.7305 150.83 23.0988 151.255 23.3765C151.686 23.6542 152.162 23.793 152.683 23.793C153.102 23.793 153.496 23.6967 153.864 23.504C154.233 23.3113 154.544 23.062 154.799 22.756ZM161.199 25.221C160.417 25.221 159.703 25.0198 159.057 24.6175C158.417 24.2152 157.904 23.6768 157.519 23.0025C157.139 22.3225 156.949 21.5717 156.949 20.75C156.949 20.1267 157.06 19.5458 157.281 19.0075C157.502 18.4635 157.805 17.9875 158.19 17.5795C158.581 17.1658 159.035 16.8428 159.55 16.6105C160.066 16.3782 160.616 16.262 161.199 16.262C161.981 16.262 162.693 16.4632 163.333 16.8655C163.979 17.2678 164.492 17.809 164.871 18.489C165.257 19.169 165.449 19.9227 165.449 20.75C165.449 21.3677 165.339 21.9457 165.118 22.484C164.897 23.0223 164.591 23.4983 164.2 23.912C163.815 24.32 163.364 24.6402 162.848 24.8725C162.338 25.1048 161.789 25.221 161.199 25.221ZM161.199 23.793C161.732 23.793 162.211 23.6542 162.636 23.3765C163.067 23.0932 163.404 22.722 163.647 22.263C163.897 21.7983 164.021 21.294 164.021 20.75C164.021 20.1947 163.894 19.6847 163.639 19.22C163.39 18.7553 163.052 18.3842 162.627 18.1065C162.202 17.8288 161.726 17.69 161.199 17.69C160.667 17.69 160.188 17.8317 159.763 18.115C159.338 18.3927 159.001 18.7638 158.751 19.2285C158.502 19.6932 158.377 20.2003 158.377 20.75C158.377 21.3167 158.505 21.8323 158.76 22.297C159.015 22.756 159.358 23.1215 159.788 23.3935C160.219 23.6598 160.689 23.793 161.199 23.793ZM166.856 25V16.5H168.284V17.5625C168.584 17.1658 168.961 16.8513 169.414 16.619C169.873 16.381 170.372 16.262 170.91 16.262C171.539 16.262 172.115 16.415 172.636 16.721C173.157 17.027 173.568 17.4322 173.868 17.9365C174.169 17.4322 174.577 17.027 175.092 16.721C175.614 16.415 176.186 16.262 176.809 16.262C177.45 16.262 178.031 16.4178 178.552 16.7295C179.073 17.0355 179.487 17.4492 179.793 17.9705C180.105 18.4918 180.26 19.0727 180.26 19.713V25H178.832V20.053C178.832 19.6337 178.73 19.2455 178.526 18.8885C178.322 18.5315 178.048 18.2453 177.702 18.03C177.356 17.8147 176.974 17.707 176.554 17.707C176.135 17.707 175.753 17.809 175.407 18.013C175.061 18.2113 174.786 18.489 174.582 18.846C174.378 19.1973 174.276 19.5997 174.276 20.053V25H172.848V20.053C172.848 19.5997 172.746 19.1973 172.542 18.846C172.338 18.489 172.061 18.2113 171.709 18.013C171.364 17.809 170.981 17.707 170.562 17.707C170.148 17.707 169.766 17.8147 169.414 18.03C169.069 18.2453 168.794 18.5315 168.59 18.8885C168.386 19.2455 168.284 19.6337 168.284 20.053V25H166.856Z" fill="white"/>
</svg>
