<svg width="123" height="119" viewBox="0 0 123 119" fill="none" xmlns="http://www.w3.org/2000/svg">
<path d="M6.74 15.26C5.62 15.26 4.64333 14.9867 3.81 14.44C2.98333 13.8933 2.34 13.16 1.88 12.24C1.42667 11.3133 1.2 10.2867 1.2 9.16V0.999999H3.28V9.16C3.28 9.89333 3.41333 10.5667 3.68 11.18C3.95333 11.7867 4.34667 12.2733 4.86 12.64C5.38 13 6.00667 13.18 6.74 13.18C7.49333 13.18 8.12667 13 8.64 12.64C9.15333 12.2733 9.54 11.7867 9.8 11.18C10.0667 10.5667 10.2 9.89333 10.2 9.16V0.999999H12.28V9.16C12.28 10.0067 12.15 10.8 11.89 11.54C11.63 12.2733 11.2567 12.92 10.77 13.48C10.2833 14.04 9.7 14.4767 9.02 14.79C8.34 15.1033 7.58 15.26 6.74 15.26ZM23.4227 8.73V15H21.3427V9.24C21.3427 8.79333 21.2327 8.38667 21.0127 8.02C20.7993 7.65333 20.5093 7.36333 20.1427 7.15C19.7827 6.93 19.376 6.82 18.9227 6.82C18.4827 6.82 18.0793 6.93 17.7127 7.15C17.346 7.36333 17.0527 7.65333 16.8327 8.02C16.6127 8.38667 16.5027 8.79333 16.5027 9.24V15H14.4227V5H16.5027V6.06C16.8493 5.64667 17.276 5.32 17.7827 5.08C18.2893 4.84 18.836 4.72 19.4227 4.72C20.1627 4.72 20.836 4.9 21.4427 5.26C22.0493 5.62 22.5293 6.10333 22.8827 6.71C23.2427 7.31667 23.4227 7.99 23.4227 8.73ZM25.4969 15V-1.19209e-06H27.5769V15H25.4969ZM34.2328 15.26C33.3128 15.26 32.4728 15.0233 31.7128 14.55C30.9595 14.0767 30.3561 13.4433 29.9028 12.65C29.4561 11.85 29.2328 10.9667 29.2328 10C29.2328 9.26667 29.3628 8.58333 29.6228 7.95C29.8828 7.31 30.2395 6.75 30.6928 6.27C31.1528 5.78333 31.6861 5.40333 32.2928 5.13C32.8995 4.85667 33.5461 4.72 34.2328 4.72C35.1528 4.72 35.9895 4.95667 36.7428 5.43C37.5028 5.90333 38.1061 6.54 38.5528 7.34C39.0061 8.14 39.2328 9.02667 39.2328 10C39.2328 10.7267 39.1028 11.4067 38.8428 12.04C38.5828 12.6733 38.2228 13.2333 37.7628 13.72C37.3095 14.2 36.7795 14.5767 36.1728 14.85C35.5728 15.1233 34.9261 15.26 34.2328 15.26ZM34.2328 13.18C34.7861 13.18 35.2828 13.0333 35.7228 12.74C36.1628 12.4467 36.5095 12.06 36.7628 11.58C37.0228 11.0933 37.1528 10.5667 37.1528 10C37.1528 9.42 37.0195 8.88667 36.7528 8.4C36.4928 7.91333 36.1428 7.52667 35.7028 7.24C35.2628 6.94667 34.7728 6.8 34.2328 6.8C33.6861 6.8 33.1895 6.94667 32.7428 7.24C32.3028 7.53333 31.9528 7.92333 31.6928 8.41C31.4395 8.89667 31.3128 9.42667 31.3128 10C31.3128 10.5933 31.4461 11.13 31.7128 11.61C31.9795 12.09 32.3328 12.4733 32.7728 12.76C33.2195 13.04 33.7061 13.18 34.2328 13.18ZM47.3589 12.16L49.2189 13.17C48.7656 13.8033 48.1889 14.31 47.4889 14.69C46.7956 15.07 46.0422 15.26 45.2289 15.26C44.3089 15.26 43.4689 15.0233 42.7089 14.55C41.9556 14.0767 41.3522 13.4433 40.8989 12.65C40.4522 11.85 40.2289 10.9667 40.2289 10C40.2289 9.26667 40.3589 8.58333 40.6189 7.95C40.8789 7.31 41.2356 6.75 41.6889 6.27C42.1489 5.78333 42.6822 5.40333 43.2889 5.13C43.8956 4.85667 44.5422 4.72 45.2289 4.72C46.0422 4.72 46.7956 4.91 47.4889 5.29C48.1889 5.67 48.7656 6.18 49.2189 6.82L47.3589 7.83C47.0789 7.49667 46.7522 7.24333 46.3789 7.07C46.0056 6.89 45.6222 6.8 45.2289 6.8C44.6822 6.8 44.1856 6.95 43.7389 7.25C43.2989 7.54333 42.9489 7.93333 42.6889 8.42C42.4356 8.9 42.3089 9.42667 42.3089 10C42.3089 10.5667 42.4389 11.0933 42.6989 11.58C42.9589 12.06 43.3089 12.4467 43.7489 12.74C44.1956 13.0333 44.6889 13.18 45.2289 13.18C45.6422 13.18 46.0356 13.0867 46.4089 12.9C46.7822 12.7133 47.0989 12.4667 47.3589 12.16ZM59.3203 15H56.9203L54.4603 10.76L52.8503 12.68V15H50.7703V-1.19209e-06H52.8503V9.45L56.5703 5H59.2903L55.8803 9.07L59.3203 15ZM1.2 38V24H6.02C6.77333 24 7.45333 24.1867 8.06 24.56C8.67333 24.9333 9.16 25.4367 9.52 26.07C9.88667 26.7033 10.07 27.4033 10.07 28.17C10.07 28.95 9.88333 29.6567 9.51 30.29C9.14333 30.9167 8.65333 31.4167 8.04 31.79C7.42667 32.1633 6.75333 32.35 6.02 32.35H3.28V38H1.2ZM3.28 30.27H5.81C6.21 30.27 6.57333 30.17 6.9 29.97C7.23333 29.77 7.49667 29.5033 7.69 29.17C7.89 28.8367 7.99 28.46 7.99 28.04C7.99 27.62 7.89 27.2433 7.69 26.91C7.49667 26.57 7.23333 26.3033 6.9 26.11C6.57333 25.91 6.21 25.81 5.81 25.81H3.28V30.27ZM11.7078 38V28H13.7878V29.06C14.1345 28.6467 14.5611 28.32 15.0678 28.08C15.5745 27.84 16.1211 27.72 16.7078 27.72C17.0811 27.72 17.4511 27.77 17.8178 27.87L16.9878 29.97C16.7278 29.87 16.4678 29.82 16.2078 29.82C15.7678 29.82 15.3645 29.93 14.9978 30.15C14.6311 30.3633 14.3378 30.6533 14.1178 31.02C13.8978 31.3867 13.7878 31.7933 13.7878 32.24V38H11.7078ZM22.9047 38.26C21.9847 38.26 21.1447 38.0233 20.3847 37.55C19.6314 37.0767 19.028 36.4433 18.5747 35.65C18.128 34.85 17.9047 33.9667 17.9047 33C17.9047 32.2667 18.0347 31.5833 18.2947 30.95C18.5547 30.31 18.9114 29.75 19.3647 29.27C19.8247 28.7833 20.358 28.4033 20.9647 28.13C21.5714 27.8567 22.218 27.72 22.9047 27.72C23.8247 27.72 24.6614 27.9567 25.4147 28.43C26.1747 28.9033 26.778 29.54 27.2247 30.34C27.678 31.14 27.9047 32.0267 27.9047 33C27.9047 33.7267 27.7747 34.4067 27.5147 35.04C27.2547 35.6733 26.8947 36.2333 26.4347 36.72C25.9814 37.2 25.4514 37.5767 24.8447 37.85C24.2447 38.1233 23.598 38.26 22.9047 38.26ZM22.9047 36.18C23.458 36.18 23.9547 36.0333 24.3947 35.74C24.8347 35.4467 25.1814 35.06 25.4347 34.58C25.6947 34.0933 25.8247 33.5667 25.8247 33C25.8247 32.42 25.6914 31.8867 25.4247 31.4C25.1647 30.9133 24.8147 30.5267 24.3747 30.24C23.9347 29.9467 23.4447 29.8 22.9047 29.8C22.358 29.8 21.8614 29.9467 21.4147 30.24C20.9747 30.5333 20.6247 30.9233 20.3647 31.41C20.1114 31.8967 19.9847 32.4267 19.9847 33C19.9847 33.5933 20.118 34.13 20.3847 34.61C20.6514 35.09 21.0047 35.4733 21.4447 35.76C21.8914 36.04 22.378 36.18 22.9047 36.18ZM37.2908 23H39.3708V38H37.2908V36.53C36.9641 37.05 36.5374 37.47 36.0108 37.79C35.4841 38.1033 34.8674 38.26 34.1608 38.26C33.4341 38.26 32.7541 38.1233 32.1208 37.85C31.4874 37.5767 30.9274 37.2 30.4408 36.72C29.9608 36.2333 29.5841 35.6733 29.3108 35.04C29.0374 34.4067 28.9008 33.7267 28.9008 33C28.9008 32.2733 29.0374 31.5933 29.3108 30.96C29.5841 30.32 29.9608 29.76 30.4408 29.28C30.9274 28.7933 31.4874 28.4133 32.1208 28.14C32.7541 27.8667 33.4341 27.73 34.1608 27.73C34.8674 27.73 35.4841 27.89 36.0108 28.21C36.5374 28.5233 36.9641 28.9367 37.2908 29.45V23ZM34.1808 36.25C34.7674 36.25 35.2808 36.1067 35.7208 35.82C36.1608 35.5267 36.5008 35.1333 36.7408 34.64C36.9874 34.1467 37.1108 33.6 37.1108 33C37.1108 32.3933 36.9874 31.8433 36.7408 31.35C36.4941 30.8567 36.1508 30.4667 35.7108 30.18C35.2774 29.8867 34.7674 29.74 34.1808 29.74C33.6008 29.74 33.0708 29.8867 32.5908 30.18C32.1174 30.4733 31.7374 30.8667 31.4508 31.36C31.1708 31.8533 31.0308 32.4 31.0308 33C31.0308 33.6067 31.1741 34.1567 31.4608 34.65C31.7541 35.1367 32.1374 35.5267 32.6108 35.82C33.0908 36.1067 33.6141 36.25 34.1808 36.25ZM41.3664 34.25V28H43.4464V33.74C43.4464 34.1867 43.5564 34.5933 43.7764 34.96C43.9964 35.3267 44.2897 35.62 44.6564 35.84C45.0231 36.0533 45.4264 36.16 45.8664 36.16C46.3131 36.16 46.7164 36.0533 47.0764 35.84C47.4431 35.62 47.7331 35.3267 47.9464 34.96C48.1664 34.5933 48.2764 34.1867 48.2764 33.74V28H50.3564L50.3664 38H48.2864L48.2764 36.92C47.9364 37.3333 47.5131 37.66 47.0064 37.9C46.4997 38.14 45.9564 38.26 45.3764 38.26C44.6364 38.26 43.9631 38.08 43.3564 37.72C42.7497 37.36 42.2664 36.8767 41.9064 36.27C41.5464 35.6633 41.3664 34.99 41.3664 34.25ZM58.7652 35.16L60.6252 36.17C60.1718 36.8033 59.5952 37.31 58.8952 37.69C58.2018 38.07 57.4485 38.26 56.6352 38.26C55.7152 38.26 54.8752 38.0233 54.1152 37.55C53.3618 37.0767 52.7585 36.4433 52.3052 35.65C51.8585 34.85 51.6352 33.9667 51.6352 33C51.6352 32.2667 51.7652 31.5833 52.0252 30.95C52.2852 30.31 52.6418 29.75 53.0952 29.27C53.5552 28.7833 54.0885 28.4033 54.6952 28.13C55.3018 27.8567 55.9485 27.72 56.6352 27.72C57.4485 27.72 58.2018 27.91 58.8952 28.29C59.5952 28.67 60.1718 29.18 60.6252 29.82L58.7652 30.83C58.4852 30.4967 58.1585 30.2433 57.7852 30.07C57.4118 29.89 57.0285 29.8 56.6352 29.8C56.0885 29.8 55.5918 29.95 55.1452 30.25C54.7052 30.5433 54.3552 30.9333 54.0952 31.42C53.8418 31.9 53.7152 32.4267 53.7152 33C53.7152 33.5667 53.8452 34.0933 54.1052 34.58C54.3652 35.06 54.7152 35.4467 55.1552 35.74C55.6018 36.0333 56.0952 36.18 56.6352 36.18C57.0485 36.18 57.4418 36.0867 57.8152 35.9C58.1885 35.7133 58.5052 35.4667 58.7652 35.16ZM67.7105 30.08H65.6105L65.6005 38H63.5205L63.5305 30.08H61.9405V28H63.5305L63.5205 24.86H65.6005L65.6105 28H67.7105V30.08ZM68.7008 29.22L69.3208 24H71.4008L70.0808 29.22H68.7008ZM76.1922 38.19C75.6655 38.1567 75.1522 38.05 74.6522 37.87C74.1522 37.69 73.7122 37.4467 73.3322 37.14C72.9589 36.8267 72.6789 36.46 72.4922 36.04L74.2622 35.28C74.3489 35.46 74.4989 35.6367 74.7122 35.81C74.9322 35.9833 75.1889 36.1267 75.4822 36.24C75.7755 36.3467 76.0822 36.4 76.4022 36.4C76.7155 36.4 77.0055 36.3567 77.2722 36.27C77.5455 36.1767 77.7689 36.0367 77.9422 35.85C78.1155 35.6633 78.2022 35.44 78.2022 35.18C78.2022 34.8867 78.1022 34.66 77.9022 34.5C77.7089 34.3333 77.4655 34.2067 77.1722 34.12C76.8789 34.0333 76.5855 33.95 76.2922 33.87C75.6389 33.7233 75.0389 33.5233 74.4922 33.27C73.9522 33.01 73.5222 32.68 73.2022 32.28C72.8822 31.8733 72.7222 31.3767 72.7222 30.79C72.7222 30.15 72.8955 29.5967 73.2422 29.13C73.5889 28.6567 74.0422 28.2933 74.6022 28.04C75.1689 27.7867 75.7722 27.66 76.4122 27.66C77.2122 27.66 77.9455 27.83 78.6122 28.17C79.2789 28.51 79.7889 28.9767 80.1422 29.57L78.4922 30.55C78.3922 30.35 78.2422 30.17 78.0422 30.01C77.8422 29.85 77.6155 29.7233 77.3622 29.63C77.1089 29.53 76.8455 29.4733 76.5722 29.46C76.2322 29.4467 75.9155 29.4867 75.6222 29.58C75.3355 29.6667 75.1055 29.8067 74.9322 30C74.7589 30.1933 74.6722 30.44 74.6722 30.74C74.6722 31.0333 74.7755 31.2533 74.9822 31.4C75.1889 31.54 75.4489 31.6533 75.7622 31.74C76.0822 31.8267 76.4089 31.9233 76.7422 32.03C77.3355 32.2167 77.8922 32.4467 78.4122 32.72C78.9322 32.9867 79.3522 33.3167 79.6722 33.71C79.9922 34.1033 80.1455 34.5833 80.1322 35.15C80.1322 35.7767 79.9422 36.3267 79.5622 36.8C79.1889 37.2733 78.7022 37.6333 78.1022 37.88C77.5022 38.1267 76.8655 38.23 76.1922 38.19ZM1.2 61V47H6.02C6.77333 47 7.45333 47.1867 8.06 47.56C8.67333 47.9333 9.16 48.4367 9.52 49.07C9.88667 49.7033 10.07 50.4033 10.07 51.17C10.07 51.95 9.88333 52.6567 9.51 53.29C9.14333 53.9167 8.65333 54.4167 8.04 54.79C7.42667 55.1633 6.75333 55.35 6.02 55.35H3.28V61H1.2ZM3.28 53.27H5.81C6.21 53.27 6.57333 53.17 6.9 52.97C7.23333 52.77 7.49667 52.5033 7.69 52.17C7.89 51.8367 7.99 51.46 7.99 51.04C7.99 50.62 7.89 50.2433 7.69 49.91C7.49667 49.57 7.23333 49.3033 6.9 49.11C6.57333 48.91 6.21 48.81 5.81 48.81H3.28V53.27ZM15.6195 61.26C14.6995 61.26 13.8595 61.0233 13.0995 60.55C12.3462 60.0767 11.7429 59.4433 11.2895 58.65C10.8429 57.85 10.6195 56.9667 10.6195 56C10.6195 55.2667 10.7495 54.5833 11.0095 53.95C11.2695 53.31 11.6262 52.75 12.0795 52.27C12.5395 51.7833 13.0729 51.4033 13.6795 51.13C14.2862 50.8567 14.9329 50.72 15.6195 50.72C16.5395 50.72 17.3762 50.9567 18.1295 51.43C18.8895 51.9033 19.4929 52.54 19.9395 53.34C20.3929 54.14 20.6195 55.0267 20.6195 56C20.6195 56.7267 20.4895 57.4067 20.2295 58.04C19.9695 58.6733 19.6095 59.2333 19.1495 59.72C18.6962 60.2 18.1662 60.5767 17.5595 60.85C16.9595 61.1233 16.3129 61.26 15.6195 61.26ZM15.6195 59.18C16.1729 59.18 16.6695 59.0333 17.1095 58.74C17.5495 58.4467 17.8962 58.06 18.1495 57.58C18.4095 57.0933 18.5395 56.5667 18.5395 56C18.5395 55.42 18.4062 54.8867 18.1395 54.4C17.8795 53.9133 17.5295 53.5267 17.0895 53.24C16.6495 52.9467 16.1595 52.8 15.6195 52.8C15.0729 52.8 14.5762 52.9467 14.1295 53.24C13.6895 53.5333 13.3395 53.9233 13.0795 54.41C12.8262 54.8967 12.6995 55.4267 12.6995 56C12.6995 56.5933 12.8329 57.13 13.0995 57.61C13.3662 58.09 13.7195 58.4733 14.1595 58.76C14.6062 59.04 15.0929 59.18 15.6195 59.18ZM27.4566 53.08H25.3566L25.3466 61H23.2666L23.2766 53.08H21.6866V51H23.2766L23.2666 47.86H25.3466L25.3566 51H27.4566V53.08ZM33.4125 61.26C32.4925 61.26 31.6525 61.0233 30.8925 60.55C30.1392 60.0767 29.5358 59.4433 29.0825 58.65C28.6358 57.85 28.4125 56.9667 28.4125 56C28.4125 55.2667 28.5425 54.5833 28.8025 53.95C29.0625 53.31 29.4192 52.75 29.8725 52.27C30.3325 51.7833 30.8658 51.4033 31.4725 51.13C32.0792 50.8567 32.7258 50.72 33.4125 50.72C34.1792 50.72 34.8825 50.88 35.5225 51.2C36.1625 51.5133 36.7092 51.95 37.1625 52.51C37.6158 53.0633 37.9492 53.7033 38.1625 54.43C38.3758 55.15 38.4392 55.9167 38.3525 56.73H30.6425C30.7292 57.19 30.8958 57.6067 31.1425 57.98C31.3958 58.3467 31.7158 58.6367 32.1025 58.85C32.4958 59.0633 32.9325 59.1733 33.4125 59.18C33.9192 59.18 34.3792 59.0533 34.7925 58.8C35.2125 58.5467 35.5558 58.1967 35.8225 57.75L37.9325 58.24C37.5325 59.1267 36.9292 59.8533 36.1225 60.42C35.3158 60.98 34.4125 61.26 33.4125 61.26ZM30.5725 55.14H36.2525C36.1858 54.66 36.0158 54.2267 35.7425 53.84C35.4758 53.4467 35.1392 53.1367 34.7325 52.91C34.3325 52.6767 33.8925 52.56 33.4125 52.56C32.9392 52.56 32.4992 52.6733 32.0925 52.9C31.6925 53.1267 31.3592 53.4367 31.0925 53.83C30.8325 54.2167 30.6592 54.6533 30.5725 55.14ZM49.0086 54.73V61H46.9286V55.24C46.9286 54.7933 46.8186 54.3867 46.5986 54.02C46.3853 53.6533 46.0953 53.3633 45.7286 53.15C45.3686 52.93 44.9619 52.82 44.5086 52.82C44.0686 52.82 43.6653 52.93 43.2986 53.15C42.9319 53.3633 42.6386 53.6533 42.4186 54.02C42.1986 54.3867 42.0886 54.7933 42.0886 55.24V61H40.0086V51H42.0886V52.06C42.4353 51.6467 42.8619 51.32 43.3686 51.08C43.8753 50.84 44.4219 50.72 45.0086 50.72C45.7486 50.72 46.4219 50.9 47.0286 51.26C47.6353 51.62 48.1153 52.1033 48.4686 52.71C48.8286 53.3167 49.0086 53.99 49.0086 54.73ZM56.2847 53.08H54.1847L54.1747 61H52.0947L52.1047 53.08H50.5147V51H52.1047L52.0947 47.86H54.1747L54.1847 51H56.2847V53.08ZM57.9383 51H60.0183V61H57.9383V51ZM58.9983 49.55C58.6783 49.55 58.4116 49.4467 58.1983 49.24C57.9849 49.0333 57.8783 48.7733 57.8783 48.46C57.8783 48.1533 57.9849 47.8967 58.1983 47.69C58.4116 47.4767 58.6749 47.37 58.9883 47.37C59.2949 47.37 59.5549 47.4767 59.7683 47.69C59.9816 47.8967 60.0883 48.1533 60.0883 48.46C60.0883 48.7733 59.9816 49.0333 59.7683 49.24C59.5616 49.4467 59.3049 49.55 58.9983 49.55ZM70.0152 51H72.0952V61H70.0052L69.9252 59.55C69.6318 60.0633 69.2352 60.4767 68.7352 60.79C68.2352 61.1033 67.6452 61.26 66.9652 61.26C66.2318 61.26 65.5418 61.1233 64.8952 60.85C64.2485 60.57 63.6785 60.1833 63.1852 59.69C62.6985 59.1967 62.3185 58.63 62.0452 57.99C61.7718 57.3433 61.6352 56.65 61.6352 55.91C61.6352 55.1967 61.7685 54.5267 62.0352 53.9C62.3018 53.2667 62.6718 52.7133 63.1452 52.24C63.6185 51.7667 64.1652 51.3967 64.7852 51.13C65.4118 50.8567 66.0818 50.72 66.7952 50.72C67.5218 50.72 68.1618 50.8867 68.7152 51.22C69.2752 51.5467 69.7385 51.9667 70.1052 52.48L70.0152 51ZM66.9152 59.25C67.5018 59.25 68.0152 59.1067 68.4552 58.82C68.8952 58.5267 69.2352 58.1333 69.4752 57.64C69.7218 57.1467 69.8452 56.6 69.8452 56C69.8452 55.3933 69.7218 54.8433 69.4752 54.35C69.2285 53.8567 68.8852 53.4667 68.4452 53.18C68.0118 52.8867 67.5018 52.74 66.9152 52.74C66.3352 52.74 65.8052 52.8867 65.3252 53.18C64.8452 53.4733 64.4652 53.8667 64.1852 54.36C63.9052 54.8533 63.7652 55.4 63.7652 56C63.7652 56.6067 63.9085 57.1567 64.1952 57.65C64.4885 58.1367 64.8718 58.5267 65.3452 58.82C65.8252 59.1067 66.3485 59.25 66.9152 59.25ZM74.1688 61V46H76.2488V61H74.1688Z" fill="#8F00FF"/>
<path d="M72.8156 5H74.2956L68.8256 20H67.3356L69.1556 15L65.5656 5H67.0956L69.8556 13.07L72.8156 5ZM80.0922 15.26C79.1722 15.26 78.3322 15.0233 77.5722 14.55C76.8189 14.0767 76.2155 13.4433 75.7622 12.65C75.3155 11.85 75.0922 10.9667 75.0922 10C75.0922 9.26667 75.2222 8.58333 75.4822 7.95C75.7422 7.31 76.0989 6.75 76.5522 6.27C77.0122 5.78333 77.5455 5.40333 78.1522 5.13C78.7589 4.85667 79.4055 4.72 80.0922 4.72C81.0122 4.72 81.8489 4.95667 82.6022 5.43C83.3622 5.90333 83.9655 6.54 84.4122 7.34C84.8655 8.14 85.0922 9.02667 85.0922 10C85.0922 10.7267 84.9622 11.4067 84.7022 12.04C84.4422 12.6733 84.0822 13.2333 83.6222 13.72C83.1689 14.2 82.6389 14.5767 82.0322 14.85C81.4322 15.1233 80.7855 15.26 80.0922 15.26ZM80.0922 13.86C80.7722 13.86 81.3822 13.6833 81.9222 13.33C82.4689 12.97 82.8989 12.4967 83.2122 11.91C83.5322 11.3233 83.6922 10.6867 83.6922 10C83.6922 9.3 83.5322 8.65667 83.2122 8.07C82.8922 7.47667 82.4589 7.00333 81.9122 6.65C81.3722 6.29667 80.7655 6.12 80.0922 6.12C79.4122 6.12 78.7989 6.3 78.2522 6.66C77.7122 7.01333 77.2822 7.48333 76.9622 8.07C76.6489 8.65667 76.4922 9.3 76.4922 10C76.4922 10.72 76.6555 11.3733 76.9822 11.96C77.3089 12.54 77.7455 13.0033 78.2922 13.35C78.8389 13.69 79.4389 13.86 80.0922 13.86ZM86.2883 11.17V5H87.6883V10.89C87.6883 11.4367 87.8216 11.9333 88.0883 12.38C88.3549 12.8267 88.7116 13.1833 89.1583 13.45C89.6116 13.7167 90.1083 13.85 90.6483 13.85C91.1949 13.85 91.6883 13.7167 92.1283 13.45C92.5749 13.1833 92.9316 12.8267 93.1983 12.38C93.4649 11.9333 93.5983 11.4367 93.5983 10.89V5H94.9983L95.0083 15H93.6083L93.5983 13.6C93.2449 14.1067 92.7849 14.51 92.2183 14.81C91.6583 15.11 91.0449 15.26 90.3783 15.26C89.6249 15.26 88.9383 15.0767 88.3183 14.71C87.6983 14.3433 87.2049 13.85 86.8383 13.23C86.4716 12.61 86.2883 11.9233 86.2883 11.17ZM97.0008 15V5H98.4008V6.38C98.7541 5.87333 99.2141 5.47 99.7808 5.17C100.347 4.87 100.964 4.72 101.631 4.72C102.017 4.72 102.391 4.77 102.751 4.87L102.181 6.26C101.901 6.17333 101.627 6.13 101.361 6.13C100.821 6.13 100.324 6.26333 99.8708 6.53C99.4241 6.79667 99.0674 7.15333 98.8008 7.6C98.5341 8.04667 98.4008 8.54333 98.4008 9.09V15H97.0008ZM87.6361 61H86.1961L82.8461 51H84.2161L86.9361 59.06L89.6361 51H91.1161L93.8161 59.06L96.5161 51H97.8961L94.5461 61H93.0961L90.3561 52.86L87.6361 61ZM99.5594 51H100.959V61H99.5594V51ZM100.269 49.25C100.043 49.25 99.8494 49.1767 99.6894 49.03C99.536 48.8767 99.4594 48.6867 99.4594 48.46C99.4594 48.2333 99.536 48.0467 99.6894 47.9C99.8494 47.7467 100.043 47.67 100.269 47.67C100.489 47.67 100.676 47.7467 100.829 47.9C100.989 48.0467 101.069 48.2333 101.069 48.46C101.069 48.6867 100.993 48.8767 100.839 49.03C100.686 49.1767 100.496 49.25 100.269 49.25ZM108.478 52.4H106.088L106.078 61H104.678L104.688 52.4H102.878V51H104.688L104.678 47.86H106.078L106.088 51H108.478V52.4ZM118.983 54.81V61H117.583V55.09C117.583 54.5433 117.449 54.0467 117.183 53.6C116.916 53.1533 116.559 52.7967 116.113 52.53C115.666 52.2633 115.169 52.13 114.623 52.13C114.083 52.13 113.586 52.2633 113.133 52.53C112.686 52.7967 112.329 53.1533 112.063 53.6C111.796 54.0467 111.663 54.5433 111.663 55.09V61H110.263V46H111.663V52.38C112.016 51.8733 112.476 51.47 113.043 51.17C113.609 50.87 114.226 50.72 114.893 50.72C115.646 50.72 116.333 50.9033 116.953 51.27C117.573 51.6367 118.066 52.13 118.433 52.75C118.799 53.37 118.983 54.0567 118.983 54.81ZM5.55 84L0.47 70H1.95L6.39 82.24L10.85 70H12.33L7.24 84H5.55ZM13.2898 74H14.6898V84H13.2898V74ZM13.9998 72.25C13.7732 72.25 13.5798 72.1767 13.4198 72.03C13.2665 71.8767 13.1898 71.6867 13.1898 71.46C13.1898 71.2333 13.2665 71.0467 13.4198 70.9C13.5798 70.7467 13.7732 70.67 13.9998 70.67C14.2198 70.67 14.4065 70.7467 14.5598 70.9C14.7198 71.0467 14.7998 71.2333 14.7998 71.46C14.7998 71.6867 14.7232 71.8767 14.5698 72.03C14.4165 72.1767 14.2265 72.25 13.9998 72.25ZM25.2208 74H26.6208V84H25.2208L25.1708 82.14C24.8441 82.7733 24.3874 83.2867 23.8008 83.68C23.2141 84.0667 22.5141 84.26 21.7008 84.26C20.9674 84.26 20.2808 84.1233 19.6408 83.85C19.0008 83.57 18.4374 83.1867 17.9508 82.7C17.4641 82.2133 17.0841 81.65 16.8108 81.01C16.5374 80.37 16.4008 79.6833 16.4008 78.95C16.4008 78.23 16.5341 77.5533 16.8008 76.92C17.0741 76.2867 17.4474 75.73 17.9208 75.25C18.4008 74.77 18.9541 74.3967 19.5808 74.13C20.2141 73.8567 20.8908 73.72 21.6108 73.72C22.4441 73.72 23.1708 73.92 23.7908 74.32C24.4108 74.7133 24.9041 75.23 25.2708 75.87L25.2208 74ZM21.6708 82.9C22.3841 82.9 22.9974 82.7267 23.5108 82.38C24.0241 82.0267 24.4174 81.5533 24.6908 80.96C24.9708 80.3667 25.1108 79.7133 25.1108 79C25.1108 78.2667 24.9708 77.6067 24.6908 77.02C24.4108 76.4267 24.0141 75.9567 23.5008 75.61C22.9874 75.2633 22.3774 75.09 21.6708 75.09C20.9641 75.09 20.3174 75.2667 19.7308 75.62C19.1508 75.9667 18.6874 76.4367 18.3408 77.03C18.0008 77.6233 17.8308 78.28 17.8308 79C17.8308 79.7267 18.0074 80.3867 18.3608 80.98C18.7141 81.5667 19.1808 82.0333 19.7608 82.38C20.3474 82.7267 20.9841 82.9 21.6708 82.9ZM28.6219 84V74H30.0219V75.38C30.3819 74.8733 30.8419 74.47 31.4019 74.17C31.9619 73.87 32.5752 73.72 33.2419 73.72C33.9952 73.72 34.6852 73.9067 35.3119 74.28C35.9385 74.6467 36.4285 75.1367 36.7819 75.75C37.1352 75.1367 37.6219 74.6467 38.2419 74.28C38.8619 73.9067 39.5485 73.72 40.3019 73.72C41.0552 73.72 41.7419 73.9033 42.3619 74.27C42.9819 74.6367 43.4752 75.13 43.8419 75.75C44.2085 76.37 44.3919 77.0567 44.3919 77.81V84H42.9919V78.12C42.9919 77.5867 42.8619 77.0933 42.6019 76.64C42.3419 76.1867 41.9919 75.8233 41.5519 75.55C41.1185 75.27 40.6352 75.13 40.1019 75.13C39.5685 75.13 39.0819 75.26 38.6419 75.52C38.2085 75.7733 37.8619 76.1267 37.6019 76.58C37.3419 77.0267 37.2119 77.54 37.2119 78.12V84H35.8119V78.12C35.8119 77.54 35.6819 77.0267 35.4219 76.58C35.1619 76.1267 34.8119 75.7733 34.3719 75.52C33.9319 75.26 33.4452 75.13 32.9119 75.13C32.3852 75.13 31.9019 75.27 31.4619 75.55C31.0219 75.8233 30.6719 76.1867 30.4119 76.64C30.1519 77.0933 30.0219 77.5867 30.0219 78.12V84H28.6219ZM54.42 74H55.82V84H54.42L54.37 82.14C54.0433 82.7733 53.5867 83.2867 53 83.68C52.4133 84.0667 51.7133 84.26 50.9 84.26C50.1667 84.26 49.48 84.1233 48.84 83.85C48.2 83.57 47.6367 83.1867 47.15 82.7C46.6633 82.2133 46.2833 81.65 46.01 81.01C45.7367 80.37 45.6 79.6833 45.6 78.95C45.6 78.23 45.7333 77.5533 46 76.92C46.2733 76.2867 46.6467 75.73 47.12 75.25C47.6 74.77 48.1533 74.3967 48.78 74.13C49.4133 73.8567 50.09 73.72 50.81 73.72C51.6433 73.72 52.37 73.92 52.99 74.32C53.61 74.7133 54.1033 75.23 54.47 75.87L54.42 74ZM50.87 82.9C51.5833 82.9 52.1967 82.7267 52.71 82.38C53.2233 82.0267 53.6167 81.5533 53.89 80.96C54.17 80.3667 54.31 79.7133 54.31 79C54.31 78.2667 54.17 77.6067 53.89 77.02C53.61 76.4267 53.2133 75.9567 52.7 75.61C52.1867 75.2633 51.5767 75.09 50.87 75.09C50.1633 75.09 49.5167 75.2667 48.93 75.62C48.35 75.9667 47.8867 76.4367 47.54 77.03C47.2 77.6233 47.03 78.28 47.03 79C47.03 79.7267 47.2067 80.3867 47.56 80.98C47.9133 81.5667 48.38 82.0333 48.96 82.38C49.5467 82.7267 50.1833 82.9 50.87 82.9ZM65.5758 74H66.9758V84.37C66.9758 85.01 66.8358 85.61 66.5558 86.17C66.2824 86.73 65.9091 87.22 65.4358 87.64C64.9691 88.0667 64.4358 88.4 63.8358 88.64C63.2358 88.88 62.6124 89 61.9658 89C61.2724 89 60.6024 88.84 59.9558 88.52C59.3091 88.2067 58.7458 87.7867 58.2658 87.26C57.7924 86.7333 57.4558 86.15 57.2558 85.51L58.5458 84.92C58.6724 85.42 58.9091 85.87 59.2558 86.27C59.6091 86.6767 60.0224 86.9967 60.4958 87.23C60.9758 87.47 61.4658 87.59 61.9658 87.59C62.4258 87.59 62.8691 87.5033 63.2958 87.33C63.7291 87.1633 64.1158 86.9333 64.4558 86.64C64.8024 86.3467 65.0758 86.0033 65.2758 85.61C65.4758 85.2233 65.5758 84.81 65.5758 84.37V82.16C65.2291 82.7867 64.7591 83.2933 64.1658 83.68C63.5791 84.0667 62.8958 84.26 62.1158 84.26C61.4158 84.26 60.7558 84.1233 60.1358 83.85C59.5224 83.5767 58.9824 83.2 58.5158 82.72C58.0491 82.2333 57.6824 81.6733 57.4158 81.04C57.1558 80.4067 57.0258 79.7267 57.0258 79C57.0258 78.2733 57.1558 77.5933 57.4158 76.96C57.6824 76.32 58.0491 75.76 58.5158 75.28C58.9824 74.7933 59.5224 74.4133 60.1358 74.14C60.7558 73.8667 61.4158 73.73 62.1158 73.73C62.8958 73.73 63.5791 73.9233 64.1658 74.31C64.7591 74.69 65.2291 75.1967 65.5758 75.83V74ZM62.1258 82.9C62.8191 82.9 63.4158 82.72 63.9158 82.36C64.4224 82 64.8124 81.5233 65.0858 80.93C65.3591 80.3367 65.4958 79.6933 65.4958 79C65.4958 78.2867 65.3558 77.6367 65.0758 77.05C64.8024 76.4567 64.4124 75.9833 63.9058 75.63C63.3991 75.27 62.8058 75.09 62.1258 75.09C61.4458 75.09 60.8258 75.2667 60.2658 75.62C59.7124 75.9667 59.2724 76.4367 58.9458 77.03C58.6191 77.6233 58.4558 78.28 58.4558 79C58.4558 79.72 58.6224 80.3767 58.9558 80.97C59.2891 81.5567 59.7324 82.0267 60.2858 82.38C60.8458 82.7267 61.4591 82.9 62.1258 82.9ZM68.8469 80.17V74H70.2469V79.89C70.2469 80.4367 70.3802 80.9333 70.6469 81.38C70.9135 81.8267 71.2702 82.1833 71.7169 82.45C72.1702 82.7167 72.6669 82.85 73.2069 82.85C73.7535 82.85 74.2469 82.7167 74.6869 82.45C75.1335 82.1833 75.4902 81.8267 75.7569 81.38C76.0235 80.9333 76.1569 80.4367 76.1569 79.89V74H77.5569L77.5669 84H76.1669L76.1569 82.6C75.8035 83.1067 75.3435 83.51 74.7769 83.81C74.2169 84.11 73.6035 84.26 72.9369 84.26C72.1835 84.26 71.4969 84.0767 70.8769 83.71C70.2569 83.3433 69.7635 82.85 69.3969 82.23C69.0302 81.61 68.8469 80.9233 68.8469 80.17ZM82.6494 84.19C82.1027 84.1767 81.5694 84.0767 81.0494 83.89C80.5294 83.7033 80.076 83.45 79.6894 83.13C79.3027 82.81 79.026 82.4467 78.8594 82.04L80.0694 81.52C80.176 81.78 80.3727 82.02 80.6594 82.24C80.9527 82.4533 81.286 82.6267 81.6594 82.76C82.0327 82.8867 82.4027 82.95 82.7694 82.95C83.176 82.95 83.556 82.8833 83.9094 82.75C84.2627 82.6167 84.5494 82.4267 84.7694 82.18C84.996 81.9267 85.1094 81.63 85.1094 81.29C85.1094 80.9233 84.9894 80.6367 84.7494 80.43C84.5094 80.2167 84.206 80.05 83.8394 79.93C83.4727 79.8033 83.096 79.6833 82.7094 79.57C82.0027 79.3767 81.3794 79.1633 80.8394 78.93C80.2994 78.6967 79.876 78.4 79.5694 78.04C79.2694 77.6733 79.1194 77.2033 79.1194 76.63C79.1194 76.0233 79.2894 75.5 79.6294 75.06C79.976 74.6133 80.426 74.27 80.9794 74.03C81.5394 73.7833 82.136 73.66 82.7694 73.66C83.5827 73.66 84.3227 73.8367 84.9894 74.19C85.6627 74.5433 86.1494 75.0133 86.4494 75.6L85.3194 76.27C85.1994 75.9967 85.0094 75.76 84.7494 75.56C84.4894 75.36 84.1927 75.2033 83.8594 75.09C83.5327 74.9767 83.1994 74.9167 82.8594 74.91C82.4327 74.9033 82.036 74.9667 81.6694 75.1C81.3027 75.2267 81.006 75.4167 80.7794 75.67C80.5594 75.9233 80.4494 76.2333 80.4494 76.6C80.4494 76.9667 80.5594 77.2467 80.7794 77.44C80.9994 77.6267 81.296 77.78 81.6694 77.9C82.0494 78.0133 82.476 78.1467 82.9494 78.3C83.556 78.4933 84.126 78.7133 84.6594 78.96C85.1927 79.2067 85.6227 79.5133 85.9494 79.88C86.276 80.2467 86.436 80.71 86.4294 81.27C86.4294 81.87 86.2494 82.3933 85.8894 82.84C85.5294 83.2867 85.0627 83.63 84.4894 83.87C83.916 84.1033 83.3027 84.21 82.6494 84.19Z" fill="black"/>
<path d="M2.808 103.117C2.46 103.117 2.1255 103.063 1.8045 102.955C1.4865 102.844 1.2075 102.686 0.9675 102.482C0.7275 102.275 0.555 102.028 0.45 101.74L1.4805 101.362C1.5225 101.482 1.608 101.591 1.737 101.69C1.866 101.789 2.0235 101.869 2.2095 101.929C2.3955 101.989 2.595 102.019 2.808 102.019C3.027 102.019 3.231 101.986 3.42 101.92C3.612 101.851 3.7665 101.756 3.8835 101.636C4.0005 101.513 4.059 101.371 4.059 101.209C4.059 101.044 3.9975 100.909 3.8745 100.804C3.7515 100.696 3.594 100.61 3.402 100.547C3.21 100.484 3.012 100.436 2.808 100.403C2.361 100.334 1.9605 100.228 1.6065 100.084C1.2525 99.94 0.972 99.7405 0.765 99.4855C0.561 99.2305 0.459 98.9005 0.459 98.4955C0.459 98.1145 0.5685 97.7815 0.7875 97.4965C1.0065 97.2115 1.2945 96.9895 1.6515 96.8305C2.0085 96.6715 2.394 96.592 2.808 96.592C3.153 96.592 3.486 96.646 3.807 96.754C4.128 96.862 4.4085 97.0195 4.6485 97.2265C4.8915 97.4335 5.0655 97.6825 5.1705 97.9735L4.1355 98.347C4.0935 98.227 4.008 98.1175 3.879 98.0185C3.75 97.9195 3.5925 97.8415 3.4065 97.7845C3.2205 97.7245 3.021 97.6945 2.808 97.6945C2.595 97.6915 2.3925 97.726 2.2005 97.798C2.0115 97.867 1.857 97.9615 1.737 98.0815C1.617 98.2015 1.557 98.3395 1.557 98.4955C1.557 98.6965 1.6125 98.848 1.7235 98.95C1.8375 99.052 1.989 99.127 2.178 99.175C2.367 99.22 2.577 99.262 2.808 99.301C3.228 99.367 3.6165 99.478 3.9735 99.634C4.3305 99.79 4.617 99.9985 4.833 100.259C5.049 100.517 5.157 100.834 5.157 101.209C5.157 101.59 5.049 101.924 4.833 102.212C4.617 102.497 4.3305 102.719 3.9735 102.878C3.6165 103.038 3.228 103.117 2.808 103.117ZM8.80559 101.645L9.79559 102.181C9.58859 102.463 9.32909 102.689 9.01709 102.86C8.70509 103.031 8.36459 103.117 7.99559 103.117C7.58159 103.117 7.20359 103.01 6.86159 102.797C6.52259 102.584 6.25109 102.299 6.04709 101.942C5.84609 101.582 5.74559 101.185 5.74559 100.75C5.74559 100.42 5.80409 100.112 5.92109 99.8275C6.03809 99.5395 6.19859 99.2875 6.40259 99.0715C6.60959 98.8525 6.84959 98.6815 7.12259 98.5585C7.39559 98.4355 7.68659 98.374 7.99559 98.374C8.36459 98.374 8.70509 98.4595 9.01709 98.6305C9.32909 98.8015 9.58859 99.031 9.79559 99.319L8.80559 99.85C8.70059 99.73 8.57609 99.637 8.43209 99.571C8.29109 99.505 8.14559 99.472 7.99559 99.472C7.77959 99.472 7.58459 99.532 7.41059 99.652C7.23659 99.769 7.09859 99.925 6.99659 100.12C6.89459 100.312 6.84359 100.522 6.84359 100.75C6.84359 100.975 6.89459 101.185 6.99659 101.38C7.09859 101.572 7.23659 101.726 7.41059 101.844C7.58459 101.96 7.77959 102.019 7.99559 102.019C8.15159 102.019 8.30009 101.986 8.44109 101.92C8.58209 101.851 8.70359 101.759 8.80559 101.645ZM14.5849 100.156V103H13.4869V100.444C13.4869 100.267 13.4434 100.106 13.3564 99.9625C13.2694 99.8155 13.1524 99.7 13.0054 99.616C12.8614 99.529 12.7009 99.4855 12.5239 99.4855C12.3469 99.4855 12.1849 99.529 12.0379 99.616C11.8939 99.7 11.7784 99.8155 11.6914 99.9625C11.6074 100.106 11.5654 100.267 11.5654 100.444V103H10.4674L10.4629 96.25H11.5609L11.5654 98.9005C11.7184 98.7385 11.9014 98.611 12.1144 98.518C12.3274 98.422 12.5569 98.374 12.8029 98.374C13.1299 98.374 13.4284 98.455 13.6984 98.617C13.9684 98.776 14.1829 98.9905 14.3419 99.2605C14.5039 99.5275 14.5849 99.826 14.5849 100.156ZM17.3735 103.117C16.9595 103.117 16.5815 103.01 16.2395 102.797C15.9005 102.584 15.629 102.298 15.425 101.938C15.224 101.578 15.1235 101.18 15.1235 100.745C15.1235 100.418 15.182 100.112 15.299 99.8275C15.416 99.5395 15.5765 99.2875 15.7805 99.0715C15.9875 98.8525 16.2275 98.6815 16.5005 98.5585C16.7735 98.4355 17.0645 98.374 17.3735 98.374C17.7245 98.374 18.0455 98.449 18.3365 98.599C18.6305 98.746 18.8795 98.9485 19.0835 99.2065C19.2875 99.4645 19.436 99.7585 19.529 100.088C19.622 100.418 19.643 100.763 19.592 101.123H16.3025C16.3445 101.291 16.4135 101.443 16.5095 101.578C16.6055 101.71 16.727 101.816 16.874 101.897C17.021 101.975 17.1875 102.016 17.3735 102.019C17.5655 102.022 17.7395 101.977 17.8955 101.884C18.0545 101.788 18.1865 101.659 18.2915 101.497L19.412 101.758C19.229 102.157 18.956 102.484 18.593 102.739C18.23 102.991 17.8235 103.117 17.3735 103.117ZM16.2665 100.3H18.4805C18.4475 100.12 18.377 99.958 18.269 99.814C18.164 99.667 18.0335 99.55 17.8775 99.463C17.7215 99.376 17.5535 99.3325 17.3735 99.3325C17.1935 99.3325 17.027 99.376 16.874 99.463C16.721 99.547 16.5905 99.6625 16.4825 99.8095C16.3775 99.9535 16.3055 100.117 16.2665 100.3ZM23.7438 96.25H24.8418V103H23.7438V102.438C23.5998 102.638 23.4183 102.802 23.1993 102.928C22.9803 103.054 22.7268 103.117 22.4388 103.117C22.1118 103.117 21.8058 103.056 21.5208 102.932C21.2358 102.809 20.9838 102.64 20.7648 102.424C20.5488 102.205 20.3793 101.953 20.2563 101.668C20.1333 101.383 20.0718 101.077 20.0718 100.75C20.0718 100.423 20.1333 100.117 20.2563 99.832C20.3793 99.547 20.5488 99.2965 20.7648 99.0805C20.9838 98.8615 21.2358 98.6905 21.5208 98.5675C21.8058 98.4445 22.1118 98.383 22.4388 98.383C22.7268 98.383 22.9803 98.446 23.1993 98.572C23.4183 98.695 23.5998 98.8585 23.7438 99.0625V96.25ZM22.4523 102.059C22.6863 102.059 22.8933 102.001 23.0733 101.884C23.2533 101.767 23.3943 101.609 23.4963 101.411C23.5983 101.21 23.6493 100.99 23.6493 100.75C23.6493 100.507 23.5983 100.286 23.4963 100.088C23.3943 99.8875 23.2518 99.7285 23.0688 99.6115C22.8888 99.4945 22.6833 99.436 22.4523 99.436C22.2213 99.436 22.0098 99.496 21.8178 99.616C21.6288 99.733 21.4773 99.8905 21.3633 100.088C21.2523 100.286 21.1968 100.507 21.1968 100.75C21.1968 100.993 21.2538 101.213 21.3678 101.411C21.4818 101.609 21.6333 101.767 21.8223 101.884C22.0143 102.001 22.2243 102.059 22.4523 102.059ZM25.7428 101.335V98.5H26.8408V101.047C26.8408 101.224 26.8843 101.386 26.9713 101.533C27.0583 101.677 27.1738 101.792 27.3178 101.879C27.4648 101.963 27.6253 102.005 27.7993 102.005C27.9793 102.005 28.1413 101.963 28.2853 101.879C28.4293 101.792 28.5448 101.677 28.6318 101.533C28.7188 101.386 28.7623 101.224 28.7623 101.047V98.5H29.8603L29.8648 103H28.7668L28.7623 102.59C28.6063 102.752 28.4218 102.881 28.2088 102.977C27.9958 103.071 27.7678 103.117 27.5248 103.117C27.1978 103.117 26.8993 103.038 26.6293 102.878C26.3593 102.716 26.1433 102.502 25.9813 102.235C25.8223 101.965 25.7428 101.665 25.7428 101.335ZM30.792 103V96.25H31.89V103H30.792ZM34.8813 103.117C34.4673 103.117 34.0893 103.01 33.7473 102.797C33.4083 102.584 33.1368 102.298 32.9328 101.938C32.7318 101.578 32.6313 101.18 32.6313 100.745C32.6313 100.418 32.6898 100.112 32.8068 99.8275C32.9238 99.5395 33.0843 99.2875 33.2883 99.0715C33.4953 98.8525 33.7353 98.6815 34.0083 98.5585C34.2813 98.4355 34.5723 98.374 34.8813 98.374C35.2323 98.374 35.5533 98.449 35.8443 98.599C36.1383 98.746 36.3873 98.9485 36.5913 99.2065C36.7953 99.4645 36.9438 99.7585 37.0368 100.088C37.1298 100.418 37.1508 100.763 37.0998 101.123H33.8103C33.8523 101.291 33.9213 101.443 34.0173 101.578C34.1133 101.71 34.2348 101.816 34.3818 101.897C34.5288 101.975 34.6953 102.016 34.8813 102.019C35.0733 102.022 35.2473 101.977 35.4033 101.884C35.5623 101.788 35.6943 101.659 35.7993 101.497L36.9198 101.758C36.7368 102.157 36.4638 102.484 36.1008 102.739C35.7378 102.991 35.3313 103.117 34.8813 103.117ZM33.7743 100.3H35.9883C35.9553 100.12 35.8848 99.958 35.7768 99.814C35.6718 99.667 35.5413 99.55 35.3853 99.463C35.2293 99.376 35.0613 99.3325 34.8813 99.3325C34.7013 99.3325 34.5348 99.376 34.3818 99.463C34.2288 99.547 34.0983 99.6625 33.9903 99.8095C33.8853 99.9535 33.8133 100.117 33.7743 100.3ZM43.4926 98.5H44.5906V103H43.4926L43.4431 102.442C43.3201 102.643 43.1566 102.806 42.9526 102.932C42.7516 103.056 42.5131 103.117 42.2371 103.117C41.9041 103.117 41.5921 103.054 41.3011 102.928C41.0101 102.802 40.7536 102.628 40.5316 102.406C40.3126 102.184 40.1401 101.927 40.0141 101.636C39.8911 101.345 39.8296 101.033 39.8296 100.7C39.8296 100.379 39.8881 100.078 40.0051 99.796C40.1251 99.514 40.2916 99.2665 40.5046 99.0535C40.7176 98.8405 40.9636 98.674 41.2426 98.554C41.5216 98.434 41.8216 98.374 42.1426 98.374C42.4396 98.374 42.7051 98.44 42.9391 98.572C43.1761 98.704 43.3771 98.872 43.5421 99.076L43.4926 98.5ZM42.2101 102.059C42.4441 102.059 42.6511 102.001 42.8311 101.884C43.0111 101.767 43.1521 101.609 43.2541 101.411C43.3561 101.21 43.4071 100.99 43.4071 100.75C43.4071 100.507 43.3561 100.286 43.2541 100.088C43.1521 99.8875 43.0096 99.7285 42.8266 99.6115C42.6466 99.4945 42.4411 99.436 42.2101 99.436C41.9791 99.436 41.7676 99.496 41.5756 99.616C41.3866 99.733 41.2351 99.8905 41.1211 100.088C41.0101 100.286 40.9546 100.507 40.9546 100.75C40.9546 100.993 41.0116 101.213 41.1256 101.411C41.2396 101.609 41.3911 101.767 41.5801 101.884C41.7721 102.001 41.9821 102.059 42.2101 102.059ZM50.4394 101.645L51.4294 102.181C51.2224 102.463 50.9629 102.689 50.6509 102.86C50.3389 103.031 49.9984 103.117 49.6294 103.117C49.2154 103.117 48.8374 103.01 48.4954 102.797C48.1564 102.584 47.8849 102.299 47.6809 101.942C47.4799 101.582 47.3794 101.185 47.3794 100.75C47.3794 100.42 47.4379 100.112 47.5549 99.8275C47.6719 99.5395 47.8324 99.2875 48.0364 99.0715C48.2434 98.8525 48.4834 98.6815 48.7564 98.5585C49.0294 98.4355 49.3204 98.374 49.6294 98.374C49.9984 98.374 50.3389 98.4595 50.6509 98.6305C50.9629 98.8015 51.2224 99.031 51.4294 99.319L50.4394 99.85C50.3344 99.73 50.2099 99.637 50.0659 99.571C49.9249 99.505 49.7794 99.472 49.6294 99.472C49.4134 99.472 49.2184 99.532 49.0444 99.652C48.8704 99.769 48.7324 99.925 48.6304 100.12C48.5284 100.312 48.4774 100.522 48.4774 100.75C48.4774 100.975 48.5284 101.185 48.6304 101.38C48.7324 101.572 48.8704 101.726 49.0444 101.844C49.2184 101.96 49.4134 102.019 49.6294 102.019C49.7854 102.019 49.9339 101.986 50.0749 101.92C50.2159 101.851 50.3374 101.759 50.4394 101.645ZM54.0766 103.117C53.6626 103.117 53.2846 103.01 52.9426 102.797C52.6036 102.584 52.3321 102.299 52.1281 101.942C51.9271 101.582 51.8266 101.185 51.8266 100.75C51.8266 100.42 51.8851 100.112 52.0021 99.8275C52.1191 99.5395 52.2796 99.2875 52.4836 99.0715C52.6906 98.8525 52.9306 98.6815 53.2036 98.5585C53.4766 98.4355 53.7676 98.374 54.0766 98.374C54.4906 98.374 54.8671 98.4805 55.2061 98.6935C55.5481 98.9065 55.8196 99.193 56.0206 99.553C56.2246 99.913 56.3266 100.312 56.3266 100.75C56.3266 101.077 56.2681 101.383 56.1511 101.668C56.0341 101.953 55.8721 102.205 55.6651 102.424C55.4611 102.64 55.2226 102.809 54.9496 102.932C54.6796 103.056 54.3886 103.117 54.0766 103.117ZM54.0766 102.019C54.2956 102.019 54.4921 101.96 54.6661 101.844C54.8401 101.726 54.9766 101.572 55.0756 101.38C55.1776 101.188 55.2286 100.978 55.2286 100.75C55.2286 100.516 55.1761 100.303 55.0711 100.111C54.9691 99.916 54.8296 99.7615 54.6526 99.6475C54.4786 99.5305 54.2866 99.472 54.0766 99.472C53.8606 99.472 53.6656 99.5305 53.4916 99.6475C53.3176 99.7645 53.1796 99.9205 53.0776 100.115C52.9756 100.31 52.9246 100.522 52.9246 100.75C52.9246 100.987 52.9771 101.201 53.0821 101.393C53.1871 101.585 53.3266 101.738 53.5006 101.852C53.6776 101.963 53.8696 102.019 54.0766 102.019ZM61.1493 100.156V103H60.0513V100.444C60.0513 100.267 60.0078 100.106 59.9208 99.9625C59.8338 99.8155 59.7168 99.7 59.5698 99.616C59.4258 99.529 59.2653 99.4855 59.0883 99.4855C58.9113 99.4855 58.7493 99.529 58.6023 99.616C58.4583 99.7 58.3428 99.8155 58.2558 99.9625C58.1718 100.106 58.1298 100.267 58.1298 100.444V103H57.0318L57.0273 98.5H58.1253L58.1298 98.9005C58.2828 98.7385 58.4658 98.611 58.6788 98.518C58.8918 98.422 59.1213 98.374 59.3673 98.374C59.6943 98.374 59.9928 98.455 60.2628 98.617C60.5328 98.776 60.7473 98.9905 60.9063 99.2605C61.0683 99.5275 61.1493 99.826 61.1493 100.156ZM63.3734 103.081C63.1394 103.066 62.9129 103.02 62.6939 102.941C62.4779 102.86 62.2859 102.751 62.1179 102.613C61.9499 102.475 61.8209 102.31 61.7309 102.118L62.6579 101.722C62.6939 101.782 62.7524 101.846 62.8334 101.915C62.9144 101.981 63.0104 102.037 63.1214 102.082C63.2354 102.127 63.3599 102.149 63.4949 102.149C63.6089 102.149 63.7169 102.134 63.8189 102.104C63.9239 102.071 64.0079 102.022 64.0709 101.956C64.1369 101.89 64.1699 101.804 64.1699 101.699C64.1699 101.588 64.1309 101.503 64.0529 101.443C63.9779 101.38 63.8819 101.333 63.7649 101.303C63.6509 101.27 63.5399 101.24 63.4319 101.213C63.1469 101.156 62.8814 101.068 62.6354 100.948C62.3924 100.828 62.1959 100.673 62.0459 100.484C61.8989 100.292 61.8254 100.061 61.8254 99.7915C61.8254 99.4945 61.9034 99.238 62.0594 99.022C62.2184 98.806 62.4239 98.6395 62.6759 98.5225C62.9309 98.4055 63.2054 98.347 63.4994 98.347C63.8564 98.347 64.1834 98.422 64.4804 98.572C64.7804 98.719 65.0174 98.9275 65.1914 99.1975L64.3229 99.7105C64.2809 99.6385 64.2224 99.5725 64.1474 99.5125C64.0724 99.4495 63.9869 99.3985 63.8909 99.3595C63.7949 99.3175 63.6944 99.2935 63.5894 99.2875C63.4544 99.2815 63.3314 99.2935 63.2204 99.3235C63.1094 99.3535 63.0194 99.4045 62.9504 99.4765C62.8844 99.5485 62.8514 99.6445 62.8514 99.7645C62.8514 99.8785 62.8964 99.964 62.9864 100.021C63.0764 100.075 63.1844 100.117 63.3104 100.147C63.4394 100.177 63.5624 100.21 63.6794 100.246C63.9434 100.333 64.1909 100.439 64.4219 100.565C64.6559 100.691 64.8434 100.846 64.9844 101.029C65.1254 101.212 65.1929 101.431 65.1869 101.686C65.1869 101.977 65.0999 102.232 64.9259 102.451C64.7519 102.667 64.5269 102.832 64.2509 102.946C63.9779 103.06 63.6854 103.105 63.3734 103.081ZM65.777 101.335V98.5H66.875V101.047C66.875 101.224 66.9185 101.386 67.0055 101.533C67.0925 101.677 67.208 101.792 67.352 101.879C67.499 101.963 67.6595 102.005 67.8335 102.005C68.0135 102.005 68.1755 101.963 68.3195 101.879C68.4635 101.792 68.579 101.677 68.666 101.533C68.753 101.386 68.7965 101.224 68.7965 101.047V98.5H69.8945L69.899 103H68.801L68.7965 102.59C68.6405 102.752 68.456 102.881 68.243 102.977C68.03 103.071 67.802 103.117 67.559 103.117C67.232 103.117 66.9335 103.038 66.6635 102.878C66.3935 102.716 66.1775 102.502 66.0155 102.235C65.8565 101.965 65.777 101.665 65.777 101.335ZM70.8261 103V96.25H71.9241V103H70.8261ZM75.4178 99.598H74.5448V103H73.4468V99.598H72.7808V98.5H73.4468V97.087H74.5448V98.5H75.4178V99.598ZM79.5189 98.5H80.6169V103H79.5189L79.4694 102.442C79.3464 102.643 79.1829 102.806 78.9789 102.932C78.7779 103.056 78.5394 103.117 78.2634 103.117C77.9304 103.117 77.6184 103.054 77.3274 102.928C77.0364 102.802 76.7799 102.628 76.5579 102.406C76.3389 102.184 76.1664 101.927 76.0404 101.636C75.9174 101.345 75.8559 101.033 75.8559 100.7C75.8559 100.379 75.9144 100.078 76.0314 99.796C76.1514 99.514 76.3179 99.2665 76.5309 99.0535C76.7439 98.8405 76.9899 98.674 77.2689 98.554C77.5479 98.434 77.8479 98.374 78.1689 98.374C78.4659 98.374 78.7314 98.44 78.9654 98.572C79.2024 98.704 79.4034 98.872 79.5684 99.076L79.5189 98.5ZM78.2364 102.059C78.4704 102.059 78.6774 102.001 78.8574 101.884C79.0374 101.767 79.1784 101.609 79.2804 101.411C79.3824 101.21 79.4334 100.99 79.4334 100.75C79.4334 100.507 79.3824 100.286 79.2804 100.088C79.1784 99.8875 79.0359 99.7285 78.8529 99.6115C78.6729 99.4945 78.4674 99.436 78.2364 99.436C78.0054 99.436 77.7939 99.496 77.6019 99.616C77.4129 99.733 77.2614 99.8905 77.1474 100.088C77.0364 100.286 76.9809 100.507 76.9809 100.75C76.9809 100.993 77.0379 101.213 77.1519 101.411C77.2659 101.609 77.4174 101.767 77.6064 101.884C77.7984 102.001 78.0084 102.059 78.2364 102.059ZM83.9256 99.598H83.0526V103H81.9546V99.598H81.2886V98.5H81.9546V97.087H83.0526V98.5H83.9256V99.598ZM84.6689 98.5H85.7669V103H84.6689V98.5ZM85.2269 97.9195C85.0649 97.9195 84.9284 97.867 84.8174 97.762C84.7064 97.654 84.6509 97.519 84.6509 97.357C84.6509 97.198 84.7064 97.0645 84.8174 96.9565C84.9284 96.8485 85.0634 96.7945 85.2224 96.7945C85.3814 96.7945 85.5149 96.8485 85.6229 96.9565C85.7339 97.0645 85.7894 97.198 85.7894 97.357C85.7894 97.519 85.7354 97.654 85.6274 97.762C85.5194 97.867 85.3859 97.9195 85.2269 97.9195ZM88.7231 103.117C88.3091 103.117 87.9311 103.01 87.5891 102.797C87.2501 102.584 86.9786 102.299 86.7746 101.942C86.5736 101.582 86.4731 101.185 86.4731 100.75C86.4731 100.42 86.5316 100.112 86.6486 99.8275C86.7656 99.5395 86.9261 99.2875 87.1301 99.0715C87.3371 98.8525 87.5771 98.6815 87.8501 98.5585C88.1231 98.4355 88.4141 98.374 88.7231 98.374C89.1371 98.374 89.5136 98.4805 89.8526 98.6935C90.1946 98.9065 90.4661 99.193 90.6671 99.553C90.8711 99.913 90.9731 100.312 90.9731 100.75C90.9731 101.077 90.9146 101.383 90.7976 101.668C90.6806 101.953 90.5186 102.205 90.3116 102.424C90.1076 102.64 89.8691 102.809 89.5961 102.932C89.3261 103.056 89.0351 103.117 88.7231 103.117ZM88.7231 102.019C88.9421 102.019 89.1386 101.96 89.3126 101.844C89.4866 101.726 89.6231 101.572 89.7221 101.38C89.8241 101.188 89.8751 100.978 89.8751 100.75C89.8751 100.516 89.8226 100.303 89.7176 100.111C89.6156 99.916 89.4761 99.7615 89.2991 99.6475C89.1251 99.5305 88.9331 99.472 88.7231 99.472C88.5071 99.472 88.3121 99.5305 88.1381 99.6475C87.9641 99.7645 87.8261 99.9205 87.7241 100.115C87.6221 100.31 87.5711 100.522 87.5711 100.75C87.5711 100.987 87.6236 101.201 87.7286 101.393C87.8336 101.585 87.9731 101.738 88.1471 101.852C88.3241 101.963 88.5161 102.019 88.7231 102.019ZM95.7958 100.156V103H94.6978V100.444C94.6978 100.267 94.6543 100.106 94.5673 99.9625C94.4803 99.8155 94.3633 99.7 94.2163 99.616C94.0723 99.529 93.9118 99.4855 93.7348 99.4855C93.5578 99.4855 93.3958 99.529 93.2488 99.616C93.1048 99.7 92.9893 99.8155 92.9023 99.9625C92.8183 100.106 92.7763 100.267 92.7763 100.444V103H91.6783L91.6738 98.5H92.7718L92.7763 98.9005C92.9293 98.7385 93.1123 98.611 93.3253 98.518C93.5383 98.422 93.7678 98.374 94.0138 98.374C94.3408 98.374 94.6393 98.455 94.9093 98.617C95.1793 98.776 95.3938 98.9905 95.5528 99.2605C95.7148 99.5275 95.7958 99.826 95.7958 100.156ZM2.952 112.598H2.079V116H0.981V112.598H0.315V111.5H0.981V110.087H2.079V111.5H2.952V112.598ZM5.64012 116.117C5.22612 116.117 4.84812 116.01 4.50612 115.797C4.16712 115.584 3.89562 115.299 3.69162 114.942C3.49062 114.582 3.39012 114.185 3.39012 113.75C3.39012 113.42 3.44862 113.112 3.56562 112.827C3.68262 112.539 3.84312 112.287 4.04712 112.071C4.25412 111.852 4.49412 111.681 4.76712 111.558C5.04012 111.435 5.33112 111.374 5.64012 111.374C6.05412 111.374 6.43062 111.48 6.76962 111.693C7.11162 111.906 7.38312 112.193 7.58412 112.553C7.78812 112.913 7.89012 113.312 7.89012 113.75C7.89012 114.077 7.83162 114.383 7.71462 114.668C7.59762 114.953 7.43562 115.205 7.22862 115.424C7.02462 115.64 6.78612 115.809 6.51312 115.932C6.24312 116.056 5.95212 116.117 5.64012 116.117ZM5.64012 115.019C5.85912 115.019 6.05562 114.96 6.22962 114.844C6.40362 114.726 6.54012 114.572 6.63912 114.38C6.74112 114.188 6.79212 113.978 6.79212 113.75C6.79212 113.516 6.73962 113.303 6.63462 113.111C6.53262 112.916 6.39312 112.761 6.21612 112.647C6.04212 112.53 5.85012 112.472 5.64012 112.472C5.42412 112.472 5.22912 112.53 5.05512 112.647C4.88112 112.764 4.74312 112.92 4.64112 113.115C4.53912 113.31 4.48812 113.522 4.48812 113.75C4.48812 113.987 4.54062 114.201 4.64562 114.393C4.75062 114.585 4.89012 114.738 5.06412 114.852C5.24112 114.963 5.43312 115.019 5.64012 115.019ZM12.0104 109.25H13.1084V116H12.0104V115.438C11.8664 115.638 11.6849 115.802 11.4659 115.928C11.2469 116.054 10.9934 116.117 10.7054 116.117C10.3784 116.117 10.0724 116.056 9.78736 115.932C9.50236 115.809 9.25036 115.64 9.03136 115.424C8.81536 115.205 8.64586 114.953 8.52286 114.668C8.39986 114.383 8.33836 114.077 8.33836 113.75C8.33836 113.423 8.39986 113.117 8.52286 112.832C8.64586 112.547 8.81536 112.296 9.03136 112.08C9.25036 111.861 9.50236 111.69 9.78736 111.567C10.0724 111.444 10.3784 111.383 10.7054 111.383C10.9934 111.383 11.2469 111.446 11.4659 111.572C11.6849 111.695 11.8664 111.858 12.0104 112.062V109.25ZM10.7189 115.059C10.9529 115.059 11.1599 115.001 11.3399 114.884C11.5199 114.767 11.6609 114.609 11.7629 114.411C11.8649 114.21 11.9159 113.99 11.9159 113.75C11.9159 113.507 11.8649 113.286 11.7629 113.088C11.6609 112.887 11.5184 112.728 11.3354 112.611C11.1554 112.494 10.9499 112.436 10.7189 112.436C10.4879 112.436 10.2764 112.496 10.0844 112.616C9.89536 112.733 9.74386 112.89 9.62986 113.088C9.51886 113.286 9.46336 113.507 9.46336 113.75C9.46336 113.993 9.52036 114.213 9.63436 114.411C9.74836 114.609 9.89986 114.767 10.0889 114.884C10.2809 115.001 10.4909 115.059 10.7189 115.059ZM17.5121 111.5H18.6101V116H17.5121L17.4626 115.442C17.3396 115.643 17.1761 115.806 16.9721 115.932C16.7711 116.056 16.5326 116.117 16.2566 116.117C15.9236 116.117 15.6116 116.054 15.3206 115.928C15.0296 115.802 14.7731 115.628 14.5511 115.406C14.3321 115.184 14.1596 114.927 14.0336 114.636C13.9106 114.345 13.8491 114.033 13.8491 113.7C13.8491 113.379 13.9076 113.078 14.0246 112.796C14.1446 112.514 14.3111 112.266 14.5241 112.053C14.7371 111.84 14.9831 111.674 15.2621 111.554C15.5411 111.434 15.8411 111.374 16.1621 111.374C16.4591 111.374 16.7246 111.44 16.9586 111.572C17.1956 111.704 17.3966 111.872 17.5616 112.076L17.5121 111.5ZM16.2296 115.059C16.4636 115.059 16.6706 115.001 16.8506 114.884C17.0306 114.767 17.1716 114.609 17.2736 114.411C17.3756 114.21 17.4266 113.99 17.4266 113.75C17.4266 113.507 17.3756 113.286 17.2736 113.088C17.1716 112.887 17.0291 112.728 16.8461 112.611C16.6661 112.494 16.4606 112.436 16.2296 112.436C15.9986 112.436 15.7871 112.496 15.5951 112.616C15.4061 112.733 15.2546 112.89 15.1406 113.088C15.0296 113.286 14.9741 113.507 14.9741 113.75C14.9741 113.993 15.0311 114.213 15.1451 114.411C15.2591 114.609 15.4106 114.767 15.5996 114.884C15.7916 115.001 16.0016 115.059 16.2296 115.059ZM22.3477 111.5H23.5132L21.0517 118.25H19.8862L20.7007 116L19.0807 111.5H20.2822L21.2497 114.497L22.3477 111.5ZM24.4157 116.117C24.2597 116.117 24.1262 116.063 24.0152 115.955C23.9072 115.844 23.8532 115.709 23.8532 115.55C23.8532 115.397 23.9072 115.265 24.0152 115.154C24.1262 115.043 24.2597 114.987 24.4157 114.987C24.5717 114.987 24.7052 115.043 24.8162 115.154C24.9272 115.265 24.9827 115.397 24.9827 115.55C24.9827 115.709 24.9272 115.844 24.8162 115.955C24.7052 116.063 24.5717 116.117 24.4157 116.117Z" fill="black"/>
</svg>
