<svg width="251" height="250" viewBox="0 0 251 250" fill="none" xmlns="http://www.w3.org/2000/svg">
<path d="M12.806 29.494C10.678 29.494 8.82233 28.9747 7.239 27.936C5.66833 26.8973 4.446 25.504 3.572 23.756C2.71067 21.9953 2.28 20.0447 2.28 17.904V2.4H6.232V17.904C6.232 19.2973 6.48533 20.5767 6.992 21.742C7.51133 22.8947 8.25867 23.8193 9.234 24.516C10.222 25.2 11.4127 25.542 12.806 25.542C14.2373 25.542 15.4407 25.2 16.416 24.516C17.3913 23.8193 18.126 22.8947 18.62 21.742C19.1267 20.5767 19.38 19.2973 19.38 17.904V2.4H23.332V17.904C23.332 19.5127 23.085 21.02 22.591 22.426C22.097 23.8193 21.3877 25.048 20.463 26.112C19.5383 27.176 18.43 28.0057 17.138 28.601C15.846 29.1963 14.402 29.494 12.806 29.494ZM46.403 17.087V29H42.451V18.056C42.451 17.2073 42.242 16.4347 41.824 15.738C41.4187 15.0413 40.8677 14.4903 40.171 14.085C39.487 13.667 38.7144 13.458 37.853 13.458C37.017 13.458 36.2507 13.667 35.554 14.085C34.8574 14.4903 34.3 15.0413 33.882 15.738C33.464 16.4347 33.255 17.2073 33.255 18.056V29H29.303V10H33.255V12.014C33.9137 11.2287 34.7244 10.608 35.687 10.152C36.6497 9.696 37.6884 9.468 38.803 9.468C40.209 9.468 41.4884 9.81 42.641 10.494C43.7937 11.178 44.7057 12.0963 45.377 13.249C46.061 14.4017 46.403 15.681 46.403 17.087ZM52.2441 29V0.499998H56.1961V29H52.2441ZM70.7423 29.494C68.9943 29.494 67.3983 29.0443 65.9543 28.145C64.523 27.2457 63.3767 26.0423 62.5153 24.535C61.6667 23.015 61.2423 21.3367 61.2423 19.5C61.2423 18.1067 61.4893 16.8083 61.9833 15.605C62.4773 14.389 63.155 13.325 64.0163 12.413C64.8903 11.4883 65.9037 10.7663 67.0563 10.247C68.209 9.72767 69.4377 9.468 70.7423 9.468C72.4903 9.468 74.08 9.91767 75.5113 10.817C76.9553 11.7163 78.1017 12.926 78.9503 14.446C79.8117 15.966 80.2423 17.6507 80.2423 19.5C80.2423 20.8807 79.9953 22.1727 79.5013 23.376C79.0073 24.5793 78.3233 25.6433 77.4493 26.568C76.588 27.48 75.581 28.1957 74.4283 28.715C73.2883 29.2343 72.0597 29.494 70.7423 29.494ZM70.7423 25.542C71.7937 25.542 72.7373 25.2633 73.5733 24.706C74.4093 24.1487 75.068 23.414 75.5493 22.502C76.0433 21.5773 76.2903 20.5767 76.2903 19.5C76.2903 18.398 76.037 17.3847 75.5303 16.46C75.0363 15.5353 74.3713 14.8007 73.5353 14.256C72.6993 13.6987 71.7683 13.42 70.7423 13.42C69.7037 13.42 68.76 13.6987 67.9113 14.256C67.0753 14.8133 66.4103 15.5543 65.9163 16.479C65.435 17.4037 65.1943 18.4107 65.1943 19.5C65.1943 20.6273 65.4477 21.647 65.9543 22.559C66.461 23.471 67.1323 24.1993 67.9683 24.744C68.817 25.276 69.7417 25.542 70.7423 25.542ZM97.5819 23.604L101.116 25.523C100.255 26.7263 99.1589 27.689 97.8289 28.411C96.5116 29.133 95.0803 29.494 93.5349 29.494C91.7869 29.494 90.1909 29.0443 88.7469 28.145C87.3156 27.2457 86.1693 26.0423 85.3079 24.535C84.4593 23.015 84.0349 21.3367 84.0349 19.5C84.0349 18.1067 84.2819 16.8083 84.7759 15.605C85.2699 14.389 85.9476 13.325 86.8089 12.413C87.6829 11.4883 88.6963 10.7663 89.8489 10.247C91.0016 9.72767 92.2303 9.468 93.5349 9.468C95.0803 9.468 96.5116 9.829 97.8289 10.551C99.1589 11.273 100.255 12.242 101.116 13.458L97.5819 15.377C97.0499 14.7437 96.4293 14.2623 95.7199 13.933C95.0106 13.591 94.2823 13.42 93.5349 13.42C92.4963 13.42 91.5526 13.705 90.7039 14.275C89.8679 14.8323 89.2029 15.5733 88.7089 16.498C88.2276 17.41 87.9869 18.4107 87.9869 19.5C87.9869 20.5767 88.2339 21.5773 88.7279 22.502C89.2219 23.414 89.8869 24.1487 90.7229 24.706C91.5716 25.2633 92.5089 25.542 93.5349 25.542C94.3203 25.542 95.0676 25.3647 95.7769 25.01C96.4863 24.6553 97.0879 24.1867 97.5819 23.604ZM122.209 29H117.649L112.975 20.944L109.916 24.592V29H105.964V0.499998H109.916V18.455L116.984 10H122.152L115.673 17.733L122.209 29ZM2.28 75V48.4H11.438C12.8693 48.4 14.1613 48.7547 15.314 49.464C16.4793 50.1733 17.404 51.1297 18.088 52.333C18.7847 53.5363 19.133 54.8663 19.133 56.323C19.133 57.805 18.7783 59.1477 18.069 60.351C17.3723 61.5417 16.4413 62.4917 15.276 63.201C14.1107 63.9103 12.8313 64.265 11.438 64.265H6.232V75H2.28ZM6.232 60.313H11.039C11.799 60.313 12.4893 60.123 13.11 59.743C13.7433 59.363 14.2437 58.8563 14.611 58.223C14.991 57.5897 15.181 56.874 15.181 56.076C15.181 55.278 14.991 54.5623 14.611 53.929C14.2437 53.283 13.7433 52.7763 13.11 52.409C12.4893 52.029 11.799 51.839 11.039 51.839H6.232V60.313ZM24.1448 75V56H28.0968V58.014C28.7555 57.2287 29.5662 56.608 30.5288 56.152C31.4915 55.696 32.5302 55.468 33.6448 55.468C34.3542 55.468 35.0572 55.563 35.7538 55.753L34.1768 59.743C33.6828 59.553 33.1888 59.458 32.6948 59.458C31.8588 59.458 31.0925 59.667 30.3958 60.085C29.6992 60.4903 29.1418 61.0413 28.7238 61.738C28.3058 62.4347 28.0968 63.2073 28.0968 64.056V75H24.1448ZM47.3189 75.494C45.5709 75.494 43.9749 75.0443 42.5309 74.145C41.0996 73.2457 39.9532 72.0423 39.0919 70.535C38.2432 69.015 37.8189 67.3367 37.8189 65.5C37.8189 64.1067 38.0659 62.8083 38.5599 61.605C39.0539 60.389 39.7316 59.325 40.5929 58.413C41.4669 57.4883 42.4802 56.7663 43.6329 56.247C44.7856 55.7277 46.0142 55.468 47.3189 55.468C49.0669 55.468 50.6566 55.9177 52.0879 56.817C53.5319 57.7163 54.6782 58.926 55.5269 60.446C56.3882 61.966 56.8189 63.6507 56.8189 65.5C56.8189 66.8807 56.5719 68.1727 56.0779 69.376C55.5839 70.5793 54.8999 71.6433 54.0259 72.568C53.1646 73.48 52.1576 74.1957 51.0049 74.715C49.8649 75.2343 48.6362 75.494 47.3189 75.494ZM47.3189 71.542C48.3702 71.542 49.3139 71.2633 50.1499 70.706C50.9859 70.1487 51.6446 69.414 52.1259 68.502C52.6199 67.5773 52.8669 66.5767 52.8669 65.5C52.8669 64.398 52.6136 63.3847 52.1069 62.46C51.6129 61.5353 50.9479 60.8007 50.1119 60.256C49.2759 59.6987 48.3449 59.42 47.3189 59.42C46.2802 59.42 45.3366 59.6987 44.4879 60.256C43.6519 60.8133 42.9869 61.5543 42.4929 62.479C42.0116 63.4037 41.7709 64.4107 41.7709 65.5C41.7709 66.6273 42.0242 67.647 42.5309 68.559C43.0376 69.471 43.7089 70.1993 44.5449 70.744C45.3936 71.276 46.3182 71.542 47.3189 71.542ZM76.5525 46.5H80.5045V75H76.5525V72.207C75.9318 73.195 75.1212 73.993 74.1205 74.601C73.1198 75.1963 71.9482 75.494 70.6055 75.494C69.2248 75.494 67.9328 75.2343 66.7295 74.715C65.5262 74.1957 64.4622 73.48 63.5375 72.568C62.6255 71.6433 61.9098 70.5793 61.3905 69.376C60.8712 68.1727 60.6115 66.8807 60.6115 65.5C60.6115 64.1193 60.8712 62.8273 61.3905 61.624C61.9098 60.408 62.6255 59.344 63.5375 58.432C64.4622 57.5073 65.5262 56.7853 66.7295 56.266C67.9328 55.7467 69.2248 55.487 70.6055 55.487C71.9482 55.487 73.1198 55.791 74.1205 56.399C75.1212 56.9943 75.9318 57.7797 76.5525 58.755V46.5ZM70.6435 71.675C71.7582 71.675 72.7335 71.4027 73.5695 70.858C74.4055 70.3007 75.0515 69.5533 75.5075 68.616C75.9762 67.6787 76.2105 66.64 76.2105 65.5C76.2105 64.3473 75.9762 63.3023 75.5075 62.365C75.0388 61.4277 74.3865 60.6867 73.5505 60.142C72.7272 59.5847 71.7582 59.306 70.6435 59.306C69.5415 59.306 68.5345 59.5847 67.6225 60.142C66.7232 60.6993 66.0012 61.4467 65.4565 62.384C64.9245 63.3213 64.6585 64.36 64.6585 65.5C64.6585 66.6527 64.9308 67.6977 65.4755 68.635C66.0328 69.5597 66.7612 70.3007 67.6605 70.858C68.5725 71.4027 69.5668 71.675 70.6435 71.675ZM86.1962 67.875V56H90.1482V66.906C90.1482 67.7547 90.3572 68.5273 90.7752 69.224C91.1932 69.9207 91.7505 70.478 92.4472 70.896C93.1438 71.3013 93.9102 71.504 94.7462 71.504C95.5948 71.504 96.3612 71.3013 97.0452 70.896C97.7418 70.478 98.2928 69.9207 98.6982 69.224C99.1162 68.5273 99.3252 67.7547 99.3252 66.906V56H103.277L103.296 75H99.3442L99.3252 72.948C98.6792 73.7333 97.8748 74.354 96.9122 74.81C95.9495 75.266 94.9172 75.494 93.8152 75.494C92.4092 75.494 91.1298 75.152 89.9772 74.468C88.8245 73.784 87.9062 72.8657 87.2222 71.713C86.5382 70.5603 86.1962 69.281 86.1962 67.875ZM121.154 69.604L124.688 71.523C123.826 72.7263 122.731 73.689 121.401 74.411C120.083 75.133 118.652 75.494 117.107 75.494C115.359 75.494 113.763 75.0443 112.319 74.145C110.887 73.2457 109.741 72.0423 108.88 70.535C108.031 69.015 107.607 67.3367 107.607 65.5C107.607 64.1067 107.854 62.8083 108.348 61.605C108.842 60.389 109.519 59.325 110.381 58.413C111.255 57.4883 112.268 56.7663 113.421 56.247C114.573 55.7277 115.802 55.468 117.107 55.468C118.652 55.468 120.083 55.829 121.401 56.551C122.731 57.273 123.826 58.242 124.688 59.458L121.154 61.377C120.622 60.7437 120.001 60.2623 119.292 59.933C118.582 59.591 117.854 59.42 117.107 59.42C116.068 59.42 115.124 59.705 114.276 60.275C113.44 60.8323 112.775 61.5733 112.281 62.498C111.799 63.41 111.559 64.4107 111.559 65.5C111.559 66.5767 111.806 67.5773 112.3 68.502C112.794 69.414 113.459 70.1487 114.295 70.706C115.143 71.2633 116.081 71.542 117.107 71.542C117.892 71.542 118.639 71.3647 119.349 71.01C120.058 70.6553 120.66 70.1867 121.154 69.604ZM140.05 59.952H136.06L136.041 75H132.089L132.108 59.952H129.087V56H132.108L132.089 50.034H136.041L136.06 56H140.05V59.952ZM143.831 58.318L145.009 48.4H148.961L146.453 58.318H143.831ZM159.965 75.361C158.964 75.2977 157.989 75.095 157.039 74.753C156.089 74.411 155.253 73.9487 154.531 73.366C153.822 72.7707 153.29 72.074 152.935 71.276L156.298 69.832C156.463 70.174 156.748 70.5097 157.153 70.839C157.571 71.1683 158.059 71.4407 158.616 71.656C159.173 71.8587 159.756 71.96 160.364 71.96C160.959 71.96 161.51 71.8777 162.017 71.713C162.536 71.5357 162.961 71.2697 163.29 70.915C163.619 70.5603 163.784 70.136 163.784 69.642C163.784 69.0847 163.594 68.654 163.214 68.35C162.847 68.0333 162.384 67.7927 161.827 67.628C161.27 67.4633 160.712 67.305 160.155 67.153C158.914 66.8743 157.774 66.4943 156.735 66.013C155.709 65.519 154.892 64.892 154.284 64.132C153.676 63.3593 153.372 62.4157 153.372 61.301C153.372 60.085 153.701 59.0337 154.36 58.147C155.019 57.2477 155.88 56.5573 156.944 56.076C158.021 55.5947 159.167 55.354 160.383 55.354C161.903 55.354 163.296 55.677 164.563 56.323C165.83 56.969 166.799 57.8557 167.47 58.983L164.335 60.845C164.145 60.465 163.86 60.123 163.48 59.819C163.1 59.515 162.669 59.2743 162.188 59.097C161.707 58.907 161.206 58.7993 160.687 58.774C160.041 58.7487 159.439 58.8247 158.882 59.002C158.337 59.1667 157.9 59.4327 157.571 59.8C157.242 60.1673 157.077 60.636 157.077 61.206C157.077 61.7633 157.273 62.1813 157.666 62.46C158.059 62.726 158.553 62.9413 159.148 63.106C159.756 63.2707 160.377 63.4543 161.01 63.657C162.137 64.0117 163.195 64.4487 164.183 64.968C165.171 65.4747 165.969 66.1017 166.577 66.849C167.185 67.5963 167.476 68.5083 167.451 69.585C167.451 70.7757 167.09 71.8207 166.368 72.72C165.659 73.6193 164.734 74.3033 163.594 74.772C162.454 75.2407 161.244 75.437 159.965 75.361ZM2.28 121V94.4H11.438C12.8693 94.4 14.1613 94.7547 15.314 95.464C16.4793 96.1733 17.404 97.1297 18.088 98.333C18.7847 99.5363 19.133 100.866 19.133 102.323C19.133 103.805 18.7783 105.148 18.069 106.351C17.3723 107.542 16.4413 108.492 15.276 109.201C14.1107 109.91 12.8313 110.265 11.438 110.265H6.232V121H2.28ZM6.232 106.313H11.039C11.799 106.313 12.4893 106.123 13.11 105.743C13.7433 105.363 14.2437 104.856 14.611 104.223C14.991 103.59 15.181 102.874 15.181 102.076C15.181 101.278 14.991 100.562 14.611 99.929C14.2437 99.283 13.7433 98.7763 13.11 98.409C12.4893 98.029 11.799 97.839 11.039 97.839H6.232V106.313ZM31.5771 121.494C29.8291 121.494 28.2331 121.044 26.7891 120.145C25.3578 119.246 24.2114 118.042 23.3501 116.535C22.5014 115.015 22.0771 113.337 22.0771 111.5C22.0771 110.107 22.3241 108.808 22.8181 107.605C23.3121 106.389 23.9898 105.325 24.8511 104.413C25.7251 103.488 26.7384 102.766 27.8911 102.247C29.0438 101.728 30.2724 101.468 31.5771 101.468C33.3251 101.468 34.9148 101.918 36.3461 102.817C37.7901 103.716 38.9364 104.926 39.7851 106.446C40.6464 107.966 41.0771 109.651 41.0771 111.5C41.0771 112.881 40.8301 114.173 40.3361 115.376C39.8421 116.579 39.1581 117.643 38.2841 118.568C37.4228 119.48 36.4158 120.196 35.2631 120.715C34.1231 121.234 32.8944 121.494 31.5771 121.494ZM31.5771 117.542C32.6284 117.542 33.5721 117.263 34.4081 116.706C35.2441 116.149 35.9028 115.414 36.3841 114.502C36.8781 113.577 37.1251 112.577 37.1251 111.5C37.1251 110.398 36.8718 109.385 36.3651 108.46C35.8711 107.535 35.2061 106.801 34.3701 106.256C33.5341 105.699 32.6031 105.42 31.5771 105.42C30.5384 105.42 29.5948 105.699 28.7461 106.256C27.9101 106.813 27.2451 107.554 26.7511 108.479C26.2698 109.404 26.0291 110.411 26.0291 111.5C26.0291 112.627 26.2824 113.647 26.7891 114.559C27.2958 115.471 27.9671 116.199 28.8031 116.744C29.6518 117.276 30.5764 117.542 31.5771 117.542ZM55.9675 105.952H51.9775L51.9585 121H48.0065L48.0255 105.952H45.0045V102H48.0255L48.0065 96.034H51.9585L51.9775 102H55.9675V105.952ZM69.1838 121.494C67.4358 121.494 65.8398 121.044 64.3958 120.145C62.9644 119.246 61.8181 118.042 60.9568 116.535C60.1081 115.015 59.6838 113.337 59.6838 111.5C59.6838 110.107 59.9308 108.808 60.4248 107.605C60.9188 106.389 61.5964 105.325 62.4578 104.413C63.3318 103.488 64.3451 102.766 65.4978 102.247C66.6504 101.728 67.8791 101.468 69.1838 101.468C70.6404 101.468 71.9768 101.772 73.1928 102.38C74.4088 102.975 75.4474 103.805 76.3088 104.869C77.1701 105.92 77.8034 107.136 78.2088 108.517C78.6141 109.885 78.7344 111.342 78.5698 112.887H63.9208C64.0854 113.761 64.4021 114.553 64.8708 115.262C65.3521 115.959 65.9601 116.51 66.6948 116.915C67.4421 117.32 68.2718 117.529 69.1838 117.542C70.1464 117.542 71.0204 117.301 71.8058 116.82C72.6038 116.339 73.2561 115.674 73.7628 114.825L77.7718 115.756C77.0118 117.441 75.8654 118.821 74.3328 119.898C72.8001 120.962 71.0838 121.494 69.1838 121.494ZM63.7878 109.866H74.5798C74.4531 108.954 74.1301 108.131 73.6108 107.396C73.1041 106.649 72.4644 106.06 71.6918 105.629C70.9318 105.186 70.0958 104.964 69.1838 104.964C68.2844 104.964 67.4484 105.179 66.6758 105.61C65.9158 106.041 65.2824 106.63 64.7758 107.377C64.2818 108.112 63.9524 108.941 63.7878 109.866ZM100.716 109.087V121H96.7643V110.056C96.7643 109.207 96.5553 108.435 96.1373 107.738C95.732 107.041 95.181 106.49 94.4843 106.085C93.8003 105.667 93.0277 105.458 92.1663 105.458C91.3303 105.458 90.564 105.667 89.8673 106.085C89.1707 106.49 88.6133 107.041 88.1953 107.738C87.7773 108.435 87.5683 109.207 87.5683 110.056V121H83.6163V102H87.5683V104.014C88.227 103.229 89.0377 102.608 90.0003 102.152C90.963 101.696 92.0017 101.468 93.1163 101.468C94.5223 101.468 95.8017 101.81 96.9543 102.494C98.107 103.178 99.019 104.096 99.6903 105.249C100.374 106.402 100.716 107.681 100.716 109.087ZM116.441 105.952H112.451L112.432 121H108.48L108.499 105.952H105.478V102H108.499L108.48 96.034H112.432L112.451 102H116.441V105.952ZM121.483 102H125.435V121H121.483V102ZM123.497 99.245C122.889 99.245 122.382 99.0487 121.977 98.656C121.571 98.2633 121.369 97.7693 121.369 97.174C121.369 96.5913 121.571 96.1037 121.977 95.711C122.382 95.3057 122.882 95.103 123.478 95.103C124.06 95.103 124.554 95.3057 124.96 95.711C125.365 96.1037 125.568 96.5913 125.568 97.174C125.568 97.7693 125.365 98.2633 124.96 98.656C124.567 99.0487 124.079 99.245 123.497 99.245ZM146.329 102H150.281V121H146.31L146.158 118.245C145.6 119.22 144.847 120.006 143.897 120.601C142.947 121.196 141.826 121.494 140.534 121.494C139.14 121.494 137.829 121.234 136.601 120.715C135.372 120.183 134.289 119.448 133.352 118.511C132.427 117.574 131.705 116.497 131.186 115.281C130.666 114.052 130.407 112.735 130.407 111.329C130.407 109.974 130.66 108.701 131.167 107.51C131.673 106.307 132.376 105.255 133.276 104.356C134.175 103.457 135.214 102.754 136.392 102.247C137.582 101.728 138.855 101.468 140.211 101.468C141.591 101.468 142.807 101.785 143.859 102.418C144.923 103.039 145.803 103.837 146.5 104.812L146.329 102ZM140.439 117.675C141.553 117.675 142.529 117.403 143.365 116.858C144.201 116.301 144.847 115.553 145.303 114.616C145.771 113.679 146.006 112.64 146.006 111.5C146.006 110.347 145.771 109.302 145.303 108.365C144.834 107.428 144.182 106.687 143.346 106.142C142.522 105.585 141.553 105.306 140.439 105.306C139.337 105.306 138.33 105.585 137.418 106.142C136.506 106.699 135.784 107.447 135.252 108.384C134.72 109.321 134.454 110.36 134.454 111.5C134.454 112.653 134.726 113.698 135.271 114.635C135.828 115.56 136.556 116.301 137.456 116.858C138.368 117.403 139.362 117.675 140.439 117.675ZM156.121 121V92.5H160.073V121H156.121Z" fill="#8F00FF"/>
<path d="M151.65 10H154.462L144.069 38.5H141.238L144.696 29L137.875 10H140.782L146.026 25.333L151.65 10ZM167.375 29.494C165.627 29.494 164.031 29.0443 162.587 28.145C161.156 27.2457 160.009 26.0423 159.148 24.535C158.299 23.015 157.875 21.3367 157.875 19.5C157.875 18.1067 158.122 16.8083 158.616 15.605C159.11 14.389 159.788 13.325 160.649 12.413C161.523 11.4883 162.536 10.7663 163.689 10.247C164.842 9.72767 166.07 9.468 167.375 9.468C169.123 9.468 170.713 9.91767 172.144 10.817C173.588 11.7163 174.734 12.926 175.583 14.446C176.444 15.966 176.875 17.6507 176.875 19.5C176.875 20.8807 176.628 22.1727 176.134 23.376C175.64 24.5793 174.956 25.6433 174.082 26.568C173.221 27.48 172.214 28.1957 171.061 28.715C169.921 29.2343 168.692 29.494 167.375 29.494ZM167.375 26.834C168.667 26.834 169.826 26.4983 170.852 25.827C171.891 25.143 172.708 24.2437 173.303 23.129C173.911 22.0143 174.215 20.8047 174.215 19.5C174.215 18.17 173.911 16.9477 173.303 15.833C172.695 14.7057 171.872 13.8063 170.833 13.135C169.807 12.4637 168.654 12.128 167.375 12.128C166.083 12.128 164.918 12.47 163.879 13.154C162.853 13.8253 162.036 14.7183 161.428 15.833C160.833 16.9477 160.535 18.17 160.535 19.5C160.535 20.868 160.845 22.1093 161.466 23.224C162.087 24.326 162.916 25.2063 163.955 25.865C164.994 26.511 166.134 26.834 167.375 26.834ZM181.048 21.723V10H183.708V21.191C183.708 22.2297 183.961 23.1733 184.468 24.022C184.974 24.8707 185.652 25.5483 186.501 26.055C187.362 26.5617 188.306 26.815 189.332 26.815C190.37 26.815 191.308 26.5617 192.144 26.055C192.992 25.5483 193.67 24.8707 194.177 24.022C194.683 23.1733 194.937 22.2297 194.937 21.191V10H197.597L197.616 29H194.956L194.937 26.34C194.265 27.3027 193.391 28.069 192.315 28.639C191.251 29.209 190.085 29.494 188.819 29.494C187.387 29.494 186.083 29.1457 184.905 28.449C183.727 27.7523 182.789 26.815 182.093 25.637C181.396 24.459 181.048 23.1543 181.048 21.723ZM203.301 29V10H205.961V12.622C206.633 11.6593 207.507 10.893 208.583 10.323C209.66 9.753 210.832 9.468 212.098 9.468C212.833 9.468 213.542 9.563 214.226 9.753L213.143 12.394C212.611 12.2293 212.092 12.147 211.585 12.147C210.559 12.147 209.616 12.4003 208.754 12.907C207.906 13.4137 207.228 14.0913 206.721 14.94C206.215 15.7887 205.961 16.7323 205.961 17.771V29H203.301ZM185.509 121H182.773L176.408 102H179.011L184.179 117.314L189.309 102H192.121L197.251 117.314L202.381 102H205.003L198.638 121H195.883L190.677 105.534L185.509 121ZM210.063 102H212.723V121H210.063V102ZM211.412 98.675C210.981 98.675 210.614 98.5357 210.31 98.257C210.018 97.9657 209.873 97.6047 209.873 97.174C209.873 96.7433 210.018 96.3887 210.31 96.11C210.614 95.8187 210.981 95.673 211.412 95.673C211.83 95.673 212.184 95.8187 212.476 96.11C212.78 96.3887 212.932 96.7433 212.932 97.174C212.932 97.6047 212.786 97.9657 212.495 98.257C212.203 98.5357 211.842 98.675 211.412 98.675ZM228.908 104.66H224.367L224.348 121H221.688L221.707 104.66H218.268V102H221.707L221.688 96.034H224.348L224.367 102H228.908V104.66ZM250.767 109.239V121H248.107V109.771C248.107 108.732 247.853 107.789 247.347 106.94C246.84 106.091 246.162 105.414 245.314 104.907C244.465 104.4 243.521 104.147 242.483 104.147C241.457 104.147 240.513 104.4 239.652 104.907C238.803 105.414 238.125 106.091 237.619 106.94C237.112 107.789 236.859 108.732 236.859 109.771V121H234.199V92.5H236.859V104.622C237.53 103.659 238.404 102.893 239.481 102.323C240.557 101.753 241.729 101.468 242.996 101.468C244.427 101.468 245.732 101.816 246.91 102.513C248.088 103.21 249.025 104.147 249.722 105.325C250.418 106.503 250.767 107.808 250.767 109.239ZM10.982 167L1.33 140.4H5.51L13.452 162.307L21.432 140.4H25.612L15.96 167H10.982ZM29.637 148H33.589V167H29.637V148ZM31.651 145.245C31.043 145.245 30.5364 145.049 30.131 144.656C29.7257 144.263 29.523 143.769 29.523 143.174C29.523 142.591 29.7257 142.104 30.131 141.711C30.5364 141.306 31.0367 141.103 31.632 141.103C32.2147 141.103 32.7087 141.306 33.114 141.711C33.5194 142.104 33.722 142.591 33.722 143.174C33.722 143.769 33.5194 144.263 33.114 144.656C32.7214 145.049 32.2337 145.245 31.651 145.245ZM54.4831 148H58.4351V167H54.4641L54.3121 164.245C53.7548 165.22 53.0011 166.006 52.0511 166.601C51.1011 167.196 49.9801 167.494 48.6881 167.494C47.2948 167.494 45.9838 167.234 44.7551 166.715C43.5264 166.183 42.4434 165.448 41.5061 164.511C40.5814 163.574 39.8594 162.497 39.3401 161.281C38.8208 160.052 38.5611 158.735 38.5611 157.329C38.5611 155.974 38.8144 154.701 39.3211 153.51C39.8278 152.307 40.5308 151.255 41.4301 150.356C42.3294 149.457 43.3681 148.754 44.5461 148.247C45.7368 147.728 47.0098 147.468 48.3651 147.468C49.7458 147.468 50.9618 147.785 52.0131 148.418C53.0771 149.039 53.9574 149.837 54.6541 150.812L54.4831 148ZM48.5931 163.675C49.7078 163.675 50.6831 163.403 51.5191 162.858C52.3551 162.301 53.0011 161.553 53.4571 160.616C53.9258 159.679 54.1601 158.64 54.1601 157.5C54.1601 156.347 53.9258 155.302 53.4571 154.365C52.9884 153.428 52.3361 152.687 51.5001 152.142C50.6768 151.585 49.7078 151.306 48.5931 151.306C47.4911 151.306 46.4841 151.585 45.5721 152.142C44.6601 152.699 43.9381 153.447 43.4061 154.384C42.8741 155.321 42.6081 156.36 42.6081 157.5C42.6081 158.653 42.8804 159.698 43.4251 160.635C43.9824 161.56 44.7108 162.301 45.6101 162.858C46.5221 163.403 47.5164 163.675 48.5931 163.675ZM64.1265 167V148H68.0785V150.014C68.7372 149.229 69.5415 148.608 70.4915 148.152C71.4542 147.696 72.4928 147.468 73.6075 147.468C74.9628 147.468 76.2105 147.797 77.3505 148.456C78.4905 149.102 79.3962 149.963 80.0675 151.04C80.7388 149.963 81.6318 149.102 82.7465 148.456C83.8738 147.797 85.1152 147.468 86.4705 147.468C87.8765 147.468 89.1558 147.81 90.3085 148.494C91.4612 149.178 92.3795 150.096 93.0635 151.249C93.7475 152.402 94.0895 153.681 94.0895 155.087V167H90.1375V156.094C90.1375 155.258 89.9348 154.492 89.5295 153.795C89.1242 153.098 88.5795 152.535 87.8955 152.104C87.2115 151.673 86.4515 151.458 85.6155 151.458C84.7795 151.458 84.0195 151.661 83.3355 152.066C82.6515 152.471 82.1068 153.022 81.7015 153.719C81.2962 154.416 81.0935 155.207 81.0935 156.094V167H77.1415V156.094C77.1415 155.207 76.9388 154.416 76.5335 153.719C76.1282 153.022 75.5772 152.471 74.8805 152.066C74.1965 151.661 73.4365 151.458 72.6005 151.458C71.7772 151.458 71.0172 151.673 70.3205 152.104C69.6365 152.535 69.0918 153.098 68.6865 153.795C68.2812 154.492 68.0785 155.258 68.0785 156.094V167H64.1265ZM114.207 148H118.159V167H114.188L114.036 164.245C113.479 165.22 112.725 166.006 111.775 166.601C110.825 167.196 109.704 167.494 108.412 167.494C107.019 167.494 105.708 167.234 104.479 166.715C103.25 166.183 102.167 165.448 101.23 164.511C100.305 163.574 99.5833 162.497 99.0639 161.281C98.5446 160.052 98.2849 158.735 98.2849 157.329C98.2849 155.974 98.5383 154.701 99.0449 153.51C99.5516 152.307 100.255 151.255 101.154 150.356C102.053 149.457 103.092 148.754 104.27 148.247C105.461 147.728 106.734 147.468 108.089 147.468C109.47 147.468 110.686 147.785 111.737 148.418C112.801 149.039 113.681 149.837 114.378 150.812L114.207 148ZM108.317 163.675C109.432 163.675 110.407 163.403 111.243 162.858C112.079 162.301 112.725 161.553 113.181 160.616C113.65 159.679 113.884 158.64 113.884 157.5C113.884 156.347 113.65 155.302 113.181 154.365C112.712 153.428 112.06 152.687 111.224 152.142C110.401 151.585 109.432 151.306 108.317 151.306C107.215 151.306 106.208 151.585 105.296 152.142C104.384 152.699 103.662 153.447 103.13 154.384C102.598 155.321 102.332 156.36 102.332 157.5C102.332 158.653 102.604 159.698 103.149 160.635C103.706 161.56 104.435 162.301 105.334 162.858C106.246 163.403 107.24 163.675 108.317 163.675ZM137.938 148H141.89V167.494C141.89 168.799 141.612 170.002 141.054 171.104C140.51 172.206 139.769 173.156 138.831 173.954C137.894 174.765 136.817 175.392 135.601 175.835C134.398 176.278 133.138 176.5 131.82 176.5C130.49 176.5 129.211 176.215 127.982 175.645C126.754 175.088 125.671 174.328 124.733 173.365C123.809 172.402 123.118 171.313 122.662 170.097L126.291 168.463C126.545 169.248 126.95 169.945 127.507 170.553C128.077 171.161 128.736 171.642 129.483 171.997C130.243 172.352 131.022 172.529 131.82 172.529C132.606 172.529 133.359 172.402 134.081 172.149C134.816 171.908 135.468 171.566 136.038 171.123C136.621 170.68 137.083 170.148 137.425 169.527C137.767 168.906 137.938 168.229 137.938 167.494V164.283C137.318 165.246 136.52 166.025 135.544 166.62C134.569 167.203 133.435 167.494 132.143 167.494C130.801 167.494 129.534 167.234 128.343 166.715C127.153 166.196 126.108 165.48 125.208 164.568C124.309 163.643 123.606 162.579 123.099 161.376C122.593 160.173 122.339 158.881 122.339 157.5C122.339 156.119 122.593 154.827 123.099 153.624C123.606 152.408 124.309 151.344 125.208 150.432C126.108 149.507 127.153 148.785 128.343 148.266C129.534 147.747 130.801 147.487 132.143 147.487C133.435 147.487 134.569 147.785 135.544 148.38C136.52 148.963 137.318 149.742 137.938 150.717V148ZM132.181 163.675C133.283 163.675 134.246 163.396 135.069 162.839C135.893 162.269 136.532 161.515 136.988 160.578C137.444 159.641 137.672 158.615 137.672 157.5C137.672 156.36 137.438 155.328 136.969 154.403C136.513 153.466 135.874 152.718 135.05 152.161C134.227 151.591 133.271 151.306 132.181 151.306C131.117 151.306 130.142 151.585 129.255 152.142C128.381 152.699 127.685 153.447 127.165 154.384C126.646 155.321 126.386 156.36 126.386 157.5C126.386 158.64 126.646 159.679 127.165 160.616C127.697 161.553 128.4 162.301 129.274 162.858C130.161 163.403 131.13 163.675 132.181 163.675ZM147.107 159.875V148H151.059V158.906C151.059 159.755 151.268 160.527 151.686 161.224C152.104 161.921 152.662 162.478 153.358 162.896C154.055 163.301 154.821 163.504 155.657 163.504C156.506 163.504 157.272 163.301 157.956 162.896C158.653 162.478 159.204 161.921 159.609 161.224C160.027 160.527 160.236 159.755 160.236 158.906V148H164.188L164.207 167H160.255L160.236 164.948C159.59 165.733 158.786 166.354 157.823 166.81C156.861 167.266 155.828 167.494 154.726 167.494C153.32 167.494 152.041 167.152 150.888 166.468C149.736 165.784 148.817 164.866 148.133 163.713C147.449 162.56 147.107 161.281 147.107 159.875ZM175.618 167.361C174.617 167.298 173.642 167.095 172.692 166.753C171.742 166.411 170.906 165.949 170.184 165.366C169.475 164.771 168.943 164.074 168.588 163.276L171.951 161.832C172.116 162.174 172.401 162.51 172.806 162.839C173.224 163.168 173.712 163.441 174.269 163.656C174.826 163.859 175.409 163.96 176.017 163.96C176.612 163.96 177.163 163.878 177.67 163.713C178.189 163.536 178.614 163.27 178.943 162.915C179.272 162.56 179.437 162.136 179.437 161.642C179.437 161.085 179.247 160.654 178.867 160.35C178.5 160.033 178.037 159.793 177.48 159.628C176.923 159.463 176.365 159.305 175.808 159.153C174.567 158.874 173.427 158.494 172.388 158.013C171.362 157.519 170.545 156.892 169.937 156.132C169.329 155.359 169.025 154.416 169.025 153.301C169.025 152.085 169.354 151.034 170.013 150.147C170.672 149.248 171.533 148.557 172.597 148.076C173.674 147.595 174.82 147.354 176.036 147.354C177.556 147.354 178.949 147.677 180.216 148.323C181.483 148.969 182.452 149.856 183.123 150.983L179.988 152.845C179.798 152.465 179.513 152.123 179.133 151.819C178.753 151.515 178.322 151.274 177.841 151.097C177.36 150.907 176.859 150.799 176.34 150.774C175.694 150.749 175.092 150.825 174.535 151.002C173.99 151.167 173.553 151.433 173.224 151.8C172.895 152.167 172.73 152.636 172.73 153.206C172.73 153.763 172.926 154.181 173.319 154.46C173.712 154.726 174.206 154.941 174.801 155.106C175.409 155.271 176.03 155.454 176.663 155.657C177.79 156.012 178.848 156.449 179.836 156.968C180.824 157.475 181.622 158.102 182.23 158.849C182.838 159.596 183.129 160.508 183.104 161.585C183.104 162.776 182.743 163.821 182.021 164.72C181.312 165.619 180.387 166.303 179.247 166.772C178.107 167.241 176.897 167.437 175.618 167.361ZM6.19 206.26C5.42333 206.26 4.68667 206.14 3.98 205.9C3.27333 205.66 2.65667 205.317 2.13 204.87C1.60333 204.417 1.22667 203.88 1 203.26L2.95 202.53C3.06333 202.85 3.28 203.137 3.6 203.39C3.92667 203.637 4.31333 203.83 4.76 203.97C5.21333 204.11 5.69 204.18 6.19 204.18C6.72333 204.18 7.22333 204.093 7.69 203.92C8.16333 203.747 8.54333 203.507 8.83 203.2C9.12333 202.893 9.27 202.533 9.27 202.12C9.27 201.693 9.11667 201.343 8.81 201.07C8.51 200.797 8.12333 200.58 7.65 200.42C7.18333 200.26 6.69667 200.14 6.19 200.06C5.21 199.9 4.33 199.667 3.55 199.36C2.77667 199.053 2.16333 198.623 1.71 198.07C1.26333 197.517 1.04 196.797 1.04 195.91C1.04 195.077 1.27667 194.35 1.75 193.73C2.23 193.11 2.86 192.63 3.64 192.29C4.42667 191.943 5.27667 191.77 6.19 191.77C6.94333 191.77 7.67 191.89 8.37 192.13C9.07667 192.363 9.69667 192.707 10.23 193.16C10.77 193.607 11.1567 194.15 11.39 194.79L9.42 195.5C9.30667 195.173 9.09 194.89 8.77 194.65C8.45 194.403 8.06333 194.21 7.61 194.07C7.16333 193.93 6.69 193.86 6.19 193.86C5.65667 193.853 5.15667 193.94 4.69 194.12C4.23 194.293 3.85333 194.533 3.56 194.84C3.26667 195.147 3.12 195.503 3.12 195.91C3.12 196.41 3.25667 196.79 3.53 197.05C3.80333 197.31 4.17 197.503 4.63 197.63C5.09667 197.75 5.61667 197.86 6.19 197.96C7.11 198.107 7.96 198.35 8.74 198.69C9.52667 199.03 10.1567 199.483 10.63 200.05C11.11 200.61 11.35 201.3 11.35 202.12C11.35 202.947 11.11 203.673 10.63 204.3C10.1567 204.92 9.52667 205.403 8.74 205.75C7.96 206.09 7.11 206.26 6.19 206.26ZM20.8589 203.16L22.7189 204.17C22.2656 204.803 21.6889 205.31 20.9889 205.69C20.2956 206.07 19.5422 206.26 18.7289 206.26C17.8089 206.26 16.9689 206.023 16.2089 205.55C15.4556 205.077 14.8522 204.443 14.3989 203.65C13.9522 202.85 13.7289 201.967 13.7289 201C13.7289 200.267 13.8589 199.583 14.1189 198.95C14.3789 198.31 14.7356 197.75 15.1889 197.27C15.6489 196.783 16.1822 196.403 16.7889 196.13C17.3956 195.857 18.0422 195.72 18.7289 195.72C19.5422 195.72 20.2956 195.91 20.9889 196.29C21.6889 196.67 22.2656 197.18 22.7189 197.82L20.8589 198.83C20.5789 198.497 20.2522 198.243 19.8789 198.07C19.5056 197.89 19.1222 197.8 18.7289 197.8C18.1822 197.8 17.6856 197.95 17.2389 198.25C16.7989 198.543 16.4489 198.933 16.1889 199.42C15.9356 199.9 15.8089 200.427 15.8089 201C15.8089 201.567 15.9389 202.093 16.1989 202.58C16.4589 203.06 16.8089 203.447 17.2489 203.74C17.6956 204.033 18.1889 204.18 18.7289 204.18C19.1422 204.18 19.5356 204.087 19.9089 203.9C20.2822 203.713 20.5989 203.467 20.8589 203.16ZM34.2703 199.73V206H32.1903V200.24C32.1903 199.793 32.0803 199.387 31.8603 199.02C31.647 198.653 31.357 198.363 30.9903 198.15C30.6303 197.93 30.2236 197.82 29.7703 197.82C29.3303 197.82 28.927 197.93 28.5603 198.15C28.1936 198.363 27.9003 198.653 27.6803 199.02C27.4603 199.387 27.3503 199.793 27.3503 200.24V206H25.2703V191H27.3503V197.06C27.697 196.647 28.1236 196.32 28.6303 196.08C29.137 195.84 29.6836 195.72 30.2703 195.72C31.0103 195.72 31.6836 195.9 32.2903 196.26C32.897 196.62 33.377 197.103 33.7303 197.71C34.0903 198.317 34.2703 198.99 34.2703 199.73ZM41.4711 206.26C40.5511 206.26 39.7111 206.023 38.9511 205.55C38.1978 205.077 37.5944 204.443 37.1411 203.65C36.6944 202.85 36.4711 201.967 36.4711 201C36.4711 200.267 36.6011 199.583 36.8611 198.95C37.1211 198.31 37.4778 197.75 37.9311 197.27C38.3911 196.783 38.9244 196.403 39.5311 196.13C40.1378 195.857 40.7844 195.72 41.4711 195.72C42.2378 195.72 42.9411 195.88 43.5811 196.2C44.2211 196.513 44.7678 196.95 45.2211 197.51C45.6744 198.063 46.0078 198.703 46.2211 199.43C46.4344 200.15 46.4978 200.917 46.4111 201.73H38.7011C38.7878 202.19 38.9544 202.607 39.2011 202.98C39.4544 203.347 39.7744 203.637 40.1611 203.85C40.5544 204.063 40.9911 204.173 41.4711 204.18C41.9778 204.18 42.4378 204.053 42.8511 203.8C43.2711 203.547 43.6144 203.197 43.8811 202.75L45.9911 203.24C45.5911 204.127 44.9878 204.853 44.1811 205.42C43.3744 205.98 42.4711 206.26 41.4711 206.26ZM38.6311 200.14H44.3111C44.2444 199.66 44.0744 199.227 43.8011 198.84C43.5344 198.447 43.1978 198.137 42.7911 197.91C42.3911 197.677 41.9511 197.56 41.4711 197.56C40.9978 197.56 40.5578 197.673 40.1511 197.9C39.7511 198.127 39.4178 198.437 39.1511 198.83C38.8911 199.217 38.7178 199.653 38.6311 200.14ZM56.8377 191H58.9177V206H56.8377V204.53C56.511 205.05 56.0843 205.47 55.5577 205.79C55.031 206.103 54.4143 206.26 53.7077 206.26C52.981 206.26 52.301 206.123 51.6677 205.85C51.0343 205.577 50.4743 205.2 49.9877 204.72C49.5077 204.233 49.131 203.673 48.8577 203.04C48.5843 202.407 48.4477 201.727 48.4477 201C48.4477 200.273 48.5843 199.593 48.8577 198.96C49.131 198.32 49.5077 197.76 49.9877 197.28C50.4743 196.793 51.0343 196.413 51.6677 196.14C52.301 195.867 52.981 195.73 53.7077 195.73C54.4143 195.73 55.031 195.89 55.5577 196.21C56.0843 196.523 56.511 196.937 56.8377 197.45V191ZM53.7277 204.25C54.3143 204.25 54.8277 204.107 55.2677 203.82C55.7077 203.527 56.0477 203.133 56.2877 202.64C56.5343 202.147 56.6577 201.6 56.6577 201C56.6577 200.393 56.5343 199.843 56.2877 199.35C56.041 198.857 55.6977 198.467 55.2577 198.18C54.8243 197.887 54.3143 197.74 53.7277 197.74C53.1477 197.74 52.6177 197.887 52.1377 198.18C51.6643 198.473 51.2843 198.867 50.9977 199.36C50.7177 199.853 50.5777 200.4 50.5777 201C50.5777 201.607 50.721 202.157 51.0077 202.65C51.301 203.137 51.6843 203.527 52.1577 203.82C52.6377 204.107 53.161 204.25 53.7277 204.25ZM61.9133 202.25V196H63.9933V201.74C63.9933 202.187 64.1033 202.593 64.3233 202.96C64.5433 203.327 64.8366 203.62 65.2033 203.84C65.5699 204.053 65.9733 204.16 66.4133 204.16C66.8599 204.16 67.2633 204.053 67.6233 203.84C67.9899 203.62 68.2799 203.327 68.4933 202.96C68.7133 202.593 68.8233 202.187 68.8233 201.74V196H70.9033L70.9133 206H68.8333L68.8233 204.92C68.4833 205.333 68.0599 205.66 67.5533 205.9C67.0466 206.14 66.5033 206.26 65.9233 206.26C65.1833 206.26 64.5099 206.08 63.9033 205.72C63.2966 205.36 62.8133 204.877 62.4533 204.27C62.0933 203.663 61.9133 202.99 61.9133 202.25ZM73.9969 206V191H76.0769V206H73.9969ZM83.7328 206.26C82.8128 206.26 81.9728 206.023 81.2128 205.55C80.4595 205.077 79.8561 204.443 79.4028 203.65C78.9561 202.85 78.7328 201.967 78.7328 201C78.7328 200.267 78.8628 199.583 79.1228 198.95C79.3828 198.31 79.7395 197.75 80.1928 197.27C80.6528 196.783 81.1861 196.403 81.7928 196.13C82.3995 195.857 83.0461 195.72 83.7328 195.72C84.4995 195.72 85.2028 195.88 85.8428 196.2C86.4828 196.513 87.0295 196.95 87.4828 197.51C87.9361 198.063 88.2695 198.703 88.4828 199.43C88.6961 200.15 88.7595 200.917 88.6728 201.73H80.9628C81.0495 202.19 81.2161 202.607 81.4628 202.98C81.7161 203.347 82.0361 203.637 82.4228 203.85C82.8161 204.063 83.2528 204.173 83.7328 204.18C84.2395 204.18 84.6995 204.053 85.1128 203.8C85.5328 203.547 85.8761 203.197 86.1428 202.75L88.2528 203.24C87.8528 204.127 87.2495 204.853 86.4428 205.42C85.6361 205.98 84.7328 206.26 83.7328 206.26ZM80.8928 200.14H86.5728C86.5061 199.66 86.3361 199.227 86.0628 198.84C85.7961 198.447 85.4595 198.137 85.0528 197.91C84.6528 197.677 84.2128 197.56 83.7328 197.56C83.2595 197.56 82.8195 197.673 82.4128 197.9C82.0128 198.127 81.6795 198.437 81.4128 198.83C81.1528 199.217 80.9795 199.653 80.8928 200.14ZM105.089 196H107.169V206H105.079L104.999 204.55C104.706 205.063 104.309 205.477 103.809 205.79C103.309 206.103 102.719 206.26 102.039 206.26C101.306 206.26 100.616 206.123 99.9694 205.85C99.3227 205.57 98.7527 205.183 98.2594 204.69C97.7727 204.197 97.3927 203.63 97.1194 202.99C96.846 202.343 96.7094 201.65 96.7094 200.91C96.7094 200.197 96.8427 199.527 97.1094 198.9C97.376 198.267 97.746 197.713 98.2194 197.24C98.6927 196.767 99.2394 196.397 99.8594 196.13C100.486 195.857 101.156 195.72 101.869 195.72C102.596 195.72 103.236 195.887 103.789 196.22C104.349 196.547 104.813 196.967 105.179 197.48L105.089 196ZM101.989 204.25C102.576 204.25 103.089 204.107 103.529 203.82C103.969 203.527 104.309 203.133 104.549 202.64C104.796 202.147 104.919 201.6 104.919 201C104.919 200.393 104.796 199.843 104.549 199.35C104.303 198.857 103.959 198.467 103.519 198.18C103.086 197.887 102.576 197.74 101.989 197.74C101.409 197.74 100.879 197.887 100.399 198.18C99.9194 198.473 99.5394 198.867 99.2594 199.36C98.9794 199.853 98.8394 200.4 98.8394 201C98.8394 201.607 98.9827 202.157 99.2694 202.65C99.5627 203.137 99.946 203.527 100.419 203.82C100.899 204.107 101.423 204.25 101.989 204.25ZM122.5 203.16L124.36 204.17C123.906 204.803 123.33 205.31 122.63 205.69C121.936 206.07 121.183 206.26 120.37 206.26C119.45 206.26 118.61 206.023 117.85 205.55C117.096 205.077 116.493 204.443 116.04 203.65C115.593 202.85 115.37 201.967 115.37 201C115.37 200.267 115.5 199.583 115.76 198.95C116.02 198.31 116.376 197.75 116.83 197.27C117.29 196.783 117.823 196.403 118.43 196.13C119.036 195.857 119.683 195.72 120.37 195.72C121.183 195.72 121.936 195.91 122.63 196.29C123.33 196.67 123.906 197.18 124.36 197.82L122.5 198.83C122.22 198.497 121.893 198.243 121.52 198.07C121.146 197.89 120.763 197.8 120.37 197.8C119.823 197.8 119.326 197.95 118.88 198.25C118.44 198.543 118.09 198.933 117.83 199.42C117.576 199.9 117.45 200.427 117.45 201C117.45 201.567 117.58 202.093 117.84 202.58C118.1 203.06 118.45 203.447 118.89 203.74C119.336 204.033 119.83 204.18 120.37 204.18C120.783 204.18 121.176 204.087 121.55 203.9C121.923 203.713 122.24 203.467 122.5 203.16ZM131.311 206.26C130.391 206.26 129.551 206.023 128.791 205.55C128.038 205.077 127.434 204.443 126.981 203.65C126.534 202.85 126.311 201.967 126.311 201C126.311 200.267 126.441 199.583 126.701 198.95C126.961 198.31 127.318 197.75 127.771 197.27C128.231 196.783 128.764 196.403 129.371 196.13C129.978 195.857 130.624 195.72 131.311 195.72C132.231 195.72 133.068 195.957 133.821 196.43C134.581 196.903 135.184 197.54 135.631 198.34C136.084 199.14 136.311 200.027 136.311 201C136.311 201.727 136.181 202.407 135.921 203.04C135.661 203.673 135.301 204.233 134.841 204.72C134.388 205.2 133.858 205.577 133.251 205.85C132.651 206.123 132.004 206.26 131.311 206.26ZM131.311 204.18C131.864 204.18 132.361 204.033 132.801 203.74C133.241 203.447 133.588 203.06 133.841 202.58C134.101 202.093 134.231 201.567 134.231 201C134.231 200.42 134.098 199.887 133.831 199.4C133.571 198.913 133.221 198.527 132.781 198.24C132.341 197.947 131.851 197.8 131.311 197.8C130.764 197.8 130.268 197.947 129.821 198.24C129.381 198.533 129.031 198.923 128.771 199.41C128.518 199.897 128.391 200.427 128.391 201C128.391 201.593 128.524 202.13 128.791 202.61C129.058 203.09 129.411 203.473 129.851 203.76C130.298 204.04 130.784 204.18 131.311 204.18ZM147.927 199.73V206H145.847V200.24C145.847 199.793 145.737 199.387 145.517 199.02C145.303 198.653 145.013 198.363 144.647 198.15C144.287 197.93 143.88 197.82 143.427 197.82C142.987 197.82 142.583 197.93 142.217 198.15C141.85 198.363 141.557 198.653 141.337 199.02C141.117 199.387 141.007 199.793 141.007 200.24V206H138.927V196H141.007V197.06C141.353 196.647 141.78 196.32 142.287 196.08C142.793 195.84 143.34 195.72 143.927 195.72C144.667 195.72 145.34 195.9 145.947 196.26C146.553 196.62 147.033 197.103 147.387 197.71C147.747 198.317 147.927 198.99 147.927 199.73ZM153.923 206.19C153.396 206.157 152.883 206.05 152.383 205.87C151.883 205.69 151.443 205.447 151.063 205.14C150.689 204.827 150.409 204.46 150.223 204.04L151.993 203.28C152.079 203.46 152.229 203.637 152.443 203.81C152.663 203.983 152.919 204.127 153.213 204.24C153.506 204.347 153.813 204.4 154.133 204.4C154.446 204.4 154.736 204.357 155.003 204.27C155.276 204.177 155.499 204.037 155.673 203.85C155.846 203.663 155.933 203.44 155.933 203.18C155.933 202.887 155.833 202.66 155.633 202.5C155.439 202.333 155.196 202.207 154.903 202.12C154.609 202.033 154.316 201.95 154.023 201.87C153.369 201.723 152.769 201.523 152.223 201.27C151.683 201.01 151.253 200.68 150.933 200.28C150.613 199.873 150.453 199.377 150.453 198.79C150.453 198.15 150.626 197.597 150.973 197.13C151.319 196.657 151.773 196.293 152.333 196.04C152.899 195.787 153.503 195.66 154.143 195.66C154.943 195.66 155.676 195.83 156.343 196.17C157.009 196.51 157.519 196.977 157.873 197.57L156.223 198.55C156.123 198.35 155.973 198.17 155.773 198.01C155.573 197.85 155.346 197.723 155.093 197.63C154.839 197.53 154.576 197.473 154.303 197.46C153.963 197.447 153.646 197.487 153.353 197.58C153.066 197.667 152.836 197.807 152.663 198C152.489 198.193 152.403 198.44 152.403 198.74C152.403 199.033 152.506 199.253 152.713 199.4C152.919 199.54 153.179 199.653 153.493 199.74C153.813 199.827 154.139 199.923 154.473 200.03C155.066 200.217 155.623 200.447 156.143 200.72C156.663 200.987 157.083 201.317 157.403 201.71C157.723 202.103 157.876 202.583 157.863 203.15C157.863 203.777 157.673 204.327 157.293 204.8C156.919 205.273 156.433 205.633 155.833 205.88C155.233 206.127 154.596 206.23 153.923 206.19ZM160.175 202.25V196H162.255V201.74C162.255 202.187 162.365 202.593 162.585 202.96C162.805 203.327 163.098 203.62 163.465 203.84C163.832 204.053 164.235 204.16 164.675 204.16C165.122 204.16 165.525 204.053 165.885 203.84C166.252 203.62 166.542 203.327 166.755 202.96C166.975 202.593 167.085 202.187 167.085 201.74V196H169.165L169.175 206H167.095L167.085 204.92C166.745 205.333 166.322 205.66 165.815 205.9C165.308 206.14 164.765 206.26 164.185 206.26C163.445 206.26 162.772 206.08 162.165 205.72C161.558 205.36 161.075 204.877 160.715 204.27C160.355 203.663 160.175 202.99 160.175 202.25ZM172.259 206V191H174.339V206H172.259ZM183.011 198.08H180.911L180.901 206H178.821L178.831 198.08H177.241V196H178.831L178.821 192.86H180.901L180.911 196H183.011V198.08ZM193.347 196H195.427V206H193.337L193.257 204.55C192.964 205.063 192.567 205.477 192.067 205.79C191.567 206.103 190.977 206.26 190.297 206.26C189.564 206.26 188.874 206.123 188.227 205.85C187.581 205.57 187.011 205.183 186.517 204.69C186.031 204.197 185.651 203.63 185.377 202.99C185.104 202.343 184.967 201.65 184.967 200.91C184.967 200.197 185.101 199.527 185.367 198.9C185.634 198.267 186.004 197.713 186.477 197.24C186.951 196.767 187.497 196.397 188.117 196.13C188.744 195.857 189.414 195.72 190.127 195.72C190.854 195.72 191.494 195.887 192.047 196.22C192.607 196.547 193.071 196.967 193.437 197.48L193.347 196ZM190.247 204.25C190.834 204.25 191.347 204.107 191.787 203.82C192.227 203.527 192.567 203.133 192.807 202.64C193.054 202.147 193.177 201.6 193.177 201C193.177 200.393 193.054 199.843 192.807 199.35C192.561 198.857 192.217 198.467 191.777 198.18C191.344 197.887 190.834 197.74 190.247 197.74C189.667 197.74 189.137 197.887 188.657 198.18C188.177 198.473 187.797 198.867 187.517 199.36C187.237 199.853 187.097 200.4 187.097 201C187.097 201.607 187.241 202.157 187.527 202.65C187.821 203.137 188.204 203.527 188.677 203.82C189.157 204.107 189.681 204.25 190.247 204.25ZM207.423 199.73V206H205.343V200.24C205.343 199.793 205.233 199.387 205.013 199.02C204.799 198.653 204.509 198.363 204.143 198.15C203.783 197.93 203.376 197.82 202.923 197.82C202.483 197.82 202.079 197.93 201.713 198.15C201.346 198.363 201.053 198.653 200.833 199.02C200.613 199.387 200.503 199.793 200.503 200.24V206H198.423V196H200.503V197.06C200.849 196.647 201.276 196.32 201.783 196.08C202.289 195.84 202.836 195.72 203.423 195.72C204.163 195.72 204.836 195.9 205.443 196.26C206.049 196.62 206.529 197.103 206.883 197.71C207.243 198.317 207.423 198.99 207.423 199.73ZM215.699 198.08H213.599L213.589 206H211.509L211.519 198.08H209.929V196H211.519L211.509 192.86H213.589L213.599 196H215.699V198.08ZM6.48 237.08H4.38L4.37 245H2.29L2.3 237.08H0.71V235H2.3L2.29 231.86H4.37L4.38 235H6.48V237.08ZM13.4359 245.26C12.5159 245.26 11.6759 245.023 10.9159 244.55C10.1626 244.077 9.55927 243.443 9.10594 242.65C8.65927 241.85 8.43594 240.967 8.43594 240C8.43594 239.267 8.56594 238.583 8.82594 237.95C9.08594 237.31 9.4426 236.75 9.89594 236.27C10.3559 235.783 10.8893 235.403 11.4959 235.13C12.1026 234.857 12.7493 234.72 13.4359 234.72C14.3559 234.72 15.1926 234.957 15.9459 235.43C16.7059 235.903 17.3093 236.54 17.7559 237.34C18.2093 238.14 18.4359 239.027 18.4359 240C18.4359 240.727 18.3059 241.407 18.0459 242.04C17.7859 242.673 17.4259 243.233 16.9659 243.72C16.5126 244.2 15.9826 244.577 15.3759 244.85C14.7759 245.123 14.1293 245.26 13.4359 245.26ZM13.4359 243.18C13.9893 243.18 14.4859 243.033 14.9259 242.74C15.3659 242.447 15.7126 242.06 15.9659 241.58C16.2259 241.093 16.3559 240.567 16.3559 240C16.3559 239.42 16.2226 238.887 15.9559 238.4C15.6959 237.913 15.3459 237.527 14.9059 237.24C14.4659 236.947 13.9759 236.8 13.4359 236.8C12.8893 236.8 12.3926 236.947 11.9459 237.24C11.5059 237.533 11.1559 237.923 10.8959 238.41C10.6426 238.897 10.5159 239.427 10.5159 240C10.5159 240.593 10.6493 241.13 10.9159 241.61C11.1826 242.09 11.5359 242.473 11.9759 242.76C12.4226 243.04 12.9093 243.18 13.4359 243.18ZM28.822 230H30.902V245H28.822V243.53C28.4954 244.05 28.0687 244.47 27.542 244.79C27.0154 245.103 26.3987 245.26 25.692 245.26C24.9654 245.26 24.2854 245.123 23.652 244.85C23.0187 244.577 22.4587 244.2 21.972 243.72C21.492 243.233 21.1154 242.673 20.842 242.04C20.5687 241.407 20.432 240.727 20.432 240C20.432 239.273 20.5687 238.593 20.842 237.96C21.1154 237.32 21.492 236.76 21.972 236.28C22.4587 235.793 23.0187 235.413 23.652 235.14C24.2854 234.867 24.9654 234.73 25.692 234.73C26.3987 234.73 27.0154 234.89 27.542 235.21C28.0687 235.523 28.4954 235.937 28.822 236.45V230ZM25.712 243.25C26.2987 243.25 26.812 243.107 27.252 242.82C27.692 242.527 28.032 242.133 28.272 241.64C28.5187 241.147 28.642 240.6 28.642 240C28.642 239.393 28.5187 238.843 28.272 238.35C28.0254 237.857 27.682 237.467 27.242 237.18C26.8087 236.887 26.2987 236.74 25.712 236.74C25.132 236.74 24.602 236.887 24.122 237.18C23.6487 237.473 23.2687 237.867 22.982 238.36C22.702 238.853 22.562 239.4 22.562 240C22.562 240.607 22.7054 241.157 22.992 241.65C23.2854 242.137 23.6687 242.527 24.142 242.82C24.622 243.107 25.1454 243.25 25.712 243.25ZM41.9409 235H44.0209V245H41.9309L41.8509 243.55C41.5576 244.063 41.1609 244.477 40.6609 244.79C40.1609 245.103 39.5709 245.26 38.8909 245.26C38.1576 245.26 37.4676 245.123 36.8209 244.85C36.1743 244.57 35.6043 244.183 35.1109 243.69C34.6243 243.197 34.2443 242.63 33.9709 241.99C33.6976 241.343 33.5609 240.65 33.5609 239.91C33.5609 239.197 33.6943 238.527 33.9609 237.9C34.2276 237.267 34.5976 236.713 35.0709 236.24C35.5443 235.767 36.0909 235.397 36.7109 235.13C37.3376 234.857 38.0076 234.72 38.7209 234.72C39.4476 234.72 40.0876 234.887 40.6409 235.22C41.2009 235.547 41.6643 235.967 42.0309 236.48L41.9409 235ZM38.8409 243.25C39.4276 243.25 39.9409 243.107 40.3809 242.82C40.8209 242.527 41.1609 242.133 41.4009 241.64C41.6476 241.147 41.7709 240.6 41.7709 240C41.7709 239.393 41.6476 238.843 41.4009 238.35C41.1543 237.857 40.8109 237.467 40.3709 237.18C39.9376 236.887 39.4276 236.74 38.8409 236.74C38.2609 236.74 37.7309 236.887 37.2509 237.18C36.7709 237.473 36.3909 237.867 36.1109 238.36C35.8309 238.853 35.6909 239.4 35.6909 240C35.6909 240.607 35.8343 241.157 36.1209 241.65C36.4143 242.137 36.7976 242.527 37.2709 242.82C37.7509 243.107 38.2743 243.25 38.8409 243.25ZM53.4367 235H55.6567L50.1767 250H47.9667L49.7767 245L46.1867 235H48.4567L50.8167 242.15L53.4367 235Z" fill="black"/>
</svg>
