<svg width="162" height="86" viewBox="0 0 162 86" fill="none" xmlns="http://www.w3.org/2000/svg">
<path d="M10.945 5.6H12.485V21H10.945V13.52H2.86V21H1.32V5.6H2.86V11.98H10.945V5.6ZM15.7945 16.787V10H17.3345V16.479C17.3345 17.0803 17.4811 17.6267 17.7745 18.118C18.0678 18.6093 18.4601 19.0017 18.9515 19.295C19.4501 19.5883 19.9965 19.735 20.5905 19.735C21.1918 19.735 21.7345 19.5883 22.2185 19.295C22.7098 19.0017 23.1021 18.6093 23.3955 18.118C23.6888 17.6267 23.8355 17.0803 23.8355 16.479V10H25.3755L25.3865 21H23.8465L23.8355 19.46C23.4468 20.0173 22.9408 20.461 22.3175 20.791C21.7015 21.121 21.0268 21.286 20.2935 21.286C19.4648 21.286 18.7095 21.0843 18.0275 20.681C17.3455 20.2777 16.8028 19.735 16.3995 19.053C15.9961 18.371 15.7945 17.6157 15.7945 16.787ZM28.6782 21V10H30.2182V11.518C30.6142 10.9607 31.1202 10.517 31.7362 10.187C32.3522 9.857 33.0269 9.692 33.7602 9.692C34.5889 9.692 35.3479 9.89733 36.0372 10.308C36.7265 10.7113 37.2655 11.2503 37.6542 11.925C38.0429 11.2503 38.5782 10.7113 39.2602 10.308C39.9422 9.89733 40.6975 9.692 41.5262 9.692C42.3549 9.692 43.1102 9.89367 43.7922 10.297C44.4742 10.7003 45.0169 11.243 45.4202 11.925C45.8235 12.607 46.0252 13.3623 46.0252 14.191V21H44.4852V14.532C44.4852 13.9453 44.3422 13.4027 44.0562 12.904C43.7702 12.4053 43.3852 12.0057 42.9012 11.705C42.4245 11.397 41.8929 11.243 41.3062 11.243C40.7195 11.243 40.1842 11.386 39.7002 11.672C39.2235 11.9507 38.8422 12.3393 38.5562 12.838C38.2702 13.3293 38.1272 13.894 38.1272 14.532V21H36.5872V14.532C36.5872 13.894 36.4442 13.3293 36.1582 12.838C35.8722 12.3393 35.4872 11.9507 35.0032 11.672C34.5192 11.386 33.9839 11.243 33.3972 11.243C32.8179 11.243 32.2862 11.397 31.8022 11.705C31.3182 12.0057 30.9332 12.4053 30.6472 12.904C30.3612 13.4027 30.2182 13.9453 30.2182 14.532V21H28.6782ZM58.1561 10H59.6961V21H58.1561L58.1011 18.954C57.7418 19.6507 57.2395 20.2153 56.5941 20.648C55.9488 21.0733 55.1788 21.286 54.2841 21.286C53.4775 21.286 52.7221 21.1357 52.0181 20.835C51.3141 20.527 50.6945 20.1053 50.1591 19.57C49.6238 19.0347 49.2058 18.415 48.9051 17.711C48.6045 17.007 48.4541 16.2517 48.4541 15.445C48.4541 14.653 48.6008 13.9087 48.8941 13.212C49.1948 12.5153 49.6055 11.903 50.1261 11.375C50.6541 10.847 51.2628 10.4363 51.9521 10.143C52.6488 9.84233 53.3931 9.692 54.1851 9.692C55.1018 9.692 55.9011 9.912 56.5831 10.352C57.2651 10.7847 57.8078 11.353 58.2111 12.057L58.1561 10ZM54.2511 19.79C55.0358 19.79 55.7105 19.5993 56.2751 19.218C56.8398 18.8293 57.2725 18.3087 57.5731 17.656C57.8811 17.0033 58.0351 16.2847 58.0351 15.5C58.0351 14.6933 57.8811 13.9673 57.5731 13.322C57.2651 12.6693 56.8288 12.1523 56.2641 11.771C55.6995 11.3897 55.0285 11.199 54.2511 11.199C53.4738 11.199 52.7625 11.3933 52.1171 11.782C51.4791 12.1633 50.9695 12.6803 50.5881 13.333C50.2141 13.9857 50.0271 14.708 50.0271 15.5C50.0271 16.2993 50.2215 17.0253 50.6101 17.678C50.9988 18.3233 51.5121 18.8367 52.1501 19.218C52.7955 19.5993 53.4958 19.79 54.2511 19.79ZM72.5893 14.191V21H71.0493V14.499C71.0493 13.8977 70.9027 13.3513 70.6093 12.86C70.316 12.3687 69.9237 11.9763 69.4323 11.683C68.941 11.3897 68.3947 11.243 67.7933 11.243C67.1993 11.243 66.653 11.3897 66.1543 11.683C65.663 11.9763 65.2707 12.3687 64.9773 12.86C64.684 13.3513 64.5373 13.8977 64.5373 14.499V21H62.9973V10H64.5373V11.518C64.926 10.9607 65.432 10.517 66.0553 10.187C66.6787 9.857 67.357 9.692 68.0903 9.692C68.919 9.692 69.6743 9.89367 70.3563 10.297C71.0383 10.7003 71.581 11.243 71.9843 11.925C72.3877 12.607 72.5893 13.3623 72.5893 14.191ZM75.8923 13.63H82.9323V15.17H75.8923V13.63ZM93.8097 21.286C92.7684 21.286 91.7894 21.0807 90.8727 20.67C89.9561 20.252 89.1494 19.68 88.4527 18.954C87.7634 18.2207 87.2207 17.37 86.8247 16.402C86.4361 15.434 86.2417 14.4 86.2417 13.3C86.2417 12.2 86.4361 11.166 86.8247 10.198C87.2207 9.23 87.7634 8.383 88.4527 7.657C89.1494 6.92367 89.9561 6.35167 90.8727 5.941C91.7894 5.523 92.7684 5.314 93.8097 5.314C95.0564 5.314 96.2041 5.60367 97.2527 6.183C98.3014 6.76233 99.1704 7.53233 99.8597 8.493L98.4957 9.23C97.9531 8.504 97.2637 7.92833 96.4277 7.503C95.5991 7.07033 94.7264 6.854 93.8097 6.854C92.9664 6.854 92.1781 7.02633 91.4447 7.371C90.7187 7.70833 90.0807 8.174 89.5307 8.768C88.9807 9.362 88.5517 10.0477 88.2437 10.825C87.9357 11.6023 87.7817 12.4273 87.7817 13.3C87.7817 14.1873 87.9357 15.0197 88.2437 15.797C88.5591 16.5743 88.9917 17.26 89.5417 17.854C90.0991 18.448 90.7407 18.9137 91.4667 19.251C92.2001 19.581 92.9811 19.746 93.8097 19.746C94.7631 19.746 95.6467 19.5297 96.4607 19.097C97.2821 18.657 97.9604 18.085 98.4957 17.381L99.8597 18.118C99.1704 19.0787 98.3014 19.8487 97.2527 20.428C96.2041 21 95.0564 21.286 93.8097 21.286ZM107.446 21.286C106.434 21.286 105.51 21.0257 104.674 20.505C103.845 19.9843 103.182 19.2877 102.683 18.415C102.192 17.535 101.946 16.5633 101.946 15.5C101.946 14.6933 102.089 13.9417 102.375 13.245C102.661 12.541 103.053 11.925 103.552 11.397C104.058 10.8617 104.645 10.4437 105.312 10.143C105.979 9.84233 106.691 9.692 107.446 9.692C108.26 9.692 109.008 9.85333 109.69 10.176C110.379 10.4987 110.97 10.9497 111.461 11.529C111.96 12.1083 112.334 12.7867 112.583 13.564C112.84 14.3413 112.946 15.181 112.902 16.083H103.574C103.662 16.7797 103.882 17.403 104.234 17.953C104.593 18.503 105.048 18.9393 105.598 19.262C106.155 19.5773 106.771 19.7387 107.446 19.746C108.179 19.746 108.839 19.5553 109.426 19.174C110.02 18.7927 110.497 18.2683 110.856 17.601L112.418 17.964C111.978 18.9393 111.314 19.7387 110.427 20.362C109.54 20.978 108.546 21.286 107.446 21.286ZM103.53 14.84H111.351C111.3 14.158 111.091 13.5347 110.724 12.97C110.365 12.398 109.899 11.9433 109.327 11.606C108.755 11.2613 108.128 11.089 107.446 11.089C106.764 11.089 106.141 11.2577 105.576 11.595C105.011 11.925 104.549 12.376 104.19 12.948C103.831 13.5127 103.611 14.1433 103.53 14.84ZM125.48 14.191V21H123.94V14.499C123.94 13.8977 123.793 13.3513 123.5 12.86C123.206 12.3687 122.814 11.9763 122.323 11.683C121.831 11.3897 121.285 11.243 120.684 11.243C120.09 11.243 119.543 11.3897 119.045 11.683C118.553 11.9763 118.161 12.3687 117.868 12.86C117.574 13.3513 117.428 13.8977 117.428 14.499V21H115.888V10H117.428V11.518C117.816 10.9607 118.322 10.517 118.946 10.187C119.569 9.857 120.247 9.692 120.981 9.692C121.809 9.692 122.565 9.89367 123.247 10.297C123.929 10.7003 124.471 11.243 124.875 11.925C125.278 12.607 125.48 13.3623 125.48 14.191ZM134.404 11.54H131.775L131.764 21H130.224L130.235 11.54H128.244V10H130.235L130.224 6.546H131.764L131.775 10H134.404V11.54ZM137.466 21V10H139.006V11.518C139.395 10.9607 139.901 10.517 140.524 10.187C141.148 9.857 141.826 9.692 142.559 9.692C142.985 9.692 143.395 9.747 143.791 9.857L143.164 11.386C142.856 11.2907 142.556 11.243 142.262 11.243C141.668 11.243 141.122 11.3897 140.623 11.683C140.132 11.9763 139.74 12.3687 139.446 12.86C139.153 13.3513 139.006 13.8977 139.006 14.499V21H137.466ZM146.279 10H147.819V21H146.279V10ZM147.06 8.075C146.811 8.075 146.598 7.99433 146.422 7.833C146.254 7.66433 146.169 7.45533 146.169 7.206C146.169 6.95667 146.254 6.75133 146.422 6.59C146.598 6.42133 146.811 6.337 147.06 6.337C147.302 6.337 147.508 6.42133 147.676 6.59C147.852 6.75133 147.94 6.95667 147.94 7.206C147.94 7.45533 147.856 7.66433 147.687 7.833C147.519 7.99433 147.31 8.075 147.06 8.075ZM159.315 18.239L160.69 18.987C160.192 19.6837 159.557 20.241 158.787 20.659C158.025 21.077 157.196 21.286 156.301 21.286C155.289 21.286 154.365 21.0257 153.529 20.505C152.701 19.9843 152.037 19.2877 151.538 18.415C151.047 17.535 150.801 16.5633 150.801 15.5C150.801 14.6933 150.944 13.9417 151.23 13.245C151.516 12.541 151.909 11.925 152.407 11.397C152.913 10.8617 153.5 10.4437 154.167 10.143C154.835 9.84233 155.546 9.692 156.301 9.692C157.196 9.692 158.025 9.901 158.787 10.319C159.557 10.737 160.192 11.298 160.69 12.002L159.315 12.739C158.934 12.255 158.476 11.8847 157.94 11.628C157.405 11.364 156.859 11.232 156.301 11.232C155.561 11.232 154.89 11.43 154.288 11.826C153.687 12.2147 153.21 12.7317 152.858 13.377C152.514 14.0223 152.341 14.73 152.341 15.5C152.341 16.27 152.517 16.9777 152.869 17.623C153.229 18.2683 153.709 18.7853 154.31 19.174C154.912 19.5553 155.575 19.746 156.301 19.746C156.903 19.746 157.467 19.6067 157.995 19.328C158.523 19.0493 158.963 18.6863 159.315 18.239Z" fill="#8F00FF"/>
<path d="M10.945 5.6V5.1H10.445V5.6H10.945ZM12.485 5.6H12.985V5.1H12.485V5.6ZM12.485 21V21.5H12.985V21H12.485ZM10.945 21H10.445V21.5H10.945V21ZM10.945 13.52H11.445V13.02H10.945V13.52ZM2.86 13.52V13.02H2.36V13.52H2.86ZM2.86 21V21.5H3.36V21H2.86ZM1.32 21H0.82V21.5H1.32V21ZM1.32 5.6V5.1H0.82V5.6H1.32ZM2.86 5.6H3.36V5.1H2.86V5.6ZM2.86 11.98H2.36V12.48H2.86V11.98ZM10.945 11.98V12.48H11.445V11.98H10.945ZM10.945 6.1H12.485V5.1H10.945V6.1ZM11.985 5.6V21H12.985V5.6H11.985ZM12.485 20.5H10.945V21.5H12.485V20.5ZM11.445 21V13.52H10.445V21H11.445ZM10.945 13.02H2.86V14.02H10.945V13.02ZM2.36 13.52V21H3.36V13.52H2.36ZM2.86 20.5H1.32V21.5H2.86V20.5ZM1.82 21V5.6H0.82V21H1.82ZM1.32 6.1H2.86V5.1H1.32V6.1ZM2.36 5.6V11.98H3.36V5.6H2.36ZM2.86 12.48H10.945V11.48H2.86V12.48ZM11.445 11.98V5.6H10.445V11.98H11.445ZM15.7945 10V9.5H15.2945V10H15.7945ZM17.3345 10H17.8345V9.5H17.3345V10ZM17.7745 18.118L18.2038 17.8617L18.2038 17.8617L17.7745 18.118ZM18.9515 19.295L18.6951 19.7243L18.6979 19.726L18.9515 19.295ZM22.2185 19.295L21.9621 18.8657L21.9593 18.8674L22.2185 19.295ZM23.3955 18.118L22.9661 17.8617L22.9661 17.8617L23.3955 18.118ZM23.8355 10V9.5H23.3355V10H23.8355ZM25.3755 10L25.8755 9.9995L25.875 9.5H25.3755V10ZM25.3865 21V21.5H25.887L25.8865 20.9995L25.3865 21ZM23.8465 21L23.3465 21.0036L23.35 21.5H23.8465V21ZM23.8355 19.46L24.3354 19.4564L24.3242 17.885L23.4253 19.174L23.8355 19.46ZM22.3175 20.791L22.0835 20.3491L22.0813 20.3503L22.3175 20.791ZM18.0275 20.681L18.282 20.2506L18.282 20.2506L18.0275 20.681ZM16.3995 19.053L15.9691 19.3075L15.9691 19.3075L16.3995 19.053ZM16.2945 16.787V10H15.2945V16.787H16.2945ZM15.7945 10.5H17.3345V9.5H15.7945V10.5ZM16.8345 10V16.479H17.8345V10H16.8345ZM16.8345 16.479C16.8345 17.1658 17.0032 17.8015 17.3451 18.3743L18.2038 17.8617C17.9591 17.4519 17.8345 16.9949 17.8345 16.479H16.8345ZM17.3451 18.3743C17.6809 18.9367 18.1327 19.3885 18.6951 19.7243L19.2078 18.8657C18.7875 18.6148 18.4546 18.2819 18.2038 17.8617L17.3451 18.3743ZM18.6979 19.726C19.2756 20.0657 19.9098 20.235 20.5905 20.235V19.235C20.0831 19.235 19.6247 19.1109 19.205 18.864L18.6979 19.726ZM20.5905 20.235C21.2772 20.235 21.9105 20.0663 22.4776 19.7226L21.9593 18.8674C21.5584 19.1104 21.1064 19.235 20.5905 19.235V20.235ZM22.4748 19.7243C23.0372 19.3885 23.489 18.9367 23.8248 18.3743L22.9661 17.8617C22.7153 18.2819 22.3824 18.6148 21.9621 18.8657L22.4748 19.7243ZM23.8248 18.3743C24.1668 17.8015 24.3355 17.1658 24.3355 16.479H23.3355C23.3355 16.9949 23.2108 17.4519 22.9661 17.8617L23.8248 18.3743ZM24.3355 16.479V10H23.3355V16.479H24.3355ZM23.8355 10.5H25.3755V9.5H23.8355V10.5ZM24.8755 10.0005L24.8865 21.0005L25.8865 20.9995L25.8755 9.9995L24.8755 10.0005ZM25.3865 20.5H23.8465V21.5H25.3865V20.5ZM24.3464 20.9964L24.3354 19.4564L23.3355 19.4636L23.3465 21.0036L24.3464 20.9964ZM23.4253 19.174C23.0839 19.6636 22.6393 20.0549 22.0835 20.3491L22.5514 21.2329C23.2423 20.8671 23.8097 20.3711 24.2456 19.746L23.4253 19.174ZM22.0813 20.3503C21.5416 20.6394 20.9486 20.786 20.2935 20.786V21.786C21.105 21.786 21.8613 21.6026 22.5536 21.2317L22.0813 20.3503ZM20.2935 20.786C19.55 20.786 18.8833 20.6062 18.282 20.2506L17.7729 21.1114C18.5356 21.5624 19.3795 21.786 20.2935 21.786V20.786ZM18.282 20.2506C17.6725 19.8902 17.1903 19.408 16.8298 18.7985L15.9691 19.3075C16.4153 20.062 17.0184 20.6652 17.7729 21.1114L18.282 20.2506ZM16.8298 18.7985C16.4742 18.1972 16.2945 17.5304 16.2945 16.787H15.2945C15.2945 17.7009 15.518 18.5448 15.9691 19.3075L16.8298 18.7985ZM28.6782 21H28.1782V21.5H28.6782V21ZM28.6782 10V9.5H28.1782V10H28.6782ZM30.2182 10H30.7182V9.5H30.2182V10ZM30.2182 11.518H29.7182V13.085L30.6258 11.8076L30.2182 11.518ZM31.7362 10.187L31.5001 9.74626L31.5001 9.74626L31.7362 10.187ZM36.0372 10.308L35.7813 10.7376L35.7847 10.7396L36.0372 10.308ZM37.6542 11.925L37.221 12.1746L37.6542 12.9266L38.0875 12.1746L37.6542 11.925ZM39.2602 10.308L39.5147 10.7384L39.5181 10.7363L39.2602 10.308ZM43.7922 10.297L44.0467 9.86663L44.0467 9.86663L43.7922 10.297ZM46.0252 21V21.5H46.5252V21H46.0252ZM44.4852 21H43.9852V21.5H44.4852V21ZM44.0562 12.904L44.4899 12.6552L44.4899 12.6552L44.0562 12.904ZM42.9012 11.705L42.6298 12.125L42.6374 12.1297L42.9012 11.705ZM39.7002 11.672L39.9526 12.1037L39.9546 12.1025L39.7002 11.672ZM38.5562 12.838L38.9883 13.0895L38.9899 13.0868L38.5562 12.838ZM38.1272 21V21.5H38.6272V21H38.1272ZM36.5872 21H36.0872V21.5H36.5872V21ZM36.1582 12.838L35.7245 13.0868L35.7261 13.0895L36.1582 12.838ZM35.0032 11.672L34.7488 12.1025L34.7537 12.1053L35.0032 11.672ZM31.8022 11.705L32.0661 12.1297L32.0706 12.1268L31.8022 11.705ZM30.6472 12.904L30.2135 12.6552L30.2135 12.6552L30.6472 12.904ZM30.2182 21V21.5H30.7182V21H30.2182ZM29.1782 21V10H28.1782V21H29.1782ZM28.6782 10.5H30.2182V9.5H28.6782V10.5ZM29.7182 10V11.518H30.7182V10H29.7182ZM30.6258 11.8076C30.9761 11.3146 31.4228 10.9221 31.9723 10.6277L31.5001 9.74626C30.8176 10.1119 30.2524 10.6067 29.8106 11.2284L30.6258 11.8076ZM31.9723 10.6277C32.5121 10.3386 33.105 10.192 33.7602 10.192V9.192C32.9487 9.192 32.1923 9.37542 31.5001 9.74626L31.9723 10.6277ZM33.7602 10.192C34.5019 10.192 35.172 10.3745 35.7813 10.7376L36.2931 9.87845C35.5238 9.42012 34.6759 9.192 33.7602 9.192V10.192ZM35.7847 10.7396C36.401 11.1002 36.8768 11.5773 37.221 12.1746L38.0875 11.6754C37.6542 10.9234 37.0521 10.3225 36.2897 9.87644L35.7847 10.7396ZM38.0875 12.1746C38.4323 11.5759 38.9055 11.0987 39.5147 10.7384L39.0057 9.87763C38.2509 10.324 37.6534 10.9247 37.221 11.6754L38.0875 12.1746ZM39.5181 10.7363C40.119 10.3745 40.7845 10.192 41.5262 10.192V9.192C40.6105 9.192 39.7654 9.42014 39.0023 9.87966L39.5181 10.7363ZM41.5262 10.192C42.2696 10.192 42.9364 10.3718 43.5377 10.7274L44.0467 9.86663C43.284 9.41558 42.4401 9.192 41.5262 9.192V10.192ZM43.5377 10.7274C44.1472 11.0878 44.6294 11.57 44.9898 12.1795L45.8506 11.6705C45.4044 10.916 44.8012 10.3128 44.0467 9.86663L43.5377 10.7274ZM44.9898 12.1795C45.3455 12.7808 45.5252 13.4476 45.5252 14.191H46.5252C46.5252 13.2771 46.3016 12.4332 45.8506 11.6705L44.9898 12.1795ZM45.5252 14.191V21H46.5252V14.191H45.5252ZM46.0252 20.5H44.4852V21.5H46.0252V20.5ZM44.9852 21V14.532H43.9852V21H44.9852ZM44.9852 14.532C44.9852 13.8599 44.8203 13.2312 44.4899 12.6552L43.6225 13.1528C43.8641 13.5741 43.9852 14.0307 43.9852 14.532H44.9852ZM44.4899 12.6552C44.1631 12.0854 43.72 11.625 43.165 11.2803L42.6374 12.1297C43.0504 12.3863 43.3773 12.7252 43.6225 13.1528L44.4899 12.6552ZM43.1726 11.285C42.6122 10.923 41.9857 10.743 41.3062 10.743V11.743C41.8 11.743 42.2369 11.871 42.6298 12.125L43.1726 11.285ZM41.3062 10.743C40.6341 10.743 40.0103 10.908 39.4458 11.2415L39.9546 12.1025C40.3581 11.864 40.805 11.743 41.3062 11.743V10.743ZM39.4479 11.2404C38.8926 11.5649 38.4501 12.0181 38.1225 12.5892L38.9899 13.0868C39.2343 12.6606 39.5544 12.3364 39.9526 12.1036L39.4479 11.2404ZM38.1241 12.5865C37.7884 13.1632 37.6272 13.8167 37.6272 14.532H38.6272C38.6272 13.9713 38.752 13.4955 38.9883 13.0895L38.1241 12.5865ZM37.6272 14.532V21H38.6272V14.532H37.6272ZM38.1272 20.5H36.5872V21.5H38.1272V20.5ZM37.0872 21V14.532H36.0872V21H37.0872ZM37.0872 14.532C37.0872 13.8167 36.926 13.1632 36.5903 12.5865L35.7261 13.0895C35.9624 13.4955 36.0872 13.9713 36.0872 14.532H37.0872ZM36.5919 12.5892C36.2633 12.0162 35.8157 11.5628 35.2527 11.2387L34.7537 12.1053C35.1587 12.3385 35.4811 12.6625 35.7245 13.0868L36.5919 12.5892ZM35.2576 11.2415C34.6931 10.908 34.0693 10.743 33.3972 10.743V11.743C33.8985 11.743 34.3453 11.864 34.7488 12.1025L35.2576 11.2415ZM33.3972 10.743C32.7238 10.743 32.0988 10.9236 31.5338 11.2832L32.0706 12.1268C32.4736 11.8704 32.912 11.743 33.3972 11.743V10.743ZM31.5384 11.2803C30.9834 11.625 30.5403 12.0854 30.2135 12.6552L31.0809 13.1528C31.3261 12.7252 31.653 12.3863 32.066 12.1297L31.5384 11.2803ZM30.2135 12.6552C29.8831 13.2312 29.7182 13.8599 29.7182 14.532H30.7182C30.7182 14.0307 30.8393 13.5741 31.0809 13.1528L30.2135 12.6552ZM29.7182 14.532V21H30.7182V14.532H29.7182ZM30.2182 20.5H28.6782V21.5H30.2182V20.5ZM58.1561 10V9.5H57.6426L57.6563 10.0134L58.1561 10ZM59.6961 10H60.1961V9.5H59.6961V10ZM59.6961 21V21.5H60.1961V21H59.6961ZM58.1561 21L57.6563 21.0134L57.6694 21.5H58.1561V21ZM58.1011 18.954L58.601 18.9406L57.6568 18.7248L58.1011 18.954ZM56.5941 20.648L56.8693 21.0655L56.8726 21.0633L56.5941 20.648ZM52.0181 20.835L51.8177 21.2931L51.8218 21.2948L52.0181 20.835ZM50.1591 19.57L49.8056 19.9236L49.8056 19.9236L50.1591 19.57ZM48.9051 17.711L49.365 17.5146L49.365 17.5146L48.9051 17.711ZM48.8941 13.212L48.4351 13.0139L48.4333 13.018L48.8941 13.212ZM50.1261 11.375L49.7726 11.0214L49.7701 11.0239L50.1261 11.375ZM51.9521 10.143L52.1479 10.6031L52.1503 10.6021L51.9521 10.143ZM56.5831 10.352L56.3121 10.7722L56.3153 10.7742L56.5831 10.352ZM58.2111 12.057L57.7773 12.3056L58.711 12.0436L58.2111 12.057ZM56.2751 19.218L56.555 19.6324L56.5586 19.6299L56.2751 19.218ZM57.5731 17.656L57.1209 17.4426L57.119 17.4468L57.5731 17.656ZM57.5731 13.322L57.121 13.5354L57.1219 13.5374L57.5731 13.322ZM56.2641 11.771L56.544 11.3566L56.2641 11.771ZM52.1171 11.782L52.3737 12.2112L52.3751 12.2103L52.1171 11.782ZM50.5881 13.333L50.1564 13.0808L50.1543 13.0844L50.5881 13.333ZM50.6101 17.678L50.1805 17.9338L50.1818 17.936L50.6101 17.678ZM52.1501 19.218L51.8936 19.6472L51.8958 19.6485L52.1501 19.218ZM58.1561 10.5H59.6961V9.5H58.1561V10.5ZM59.1961 10V21H60.1961V10H59.1961ZM59.6961 20.5H58.1561V21.5H59.6961V20.5ZM58.656 20.9866L58.601 18.9406L57.6013 18.9674L57.6563 21.0134L58.656 20.9866ZM57.6568 18.7248C57.3358 19.3471 56.8902 19.8475 56.3157 20.2327L56.8726 21.0633C57.5887 20.5832 58.1478 19.9542 58.5455 19.1832L57.6568 18.7248ZM56.319 20.2305C55.7676 20.5939 55.0968 20.786 54.2841 20.786V21.786C55.2608 21.786 56.13 21.5527 56.8693 21.0655L56.319 20.2305ZM54.2841 20.786C53.5413 20.786 52.8531 20.6479 52.2145 20.3752L51.8218 21.2948C52.5911 21.6234 53.4137 21.786 54.2841 21.786V20.786ZM52.2185 20.3769C51.5708 20.0935 51.0033 19.707 50.5127 19.2164L49.8056 19.9236C50.3857 20.5036 51.0575 20.9605 51.8177 21.2931L52.2185 20.3769ZM50.5127 19.2164C50.023 18.7268 49.6408 18.1606 49.365 17.5146L48.4453 17.9074C48.7708 18.6694 49.2246 19.3426 49.8056 19.9236L50.5127 19.2164ZM49.365 17.5146C49.0922 16.876 48.9541 16.1879 48.9541 15.445H47.9541C47.9541 16.3155 48.1167 17.138 48.4453 17.9074L49.365 17.5146ZM48.9541 15.445C48.9541 14.7164 49.0887 14.0384 49.355 13.406L48.4333 13.018C48.1129 13.779 47.9541 14.5896 47.9541 15.445H48.9541ZM49.3532 13.4101C49.6299 12.769 50.006 12.2089 50.4822 11.7261L49.7701 11.0239C49.2049 11.5971 48.7597 12.2616 48.4351 13.0139L49.3532 13.4101ZM50.4797 11.7286C50.9623 11.246 51.5173 10.8714 52.1479 10.6031L51.7564 9.68292C51.0083 10.0012 50.346 10.448 49.7726 11.0214L50.4797 11.7286ZM52.1503 10.6021C52.7816 10.3296 53.4582 10.192 54.1851 10.192V9.192C53.328 9.192 52.516 9.35508 51.754 9.68393L52.1503 10.6021ZM54.1851 10.192C55.0185 10.192 55.721 10.3908 56.3121 10.7721L56.8542 9.93185C56.0813 9.43318 55.1851 9.192 54.1851 9.192V10.192ZM56.3153 10.7742C56.9283 11.1631 57.4142 11.6717 57.7773 12.3056L58.645 11.8084C58.2014 11.0343 57.6019 10.4062 56.851 9.9298L56.3153 10.7742ZM58.711 12.0436L58.656 9.98664L57.6563 10.0134L57.7113 12.0704L58.711 12.0436ZM54.2511 20.29C55.12 20.29 55.8956 20.0776 56.555 19.6324L55.9953 18.8036C55.5253 19.121 54.9516 19.29 54.2511 19.29V20.29ZM56.5586 19.6299C57.201 19.1877 57.6909 18.5954 58.0273 17.8652L57.119 17.4468C56.8541 18.0219 56.4786 18.471 55.9916 18.8061L56.5586 19.6299ZM58.0253 17.8694C58.3675 17.1443 58.5351 16.3519 58.5351 15.5H57.5351C57.5351 16.2174 57.3948 16.8623 57.121 17.4426L58.0253 17.8694ZM58.5351 15.5C58.5351 14.6284 58.3684 13.8274 58.0244 13.1066L57.1219 13.5374C57.3939 14.1073 57.5351 14.7583 57.5351 15.5H58.5351ZM58.0253 13.1086C57.6813 12.3797 57.1876 11.7913 56.544 11.3566L55.9843 12.1854C56.4701 12.5134 56.8489 12.959 57.121 13.5354L58.0253 13.1086ZM56.544 11.3566C55.8854 10.9119 55.1137 10.699 54.2511 10.699V11.699C54.9432 11.699 55.5135 11.8674 55.9843 12.1854L56.544 11.3566ZM54.2511 10.699C53.3859 10.699 52.5849 10.9166 51.8592 11.3537L52.3751 12.2103C52.94 11.8701 53.5617 11.699 54.2511 11.699V10.699ZM51.8606 11.3528C51.149 11.7782 50.5795 12.3566 50.1564 13.0808L51.0199 13.5852C51.3594 13.0041 51.8093 12.5485 52.3737 12.2112L51.8606 11.3528ZM50.1543 13.0844C49.7346 13.8168 49.5271 14.6256 49.5271 15.5H50.5271C50.5271 14.7904 50.6936 14.1545 51.022 13.5816L50.1543 13.0844ZM49.5271 15.5C49.5271 16.3845 49.7433 17.1997 50.1805 17.9338L51.0397 17.4222C50.6996 16.851 50.5271 16.2142 50.5271 15.5H49.5271ZM50.1818 17.936C50.6122 18.6506 51.1842 19.2231 51.8936 19.6472L52.4067 18.7888C51.8401 18.4502 51.3854 17.9961 51.0385 17.42L50.1818 17.936ZM51.8958 19.6485C52.6188 20.0757 53.407 20.29 54.2511 20.29V19.29C53.5846 19.29 52.9722 19.123 52.4045 18.7875L51.8958 19.6485ZM72.5893 21V21.5H73.0893V21H72.5893ZM71.0493 21H70.5493V21.5H71.0493V21ZM70.6093 12.86L70.18 13.1163L70.18 13.1163L70.6093 12.86ZM69.4323 11.683L69.6887 11.2537L69.6887 11.2537L69.4323 11.683ZM66.1543 11.683L65.9008 11.252L65.898 11.2537L66.1543 11.683ZM64.9773 12.86L65.4067 13.1163L65.4067 13.1163L64.9773 12.86ZM64.5373 21V21.5H65.0373V21H64.5373ZM62.9973 21H62.4973V21.5H62.9973V21ZM62.9973 10V9.5H62.4973V10H62.9973ZM64.5373 10H65.0373V9.5H64.5373V10ZM64.5373 11.518H64.0373V13.1091L64.9475 11.804L64.5373 11.518ZM66.0553 10.187L65.8214 9.74511L65.8214 9.74511L66.0553 10.187ZM70.3563 10.297L70.6109 9.86663L70.6109 9.86663L70.3563 10.297ZM72.0893 14.191V21H73.0893V14.191H72.0893ZM72.5893 20.5H71.0493V21.5H72.5893V20.5ZM71.5493 21V14.499H70.5493V21H71.5493ZM71.5493 14.499C71.5493 13.8122 71.3806 13.1765 71.0387 12.6037L70.18 13.1163C70.4247 13.5261 70.5493 13.9831 70.5493 14.499H71.5493ZM71.0387 12.6037C70.7029 12.0413 70.2511 11.5895 69.6887 11.2537L69.176 12.1123C69.5963 12.3632 69.9292 12.6961 70.18 13.1163L71.0387 12.6037ZM69.6887 11.2537C69.1158 10.9117 68.4801 10.743 67.7933 10.743V11.743C68.3092 11.743 68.7662 11.8676 69.176 12.1123L69.6887 11.2537ZM67.7933 10.743C67.1127 10.743 66.4785 10.9123 65.9008 11.252L66.4079 12.114C66.8276 11.8671 67.286 11.743 67.7933 11.743V10.743ZM65.898 11.2537C65.3356 11.5895 64.8838 12.0413 64.548 12.6037L65.4067 13.1163C65.6575 12.6961 65.9904 12.3632 66.4107 12.1123L65.898 11.2537ZM64.548 12.6037C64.206 13.1765 64.0373 13.8122 64.0373 14.499H65.0373C65.0373 13.9831 65.162 13.5261 65.4067 13.1163L64.548 12.6037ZM64.0373 14.499V21H65.0373V14.499H64.0373ZM64.5373 20.5H62.9973V21.5H64.5373V20.5ZM63.4973 21V10H62.4973V21H63.4973ZM62.9973 10.5H64.5373V9.5H62.9973V10.5ZM64.0373 10V11.518H65.0373V10H64.0373ZM64.9475 11.804C65.2889 11.3144 65.7335 10.9231 66.2893 10.6289L65.8214 9.74511C65.1305 10.1109 64.5631 10.6069 64.1272 11.232L64.9475 11.804ZM66.2893 10.6289C66.8376 10.3386 67.4352 10.192 68.0903 10.192V9.192C67.2788 9.192 66.5197 9.37541 65.8214 9.74511L66.2893 10.6289ZM68.0903 10.192C68.8338 10.192 69.5005 10.3718 70.1018 10.7274L70.6109 9.86663C69.8482 9.41558 69.0043 9.192 68.0903 9.192V10.192ZM70.1018 10.7274C70.7113 11.0878 71.1935 11.57 71.554 12.1795L72.4147 11.6705C71.9685 10.916 71.3654 10.3128 70.6109 9.86663L70.1018 10.7274ZM71.554 12.1795C71.9096 12.7808 72.0893 13.4476 72.0893 14.191H73.0893C73.0893 13.2771 72.8658 12.4332 72.4147 11.6705L71.554 12.1795ZM75.8923 13.63V13.13H75.3923V13.63H75.8923ZM82.9323 13.63H83.4323V13.13H82.9323V13.63ZM82.9323 15.17V15.67H83.4323V15.17H82.9323ZM75.8923 15.17H75.3923V15.67H75.8923V15.17ZM75.8923 14.13H82.9323V13.13H75.8923V14.13ZM82.4323 13.63V15.17H83.4323V13.63H82.4323ZM82.9323 14.67H75.8923V15.67H82.9323V14.67ZM76.3923 15.17V13.63H75.3923V15.17H76.3923ZM90.8727 20.67L90.6653 21.1249L90.6683 21.1263L90.8727 20.67ZM88.4527 18.954L88.0884 19.2965L88.092 19.3002L88.4527 18.954ZM86.8247 16.402L86.3607 16.5883L86.3619 16.5913L86.8247 16.402ZM86.8247 10.198L86.3619 10.0087L86.3607 10.0117L86.8247 10.198ZM88.4527 7.657L88.0902 7.31262L88.0901 7.31272L88.4527 7.657ZM90.8727 5.941L91.0771 6.39731L91.0802 6.39593L90.8727 5.941ZM97.2527 6.183L97.4945 5.74534L97.4945 5.74534L97.2527 6.183ZM99.8597 8.493L100.097 8.93289L100.597 8.66292L100.266 8.2015L99.8597 8.493ZM98.4957 9.23L98.0952 9.52935L98.3537 9.87508L98.7334 9.66989L98.4957 9.23ZM96.4277 7.503L96.1963 7.94625L96.201 7.94864L96.4277 7.503ZM91.4447 7.371L91.6554 7.82445L91.6574 7.82351L91.4447 7.371ZM89.5307 8.768L89.1638 8.42829L89.1638 8.4283L89.5307 8.768ZM88.2437 10.825L87.7789 10.6408L87.7789 10.6408L88.2437 10.825ZM88.2437 15.797L87.7789 15.9812L87.7804 15.985L88.2437 15.797ZM89.5417 17.854L89.1748 18.1937L89.1771 18.1961L89.5417 17.854ZM91.4667 19.251L91.256 19.7045L91.2615 19.707L91.4667 19.251ZM96.4607 19.097L96.6954 19.5385L96.6968 19.5377L96.4607 19.097ZM98.4957 17.381L98.7334 16.9411L98.3568 16.7376L98.0977 17.0784L98.4957 17.381ZM99.8597 18.118L100.266 18.4095L100.597 17.9481L100.097 17.6781L99.8597 18.118ZM97.2527 20.428L97.4921 20.867L97.4945 20.8657L97.2527 20.428ZM93.8097 20.786C92.8362 20.786 91.9271 20.5945 91.0771 20.2137L90.6683 21.1263C91.6516 21.5668 92.7006 21.786 93.8097 21.786V20.786ZM91.0802 20.2151C90.2209 19.8233 89.4663 19.2881 88.8135 18.6078L88.092 19.3002C88.8324 20.0719 89.6912 20.6807 90.6653 21.1249L91.0802 20.2151ZM88.817 18.6115C88.1712 17.9245 87.6612 17.1263 87.2875 16.2127L86.3619 16.5913C86.7802 17.6137 87.3555 18.5168 88.0884 19.2965L88.817 18.6115ZM87.2887 16.2157C86.9251 15.3101 86.7417 14.3397 86.7417 13.3H85.7417C85.7417 14.4603 85.947 15.5579 86.3607 16.5883L87.2887 16.2157ZM86.7417 13.3C86.7417 12.2603 86.9251 11.2899 87.2887 10.3843L86.3607 10.0117C85.947 11.0421 85.7417 12.1397 85.7417 13.3H86.7417ZM87.2875 10.3873C87.6611 9.47413 88.1706 8.68029 88.8153 8.00128L88.0901 7.31272C87.3562 8.08571 86.7804 8.98587 86.3619 10.0087L87.2875 10.3873ZM88.8152 8.00137C89.4673 7.31496 90.2204 6.78113 91.0771 6.3973L90.6683 5.4847C89.6917 5.9222 88.8315 6.53238 88.0902 7.31262L88.8152 8.00137ZM91.0802 6.39593C91.9295 6.00864 92.8375 5.814 93.8097 5.814V4.814C92.6993 4.814 91.6493 5.03736 90.6653 5.48607L91.0802 6.39593ZM93.8097 5.814C94.9754 5.814 96.0394 6.0839 97.0109 6.62065L97.4945 5.74534C96.3687 5.12343 95.1374 4.814 93.8097 4.814V5.814ZM97.0109 6.62065C97.9955 7.16458 98.808 7.88498 99.4535 8.7845L100.266 8.2015C99.5327 7.17969 98.6073 6.36009 97.4945 5.74534L97.0109 6.62065ZM99.622 8.05311L98.258 8.79011L98.7334 9.66989L100.097 8.93289L99.622 8.05311ZM98.8962 8.93065C98.306 8.14103 97.5564 7.51623 96.6544 7.05736L96.201 7.94864C96.9711 8.34043 97.6001 8.86697 98.0952 9.52935L98.8962 8.93065ZM96.6591 7.05978C95.7605 6.59058 94.8086 6.354 93.8097 6.354V7.354C94.6442 7.354 95.4376 7.55009 96.1963 7.94622L96.6591 7.05978ZM93.8097 6.354C92.8959 6.354 92.0346 6.54126 91.232 6.91849L91.6574 7.82351C92.3215 7.5114 93.0368 7.354 93.8097 7.354V6.354ZM91.234 6.91756C90.4484 7.2826 89.7575 7.78714 89.1638 8.42829L89.8976 9.1077C90.4039 8.56086 90.989 8.13406 91.6554 7.82444L91.234 6.91756ZM89.1638 8.4283C88.5705 9.06913 88.1089 9.80796 87.7789 10.6408L88.7086 11.0092C88.9946 10.2874 89.391 9.65487 89.8976 9.1077L89.1638 8.4283ZM87.7789 10.6408C87.4466 11.4793 87.2817 12.3671 87.2817 13.3H88.2817C88.2817 12.4876 88.4248 11.7253 88.7086 11.0092L87.7789 10.6408ZM87.2817 13.3C87.2817 14.2465 87.4463 15.1417 87.7789 15.9812L88.7086 15.6128C88.4252 14.8976 88.2817 14.1282 88.2817 13.3H87.2817ZM87.7804 15.985C88.1176 16.8162 88.5823 17.5538 89.1748 18.1937L89.9086 17.5143C89.4011 16.9662 89.0005 16.3324 88.707 15.609L87.7804 15.985ZM89.1771 18.1961C89.7774 18.8359 90.471 19.3397 91.256 19.7044L91.6774 18.7976C91.0104 18.4876 90.4207 18.0601 89.9063 17.5119L89.1771 18.1961ZM91.2615 19.707C92.0614 20.0669 92.9125 20.246 93.8097 20.246V19.246C93.0496 19.246 92.3387 19.0951 91.6719 18.795L91.2615 19.707ZM93.8097 20.246C94.842 20.246 95.8066 20.0109 96.6954 19.5385L96.226 18.6555C95.4868 19.0484 94.6841 19.246 93.8097 19.246V20.246ZM96.6968 19.5377C97.5779 19.0657 98.3126 18.4478 98.8937 17.6836L98.0977 17.0784C97.6081 17.7222 96.9862 18.2483 96.2246 18.6563L96.6968 19.5377ZM98.258 17.8209L99.622 18.5579L100.097 17.6781L98.7334 16.9411L98.258 17.8209ZM99.4535 17.8265C98.808 18.726 97.9955 19.4464 97.0109 19.9903L97.4945 20.8657C98.6073 20.2509 99.5327 19.4313 100.266 18.4095L99.4535 17.8265ZM97.0133 19.9891C96.0413 20.5192 94.9765 20.786 93.8097 20.786V21.786C95.1363 21.786 96.3668 21.4808 97.4921 20.8669L97.0133 19.9891ZM104.674 20.505L104.408 20.9284L104.41 20.9294L104.674 20.505ZM102.683 18.415L102.246 18.6588L102.249 18.6631L102.683 18.415ZM102.375 13.245L102.837 13.4349L102.838 13.4332L102.375 13.245ZM103.552 11.397L103.189 11.0535L103.188 11.0537L103.552 11.397ZM105.312 10.143L105.107 9.68713L105.107 9.68713L105.312 10.143ZM109.69 10.176L109.476 10.628L109.478 10.6288L109.69 10.176ZM111.461 11.529L111.08 11.8524L111.082 11.8552L111.461 11.529ZM112.583 13.564L112.107 13.7167L112.108 13.7208L112.583 13.564ZM112.902 16.083V16.583H113.378L113.401 16.1074L112.902 16.083ZM103.574 16.083V15.583H103.007L103.078 16.1457L103.574 16.083ZM104.234 17.953L103.813 18.2225L103.815 18.2265L104.234 17.953ZM105.598 19.262L105.345 19.6933L105.352 19.6972L105.598 19.262ZM107.446 19.746L107.44 20.246H107.446V19.746ZM109.426 19.174L109.156 18.7532L109.153 18.7548L109.426 19.174ZM110.856 17.601L110.969 17.114L110.597 17.0275L110.416 17.3639L110.856 17.601ZM112.418 17.964L112.874 18.1696L113.124 17.6148L112.531 17.477L112.418 17.964ZM110.427 20.362L110.712 20.7727L110.714 20.7711L110.427 20.362ZM103.53 14.84L103.033 14.7825L102.969 15.34H103.53V14.84ZM111.351 14.84V15.34H111.89L111.85 14.8025L111.351 14.84ZM110.724 12.97L110.3 13.236L110.305 13.2423L110.724 12.97ZM109.327 11.606L109.069 12.0343L109.073 12.0367L109.327 11.606ZM105.576 11.595L105.828 12.0267L105.832 12.0242L105.576 11.595ZM104.19 12.948L104.612 13.2164L104.613 13.214L104.19 12.948ZM107.446 20.786C106.525 20.786 105.693 20.5504 104.938 20.0806L104.41 20.9294C105.327 21.5009 106.343 21.786 107.446 21.786V20.786ZM104.94 20.0816C104.183 19.6059 103.576 18.9702 103.117 18.1669L102.249 18.6631C102.787 19.6051 103.508 20.3628 104.408 20.9284L104.94 20.0816ZM103.119 18.1713C102.672 17.3699 102.446 16.4829 102.446 15.5H101.446C101.446 16.6438 101.711 17.7001 102.246 18.6587L103.119 18.1713ZM102.446 15.5C102.446 14.7538 102.578 14.0671 102.837 13.4349L101.912 13.0551C101.6 13.8162 101.446 14.6329 101.446 15.5H102.446ZM102.838 13.4332C103.102 12.7839 103.461 12.2212 103.915 11.7403L103.188 11.0537C102.645 11.6288 102.22 12.2981 101.912 13.0568L102.838 13.4332ZM103.915 11.7405C104.377 11.2522 104.91 10.8726 105.517 10.5989L105.107 9.68713C104.379 10.0148 103.739 10.4711 103.189 11.0535L103.915 11.7405ZM105.517 10.5989C106.118 10.3282 106.759 10.192 107.446 10.192V9.192C106.622 9.192 105.841 9.35644 105.107 9.68713L105.517 10.5989ZM107.446 10.192C108.192 10.192 108.866 10.3394 109.476 10.628L109.904 9.72403C109.15 9.36729 108.328 9.192 107.446 9.192V10.192ZM109.478 10.6288C110.102 10.9211 110.635 11.328 111.08 11.8524L111.842 11.2056C111.304 10.5713 110.656 10.0762 109.902 9.72315L109.478 10.6288ZM111.082 11.8552C111.534 12.3804 111.877 12.9987 112.107 13.7167L113.059 13.4113C112.791 12.5746 112.385 11.8363 111.84 11.2028L111.082 11.8552ZM112.108 13.7208C112.344 14.434 112.444 15.2117 112.403 16.0586L113.401 16.1074C113.448 15.1503 113.336 14.2486 113.058 13.4072L112.108 13.7208ZM112.902 15.583H103.574V16.583H112.902V15.583ZM103.078 16.1457C103.174 16.9103 103.418 17.6054 103.813 18.2225L104.655 17.6835C104.346 17.2006 104.149 16.649 104.07 16.0203L103.078 16.1457ZM103.815 18.2265C104.216 18.8391 104.726 19.3303 105.345 19.6933L105.851 18.8307C105.37 18.5484 104.971 18.1669 104.653 17.6795L103.815 18.2265ZM105.352 19.6972C105.987 20.0563 106.686 20.2378 107.441 20.246L107.451 19.246C106.856 19.2396 106.324 19.0983 105.844 18.8268L105.352 19.6972ZM107.446 20.246C108.271 20.246 109.027 20.0299 109.698 19.5932L109.153 18.7548C108.652 19.0808 108.087 19.246 107.446 19.246V20.246ZM109.696 19.5948C110.367 19.1642 110.9 18.5744 111.296 17.838L110.416 17.3639C110.094 17.9623 109.673 18.4211 109.156 18.7532L109.696 19.5948ZM110.743 18.088L112.305 18.451L112.531 17.477L110.969 17.114L110.743 18.088ZM111.962 17.7584C111.56 18.6509 110.955 19.3803 110.14 19.9529L110.714 20.7711C111.674 20.097 112.396 19.2278 112.874 18.1696L111.962 17.7584ZM110.142 19.9513C109.34 20.508 108.446 20.786 107.446 20.786V21.786C108.646 21.786 109.739 21.448 110.712 20.7727L110.142 19.9513ZM103.53 15.34H111.351V14.34H103.53V15.34ZM111.85 14.8025C111.792 14.0382 111.556 13.3339 111.143 12.6977L110.305 13.2423C110.625 13.7354 110.807 14.2778 110.852 14.8775L111.85 14.8025ZM111.147 12.704C110.746 12.0656 110.223 11.554 109.581 11.1753L109.073 12.0367C109.575 12.3327 109.983 12.7304 110.301 13.236L111.147 12.704ZM109.585 11.1777C108.933 10.7851 108.217 10.589 107.446 10.589V11.589C108.039 11.589 108.576 11.7376 109.069 12.0343L109.585 11.1777ZM107.446 10.589C106.677 10.589 105.965 10.7804 105.32 11.1658L105.832 12.0242C106.317 11.735 106.851 11.589 107.446 11.589V10.589ZM105.324 11.1633C104.687 11.5353 104.167 12.0441 103.767 12.682L104.613 13.214C104.931 12.7079 105.335 12.3147 105.828 12.0267L105.324 11.1633ZM103.768 12.6796C103.366 13.311 103.122 14.0144 103.033 14.7825L104.027 14.8975C104.099 14.2722 104.295 13.7143 104.612 13.2164L103.768 12.6796ZM125.48 21V21.5H125.98V21H125.48ZM123.94 21H123.44V21.5H123.94V21ZM123.5 12.86L123.07 13.1163L123.07 13.1163L123.5 12.86ZM122.323 11.683L122.579 11.2537L122.579 11.2537L122.323 11.683ZM119.045 11.683L118.791 11.252L118.788 11.2537L119.045 11.683ZM117.868 12.86L118.297 13.1163L118.297 13.1163L117.868 12.86ZM117.428 21V21.5H117.928V21H117.428ZM115.888 21H115.388V21.5H115.888V21ZM115.888 10V9.5H115.388V10H115.888ZM117.428 10H117.928V9.5H117.428V10ZM117.428 11.518H116.928V13.1091L117.838 11.804L117.428 11.518ZM118.946 10.187L118.712 9.74511L118.712 9.74511L118.946 10.187ZM123.247 10.297L123.501 9.86663L123.501 9.86663L123.247 10.297ZM124.98 14.191V21H125.98V14.191H124.98ZM125.48 20.5H123.94V21.5H125.48V20.5ZM124.44 21V14.499H123.44V21H124.44ZM124.44 14.499C124.44 13.8122 124.271 13.1765 123.929 12.6037L123.07 13.1163C123.315 13.5261 123.44 13.9831 123.44 14.499H124.44ZM123.929 12.6037C123.593 12.0413 123.141 11.5895 122.579 11.2537L122.066 12.1123C122.487 12.3632 122.819 12.6961 123.07 13.1163L123.929 12.6037ZM122.579 11.2537C122.006 10.9117 121.37 10.743 120.684 10.743V11.743C121.199 11.743 121.656 11.8676 122.066 12.1123L122.579 11.2537ZM120.684 10.743C120.003 10.743 119.369 10.9123 118.791 11.252L119.298 12.114C119.718 11.8671 120.176 11.743 120.684 11.743V10.743ZM118.788 11.2537C118.226 11.5895 117.774 12.0413 117.438 12.6037L118.297 13.1163C118.548 12.6961 118.881 12.3632 119.301 12.1123L118.788 11.2537ZM117.438 12.6037C117.096 13.1765 116.928 13.8122 116.928 14.499H117.928C117.928 13.9831 118.052 13.5261 118.297 13.1163L117.438 12.6037ZM116.928 14.499V21H117.928V14.499H116.928ZM117.428 20.5H115.888V21.5H117.428V20.5ZM116.388 21V10H115.388V21H116.388ZM115.888 10.5H117.428V9.5H115.888V10.5ZM116.928 10V11.518H117.928V10H116.928ZM117.838 11.804C118.179 11.3144 118.624 10.9231 119.18 10.6289L118.712 9.74511C118.021 10.1109 117.453 10.6069 117.017 11.232L117.838 11.804ZM119.18 10.6289C119.728 10.3386 120.325 10.192 120.981 10.192V9.192C120.169 9.192 119.41 9.37541 118.712 9.74511L119.18 10.6289ZM120.981 10.192C121.724 10.192 122.391 10.3718 122.992 10.7274L123.501 9.86663C122.738 9.41558 121.895 9.192 120.981 9.192V10.192ZM122.992 10.7274C123.602 11.0878 124.084 11.57 124.444 12.1795L125.305 11.6705C124.859 10.916 124.256 10.3128 123.501 9.86663L122.992 10.7274ZM124.444 12.1795C124.8 12.7808 124.98 13.4476 124.98 14.191H125.98C125.98 13.2771 125.756 12.4332 125.305 11.6705L124.444 12.1795ZM134.404 11.54V12.04H134.904V11.54H134.404ZM131.775 11.54V11.04H131.275L131.275 11.5394L131.775 11.54ZM131.764 21V21.5H132.263L132.264 21.0006L131.764 21ZM130.224 21L129.724 20.9994L129.723 21.5H130.224V21ZM130.235 11.54L130.735 11.5406L130.735 11.04H130.235V11.54ZM128.244 11.54H127.744V12.04H128.244V11.54ZM128.244 10V9.5H127.744V10H128.244ZM130.235 10V10.5H130.736L130.734 9.99841L130.235 10ZM130.224 6.546V6.046H129.722L129.724 6.54759L130.224 6.546ZM131.764 6.546L132.263 6.54441L132.262 6.046H131.764V6.546ZM131.775 10L131.275 10.0016L131.276 10.5H131.775V10ZM134.404 10H134.904V9.5H134.404V10ZM134.404 11.04H131.775V12.04H134.404V11.04ZM131.275 11.5394L131.264 20.9994L132.264 21.0006L132.275 11.5406L131.275 11.5394ZM131.764 20.5H130.224V21.5H131.764V20.5ZM130.724 21.0006L130.735 11.5406L129.735 11.5394L129.724 20.9994L130.724 21.0006ZM130.235 11.04H128.244V12.04H130.235V11.04ZM128.744 11.54V10H127.744V11.54H128.744ZM128.244 10.5H130.235V9.5H128.244V10.5ZM130.734 9.99841L130.723 6.54441L129.724 6.54759L129.735 10.0016L130.734 9.99841ZM130.224 7.046H131.764V6.046H130.224V7.046ZM131.264 6.54759L131.275 10.0016L132.274 9.99841L132.263 6.54441L131.264 6.54759ZM131.775 10.5H134.404V9.5H131.775V10.5ZM133.904 10V11.54H134.904V10H133.904ZM137.466 21H136.966V21.5H137.466V21ZM137.466 10V9.5H136.966V10H137.466ZM139.006 10H139.506V9.5H139.006V10ZM139.006 11.518H138.506V13.1091L139.417 11.804L139.006 11.518ZM140.524 10.187L140.291 9.74511L140.291 9.74511L140.524 10.187ZM143.791 9.857L144.254 10.0467L144.468 9.5259L143.925 9.37524L143.791 9.857ZM143.164 11.386L143.017 11.8636L143.454 11.9989L143.627 11.5757L143.164 11.386ZM140.623 11.683L140.37 11.252L140.367 11.2537L140.623 11.683ZM139.446 12.86L139.876 13.1163L139.876 13.1163L139.446 12.86ZM139.006 21V21.5H139.506V21H139.006ZM137.966 21V10H136.966V21H137.966ZM137.466 10.5H139.006V9.5H137.466V10.5ZM138.506 10V11.518H139.506V10H138.506ZM139.417 11.804C139.758 11.3144 140.203 10.9231 140.758 10.6289L140.291 9.74511C139.6 10.1109 139.032 10.6069 138.596 11.232L139.417 11.804ZM140.758 10.6289C141.307 10.3386 141.904 10.192 142.559 10.192V9.192C141.748 9.192 140.989 9.37541 140.291 9.74511L140.758 10.6289ZM142.559 10.192C142.941 10.192 143.307 10.2413 143.658 10.3388L143.925 9.37524C143.484 9.25272 143.028 9.192 142.559 9.192V10.192ZM143.329 9.66729L142.702 11.1963L143.627 11.5757L144.254 10.0467L143.329 9.66729ZM143.312 10.9084C142.961 10.7997 142.611 10.743 142.262 10.743V11.743C142.501 11.743 142.752 11.7817 143.017 11.8636L143.312 10.9084ZM142.262 10.743C141.582 10.743 140.948 10.9123 140.37 11.252L140.877 12.114C141.297 11.8671 141.755 11.743 142.262 11.743V10.743ZM140.367 11.2537C139.805 11.5895 139.353 12.0413 139.017 12.6037L139.876 13.1163C140.127 12.6961 140.46 12.3632 140.88 12.1123L140.367 11.2537ZM139.017 12.6037C138.675 13.1765 138.506 13.8122 138.506 14.499H139.506C139.506 13.9831 139.631 13.5261 139.876 13.1163L139.017 12.6037ZM138.506 14.499V21H139.506V14.499H138.506ZM139.006 20.5H137.466V21.5H139.006V20.5ZM146.279 10V9.5H145.779V10H146.279ZM147.819 10H148.319V9.5H147.819V10ZM147.819 21V21.5H148.319V21H147.819ZM146.279 21H145.779V21.5H146.279V21ZM146.422 7.833L146.069 8.18655L146.077 8.19424L146.085 8.20158L146.422 7.833ZM146.422 6.59L146.768 6.95132L146.768 6.95099L146.422 6.59ZM147.676 6.59L147.323 6.94355L147.331 6.95124L147.339 6.95858L147.676 6.59ZM147.687 7.833L148.033 8.19441L148.041 8.18655L147.687 7.833ZM146.279 10.5H147.819V9.5H146.279V10.5ZM147.319 10V21H148.319V10H147.319ZM147.819 20.5H146.279V21.5H147.819V20.5ZM146.779 21V10H145.779V21H146.779ZM147.06 7.575C146.93 7.575 146.84 7.53719 146.76 7.46442L146.085 8.20158C146.357 8.45147 146.692 8.575 147.06 8.575V7.575ZM146.776 7.47945C146.706 7.40918 146.669 7.32942 146.669 7.206H145.669C145.669 7.58125 145.802 7.91949 146.069 8.18655L146.776 7.47945ZM146.669 7.206C146.669 7.08274 146.705 7.01138 146.768 6.95132L146.077 6.22868C145.802 6.49129 145.669 6.83059 145.669 7.206H146.669ZM146.768 6.95099C146.849 6.87377 146.937 6.837 147.06 6.837V5.837C146.685 5.837 146.348 5.96889 146.076 6.22901L146.768 6.95099ZM147.06 6.837C147.172 6.837 147.249 6.87017 147.323 6.94355L148.03 6.23645C147.766 5.97249 147.433 5.837 147.06 5.837V6.837ZM147.339 6.95858C147.406 7.02056 147.44 7.0898 147.44 7.206H148.44C148.44 6.82353 148.299 6.4821 148.014 6.22142L147.339 6.95858ZM147.44 7.206C147.44 7.32942 147.404 7.40918 147.334 7.47945L148.041 8.18655C148.308 7.91949 148.44 7.58125 148.44 7.206H147.44ZM147.342 7.47168C147.273 7.53754 147.191 7.575 147.06 7.575V8.575C147.429 8.575 147.765 8.45112 148.033 8.19432L147.342 7.47168ZM159.315 18.239L159.554 17.7998L159.184 17.5981L158.922 17.9298L159.315 18.239ZM160.69 18.987L161.097 19.278L161.426 18.8181L160.929 18.5478L160.69 18.987ZM158.787 20.659L158.549 20.2196L158.547 20.2205L158.787 20.659ZM153.529 20.505L153.263 20.9284L153.265 20.9294L153.529 20.505ZM151.538 18.415L151.102 18.6588L151.104 18.6631L151.538 18.415ZM151.23 13.245L151.693 13.4349L151.694 13.4332L151.23 13.245ZM152.407 11.397L152.044 11.0535L152.044 11.0537L152.407 11.397ZM154.167 10.143L153.962 9.68713L153.962 9.68713L154.167 10.143ZM158.787 10.319L158.547 10.7575L158.549 10.7584L158.787 10.319ZM160.69 12.002L160.927 12.4427L161.426 12.1751L161.098 11.713L160.69 12.002ZM159.315 12.739L158.923 13.0484L159.182 13.3777L159.552 13.1797L159.315 12.739ZM157.94 11.628L157.719 12.0765L157.724 12.0789L157.94 11.628ZM154.288 11.826L154.56 12.2459L154.563 12.2436L154.288 11.826ZM152.858 13.377L152.419 13.1376L152.417 13.1414L152.858 13.377ZM152.869 17.623L152.43 17.8624L152.433 17.8662L152.869 17.623ZM154.31 19.174L154.039 19.5939L154.043 19.5963L154.31 19.174ZM157.995 19.328L158.229 19.7702L158.229 19.7702L157.995 19.328ZM159.076 18.6782L160.451 19.4262L160.929 18.5478L159.554 17.7998L159.076 18.6782ZM160.284 18.696C159.83 19.3297 159.254 19.8368 158.549 20.2196L159.026 21.0984C159.861 20.6452 160.553 20.0377 161.097 19.278L160.284 18.696ZM158.547 20.2205C157.86 20.597 157.115 20.786 156.301 20.786V21.786C157.278 21.786 158.189 21.557 159.028 21.0975L158.547 20.2205ZM156.301 20.786C155.38 20.786 154.548 20.5504 153.794 20.0806L153.265 20.9294C154.183 21.5009 155.199 21.786 156.301 21.786V20.786ZM153.795 20.0816C153.038 19.6059 152.432 18.9702 151.973 18.1669L151.104 18.6631C151.643 19.6051 152.363 20.3628 153.263 20.9284L153.795 20.0816ZM151.975 18.1713C151.528 17.3699 151.301 16.4829 151.301 15.5H150.301C150.301 16.6438 150.567 17.7001 151.102 18.6587L151.975 18.1713ZM151.301 15.5C151.301 14.7538 151.433 14.0671 151.693 13.4349L150.768 13.0551C150.455 13.8162 150.301 14.6329 150.301 15.5H151.301ZM151.694 13.4332C151.957 12.7839 152.317 12.2212 152.771 11.7403L152.044 11.0537C151.501 11.6288 151.075 12.2981 150.767 13.0568L151.694 13.4332ZM152.771 11.7405C153.232 11.2522 153.765 10.8726 154.373 10.5989L153.962 9.68713C153.235 10.0148 152.595 10.4711 152.044 11.0535L152.771 11.7405ZM154.373 10.5989C154.973 10.3282 155.615 10.192 156.301 10.192V9.192C155.478 9.192 154.696 9.35644 153.962 9.68713L154.373 10.5989ZM156.301 10.192C157.115 10.192 157.86 10.381 158.547 10.7575L159.028 9.88054C158.189 9.42097 157.278 9.192 156.301 9.192V10.192ZM158.549 10.7584C159.253 11.1405 159.829 11.6505 160.282 12.291L161.098 11.713C160.555 10.9455 159.862 10.3335 159.026 9.87957L158.549 10.7584ZM160.454 11.5613L159.079 12.2983L159.552 13.1797L160.927 12.4427L160.454 11.5613ZM159.708 12.4296C159.281 11.8879 158.763 11.4681 158.157 11.1771L157.724 12.0789C158.188 12.3012 158.587 12.6221 158.923 13.0484L159.708 12.4296ZM158.162 11.1796C157.562 10.8841 156.941 10.732 156.301 10.732V11.732C156.777 11.732 157.248 11.8439 157.719 12.0764L158.162 11.1796ZM156.301 10.732C155.466 10.732 154.699 10.957 154.013 11.4084L154.563 12.2436C155.081 11.903 155.656 11.732 156.301 11.732V10.732ZM154.017 11.4061C153.344 11.8412 152.81 12.4211 152.419 13.1376L153.297 13.6164C153.611 13.0423 154.03 12.5881 154.56 12.2459L154.017 11.4061ZM152.417 13.1414C152.032 13.8631 151.841 14.6523 151.841 15.5H152.841C152.841 14.8077 152.996 14.1816 153.299 13.6126L152.417 13.1414ZM151.841 15.5C151.841 16.3495 152.036 17.1401 152.43 17.8624L153.308 17.3836C152.998 16.8152 152.841 16.1905 152.841 15.5H151.841ZM152.433 17.8662C152.83 18.5808 153.367 19.1594 154.039 19.5939L154.582 18.7541C154.051 18.4113 153.627 17.9559 153.306 17.3798L152.433 17.8662ZM154.043 19.5963C154.726 20.0294 155.483 20.246 156.301 20.246V19.246C155.668 19.246 155.098 19.0813 154.578 18.7517L154.043 19.5963ZM156.301 20.246C156.983 20.246 157.628 20.0871 158.229 19.7702L157.762 18.8858C157.306 19.1262 156.822 19.246 156.301 19.246V20.246ZM158.229 19.7702C158.816 19.4605 159.311 19.0532 159.708 18.5482L158.922 17.9298C158.616 18.3194 158.231 18.6382 157.762 18.8858L158.229 19.7702Z" fill="#8F00FF"/>
<path d="M6.699 47.286C5.87767 47.286 5.082 47.1577 4.312 46.901C3.54933 46.6443 2.882 46.2777 2.31 45.801C1.738 45.3243 1.33467 44.756 1.1 44.096L2.541 43.557C2.70233 44.0117 2.99567 44.404 3.421 44.734C3.85367 45.0567 4.356 45.306 4.928 45.482C5.50733 45.658 6.09767 45.746 6.699 45.746C7.403 45.746 8.05933 45.6287 8.668 45.394C9.27667 45.1593 9.768 44.833 10.142 44.415C10.516 43.9897 10.703 43.491 10.703 42.919C10.703 42.3397 10.5087 41.863 10.12 41.489C9.73133 41.115 9.229 40.8217 8.613 40.609C8.00433 40.389 7.36633 40.2203 6.699 40.103C5.65033 39.9197 4.708 39.6703 3.872 39.355C3.04333 39.0397 2.387 38.596 1.903 38.024C1.419 37.4447 1.177 36.682 1.177 35.736C1.177 34.8487 1.43367 34.0787 1.947 33.426C2.46033 32.7733 3.135 32.2673 3.971 31.908C4.81433 31.5487 5.72367 31.369 6.699 31.369C7.49833 31.369 8.27933 31.4937 9.042 31.743C9.80467 31.9923 10.4757 32.3553 11.055 32.832C11.6417 33.3087 12.0633 33.8917 12.32 34.581L10.857 35.109C10.6957 34.647 10.3987 34.2547 9.966 33.932C9.54067 33.602 9.042 33.3527 8.47 33.184C7.898 33.008 7.30767 32.92 6.699 32.92C6.00233 32.9127 5.34967 33.03 4.741 33.272C4.13967 33.5067 3.652 33.8367 3.278 34.262C2.904 34.68 2.717 35.1713 2.717 35.736C2.717 36.396 2.88933 36.9057 3.234 37.265C3.586 37.617 4.06267 37.881 4.664 38.057C5.26533 38.233 5.94367 38.3907 6.699 38.53C7.68167 38.6987 8.59467 38.9627 9.438 39.322C10.2813 39.674 10.9597 40.147 11.473 40.741C11.9863 41.3277 12.243 42.0537 12.243 42.919C12.243 43.799 11.9863 44.569 11.473 45.229C10.9597 45.8817 10.2813 46.3877 9.438 46.747C8.602 47.1063 7.689 47.286 6.699 47.286ZM20.5373 47.286C19.5253 47.286 18.6013 47.0257 17.7653 46.505C16.9367 45.9843 16.273 45.2877 15.7743 44.415C15.283 43.535 15.0373 42.5633 15.0373 41.5C15.0373 40.6933 15.1803 39.9417 15.4663 39.245C15.7523 38.541 16.1447 37.925 16.6433 37.397C17.1493 36.8617 17.736 36.4437 18.4033 36.143C19.0707 35.8423 19.782 35.692 20.5373 35.692C21.5493 35.692 22.4697 35.9523 23.2983 36.473C24.1343 36.9937 24.798 37.694 25.2893 38.574C25.788 39.454 26.0373 40.4293 26.0373 41.5C26.0373 42.2993 25.8943 43.0473 25.6083 43.744C25.3223 44.4407 24.9263 45.0567 24.4203 45.592C23.9217 46.12 23.3387 46.5343 22.6713 46.835C22.0113 47.1357 21.3 47.286 20.5373 47.286ZM20.5373 45.746C21.2853 45.746 21.9563 45.5517 22.5503 45.163C23.1517 44.767 23.6247 44.2463 23.9693 43.601C24.3213 42.9557 24.4973 42.2553 24.4973 41.5C24.4973 40.73 24.3213 40.0223 23.9693 39.377C23.6173 38.7243 23.1407 38.2037 22.5393 37.815C21.9453 37.4263 21.278 37.232 20.5373 37.232C19.7893 37.232 19.1147 37.43 18.5133 37.826C17.9193 38.2147 17.4463 38.7317 17.0943 39.377C16.7497 40.0223 16.5773 40.73 16.5773 41.5C16.5773 42.292 16.757 43.0107 17.1163 43.656C17.4757 44.294 17.956 44.8037 18.5573 45.185C19.1587 45.559 19.8187 45.746 20.5373 45.746ZM28.9145 47V30.5H30.4545V47H28.9145ZM33.764 42.787V36H35.304V42.479C35.304 43.0803 35.4507 43.6267 35.744 44.118C36.0373 44.6093 36.4297 45.0017 36.921 45.295C37.4197 45.5883 37.966 45.735 38.56 45.735C39.1613 45.735 39.704 45.5883 40.188 45.295C40.6793 45.0017 41.0717 44.6093 41.365 44.118C41.6583 43.6267 41.805 43.0803 41.805 42.479V36H43.345L43.356 47H41.816L41.805 45.46C41.4163 46.0173 40.9103 46.461 40.287 46.791C39.671 47.121 38.9963 47.286 38.263 47.286C37.4343 47.286 36.679 47.0843 35.997 46.681C35.315 46.2777 34.7723 45.735 34.369 45.053C33.9657 44.371 33.764 43.6157 33.764 42.787ZM52.2687 37.54H49.6397L49.6287 47H48.0887L48.0997 37.54H46.1087V36H48.0997L48.0887 32.546H49.6287L49.6397 36H52.2687V37.54ZM55.2458 36H56.7858V47H55.2458V36ZM56.0268 34.075C55.7774 34.075 55.5648 33.9943 55.3888 33.833C55.2201 33.6643 55.1358 33.4553 55.1358 33.206C55.1358 32.9567 55.2201 32.7513 55.3888 32.59C55.5648 32.4213 55.7774 32.337 56.0268 32.337C56.2688 32.337 56.4741 32.4213 56.6428 32.59C56.8188 32.7513 56.9068 32.9567 56.9068 33.206C56.9068 33.4553 56.8224 33.6643 56.6538 33.833C56.4851 33.9943 56.2761 34.075 56.0268 34.075ZM65.2678 47.286C64.2558 47.286 63.3318 47.0257 62.4958 46.505C61.6671 45.9843 61.0035 45.2877 60.5048 44.415C60.0135 43.535 59.7678 42.5633 59.7678 41.5C59.7678 40.6933 59.9108 39.9417 60.1968 39.245C60.4828 38.541 60.8751 37.925 61.3738 37.397C61.8798 36.8617 62.4665 36.4437 63.1338 36.143C63.8011 35.8423 64.5125 35.692 65.2678 35.692C66.2798 35.692 67.2001 35.9523 68.0288 36.473C68.8648 36.9937 69.5285 37.694 70.0198 38.574C70.5185 39.454 70.7678 40.4293 70.7678 41.5C70.7678 42.2993 70.6248 43.0473 70.3388 43.744C70.0528 44.4407 69.6568 45.0567 69.1508 45.592C68.6521 46.12 68.0691 46.5343 67.4018 46.835C66.7418 47.1357 66.0305 47.286 65.2678 47.286ZM65.2678 45.746C66.0158 45.746 66.6868 45.5517 67.2808 45.163C67.8821 44.767 68.3551 44.2463 68.6998 43.601C69.0518 42.9557 69.2278 42.2553 69.2278 41.5C69.2278 40.73 69.0518 40.0223 68.6998 39.377C68.3478 38.7243 67.8711 38.2037 67.2698 37.815C66.6758 37.4263 66.0085 37.232 65.2678 37.232C64.5198 37.232 63.8451 37.43 63.2438 37.826C62.6498 38.2147 62.1768 38.7317 61.8248 39.377C61.4801 40.0223 61.3078 40.73 61.3078 41.5C61.3078 42.292 61.4875 43.0107 61.8468 43.656C62.2061 44.294 62.6865 44.8037 63.2878 45.185C63.8891 45.559 64.5491 45.746 65.2678 45.746ZM83.3229 40.191V47H81.7829V40.499C81.7829 39.8977 81.6363 39.3513 81.3429 38.86C81.0496 38.3687 80.6573 37.9763 80.1659 37.683C79.6746 37.3897 79.1283 37.243 78.5269 37.243C77.9329 37.243 77.3866 37.3897 76.8879 37.683C76.3966 37.9763 76.0043 38.3687 75.7109 38.86C75.4176 39.3513 75.2709 39.8977 75.2709 40.499V47H73.7309V36H75.2709V37.518C75.6596 36.9607 76.1656 36.517 76.7889 36.187C77.4123 35.857 78.0906 35.692 78.8239 35.692C79.6526 35.692 80.4079 35.8937 81.0899 36.297C81.7719 36.7003 82.3146 37.243 82.7179 37.925C83.1213 38.607 83.3229 39.3623 83.3229 40.191ZM90.0249 47.209C89.4235 47.1943 88.8369 47.0843 88.2649 46.879C87.6929 46.6737 87.1942 46.395 86.7689 46.043C86.3435 45.691 86.0392 45.2913 85.8559 44.844L87.1869 44.272C87.3042 44.558 87.5205 44.822 87.8359 45.064C88.1585 45.2987 88.5252 45.4893 88.9359 45.636C89.3465 45.7753 89.7535 45.845 90.1569 45.845C90.6042 45.845 91.0222 45.7717 91.4109 45.625C91.7995 45.4783 92.1149 45.2693 92.3569 44.998C92.6062 44.7193 92.7309 44.393 92.7309 44.019C92.7309 43.6157 92.5989 43.3003 92.3349 43.073C92.0709 42.8383 91.7372 42.655 91.3339 42.523C90.9305 42.3837 90.5162 42.2517 90.0909 42.127C89.3135 41.9143 88.6279 41.6797 88.0339 41.423C87.4399 41.1663 86.9742 40.84 86.6369 40.444C86.3069 40.0407 86.1419 39.5237 86.1419 38.893C86.1419 38.2257 86.3289 37.65 86.7029 37.166C87.0842 36.6747 87.5792 36.297 88.1879 36.033C88.8039 35.7617 89.4602 35.626 90.1569 35.626C91.0515 35.626 91.8655 35.8203 92.5989 36.209C93.3395 36.5977 93.8749 37.1147 94.2049 37.76L92.9619 38.497C92.8299 38.1963 92.6209 37.936 92.3349 37.716C92.0489 37.496 91.7225 37.3237 91.3559 37.199C90.9965 37.0743 90.6299 37.0083 90.2559 37.001C89.7865 36.9937 89.3502 37.0633 88.9469 37.21C88.5435 37.3493 88.2172 37.5583 87.9679 37.837C87.7259 38.1157 87.6049 38.4567 87.6049 38.86C87.6049 39.2633 87.7259 39.5713 87.9679 39.784C88.2099 39.9893 88.5362 40.158 88.9469 40.29C89.3649 40.4147 89.8342 40.5613 90.3549 40.73C91.0222 40.9427 91.6492 41.1847 92.2359 41.456C92.8225 41.7273 93.2955 42.0647 93.6549 42.468C94.0142 42.8713 94.1902 43.381 94.1829 43.997C94.1829 44.657 93.9849 45.2327 93.5889 45.724C93.1929 46.2153 92.6795 46.593 92.0489 46.857C91.4182 47.1137 90.7435 47.231 90.0249 47.209Z" fill="black"/>
<path d="M3.405 71.13C2.845 71.13 2.35333 70.9933 1.93 70.72C1.51 70.4467 1.18333 70.08 0.95 69.62C0.716667 69.1567 0.6 68.6433 0.6 68.08V64H1.82V68.08C1.82 68.4133 1.88167 68.72 2.005 69C2.13167 69.2767 2.31167 69.4983 2.545 69.665C2.78167 69.8283 3.06833 69.91 3.405 69.91C3.745 69.91 4.03167 69.8283 4.265 69.665C4.49833 69.4983 4.675 69.2767 4.795 69C4.91833 68.72 4.98 68.4133 4.98 68.08V64H6.2V68.08C6.2 68.5033 6.13333 68.9 6 69.27C5.86667 69.6367 5.67667 69.96 5.43 70.24C5.18333 70.52 4.88833 70.7383 4.545 70.895C4.205 71.0517 3.825 71.13 3.405 71.13ZM12.3206 67.84V71H11.1006V68.16C11.1006 67.9633 11.0523 67.785 10.9556 67.625C10.859 67.4617 10.729 67.3333 10.5656 67.24C10.4056 67.1433 10.2273 67.095 10.0306 67.095C9.83396 67.095 9.65396 67.1433 9.49063 67.24C9.33063 67.3333 9.20229 67.4617 9.10563 67.625C9.01229 67.785 8.96563 67.9633 8.96563 68.16V71H7.74563L7.74063 66H8.96063L8.96563 66.445C9.13563 66.265 9.33896 66.1233 9.57563 66.02C9.81229 65.9133 10.0673 65.86 10.3406 65.86C10.704 65.86 11.0356 65.95 11.3356 66.13C11.6356 66.3067 11.874 66.545 12.0506 66.845C12.2306 67.1417 12.3206 67.4733 12.3206 67.84ZM13.8461 71V63.5H15.0661V71H13.8461ZM18.8898 71.13C18.4298 71.13 18.0098 71.0117 17.6298 70.775C17.2532 70.5383 16.9515 70.22 16.7248 69.82C16.5015 69.42 16.3898 68.9783 16.3898 68.495C16.3898 68.1317 16.4548 67.7917 16.5848 67.475C16.7148 67.155 16.8932 66.875 17.1198 66.635C17.3498 66.3917 17.6165 66.2017 17.9198 66.065C18.2232 65.9283 18.5465 65.86 18.8898 65.86C19.2798 65.86 19.6365 65.9433 19.9598 66.11C20.2865 66.2733 20.5632 66.4983 20.7898 66.785C21.0165 67.0717 21.1815 67.3983 21.2848 67.765C21.3882 68.1317 21.4115 68.515 21.3548 68.915H17.6998C17.7465 69.1017 17.8232 69.27 17.9298 69.42C18.0365 69.5667 18.1715 69.685 18.3348 69.775C18.4982 69.8617 18.6832 69.9067 18.8898 69.91C19.1032 69.9133 19.2965 69.8633 19.4698 69.76C19.6465 69.6533 19.7932 69.51 19.9098 69.33L21.1548 69.62C20.9515 70.0633 20.6482 70.4267 20.2448 70.71C19.8415 70.99 19.3898 71.13 18.8898 71.13ZM17.6598 68H20.1198C20.0832 67.8 20.0048 67.62 19.8848 67.46C19.7682 67.2967 19.6232 67.1667 19.4498 67.07C19.2765 66.9733 19.0898 66.925 18.8898 66.925C18.6898 66.925 18.5048 66.9733 18.3348 67.07C18.1648 67.1633 18.0198 67.2917 17.8998 67.455C17.7832 67.615 17.7032 67.7967 17.6598 68ZM26.4579 66H27.6779V71H26.4579L26.4029 70.38C26.2662 70.6033 26.0846 70.785 25.8579 70.925C25.6346 71.0617 25.3696 71.13 25.0629 71.13C24.6929 71.13 24.3462 71.06 24.0229 70.92C23.6996 70.78 23.4146 70.5867 23.1679 70.34C22.9246 70.0933 22.7329 69.8083 22.5929 69.485C22.4562 69.1617 22.3879 68.815 22.3879 68.445C22.3879 68.0883 22.4529 67.7533 22.5829 67.44C22.7162 67.1267 22.9012 66.8517 23.1379 66.615C23.3746 66.3783 23.6479 66.1933 23.9579 66.06C24.2679 65.9267 24.6012 65.86 24.9579 65.86C25.2879 65.86 25.5829 65.9333 25.8429 66.08C26.1062 66.2267 26.3296 66.4133 26.5129 66.64L26.4579 66ZM25.0329 69.955C25.2929 69.955 25.5229 69.89 25.7229 69.76C25.9229 69.63 26.0796 69.455 26.1929 69.235C26.3062 69.0117 26.3629 68.7667 26.3629 68.5C26.3629 68.23 26.3062 67.985 26.1929 67.765C26.0796 67.5417 25.9212 67.365 25.7179 67.235C25.5179 67.105 25.2896 67.04 25.0329 67.04C24.7762 67.04 24.5412 67.1067 24.3279 67.24C24.1179 67.37 23.9496 67.545 23.8229 67.765C23.6996 67.985 23.6379 68.23 23.6379 68.5C23.6379 68.77 23.7012 69.015 23.8279 69.235C23.9546 69.455 24.1229 69.63 24.3329 69.76C24.5462 69.89 24.7796 69.955 25.0329 69.955ZM30.6492 71.09C30.3892 71.0733 30.1376 71.0217 29.8942 70.935C29.6542 70.845 29.4409 70.7233 29.2542 70.57C29.0676 70.4167 28.9242 70.2333 28.8242 70.02L29.8542 69.58C29.8942 69.6467 29.9592 69.7183 30.0492 69.795C30.1392 69.8683 30.2459 69.93 30.3692 69.98C30.4959 70.03 30.6342 70.055 30.7842 70.055C30.9109 70.055 31.0309 70.0383 31.1442 70.005C31.2609 69.9683 31.3542 69.9133 31.4242 69.84C31.4976 69.7667 31.5342 69.6717 31.5342 69.555C31.5342 69.4317 31.4909 69.3367 31.4042 69.27C31.3209 69.2 31.2142 69.1483 31.0842 69.115C30.9576 69.0783 30.8342 69.045 30.7142 69.015C30.3976 68.9517 30.1026 68.8533 29.8292 68.72C29.5592 68.5867 29.3409 68.415 29.1742 68.205C29.0109 67.9917 28.9292 67.735 28.9292 67.435C28.9292 67.105 29.0159 66.82 29.1892 66.58C29.3659 66.34 29.5942 66.155 29.8742 66.025C30.1576 65.895 30.4626 65.83 30.7892 65.83C31.1859 65.83 31.5492 65.9133 31.8792 66.08C32.2126 66.2433 32.4759 66.475 32.6692 66.775L31.7042 67.345C31.6576 67.265 31.5926 67.1917 31.5092 67.125C31.4259 67.055 31.3309 66.9983 31.2242 66.955C31.1176 66.9083 31.0059 66.8817 30.8892 66.875C30.7392 66.8683 30.6026 66.8817 30.4792 66.915C30.3559 66.9483 30.2559 67.005 30.1792 67.085C30.1059 67.165 30.0692 67.2717 30.0692 67.405C30.0692 67.5317 30.1192 67.6267 30.2192 67.69C30.3192 67.75 30.4392 67.7967 30.5792 67.83C30.7226 67.8633 30.8592 67.9 30.9892 67.94C31.2826 68.0367 31.5576 68.155 31.8142 68.295C32.0742 68.435 32.2826 68.6067 32.4392 68.81C32.5959 69.0133 32.6709 69.2567 32.6642 69.54C32.6642 69.8633 32.5676 70.1467 32.3742 70.39C32.1809 70.63 31.9309 70.8133 31.6242 70.94C31.3209 71.0667 30.9959 71.1167 30.6492 71.09ZM38.5999 67.84V71H37.3799V68.16C37.3799 67.9633 37.3316 67.785 37.2349 67.625C37.1383 67.4617 37.0083 67.3333 36.8449 67.24C36.6849 67.1433 36.5066 67.095 36.3099 67.095C36.1133 67.095 35.9333 67.1433 35.7699 67.24C35.6099 67.3333 35.4816 67.4617 35.3849 67.625C35.2916 67.785 35.2449 67.9633 35.2449 68.16V71H34.0249L34.0199 63.5H35.2399L35.2449 66.445C35.4149 66.265 35.6183 66.1233 35.8549 66.02C36.0916 65.9133 36.3466 65.86 36.6199 65.86C36.9833 65.86 37.3149 65.95 37.6149 66.13C37.9149 66.3067 38.1533 66.545 38.3299 66.845C38.5099 67.1417 38.5999 67.4733 38.5999 67.84ZM40.0961 66H41.3161V71H40.0961V66ZM40.7161 65.355C40.5361 65.355 40.3844 65.2967 40.2611 65.18C40.1378 65.06 40.0761 64.91 40.0761 64.73C40.0761 64.5533 40.1378 64.405 40.2611 64.285C40.3844 64.165 40.5344 64.105 40.7111 64.105C40.8878 64.105 41.0361 64.165 41.1561 64.285C41.2794 64.405 41.3411 64.5533 41.3411 64.73C41.3411 64.91 41.2811 65.06 41.1611 65.18C41.0411 65.2967 40.8928 65.355 40.7161 65.355ZM47.5589 67.84V71H46.3389V68.16C46.3389 67.9633 46.2906 67.785 46.1939 67.625C46.0972 67.4617 45.9672 67.3333 45.8039 67.24C45.6439 67.1433 45.4656 67.095 45.2689 67.095C45.0722 67.095 44.8922 67.1433 44.7289 67.24C44.5689 67.3333 44.4406 67.4617 44.3439 67.625C44.2506 67.785 44.2039 67.9633 44.2039 68.16V71H42.9839L42.9789 66H44.1989L44.2039 66.445C44.3739 66.265 44.5772 66.1233 44.8139 66.02C45.0506 65.9133 45.3056 65.86 45.5789 65.86C45.9422 65.86 46.2739 65.95 46.5739 66.13C46.8739 66.3067 47.1122 66.545 47.2889 66.845C47.4689 67.1417 47.5589 67.4733 47.5589 67.84ZM52.6674 66H53.8874V71.095C53.8874 71.455 53.8141 71.7817 53.6674 72.075C53.5208 72.3717 53.3208 72.625 53.0674 72.835C52.8141 73.0483 52.5241 73.2117 52.1974 73.325C51.8708 73.4417 51.5274 73.5 51.1674 73.5C50.8174 73.5 50.4808 73.4283 50.1574 73.285C49.8341 73.1417 49.5474 72.945 49.2974 72.695C49.0508 72.4483 48.8624 72.1667 48.7324 71.85L49.8474 71.345C49.9141 71.5283 50.0141 71.6883 50.1474 71.825C50.2841 71.965 50.4408 72.0733 50.6174 72.15C50.7941 72.23 50.9774 72.27 51.1674 72.27C51.3608 72.27 51.5458 72.2433 51.7224 72.19C51.9024 72.1367 52.0641 72.0583 52.2074 71.955C52.3508 71.855 52.4624 71.7317 52.5424 71.585C52.6258 71.4417 52.6674 71.2783 52.6674 71.095V70.39C52.5108 70.61 52.3141 70.7883 52.0774 70.925C51.8408 71.0617 51.5674 71.13 51.2574 71.13C50.8974 71.13 50.5608 71.0617 50.2474 70.925C49.9341 70.7883 49.6574 70.6 49.4174 70.36C49.1808 70.1167 48.9941 69.8367 48.8574 69.52C48.7241 69.2033 48.6574 68.8633 48.6574 68.5C48.6574 68.1367 48.7241 67.7967 48.8574 67.48C48.9941 67.1633 49.1808 66.885 49.4174 66.645C49.6574 66.4017 49.9341 66.2117 50.2474 66.075C50.5608 65.9383 50.8974 65.87 51.2574 65.87C51.5674 65.87 51.8408 65.9383 52.0774 66.075C52.3141 66.2083 52.5108 66.385 52.6674 66.605V66ZM51.2724 69.955C51.5291 69.955 51.7558 69.89 51.9524 69.76C52.1524 69.6267 52.3091 69.45 52.4224 69.23C52.5358 69.0067 52.5924 68.7633 52.5924 68.5C52.5924 68.2333 52.5341 67.99 52.4174 67.77C52.3041 67.55 52.1474 67.3733 51.9474 67.24C51.7508 67.1067 51.5258 67.04 51.2724 67.04C51.0224 67.04 50.7941 67.1067 50.5874 67.24C50.3808 67.37 50.2158 67.545 50.0924 67.765C49.9691 67.985 49.9074 68.23 49.9074 68.5C49.9074 68.77 49.9691 69.015 50.0924 69.235C50.2158 69.455 50.3808 69.63 50.5874 69.76C50.7941 69.89 51.0224 69.955 51.2724 69.955ZM61.1726 67.22H60.2026V71H58.9826V67.22H58.2426V66H58.9826V64.43H60.2026V66H61.1726V67.22ZM67.1566 67.84V71H65.9366V68.16C65.9366 67.9633 65.8882 67.785 65.7916 67.625C65.6949 67.4617 65.5649 67.3333 65.4016 67.24C65.2416 67.1433 65.0632 67.095 64.8666 67.095C64.6699 67.095 64.4899 67.1433 64.3266 67.24C64.1666 67.3333 64.0382 67.4617 63.9416 67.625C63.8482 67.785 63.8016 67.9633 63.8016 68.16V71H62.5816L62.5766 63.5H63.7966L63.8016 66.445C63.9716 66.265 64.1749 66.1233 64.4116 66.02C64.6482 65.9133 64.9032 65.86 65.1766 65.86C65.5399 65.86 65.8716 65.95 66.1716 66.13C66.4716 66.3067 66.7099 66.545 66.8866 66.845C67.0666 67.1417 67.1566 67.4733 67.1566 67.84ZM70.7551 71.13C70.2951 71.13 69.8751 71.0117 69.4951 70.775C69.1184 70.5383 68.8167 70.22 68.5901 69.82C68.3667 69.42 68.2551 68.9783 68.2551 68.495C68.2551 68.1317 68.3201 67.7917 68.4501 67.475C68.5801 67.155 68.7584 66.875 68.9851 66.635C69.2151 66.3917 69.4817 66.2017 69.7851 66.065C70.0884 65.9283 70.4117 65.86 70.7551 65.86C71.1451 65.86 71.5017 65.9433 71.8251 66.11C72.1517 66.2733 72.4284 66.4983 72.6551 66.785C72.8817 67.0717 73.0467 67.3983 73.1501 67.765C73.2534 68.1317 73.2767 68.515 73.2201 68.915H69.5651C69.6117 69.1017 69.6884 69.27 69.7951 69.42C69.9017 69.5667 70.0367 69.685 70.2001 69.775C70.3634 69.8617 70.5484 69.9067 70.7551 69.91C70.9684 69.9133 71.1617 69.8633 71.3351 69.76C71.5117 69.6533 71.6584 69.51 71.7751 69.33L73.0201 69.62C72.8167 70.0633 72.5134 70.4267 72.1101 70.71C71.7067 70.99 71.2551 71.13 70.7551 71.13ZM69.5251 68H71.9851C71.9484 67.8 71.8701 67.62 71.7501 67.46C71.6334 67.2967 71.4884 67.1667 71.3151 67.07C71.1417 66.9733 70.9551 66.925 70.7551 66.925C70.5551 66.925 70.3701 66.9733 70.2001 67.07C70.0301 67.1633 69.8851 67.2917 69.7651 67.455C69.6484 67.615 69.5684 67.7967 69.5251 68ZM77.5531 71V64H80.0531C80.4331 64 80.7765 64.095 81.0831 64.285C81.3931 64.475 81.6381 64.73 81.8181 65.05C81.9981 65.37 82.0881 65.7217 82.0881 66.105C82.0881 66.4983 81.9948 66.855 81.8081 67.175C81.6248 67.4917 81.3781 67.745 81.0681 67.935C80.7581 68.1217 80.4198 68.215 80.0531 68.215H78.7731V71H77.5531ZM78.7731 66.995H79.9231C80.0965 66.995 80.2548 66.9517 80.3981 66.865C80.5415 66.7783 80.6548 66.6617 80.7381 66.515C80.8248 66.3683 80.8681 66.205 80.8681 66.025C80.8681 65.8417 80.8248 65.6767 80.7381 65.53C80.6548 65.3833 80.5415 65.2667 80.3981 65.18C80.2548 65.0933 80.0965 65.05 79.9231 65.05H78.7731V66.995ZM85.3605 71.13C84.9005 71.13 84.4805 71.0117 84.1005 70.775C83.7239 70.5383 83.4222 70.2217 83.1955 69.825C82.9722 69.425 82.8605 68.9833 82.8605 68.5C82.8605 68.1333 82.9255 67.7917 83.0555 67.475C83.1855 67.155 83.3639 66.875 83.5905 66.635C83.8205 66.3917 84.0872 66.2017 84.3905 66.065C84.6939 65.9283 85.0172 65.86 85.3605 65.86C85.8205 65.86 86.2389 65.9783 86.6155 66.215C86.9955 66.4517 87.2972 66.77 87.5205 67.17C87.7472 67.57 87.8605 68.0133 87.8605 68.5C87.8605 68.8633 87.7955 69.2033 87.6655 69.52C87.5355 69.8367 87.3555 70.1167 87.1255 70.36C86.8989 70.6 86.6339 70.7883 86.3305 70.925C86.0305 71.0617 85.7072 71.13 85.3605 71.13ZM85.3605 69.91C85.6039 69.91 85.8222 69.845 86.0155 69.715C86.2089 69.585 86.3605 69.4133 86.4705 69.2C86.5839 68.9867 86.6405 68.7533 86.6405 68.5C86.6405 68.24 86.5822 68.0033 86.4655 67.79C86.3522 67.5733 86.1972 67.4017 86.0005 67.275C85.8072 67.145 85.5939 67.08 85.3605 67.08C85.1205 67.08 84.9039 67.145 84.7105 67.275C84.5172 67.405 84.3639 67.5783 84.2505 67.795C84.1372 68.0117 84.0805 68.2467 84.0805 68.5C84.0805 68.7633 84.1389 69.0017 84.2555 69.215C84.3722 69.4283 84.5272 69.5983 84.7205 69.725C84.9172 69.8483 85.1305 69.91 85.3605 69.91ZM91.4847 71H90.2747L88.6047 66H89.7997L90.8847 69.235L91.9647 66H93.1697L94.2497 69.235L95.3347 66H96.5297L94.8597 71H93.6497L92.5647 67.75L91.4847 71ZM99.7785 71.13C99.3185 71.13 98.8985 71.0117 98.5185 70.775C98.1418 70.5383 97.8402 70.22 97.6135 69.82C97.3902 69.42 97.2785 68.9783 97.2785 68.495C97.2785 68.1317 97.3435 67.7917 97.4735 67.475C97.6035 67.155 97.7818 66.875 98.0085 66.635C98.2385 66.3917 98.5052 66.2017 98.8085 66.065C99.1118 65.9283 99.4352 65.86 99.7785 65.86C100.169 65.86 100.525 65.9433 100.849 66.11C101.175 66.2733 101.452 66.4983 101.679 66.785C101.905 67.0717 102.07 67.3983 102.174 67.765C102.277 68.1317 102.3 68.515 102.244 68.915H98.5885C98.6352 69.1017 98.7118 69.27 98.8185 69.42C98.9252 69.5667 99.0602 69.685 99.2235 69.775C99.3868 69.8617 99.5718 69.9067 99.7785 69.91C99.9918 69.9133 100.185 69.8633 100.359 69.76C100.535 69.6533 100.682 69.51 100.799 69.33L102.044 69.62C101.84 70.0633 101.537 70.4267 101.134 70.71C100.73 70.99 100.279 71.13 99.7785 71.13ZM98.5485 68H101.009C100.972 67.8 100.894 67.62 100.774 67.46C100.657 67.2967 100.512 67.1667 100.339 67.07C100.165 66.9733 99.9785 66.925 99.7785 66.925C99.5785 66.925 99.3935 66.9733 99.2235 67.07C99.0535 67.1633 98.9085 67.2917 98.7885 67.455C98.6718 67.615 98.5918 67.7967 98.5485 68ZM103.562 71L103.557 66H104.777L104.782 66.445C104.952 66.265 105.155 66.1233 105.392 66.02C105.629 65.9133 105.884 65.86 106.157 65.86C106.34 65.86 106.524 65.8867 106.707 65.94L106.227 67.17C106.1 67.12 105.974 67.095 105.847 67.095C105.65 67.095 105.47 67.1433 105.307 67.24C105.147 67.3333 105.019 67.4617 104.922 67.625C104.829 67.785 104.782 67.9633 104.782 68.16V71H103.562ZM2.8 83.13C2.34 83.13 1.92 83.0117 1.54 82.775C1.16333 82.5383 0.861667 82.2217 0.635 81.825C0.411667 81.425 0.3 80.9833 0.3 80.5C0.3 80.1333 0.365 79.7917 0.495 79.475C0.625 79.155 0.803333 78.875 1.03 78.635C1.26 78.3917 1.52667 78.2017 1.83 78.065C2.13333 77.9283 2.45667 77.86 2.8 77.86C3.26 77.86 3.67833 77.9783 4.055 78.215C4.435 78.4517 4.73667 78.77 4.96 79.17C5.18667 79.57 5.3 80.0133 5.3 80.5C5.3 80.8633 5.235 81.2033 5.105 81.52C4.975 81.8367 4.795 82.1167 4.565 82.36C4.33833 82.6 4.07333 82.7883 3.77 82.925C3.47 83.0617 3.14667 83.13 2.8 83.13ZM2.8 81.91C3.04333 81.91 3.26167 81.845 3.455 81.715C3.64833 81.585 3.8 81.4133 3.91 81.2C4.02333 80.9867 4.08 80.7533 4.08 80.5C4.08 80.24 4.02167 80.0033 3.905 79.79C3.79167 79.5733 3.63667 79.4017 3.44 79.275C3.24667 79.145 3.03333 79.08 2.8 79.08C2.56 79.08 2.34333 79.145 2.15 79.275C1.95667 79.405 1.80333 79.5783 1.69 79.795C1.57667 80.0117 1.52 80.2467 1.52 80.5C1.52 80.7633 1.57833 81.0017 1.695 81.215C1.81167 81.4283 1.96667 81.5983 2.16 81.725C2.35667 81.8483 2.57 81.91 2.8 81.91ZM8.1107 76.95V78H9.4757V79.22H8.1107V83H6.8907V79.22H6.3457V78H6.8907V76.95C6.8907 76.6633 6.9607 76.4017 7.1007 76.165C7.24404 75.925 7.4357 75.735 7.6757 75.595C7.9157 75.4517 8.1807 75.38 8.4707 75.38C8.6807 75.38 8.88904 75.4233 9.0957 75.51C9.30237 75.5967 9.4857 75.73 9.6457 75.91L8.7657 76.77C8.7357 76.7133 8.69237 76.6717 8.6357 76.645C8.58237 76.615 8.52737 76.6 8.4707 76.6C8.37404 76.6 8.28904 76.635 8.2157 76.705C8.1457 76.7717 8.1107 76.8533 8.1107 76.95ZM13.7406 83V76H16.0606C16.544 76 16.9956 76.0917 17.4156 76.275C17.839 76.455 18.2106 76.7067 18.5306 77.03C18.854 77.35 19.1056 77.7217 19.2856 78.145C19.469 78.565 19.5606 79.0167 19.5606 79.5C19.5606 79.9833 19.469 80.4367 19.2856 80.86C19.1056 81.28 18.854 81.6517 18.5306 81.975C18.2106 82.295 17.839 82.5467 17.4156 82.73C16.9956 82.91 16.544 83 16.0606 83H13.7406ZM14.9606 81.78H16.0606C16.3706 81.78 16.6623 81.7217 16.9356 81.605C17.2123 81.485 17.4556 81.3217 17.6656 81.115C17.8756 80.905 18.0406 80.6633 18.1606 80.39C18.2806 80.1133 18.3406 79.8167 18.3406 79.5C18.3406 79.1833 18.2806 78.8883 18.1606 78.615C18.0406 78.3417 17.8756 78.1 17.6656 77.89C17.4556 77.68 17.214 77.5167 16.9406 77.4C16.6673 77.28 16.374 77.22 16.0606 77.22H14.9606V81.78ZM20.8813 78H22.1013V83H20.8813V78ZM21.5013 77.355C21.3213 77.355 21.1696 77.2967 21.0463 77.18C20.9229 77.06 20.8613 76.91 20.8613 76.73C20.8613 76.5533 20.9229 76.405 21.0463 76.285C21.1696 76.165 21.3196 76.105 21.4963 76.105C21.6729 76.105 21.8213 76.165 21.9413 76.285C22.0646 76.405 22.1263 76.5533 22.1263 76.73C22.1263 76.91 22.0663 77.06 21.9463 77.18C21.8263 77.2967 21.6779 77.355 21.5013 77.355ZM26.7419 83H25.1669L23.3469 77.995H24.6469L25.9569 81.595L27.2619 77.995H28.5619L26.7419 83ZM31.8059 83.13C31.3459 83.13 30.9259 83.0117 30.5459 82.775C30.1692 82.5383 29.8675 82.22 29.6409 81.82C29.4175 81.42 29.3059 80.9783 29.3059 80.495C29.3059 80.1317 29.3709 79.7917 29.5009 79.475C29.6309 79.155 29.8092 78.875 30.0359 78.635C30.2659 78.3917 30.5325 78.2017 30.8359 78.065C31.1392 77.9283 31.4625 77.86 31.8059 77.86C32.1959 77.86 32.5525 77.9433 32.8759 78.11C33.2025 78.2733 33.4792 78.4983 33.7059 78.785C33.9325 79.0717 34.0975 79.3983 34.2009 79.765C34.3042 80.1317 34.3275 80.515 34.2709 80.915H30.6159C30.6625 81.1017 30.7392 81.27 30.8459 81.42C30.9525 81.5667 31.0875 81.685 31.2509 81.775C31.4142 81.8617 31.5992 81.9067 31.8059 81.91C32.0192 81.9133 32.2125 81.8633 32.3859 81.76C32.5625 81.6533 32.7092 81.51 32.8259 81.33L34.0709 81.62C33.8675 82.0633 33.5642 82.4267 33.1609 82.71C32.7575 82.99 32.3059 83.13 31.8059 83.13ZM30.5759 80H33.0359C32.9992 79.8 32.9209 79.62 32.8009 79.46C32.6842 79.2967 32.5392 79.1667 32.3659 79.07C32.1925 78.9733 32.0059 78.925 31.8059 78.925C31.6059 78.925 31.4209 78.9733 31.2509 79.07C31.0809 79.1633 30.9359 79.2917 30.8159 79.455C30.6992 79.615 30.6192 79.7967 30.5759 80ZM35.5894 83L35.5844 78H36.8044L36.8094 78.445C36.9794 78.265 37.1827 78.1233 37.4194 78.02C37.656 77.9133 37.911 77.86 38.1844 77.86C38.3677 77.86 38.551 77.8867 38.7344 77.94L38.2544 79.17C38.1277 79.12 38.001 79.095 37.8744 79.095C37.6777 79.095 37.4977 79.1433 37.3344 79.24C37.1744 79.3333 37.046 79.4617 36.9494 79.625C36.856 79.785 36.8094 79.9633 36.8094 80.16V83H35.5894ZM41.2508 83.09C40.9908 83.0733 40.7391 83.0217 40.4958 82.935C40.2558 82.845 40.0424 82.7233 39.8558 82.57C39.6691 82.4167 39.5258 82.2333 39.4258 82.02L40.4558 81.58C40.4958 81.6467 40.5608 81.7183 40.6508 81.795C40.7408 81.8683 40.8474 81.93 40.9708 81.98C41.0974 82.03 41.2358 82.055 41.3858 82.055C41.5124 82.055 41.6324 82.0383 41.7458 82.005C41.8624 81.9683 41.9558 81.9133 42.0258 81.84C42.0991 81.7667 42.1358 81.6717 42.1358 81.555C42.1358 81.4317 42.0924 81.3367 42.0058 81.27C41.9224 81.2 41.8158 81.1483 41.6858 81.115C41.5591 81.0783 41.4358 81.045 41.3158 81.015C40.9991 80.9517 40.7041 80.8533 40.4308 80.72C40.1608 80.5867 39.9424 80.415 39.7758 80.205C39.6124 79.9917 39.5308 79.735 39.5308 79.435C39.5308 79.105 39.6174 78.82 39.7908 78.58C39.9674 78.34 40.1958 78.155 40.4758 78.025C40.7591 77.895 41.0641 77.83 41.3908 77.83C41.7874 77.83 42.1508 77.9133 42.4808 78.08C42.8141 78.2433 43.0774 78.475 43.2708 78.775L42.3058 79.345C42.2591 79.265 42.1941 79.1917 42.1108 79.125C42.0274 79.055 41.9324 78.9983 41.8258 78.955C41.7191 78.9083 41.6074 78.8817 41.4908 78.875C41.3408 78.8683 41.2041 78.8817 41.0808 78.915C40.9574 78.9483 40.8574 79.005 40.7808 79.085C40.7074 79.165 40.6708 79.2717 40.6708 79.405C40.6708 79.5317 40.7208 79.6267 40.8208 79.69C40.9208 79.75 41.0408 79.7967 41.1808 79.83C41.3241 79.8633 41.4608 79.9 41.5908 79.94C41.8841 80.0367 42.1591 80.155 42.4158 80.295C42.6758 80.435 42.8841 80.6067 43.0408 80.81C43.1974 81.0133 43.2724 81.2567 43.2658 81.54C43.2658 81.8633 43.1691 82.1467 42.9758 82.39C42.7824 82.63 42.5324 82.8133 42.2258 82.94C41.9224 83.0667 41.5974 83.1167 41.2508 83.09ZM44.5043 78H45.7243V83H44.5043V78ZM45.1243 77.355C44.9443 77.355 44.7926 77.2967 44.6693 77.18C44.546 77.06 44.4843 76.91 44.4843 76.73C44.4843 76.5533 44.546 76.405 44.6693 76.285C44.7926 76.165 44.9426 76.105 45.1193 76.105C45.296 76.105 45.4443 76.165 45.5643 76.285C45.6876 76.405 45.7493 76.5533 45.7493 76.73C45.7493 76.91 45.6893 77.06 45.5693 77.18C45.4493 77.2967 45.301 77.355 45.1243 77.355ZM50.1062 79.22H49.1362V83H47.9162V79.22H47.1762V78H47.9162V76.43H49.1362V78H50.1062V79.22ZM54.7448 78H56.0398L53.3048 85.5H52.0098L52.9148 83L51.1148 78H52.4498L53.5248 81.33L54.7448 78ZM64.2098 78H65.4298V83H64.2098L64.1548 82.38C64.0182 82.6033 63.8365 82.785 63.6098 82.925C63.3865 83.0617 63.1215 83.13 62.8148 83.13C62.4448 83.13 62.0982 83.06 61.7748 82.92C61.4515 82.78 61.1665 82.5867 60.9198 82.34C60.6765 82.0933 60.4848 81.8083 60.3448 81.485C60.2082 81.1617 60.1398 80.815 60.1398 80.445C60.1398 80.0883 60.2048 79.7533 60.3348 79.44C60.4682 79.1267 60.6532 78.8517 60.8898 78.615C61.1265 78.3783 61.3998 78.1933 61.7098 78.06C62.0198 77.9267 62.3532 77.86 62.7098 77.86C63.0398 77.86 63.3348 77.9333 63.5948 78.08C63.8582 78.2267 64.0815 78.4133 64.2648 78.64L64.2098 78ZM62.7848 81.955C63.0448 81.955 63.2748 81.89 63.4748 81.76C63.6748 81.63 63.8315 81.455 63.9448 81.235C64.0582 81.0117 64.1148 80.7667 64.1148 80.5C64.1148 80.23 64.0582 79.985 63.9448 79.765C63.8315 79.5417 63.6732 79.365 63.4698 79.235C63.2698 79.105 63.0415 79.04 62.7848 79.04C62.5282 79.04 62.2932 79.1067 62.0798 79.24C61.8698 79.37 61.7015 79.545 61.5748 79.765C61.4515 79.985 61.3898 80.23 61.3898 80.5C61.3898 80.77 61.4532 81.015 61.5798 81.235C61.7065 81.455 61.8748 81.63 62.0848 81.76C62.2982 81.89 62.5315 81.955 62.7848 81.955ZM71.5062 79.84V83H70.2862V80.16C70.2862 79.9633 70.2378 79.785 70.1412 79.625C70.0445 79.4617 69.9145 79.3333 69.7512 79.24C69.5912 79.1433 69.4128 79.095 69.2162 79.095C69.0195 79.095 68.8395 79.1433 68.6762 79.24C68.5162 79.3333 68.3878 79.4617 68.2912 79.625C68.1978 79.785 68.1512 79.9633 68.1512 80.16V83H66.9312L66.9262 78H68.1462L68.1512 78.445C68.3212 78.265 68.5245 78.1233 68.7612 78.02C68.9978 77.9133 69.2528 77.86 69.5262 77.86C69.8895 77.86 70.2212 77.95 70.5212 78.13C70.8212 78.3067 71.0595 78.545 71.2362 78.845C71.4162 79.1417 71.5062 79.4733 71.5062 79.84ZM76.6847 75.5H77.9047V83H76.6847V82.375C76.5247 82.5983 76.323 82.78 76.0797 82.92C75.8364 83.06 75.5547 83.13 75.2347 83.13C74.8714 83.13 74.5314 83.0617 74.2147 82.925C73.898 82.7883 73.618 82.6 73.3747 82.36C73.1347 82.1167 72.9464 81.8367 72.8097 81.52C72.673 81.2033 72.6047 80.8633 72.6047 80.5C72.6047 80.1367 72.673 79.7967 72.8097 79.48C72.9464 79.1633 73.1347 78.885 73.3747 78.645C73.618 78.4017 73.898 78.2117 74.2147 78.075C74.5314 77.9383 74.8714 77.87 75.2347 77.87C75.5547 77.87 75.8364 77.94 76.0797 78.08C76.323 78.2167 76.5247 78.3983 76.6847 78.625V75.5ZM75.2497 81.955C75.5097 81.955 75.7397 81.89 75.9397 81.76C76.1397 81.63 76.2964 81.455 76.4097 81.235C76.523 81.0117 76.5797 80.7667 76.5797 80.5C76.5797 80.23 76.523 79.985 76.4097 79.765C76.2964 79.5417 76.138 79.365 75.9347 79.235C75.7347 79.105 75.5064 79.04 75.2497 79.04C74.993 79.04 74.758 79.1067 74.5447 79.24C74.3347 79.37 74.1664 79.545 74.0397 79.765C73.9164 79.985 73.8547 80.23 73.8547 80.5C73.8547 80.77 73.918 81.015 74.0447 81.235C74.1714 81.455 74.3397 81.63 74.5497 81.76C74.763 81.89 74.9964 81.955 75.2497 81.955ZM82.5082 83V76H86.8982V77.22H83.7282V78.64H86.2432V79.86H83.7282V81.78H86.8982V83H82.5082ZM88.0133 83L89.8433 80.49L88.0283 77.995H89.5333L90.5933 79.45L91.6583 77.995H93.1633L91.3483 80.49L93.1783 83H91.6733L90.5933 81.52L89.5183 83H88.0133ZM95.6755 85.5H94.4555V78H95.6755V78.635C95.8388 78.4083 96.0388 78.225 96.2755 78.085C96.5155 77.9417 96.7955 77.87 97.1155 77.87C97.4821 77.87 97.8238 77.9383 98.1405 78.075C98.4571 78.2117 98.7355 78.4017 98.9755 78.645C99.2188 78.885 99.4071 79.1633 99.5405 79.48C99.6771 79.7967 99.7455 80.1367 99.7455 80.5C99.7455 80.8633 99.6771 81.205 99.5405 81.525C99.4071 81.845 99.2188 82.1267 98.9755 82.37C98.7355 82.61 98.4571 82.7983 98.1405 82.935C97.8238 83.0717 97.4821 83.14 97.1155 83.14C96.7955 83.14 96.5155 83.07 96.2755 82.93C96.0388 82.7867 95.8388 82.6017 95.6755 82.375V85.5ZM97.1005 79.045C96.8471 79.045 96.6205 79.1117 96.4205 79.245C96.2205 79.375 96.0638 79.55 95.9505 79.77C95.8371 79.99 95.7805 80.2333 95.7805 80.5C95.7805 80.7667 95.8371 81.0117 95.9505 81.235C96.0638 81.455 96.2205 81.6317 96.4205 81.765C96.6205 81.895 96.8471 81.96 97.1005 81.96C97.3571 81.96 97.5921 81.895 97.8055 81.765C98.0188 81.635 98.1888 81.46 98.3155 81.24C98.4421 81.0167 98.5055 80.77 98.5055 80.5C98.5055 80.2333 98.4421 79.99 98.3155 79.77C98.1888 79.55 98.0188 79.375 97.8055 79.245C97.5955 79.1117 97.3605 79.045 97.1005 79.045ZM103.249 83.13C102.789 83.13 102.369 83.0117 101.989 82.775C101.613 82.5383 101.311 82.22 101.084 81.82C100.861 81.42 100.749 80.9783 100.749 80.495C100.749 80.1317 100.814 79.7917 100.944 79.475C101.074 79.155 101.253 78.875 101.479 78.635C101.709 78.3917 101.976 78.2017 102.279 78.065C102.583 77.9283 102.906 77.86 103.249 77.86C103.639 77.86 103.996 77.9433 104.319 78.11C104.646 78.2733 104.923 78.4983 105.149 78.785C105.376 79.0717 105.541 79.3983 105.644 79.765C105.748 80.1317 105.771 80.515 105.714 80.915H102.059C102.106 81.1017 102.183 81.27 102.289 81.42C102.396 81.5667 102.531 81.685 102.694 81.775C102.858 81.8617 103.043 81.9067 103.249 81.91C103.463 81.9133 103.656 81.8633 103.829 81.76C104.006 81.6533 104.153 81.51 104.269 81.33L105.514 81.62C105.311 82.0633 105.008 82.4267 104.604 82.71C104.201 82.99 103.749 83.13 103.249 83.13ZM102.019 80H104.479C104.443 79.8 104.364 79.62 104.244 79.46C104.128 79.2967 103.983 79.1667 103.809 79.07C103.636 78.9733 103.449 78.925 103.249 78.925C103.049 78.925 102.864 78.9733 102.694 79.07C102.524 79.1633 102.379 79.2917 102.259 79.455C102.143 79.615 102.063 79.7967 102.019 80ZM107.033 83L107.028 78H108.248L108.253 78.445C108.423 78.265 108.626 78.1233 108.863 78.02C109.099 77.9133 109.354 77.86 109.628 77.86C109.811 77.86 109.994 77.8867 110.178 77.94L109.698 79.17C109.571 79.12 109.444 79.095 109.318 79.095C109.121 79.095 108.941 79.1433 108.778 79.24C108.618 79.3333 108.489 79.4617 108.393 79.625C108.299 79.785 108.253 79.9633 108.253 80.16V83H107.033ZM114.055 79.22H113.085V83H111.865V79.22H111.125V78H111.865V76.43H113.085V78H114.055V79.22ZM115.381 78H116.601V83H115.381V78ZM116.001 77.355C115.821 77.355 115.67 77.2967 115.546 77.18C115.423 77.06 115.361 76.91 115.361 76.73C115.361 76.5533 115.423 76.405 115.546 76.285C115.67 76.165 115.82 76.105 115.996 76.105C116.173 76.105 116.321 76.165 116.441 76.285C116.565 76.405 116.626 76.5533 116.626 76.73C116.626 76.91 116.566 77.06 116.446 77.18C116.326 77.2967 116.178 77.355 116.001 77.355ZM119.7 83.09C119.44 83.0733 119.188 83.0217 118.945 82.935C118.705 82.845 118.492 82.7233 118.305 82.57C118.118 82.4167 117.975 82.2333 117.875 82.02L118.905 81.58C118.945 81.6467 119.01 81.7183 119.1 81.795C119.19 81.8683 119.297 81.93 119.42 81.98C119.547 82.03 119.685 82.055 119.835 82.055C119.962 82.055 120.082 82.0383 120.195 82.005C120.312 81.9683 120.405 81.9133 120.475 81.84C120.548 81.7667 120.585 81.6717 120.585 81.555C120.585 81.4317 120.542 81.3367 120.455 81.27C120.372 81.2 120.265 81.1483 120.135 81.115C120.008 81.0783 119.885 81.045 119.765 81.015C119.448 80.9517 119.153 80.8533 118.88 80.72C118.61 80.5867 118.392 80.415 118.225 80.205C118.062 79.9917 117.98 79.735 117.98 79.435C117.98 79.105 118.067 78.82 118.24 78.58C118.417 78.34 118.645 78.155 118.925 78.025C119.208 77.895 119.513 77.83 119.84 77.83C120.237 77.83 120.6 77.9133 120.93 78.08C121.263 78.2433 121.527 78.475 121.72 78.775L120.755 79.345C120.708 79.265 120.643 79.1917 120.56 79.125C120.477 79.055 120.382 78.9983 120.275 78.955C120.168 78.9083 120.057 78.8817 119.94 78.875C119.79 78.8683 119.653 78.8817 119.53 78.915C119.407 78.9483 119.307 79.005 119.23 79.085C119.157 79.165 119.12 79.2717 119.12 79.405C119.12 79.5317 119.17 79.6267 119.27 79.69C119.37 79.75 119.49 79.7967 119.63 79.83C119.773 79.8633 119.91 79.9 120.04 79.94C120.333 80.0367 120.608 80.155 120.865 80.295C121.125 80.435 121.333 80.6067 121.49 80.81C121.647 81.0133 121.722 81.2567 121.715 81.54C121.715 81.8633 121.618 82.1467 121.425 82.39C121.232 82.63 120.982 82.8133 120.675 82.94C120.372 83.0667 120.047 83.1167 119.7 83.09ZM125.193 83.13C124.733 83.13 124.313 83.0117 123.933 82.775C123.556 82.5383 123.254 82.22 123.028 81.82C122.804 81.42 122.693 80.9783 122.693 80.495C122.693 80.1317 122.758 79.7917 122.888 79.475C123.018 79.155 123.196 78.875 123.423 78.635C123.653 78.3917 123.919 78.2017 124.223 78.065C124.526 77.9283 124.849 77.86 125.193 77.86C125.583 77.86 125.939 77.9433 126.263 78.11C126.589 78.2733 126.866 78.4983 127.093 78.785C127.319 79.0717 127.484 79.3983 127.588 79.765C127.691 80.1317 127.714 80.515 127.658 80.915H124.003C124.049 81.1017 124.126 81.27 124.233 81.42C124.339 81.5667 124.474 81.685 124.638 81.775C124.801 81.8617 124.986 81.9067 125.193 81.91C125.406 81.9133 125.599 81.8633 125.773 81.76C125.949 81.6533 126.096 81.51 126.213 81.33L127.458 81.62C127.254 82.0633 126.951 82.4267 126.548 82.71C126.144 82.99 125.693 83.13 125.193 83.13ZM123.963 80H126.423C126.386 79.8 126.308 79.62 126.188 79.46C126.071 79.2967 125.926 79.1667 125.753 79.07C125.579 78.9733 125.393 78.925 125.193 78.925C124.993 78.925 124.808 78.9733 124.638 79.07C124.468 79.1633 124.323 79.2917 124.203 79.455C124.086 79.615 124.006 79.7967 123.963 80Z" fill="black"/>
</svg>
